<svg id="圖層_1" data-name="圖層 1" xmlns="http://www.w3.org/2000/svg" xmlns:xlink="http://www.w3.org/1999/xlink" viewBox="0 0 150 150"><defs><style>.cls-1{fill:url(#未命名漸層_5);}.cls-2{fill:url(#未命名漸層_2);}.cls-3{fill:url(#未命名漸層_3);}.cls-4{fill:url(#未命名漸層_4);}.cls-5{fill:#fff;}</style><linearGradient id="未命名漸層_5" x1="49.42" y1="-676.19" x2="127.82" y2="-628.87" gradientTransform="matrix(1, 0, 0, -1, 0, -546)" gradientUnits="userSpaceOnUse"><stop offset="0" stop-color="#fcee39"/><stop offset="1" stop-color="#f37b3d"/></linearGradient><linearGradient id="未命名漸層_2" x1="65.99" y1="-562.57" x2="137.55" y2="-625.22" gradientTransform="matrix(1, 0, 0, -1, 0, -546)" gradientUnits="userSpaceOnUse"><stop offset="0" stop-color="#ef5a6b"/><stop offset="0.57" stop-color="#f26f4e"/><stop offset="1" stop-color="#f37b3d"/></linearGradient><linearGradient id="未命名漸層_3" x1="70.54" y1="-619.36" x2="28.13" y2="-592.87" gradientTransform="matrix(1, 0, 0, -1, 0, -546)" gradientUnits="userSpaceOnUse"><stop offset="0" stop-color="#7c59a4"/><stop offset="0.39" stop-color="#af4c92"/><stop offset="0.77" stop-color="#dc4183"/><stop offset="0.96" stop-color="#ed3d7d"/></linearGradient><linearGradient id="未命名漸層_4" x1="69.77" y1="-559.37" x2="28.37" y2="-593.57" gradientTransform="matrix(1, 0, 0, -1, 0, -546)" gradientUnits="userSpaceOnUse"><stop offset="0" stop-color="#ef5a6b"/><stop offset="0.36" stop-color="#ee4e72"/><stop offset="1" stop-color="#ed3d7d"/></linearGradient></defs><path class="cls-1" d="M136.21,81.49a4.62,4.62,0,0,0,1.5-3.2,4.68,4.68,0,0,0-4.4-4.9,4.88,4.88,0,0,0-3.3,1.1h0l-83.8,45.9a9.82,9.82,0,0,0-4.7,4.1,10.07,10.07,0,0,0,3.6,13.9,10.29,10.29,0,0,0,10.7-.2h0c.2-.2.5-.3.7-.5l78-54.8a12.7,12.7,0,0,0,1.7-1.4Z"/><path class="cls-2" d="M136.41,74.79h0l-63.8-62.6a7.71,7.71,0,0,0-13.4,5.2h0a7.66,7.66,0,0,0,2.1,5.3h0a10.59,10.59,0,0,0,1.2,1l67.4,57.7h0a5.15,5.15,0,0,0,3,1.3,4.68,4.68,0,0,0,4.9-4.4A5,5,0,0,0,136.41,74.79Z"/><path class="cls-3" d="M74.71,69.19c-.1,0-39.4-31-40.2-31.5h0l-1.8-.9a11.19,11.19,0,0,0-9.8,20h0a8.82,8.82,0,0,0,2,.9c.4.2,45.4,18.8,45.4,18.8h0a4.29,4.29,0,0,0,4.4-7.3Z"/><path class="cls-4" d="M66.91,9.69a8.15,8.15,0,0,0-4.6,1.5L22.51,38c-.1.1-.2.1-.2.2h-.1a11.14,11.14,0,0,0,2.7,19.5,11,11,0,0,0,10.4-1.4h0a9.34,9.34,0,0,0,1.8-1.6l34.6-31.2h0a7.72,7.72,0,0,0,3-6.1h0A7.79,7.79,0,0,0,66.91,9.69Z"/><rect x="52.21" y="47.09" width="51" height="51"/><rect class="cls-5" x="56.61" y="88.49" width="19.1" height="3.2"/><path class="cls-5" d="M56.41,60.49l1.5-1.4a1.7,1.7,0,0,0,1.3.8q.9,0,.9-1.2v-5.3h2.3v5.3a2.8,2.8,0,0,1-3.1,3.1A3,3,0,0,1,56.41,60.49Z"/><path class="cls-5" d="M62.91,53.49h6.7v1.9h-4.4v1.3h4v1.8h-4v1.3h4.5v2H63Z"/><path class="cls-5" d="M72.61,55.49h-2.5v-2h7.3v2h-2.5v6.3h-2.3Z"/><path class="cls-5" d="M56.61,63.69h4.3a3.7,3.7,0,0,1,2.3.7,2,2,0,0,1,.5,1.4h0a2,2,0,0,1-1.3,1.9,2,2,0,0,1,1.6,2h0c0,1.4-1.2,2.3-3.1,2.3h-4.3Zm4.8,2.6c0-.5-.4-.7-1-.7h-1.5v1.5h1.4c.7-.1,1.1-.3,1.1-.8Zm-.8,2.4h-1.8v1.5h1.8c.7,0,1.1-.3,1.1-.8h0C61.71,68.89,61.31,68.69,60.61,68.69Z"/><path class="cls-5" d="M64.41,63.69h3.9a3.51,3.51,0,0,1,2.7.9,2.49,2.49,0,0,1,.7,1.9h0a2.76,2.76,0,0,1-1.7,2.6L72,72h-2.6l-1.7-2.5h-1V72h-2.3Zm3.8,4c.8,0,1.2-.4,1.2-1h0c0-.7-.5-1-1.2-1h-1.5v2Z"/><path class="cls-5" d="M74.41,63.69h2.2l3.5,8.4h-2.5l-.6-1.5h-3.2l-.6,1.5h-2.4Zm2,5-.9-2.3-.9,2.3Z"/><path class="cls-5" d="M80.41,63.69h2.3V72h-2.3Z"/><path class="cls-5" d="M83.31,63.69h2.1l3.4,4.4v-4.4h2.3V72h-2l-3.5-4.5v4.6h-2.3Z"/><path class="cls-5" d="M91.31,70.79l1.3-1.5a3.94,3.94,0,0,0,2.7,1c.6,0,1-.2,1-.6h0c0-.4-.3-.5-1.4-.8-1.8-.4-3.1-.9-3.1-2.6h0c0-1.5,1.2-2.7,3.2-2.7a5.33,5.33,0,0,1,3.4,1.1l-1.2,1.6a4.55,4.55,0,0,0-2.3-.8c-.6,0-.8.2-.8.5h0c0,.4.3.5,1.4.8,1.9.4,3.1,1,3.1,2.6h0c0,1.7-1.3,2.7-3.4,2.7A5.29,5.29,0,0,1,91.31,70.79Z"/></svg>