<svg id="圖層_1" data-name="圖層 1" xmlns="http://www.w3.org/2000/svg" xmlns:xlink="http://www.w3.org/1999/xlink" viewBox="0 0 150 150"><defs><style>.cls-1{fill:none;}.cls-2{clip-path:url(#clip-path);}</style><clipPath id="clip-path"><rect class="cls-1" x="-45" y="-21" width="240" height="192.81"/></clipPath></defs><g class="cls-2"><g class="cls-2"><path d="M31.54,87.63H11.29a2.74,2.74,0,0,1-2.74-2.74V64.64a2.74,2.74,0,0,1,2.74-2.74H31.54a2.74,2.74,0,0,1,2.74,2.74V84.89a2.74,2.74,0,0,1-2.74,2.74M11.29,62.69a2,2,0,0,0-1.95,2V84.89a2,2,0,0,0,1.95,2H31.54a2,2,0,0,0,2-2V64.64a2,2,0,0,0-2-2Z"/><rect x="12.27" y="68.95" width="1.66" height="1.66"/><rect x="12.27" y="65.62" width="1.66" height="1.66"/><rect x="15.6" y="68.95" width="1.66" height="1.66"/><rect x="15.6" y="65.62" width="1.66" height="1.66"/><rect x="18.92" y="82.25" width="1.66" height="1.66"/><rect x="18.92" y="78.92" width="1.66" height="1.66"/><rect x="18.92" y="75.6" width="1.66" height="1.66"/><rect x="18.92" y="72.27" width="1.66" height="1.66"/><rect x="18.92" y="68.95" width="1.66" height="1.66"/><rect x="18.92" y="65.62" width="1.66" height="1.66"/><rect x="22.25" y="82.25" width="1.66" height="1.66"/><rect x="22.25" y="78.92" width="1.66" height="1.66"/><rect x="22.25" y="75.6" width="1.66" height="1.66"/><rect x="22.25" y="72.27" width="1.66" height="1.66"/><rect x="22.25" y="68.95" width="1.66" height="1.66"/><rect x="22.25" y="65.62" width="1.66" height="1.66"/><rect x="25.57" y="68.95" width="1.66" height="1.66"/><rect x="25.57" y="65.62" width="1.66" height="1.66"/><rect x="28.9" y="68.95" width="1.66" height="1.66"/><rect x="28.9" y="65.62" width="1.66" height="1.66"/><path d="M66.25,87.48h1.23V84.7H76v2.78h1.22V78.16H66.25Zm1.23-7.31H76v2.52H67.48Zm-28.08,0h4.51v7.31h1.23V80.17h4.52v-2H39.4Zm14.87,0h4.51v7.31H60V80.17h4.52v-2H54.27Zm-3,7.31h1.23V78.16H51.31ZM91.7,83.85h9.48v1.62H91.7v2h10.71V81.84H92.92V80.17h9.49v-2H91.7Zm12.58,3.63h10.93V78.16H104.28Zm1.23-7.31H114v5.3h-8.47ZM78.89,87.48h1.23V80.17H88.6v7.31h1.22V78.16H78.89Zm50.73-9.32v2h4.51v7.31h1.23V80.17h4.52v-2ZM117,87.48h1.23V83.82h9.48v-2h-9.48V80.17h9.48v-2H117Z"/><path d="M57.05,64.64c0,2,0,3.87-.13,5.73a22.45,22.45,0,0,1-.26,3.24,1.33,1.33,0,0,1-.5.68,2,2,0,0,1-1.13.25q-.39,0-.78,0l-.31-1.19c.34,0,.61,0,.82,0,.52,0,.83-.17.91-.51s.17-2.69.26-7H54.28a19.89,19.89,0,0,1-1.94,8.81l-.94-.72a17.27,17.27,0,0,0,1.78-8.09H51.7V64.64h1.51V62.76h1.1v1.88Zm5,9.91H61v-.94h-2v.92H57.87V63.78h4.18ZM61,65h-2v7.45h2Z"/><path d="M67.56,67.36H66.34v3.29c.38-.19.73-.38,1-.55l0,1.22A22.65,22.65,0,0,1,64.06,73l-.29-1.13c.66-.28,1.15-.5,1.47-.65V67.36H64V66.2h1.25V62.75h1.1V66.2h1.22Zm7.09,6.41L74,74.7a11.68,11.68,0,0,1-2.61-1.87,10.34,10.34,0,0,1-2.65,1.78l-.78-1A8.78,8.78,0,0,0,70.59,72,7.86,7.86,0,0,1,69,68.75a9,9,0,0,1-2,5.9l-.92-.72a7.44,7.44,0,0,0,1.39-2.37A9.94,9.94,0,0,0,68,68V64h2.75V62.77h1.08V64h2.8a8,8,0,0,1-.94,3.14l-1-.48a3.18,3.18,0,0,0,.61-1.52H71.79V67.6h2.27a8,8,0,0,1-2,4.4,9.44,9.44,0,0,0,2.54,1.77m-3.94-8.64H69.07V67.6h1.64Zm2.08,3.62H70.16a6.4,6.4,0,0,0,1.21,2.41,6.31,6.31,0,0,0,1.42-2.41"/><path d="M96.86,65l-.62.95a12.26,12.26,0,0,0-2-1.79,12.77,12.77,0,0,1-1.44,1.74H96v1.11H94.72v1H96.5v1.09H94.72v3.39a11.75,11.75,0,0,0,1.58-.48l.1,1.12a38.39,38.39,0,0,1-4.47,1.26l-.21-1.08c.54-.11,1.18-.27,1.94-.49V69.15H91.92V68.06h1.74v-1H92.51v-.82a3,3,0,0,1-.51.42l-.39-1.15a10.1,10.1,0,0,0,2.3-2.79L95,63a1.17,1.17,0,0,1-.17.31,14.17,14.17,0,0,1,2,1.75m-3.61,7.43-.9.25A20.48,20.48,0,0,0,91.87,70l.9-.25a15.12,15.12,0,0,1,.48,2.71M96.42,70a7.78,7.78,0,0,1-.54,2L95,71.76a16.13,16.13,0,0,0,.49-2.06Zm6.21,3.74-.76.93a15.35,15.35,0,0,1-2.4-5.41,17.18,17.18,0,0,1-.76,2.3,18,18,0,0,1,1.62,1.88l-.79.77a13.79,13.79,0,0,0-1.28-1.63,13,13,0,0,1-1.36,2.09l-.76-.85a12,12,0,0,0,2.61-6.71H96.66V66h2.12c0-.88.07-2,.08-3.21h1.08c0,1.56,0,2.63,0,3.21h2.58v1.17H100a15.31,15.31,0,0,0,2.59,6.63"/><path d="M108.11,71.8a29.42,29.42,0,0,1-3.68,1.81l-.32-1.14c.52-.2,1-.41,1.5-.64V67.34h-1.34V66.18h1.34V62.77h1.1v3.41H108v1.16h-1.29v3.92a12.73,12.73,0,0,0,1.4-.72Zm7.07,2.42h-7.3V73.09h7.3Zm-.64-2.79h-5.88V63.06h5.88Zm-1.11-7.23h-3.65v2.4h3.65Zm0,3.53h-3.65v2.58h3.65Z"/><path d="M121.86,63.67a10.1,10.1,0,0,1-1.84.48V65.9h1.56V67H120v.38a14,14,0,0,1,1.66,2.29l-.77.89A11.64,11.64,0,0,0,120,69v5.58H119V69.19a10.48,10.48,0,0,1-1.68,2.69l-.63-1.07A12.57,12.57,0,0,0,118.89,67h-2.13V65.9H119V64.34a14.34,14.34,0,0,1-1.65.19l-.47-1.09a18.19,18.19,0,0,0,4.49-.78Zm5.69,7.68-1.15.19v3h-1.09l-.08-2.85-3.87.59,0-1.2,4-.61v-7.7h1.09v7.54l1.12-.15Zm-2.79-2.62-.74.91a12,12,0,0,0-2.32-2.32l.72-.88a14.21,14.21,0,0,1,2.34,2.29m.18-3.27-.75.88A15.23,15.23,0,0,0,122,64.13l.76-.85a15.94,15.94,0,0,1,2.17,2.18"/><path d="M132.94,68.79c-.47.23-.9.43-1.29.59V73.3a1.39,1.39,0,0,1-.26.89,1.11,1.11,0,0,1-.87.33c-.41,0-.76,0-1.05,0l-.35-1.17,1.13,0a.33.33,0,0,0,.22-.11.39.39,0,0,0,.1-.26V69.83c-.45.17-.92.33-1.41.47l-.3-1.11c.77-.26,1.35-.46,1.71-.62v-2.5H129V64.92h1.57V62.74h1.08v2.18h1.14v1.15h-1.14v2a6.92,6.92,0,0,0,1.06-.49Zm6.89,4.87-.63,1a12.18,12.18,0,0,1-2.9-1.86,12.81,12.81,0,0,1-3.18,1.86l-.61-1.08a11.34,11.34,0,0,0,3-1.59,10.78,10.78,0,0,1-2.11-3.48V67.38h2.39V65.63h-2.63V64.5h2.63V62.78h1.11V64.5h2.6v1.13h-2.6v1.75h2.29v1.14a10.22,10.22,0,0,1-2.07,3.5,9.57,9.57,0,0,0,2.7,1.64M138,68.52h-3.37a8.86,8.86,0,0,0,1.76,2.7,8.39,8.39,0,0,0,1.61-2.7"/><path d="M84.22,70.15H78.88v2.94h5.34Zm-1.06,1.9H80v-.89h3.2Z"/><path d="M84.31,65.12h2.63V64H82.08v-1.2H81V64H76.1v1.13h2.59l.48,1.14H76.66v8.3h1.08V67.35h2c0,.9-.61,1.45-1.8,1.66l.53,1a2.57,2.57,0,0,0,2.31-2.67h1.42v1.27a.85.85,0,0,0,.24.58.73.73,0,0,0,.53.26h2.32v3.69a.24.24,0,0,1-.12.24,3,3,0,0,1-.84.06l-.58,0,.34,1.12.76,0a2.19,2.19,0,0,0,.85-.11,1.08,1.08,0,0,0,.46-.4,1.24,1.24,0,0,0,.2-.69V66.26H83.88l.18-.48Zm1,3.33H83.47a.14.14,0,0,1-.12-.08.21.21,0,0,1-.07-.13v-.89h2Zm-5.07-2.19-.44-1.14h3.41l-.45,1.14Z"/><path d="M45.29,68.93H43V67.87h2.12V66.79H43.94l.36-1.66H45V64H43v-1.2H41.93V64H39.78v1.14h.72l.41,1.66H39.73v1.08h2.15v1.06H39.6v1.12h2.34v4.5h1V70h2.32ZM41.9,66.79l-.38-1.66h1.8l-.39,1.66Z"/><path d="M46.91,66.78v-2a14.94,14.94,0,0,0,3.15-1l-.76-1a12.25,12.25,0,0,1-3.49,1v4.52a9.79,9.79,0,0,1-1.21,5.43l.9.81c.92-1.33,1.39-3.66,1.41-6.73h1.25v6.71h1.08V67.82h1.12v-1Z"/><path d="M44.15,70.41l-.9.45a9.63,9.63,0,0,1,.78,2l.87-.54a7.64,7.64,0,0,0-.75-1.88"/><path d="M39.44,72.94l.87.72A12.57,12.57,0,0,0,41.49,71l-.94-.48a10.45,10.45,0,0,1-1.11,2.39"/></g></g></svg>