<svg width="87" height="79" viewBox="0 0 87 79" version="1.1" xmlns="http://www.w3.org/2000/svg" xmlns:xlink="http://www.w3.org/1999/xlink">
<title>Group</title>
<desc>Created using Figma</desc>
<g id="Canvas" transform="translate(-649 -155)">
<g id="Group">
<g id="qr-code">
<g id="Vector">
<use xlink:href="#path0_fill" transform="translate(685.992 192.457)" fill="#FFFFFF"/>
</g>
<g id="Vector">
<use xlink:href="#path1_fill" transform="translate(688.647 195.096)" fill="#FFFFFF"/>
</g>
<g id="Vector">
<use xlink:href="#path2_fill" transform="translate(685.992 205.652)" fill="#FFFFFF"/>
</g>
<g id="Vector">
<use xlink:href="#path1_fill" transform="translate(688.647 208.291)" fill="#FFFFFF"/>
</g>
<g id="Vector">
<use xlink:href="#path3_fill" transform="translate(699.265 192.457)" fill="#FFFFFF"/>
</g>
<g id="Vector">
<use xlink:href="#path1_fill" transform="translate(701.919 195.096)" fill="#FFFFFF"/>
</g>
<g id="Vector">
<use xlink:href="#path4_fill" transform="translate(685.992 201.693)" fill="#FFFFFF"/>
</g>
<g id="Vector">
<use xlink:href="#path1_fill" transform="translate(695.283 204.332)" fill="#FFFFFF"/>
</g>
<g id="Vector">
<use xlink:href="#path5_fill" transform="translate(689.974 201.693)" fill="#FFFFFF"/>
</g>
<g id="Vector">
<use xlink:href="#path6_fill" transform="translate(695.283 208.291)" fill="#FFFFFF"/>
</g>
<g id="Vector">
<use xlink:href="#path7_fill" transform="translate(692.628 201.693)" fill="#FFFFFF"/>
</g>
<g id="Vector">
<use xlink:href="#path8_fill" transform="translate(696.61 197.735)" fill="#FFFFFF"/>
</g>
<g id="Vector">
<use xlink:href="#path9_fill" transform="translate(696.61 201.693)" fill="#FFFFFF"/>
</g>
<g id="Vector">
<use xlink:href="#path10_fill" transform="translate(695.283 200.374)" fill="#FFFFFF"/>
</g>
<g id="Vector">
<use xlink:href="#path1_fill" transform="translate(697.938 210.93)" fill="#FFFFFF"/>
</g>
<g id="Vector">
<use xlink:href="#path8_fill" transform="translate(695.283 210.93)" fill="#FFFFFF"/>
</g>
<g id="Vector">
<use xlink:href="#path10_fill" transform="translate(697.938 206.971)" fill="#FFFFFF"/>
</g>
<g id="Vector">
<use xlink:href="#path11_fill" transform="translate(695.283 192.457)" fill="#FFFFFF"/>
</g>
<g id="Vector">
<use xlink:href="#path8_fill" transform="translate(701.919 210.93)" fill="#FFFFFF"/>
</g>
<g id="Vector">
<use xlink:href="#path5_fill" transform="translate(701.919 208.291)" fill="#FFFFFF"/>
</g>
<g id="Vector">
<use xlink:href="#path10_fill" transform="translate(700.592 209.61)" fill="#FFFFFF"/>
</g>
<g id="Vector">
<use xlink:href="#path10_fill" transform="translate(699.265 208.291)" fill="#FFFFFF"/>
</g>
<g id="Vector">
<use xlink:href="#path12_fill" transform="translate(704.574 205.652)" fill="#FFFFFF"/>
</g>
<g id="Vector">
<use xlink:href="#path13_fill" transform="translate(704.574 209.61)" fill="#FFFFFF"/>
</g>
<g id="Vector">
<use xlink:href="#path14_fill" transform="translate(699.265 204.332)" fill="#FFFFFF"/>
</g>
<g id="Vector">
<use xlink:href="#path15_fill" transform="translate(701.919 201.693)" fill="#FFFFFF"/>
</g>
</g>
<g id="Group">
<g id="Group">
<g id="Vector">
<use xlink:href="#path16_fill" transform="translate(714.309 196.45)" fill="#FFFFFF"/>
<mask id="mask0_outline_ins">
<use xlink:href="#path16_fill" fill="white" transform="translate(714.309 196.45)"/>
</mask>
<g mask="url(#mask0_outline_ins)">
<use xlink:href="#path17_stroke_2x" transform="translate(714.309 196.45)" fill="#FFFFFF"/>
</g>
</g>
<g id="Vector">
<use xlink:href="#path18_fill" transform="translate(649 196.631)" fill="#FFFFFF"/>
<mask id="mask1_outline_ins">
<use xlink:href="#path18_fill" fill="white" transform="translate(649 196.631)"/>
</mask>
<g mask="url(#mask1_outline_ins)">
<use xlink:href="#path19_stroke_2x" transform="translate(649 196.631)" fill="#FFFFFF"/>
</g>
</g>
<g id="Vector">
<use xlink:href="#path20_fill" transform="translate(678.016 193.003)" fill="#FFFFFF"/>
<mask id="mask2_outline_ins">
<use xlink:href="#path20_fill" fill="white" transform="translate(678.016 193.003)"/>
</mask>
<g mask="url(#mask2_outline_ins)">
<use xlink:href="#path21_stroke_2x" transform="translate(678.016 193.003)" fill="#FFFFFF"/>
</g>
</g>
<g id="Vector">
<use xlink:href="#path22_fill" transform="translate(678.016 176.133)" fill="#FFFFFF"/>
<mask id="mask3_outline_ins">
<use xlink:href="#path22_fill" fill="white" transform="translate(678.016 176.133)"/>
</mask>
<g mask="url(#mask3_outline_ins)">
<use xlink:href="#path23_stroke_2x" transform="translate(678.016 176.133)" fill="#FFFFFF"/>
</g>
</g>
<g id="Vector">
<use xlink:href="#path24_fill" transform="translate(689.53 217.402)" fill="#FFFFFF"/>
<mask id="mask4_outline_ins">
<use xlink:href="#path24_fill" fill="white" transform="translate(689.53 217.402)"/>
</mask>
<g mask="url(#mask4_outline_ins)">
<use xlink:href="#path25_stroke_2x" transform="translate(689.53 217.402)" fill="#FFFFFF"/>
</g>
</g>
<g id="Vector">
<use xlink:href="#path26_fill" transform="translate(667.603 155)" fill="#FFFFFF"/>
<mask id="mask5_outline_ins">
<use xlink:href="#path26_fill" fill="white" transform="translate(667.603 155)"/>
</mask>
<g mask="url(#mask5_outline_ins)">
<use xlink:href="#path27_stroke_2x" transform="translate(667.603 155)" fill="#FFFFFF"/>
</g>
</g>
</g>
</g>
</g>
</g>
<defs>
<path id="path0_fill" d="M 7.96358 0L 0 0L 0 7.91703L 7.96358 7.91703L 7.96358 0ZM 6.63632 6.59752L 1.32726 6.59752L 1.32726 1.3195L 6.63632 1.3195L 6.63632 6.59752Z"/>
<path id="path1_fill" d="M 0 0L 2.65453 0L 2.65453 2.63901L 0 2.63901L 0 0Z"/>
<path id="path2_fill" d="M 0 7.91703L 7.96358 7.91703L 7.96358 0L 0 0L 0 7.91703ZM 1.32726 1.3195L 6.63632 1.3195L 6.63632 6.59752L 1.32726 6.59752L 1.32726 1.3195Z"/>
<path id="path3_fill" d="M 0 0L 0 7.91703L 7.96358 7.91703L 7.96358 0L 0 0ZM 6.63632 6.59752L 1.32726 6.59752L 1.32726 1.3195L 6.63632 1.3195L 6.63632 6.59752Z"/>
<path id="path4_fill" d="M 2.65453 0L 0 0L 0 2.63901L 3.98179 2.63901L 3.98179 1.3195L 2.65453 1.3195L 2.65453 0Z"/>
<path id="path5_fill" d="M 0 0L 2.65453 0L 2.65453 1.3195L 0 1.3195L 0 0Z"/>
<path id="path6_fill" d="M 2.65453 0L 0 0L 0 1.3195L 1.32726 1.3195L 1.32726 2.63901L 2.65453 2.63901L 2.65453 1.3195L 2.65453 0Z"/>
<path id="path7_fill" d="M 1.32726 0L 1.32726 1.3195L 0 1.3195L 0 2.63901L 2.65453 2.63901L 2.65453 0L 1.32726 0Z"/>
<path id="path8_fill" d="M 0 0L 1.32726 0L 1.32726 2.63901L 0 2.63901L 0 0Z"/>
<path id="path9_fill" d="M 1.32726 1.3195L 1.32726 2.63901L 3.98179 2.63901L 3.98179 0L 0 0L 0 1.3195L 1.32726 1.3195Z"/>
<path id="path10_fill" d="M 0 0L 1.32726 0L 1.32726 1.3195L 0 1.3195L 0 0Z"/>
<path id="path11_fill" d="M 2.65453 3.95851L 2.65453 1.3195L 1.32726 1.3195L 1.32726 0L 0 0L 0 5.27802L 1.32726 5.27802L 1.32726 3.95851L 2.65453 3.95851Z"/>
<path id="path12_fill" d="M 0 0L 0 1.3195L 1.32726 1.3195L 1.32726 2.63901L 2.65453 2.63901L 2.65453 0L 1.32726 0L 0 0Z"/>
<path id="path13_fill" d="M 1.32726 0L 0 0L 0 3.95851L 2.65453 3.95851L 2.65453 1.3195L 1.32726 1.3195L 1.32726 0Z"/>
<path id="path14_fill" d="M 0 1.3195L 0 2.63901L 3.98179 2.63901L 3.98179 0L 1.32726 0L 1.32726 1.3195L 0 1.3195Z"/>
<path id="path15_fill" d="M 0 0L 0 1.3195L 2.65453 1.3195L 2.65453 2.63901L 5.30906 2.63901L 5.30906 0L 2.65453 0L 0 0Z"/>
<path id="path16_fill" d="M 0.094713 0.186136C 0.094713 0.0930687 -2.89032e-06 7.10047e-07 -2.89032e-06 7.10047e-07C -2.89032e-06 7.10047e-07 0.094713 0.0930687 0.094713 0.186136Z"/>
<path id="path17_stroke_2x" d="M 1.09471 0.186136C 1.09471 -0.166138 0.931721 -0.419483 0.874869 -0.503277C 0.837775 -0.556257 0.788315 -0.618282 0.768373 -0.641363C 0.75424 -0.657403 0.736213 -0.677013 0.729117 -0.684514C 0.723587 -0.69031 0.716271 -0.697846 0.713534 -0.70063C 0.711205 -0.702989 0.70798 -0.706232 0.706827 -0.707384C 0.705778 -0.70843 0.704275 -0.709924 0.703754 -0.71044C 0.703259 -0.71093 0.702535 -0.711645 0.702289 -0.711888C 0.702049 -0.712125 0.701694 -0.712475 0.701574 -0.712593C 0.701456 -0.712709 0.701281 -0.712882 0.701222 -0.71294C 0.701047 -0.713112 0.700872 -0.713284 -2.89032e-06 7.10047e-07C -0.700878 0.713285 -0.701052 0.713114 -0.701225 0.712943C -0.701283 0.712887 -0.701456 0.712716 -0.701572 0.712603C -0.701458 0.712715 -0.702488 0.711699 -0.70226 0.711924C -0.702037 0.712144 -0.704072 0.710133 -0.703623 0.710577C -0.703193 0.711003 -0.707159 0.707058 -0.706289 0.707925C -0.705495 0.70872 -0.713048 0.701113 -0.711413 0.702767C -0.710064 0.704143 -0.723924 0.689809 -0.720983 0.692877C -0.719067 0.694926 -0.744034 0.667497 -0.73878 0.673357C -0.749492 0.661077 -0.764051 0.643354 -0.780159 0.619613C -0.789653 0.60562 -0.905287 0.445343 -0.905287 0.186136L 1.09471 0.186136ZM -2.89032e-06 7.10047e-07C -0.700878 0.713285 -0.701052 0.713114 -0.701225 0.712943C -0.701283 0.712887 -0.701456 0.712716 -0.701572 0.712603C -0.701458 0.712715 -0.702488 0.711699 -0.70226 0.711924C -0.702037 0.712144 -0.704072 0.710133 -0.703623 0.710577C -0.703193 0.711003 -0.707159 0.707058 -0.706289 0.707925C -0.705495 0.70872 -0.713048 0.701113 -0.711413 0.702767C -0.710064 0.704143 -0.723924 0.689809 -0.720983 0.692877C -0.719067 0.694926 -0.744034 0.667497 -0.73878 0.673357C -0.749492 0.661077 -0.764051 0.643354 -0.780159 0.619613C -0.789653 0.60562 -0.905287 0.445343 -0.905287 0.186136L 1.09471 0.186136C 1.09471 -0.166138 0.931721 -0.419483 0.874869 -0.503277C 0.837775 -0.556257 0.788315 -0.618282 0.768373 -0.641363C 0.75424 -0.657403 0.736213 -0.677013 0.729117 -0.684514C 0.723587 -0.69031 0.716271 -0.697846 0.713534 -0.70063C 0.711205 -0.702989 0.70798 -0.706232 0.706827 -0.707384C 0.705778 -0.70843 0.704275 -0.709924 0.703754 -0.71044C 0.703259 -0.71093 0.702535 -0.711645 0.702289 -0.711888C 0.702049 -0.712125 0.701694 -0.712475 0.701574 -0.712593C 0.701456 -0.712709 0.701281 -0.712882 0.701222 -0.71294C 0.701047 -0.713112 0.700872 -0.713284 -2.89032e-06 7.10047e-07Z"/>
<path id="path18_fill" d="M 65.4006 1.38398e-06C 65.4006 1.38398e-06 67.0586 10.7934 61.2555 18.5029C 56.834 24.3077 50.5703 27.4822 43.4776 27.4822C 38.7798 27.4822 34.1741 26.031 30.3053 23.4007C 20.4492 16.5982 21.0019 6.25833 21.0019 6.25833L 2.81108e-06 10.0678L 0.184227 10.612C 0.27634 10.7934 5.61892 27.7543 25.0549 35.1011C 29.1079 36.643 33.3451 37.3686 37.4902 37.3686C 50.0176 37.3686 61.9003 30.2033 65.3085 20.7704C 66.5059 17.3238 66.9665 14.7842 66.8744 9.34215C 66.8744 2.81172 65.4006 1.38398e-06 65.4006 1.38398e-06ZM 37.4902 35.8267C 33.3451 35.8267 29.2921 35.3732 25.3312 33.8313C 8.1981 27.3915 2.21073 13.6051 1.19748 10.7027L 5.52681 9.88635L 8.1981 10.2492C 8.1981 10.2492 12.0669 25.5775 28.8315 32.6522C 37.6744 36.3709 45.9646 35.5546 52.5047 32.2894C 47.9911 34.5569 42.8328 35.8267 37.4902 35.8267Z"/>
<path id="path19_stroke_2x" d="M 65.4006 1.38398e-06L 66.2863 -0.464254L 64.4122 0.151837L 65.4006 1.38398e-06ZM 61.2555 18.5029L 62.051 19.1088L 62.0544 19.1043L 61.2555 18.5029ZM 30.3053 23.4007L 29.7373 24.2237L 29.7431 24.2277L 30.3053 23.4007ZM 21.0019 6.25833L 22.0005 6.31171L 22.068 5.04864L 20.8234 5.27439L 21.0019 6.25833ZM 2.81108e-06 10.0678L -0.17847 9.08381L -1.31881 9.29065L -0.947196 10.3884L 2.81108e-06 10.0678ZM 0.184227 10.612L -0.762972 10.9326L -0.739934 11.0007L -0.707405 11.0647L 0.184227 10.612ZM 25.0549 35.1011L 25.4104 34.1664L 25.4084 34.1657L 25.0549 35.1011ZM 65.3085 20.7704L 66.249 21.1102L 66.2531 21.0986L 65.3085 20.7704ZM 66.8744 9.34215L 65.8744 9.34215L 65.8744 9.35061L 65.8745 9.35907L 66.8744 9.34215ZM 25.3312 33.8313L 25.694 32.8993L 25.683 32.8952L 25.3312 33.8313ZM 1.19748 10.7027L 1.01219 9.71997L -0.129606 9.93526L 0.25336 11.0323L 1.19748 10.7027ZM 5.52681 9.88635L 5.66139 8.89545L 5.50079 8.87364L 5.34152 8.90367L 5.52681 9.88635ZM 8.1981 10.2492L 9.16769 10.0044L 9.00231 9.3492L 8.33268 9.25825L 8.1981 10.2492ZM 28.8315 32.6522L 28.4427 33.5735L 28.4439 33.574L 28.8315 32.6522ZM 52.5047 32.2894L 52.9536 33.1829L 52.058 31.3947L 52.5047 32.2894ZM 65.4006 1.38398e-06C 64.4122 0.151837 64.4121 0.151573 64.4121 0.151349C 64.4121 0.15133 64.4121 0.151146 64.4121 0.151106C 64.412 0.150982 64.4121 0.151107 64.4121 0.151351C 64.4122 0.15225 64.4123 0.152971 64.4126 0.154751C 64.4133 0.159132 64.414 0.164406 64.4153 0.173044C 64.418 0.191986 64.4216 0.217533 64.4265 0.254488C 64.4367 0.331803 64.4503 0.440303 64.4664 0.587803C 64.4996 0.889908 64.5394 1.31572 64.5706 1.86403C 64.6344 2.97597 64.6602 4.49516 64.5078 6.27578C 64.2049 9.87046 63.2493 14.2287 60.4565 17.9015L 62.0544 19.1043C 65.0648 15.0676 66.1817 10.1744 66.5006 6.44496C 66.6591 4.56355 66.6331 2.90256 66.5673 1.74982C 66.5338 1.1658 66.4894 0.688142 66.4545 0.369869C 66.4367 0.207181 66.4203 0.0762633 66.4091 -0.00829221C 66.4033 -0.0522721 66.3982 -0.0882732 66.395 -0.110646C 66.3933 -0.122665 66.3918 -0.13299 66.3909 -0.139043C 66.3904 -0.142481 66.3899 -0.145686 66.3897 -0.147409C 66.3895 -0.148475 66.3893 -0.149584 66.3892 -0.150117C 66.3892 -0.150486 66.3891 -0.150915 66.3891 -0.1511C 66.389 -0.151488 66.389 -0.151835 65.4006 1.38398e-06ZM 60.46 17.897C 56.2202 23.4632 50.2462 26.4822 43.4776 26.4822L 43.4776 28.4822C 50.8945 28.4822 57.4478 25.1523 62.051 19.1088L 60.46 17.897ZM 43.4776 26.4822C 38.9318 26.4939 34.6101 25.1311 30.8676 22.5737L 29.7431 24.2277C 33.7381 26.931 38.6278 28.4706 43.4776 28.4822L 43.4776 26.4822ZM 30.8734 22.5777C 26.1626 19.3264 23.9512 15.2438 22.9104 11.9752C 22.3836 10.3302 22.1638 8.93013 22.065 7.88565C 22.0162 7.37546 22.0012 6.98531 21.9973 6.70193C 21.9953 6.56583 21.9963 6.46903 21.9979 6.39732C 21.9985 6.36415 21.9992 6.34292 21.9999 6.32585C 22.0002 6.31863 22.0003 6.31513 22.0005 6.31145C 22.0005 6.31026 22.0006 6.30912 22.0006 6.30973C 22.0006 6.30971 22.0005 6.31026 22.0005 6.31025C 22.0005 6.31042 22.0005 6.31078 22.0005 6.31086C 22.0005 6.31127 22.0005 6.31171 21.0019 6.25833C 20.0033 6.20496 20.0033 6.20548 20.0033 6.20604C 20.0032 6.20628 20.0032 6.20688 20.0032 6.20736C 20.0031 6.20799 20.0031 6.20943 20.003 6.21071C 20.0029 6.21261 20.0027 6.21645 20.0026 6.22025C 20.0023 6.22656 20.0018 6.238 20.0013 6.25055C 20.0005 6.27302 19.9993 6.31069 19.9983 6.35491C 19.9966 6.43799 19.9953 6.56997 19.9975 6.72989C 20.0019 7.03854 20.0207 7.50934 20.074 8.0748C 20.1796 9.18161 20.4376 10.7917 21.0047 12.582C 22.1516 16.1839 24.592 20.6725 29.7373 24.2237L 30.8734 22.5777ZM 20.8234 5.27439L -0.17847 9.08381L 0.178475 11.0517L 21.1804 7.24228L 20.8234 5.27439ZM -0.947196 10.3884L -0.762972 10.9326L 1.13143 10.2913L 0.947201 9.74711L -0.947196 10.3884ZM -0.707405 11.0647C -0.747194 10.9864 0.721888 15.4964 4.5575 20.7586C 8.38549 26.0045 14.7984 32.2704 24.7013 36.0365L 25.4084 34.1657C 6.40864 26.9838 1.2265 10.4559 1.07586 10.1592L -0.707405 11.0647ZM 24.6993 36.0357C 28.8444 37.6077 33.2604 38.365 37.4902 38.3686L 37.4902 36.3686C 33.4298 36.3722 29.3713 35.6783 25.4104 34.1664L 24.6993 36.0357ZM 37.4902 38.3686C 50.3145 38.3686 62.6595 31.0448 66.2489 21.1102L 64.368 20.4306C 61.141 29.3618 49.7208 36.3686 37.4902 36.3686L 37.4902 38.3686ZM 66.2531 21.0986C 67.4731 17.5779 67.9632 14.8653 67.8742 9.32523L 65.8745 9.35907C 65.9698 14.703 65.5387 17.0697 64.3638 20.4422L 66.2531 21.0986ZM 67.8744 9.34215C 67.8713 5.99878 67.4865 3.54547 67.1093 1.98647C 66.9146 1.18709 66.7115 0.57281 66.5663 0.187879C 66.4898 -0.0139863 66.4204 -0.17755 66.376 -0.276475C 66.3516 -0.330494 66.3293 -0.377585 66.3164 -0.404304C 66.3088 -0.419905 66.3013 -0.43493 66.2974 -0.442685C 66.2948 -0.447673 66.2921 -0.453075 66.2908 -0.455561C 66.2899 -0.457357 66.2887 -0.459533 66.2883 -0.460429C 66.2879 -0.461153 66.2874 -0.46211 66.2872 -0.462472C 66.287 -0.46279 66.2868 -0.463236 66.2867 -0.463395C 66.2865 -0.46383 66.2863 -0.464254 65.4006 1.38398e-06C 64.5149 0.464257 64.5147 0.463854 64.5145 0.463462C 64.5144 0.463346 64.5142 0.462965 64.5141 0.462732C 64.5142 0.462922 64.5132 0.461082 64.5134 0.461462C 64.5135 0.461671 64.5123 0.45927 64.5125 0.459689C 64.5124 0.459422 64.512 0.458686 64.5123 0.459218C 64.5139 0.462502 64.5147 0.464062 64.5179 0.47065C 64.5265 0.488306 64.5359 0.508 64.5518 0.543619C 64.588 0.623969 64.6338 0.73109 64.6954 0.89486C 64.8265 1.2412 64.9919 1.73801 65.1656 2.45786C 65.5253 3.93732 65.8774 6.15509 65.8744 9.34215L 67.8744 9.34215ZM 37.4902 34.8267C 33.4008 34.8282 29.5311 34.4022 25.694 32.8994L 24.9684 34.7632C 29.0531 36.3442 33.2894 36.8251 37.4902 36.8267L 37.4902 34.8267ZM 25.683 32.8952C 8.93854 26.6015 3.10444 13.1311 2.1416 10.3731L 0.25336 11.0323C 1.31702 14.0791 7.45766 28.1815 24.9794 34.7673L 25.683 32.8952ZM 1.38277 11.6853L 5.7121 10.869L 5.34152 8.90367L 1.01219 9.71997L 1.38277 11.6853ZM 5.39223 10.8773L 8.06352 11.2401L 8.33268 9.25825L 5.66139 8.89545L 5.39223 10.8773ZM 8.1981 10.2492C 7.2285 10.4939 7.22863 10.4944 7.22877 10.4949C 7.22883 10.4952 7.22899 10.4958 7.22912 10.4963C 7.22932 10.4971 7.22972 10.4986 7.2301 10.5002C 7.23073 10.5026 7.2319 10.5072 7.23317 10.512C 7.2354 10.5206 7.23925 10.5352 7.2438 10.5522C 7.25229 10.5839 7.2662 10.6347 7.2838 10.6966C 7.31768 10.8157 7.37209 10.9994 7.44464 11.2264C 7.58678 11.6704 7.81572 12.3316 8.13723 13.129C 8.7729 14.7028 9.82307 16.9261 11.3894 19.3423C 14.5009 24.1273 19.874 29.9328 28.4427 33.5735L 29.2203 31.7308C 21.0245 28.2969 16.0808 22.9009 13.0667 18.253C 11.5703 15.9528 10.6055 13.9018 9.99185 12.3805C 9.68872 11.6303 9.48443 11.0388 9.34951 10.6169C 9.28354 10.4109 9.23845 10.2583 9.20748 10.1494C 9.19265 10.0973 9.18279 10.0612 9.17561 10.0344C 9.17233 10.0222 9.17037 10.0148 9.16876 10.0085C 9.1681 10.006 9.16784 10.005 9.16751 10.0037C 9.16743 10.0034 9.16738 10.0032 9.16743 10.0034C 9.16744 10.0035 9.16751 10.0037 9.16752 10.0037C 9.1676 10.0041 9.16769 10.0044 8.1981 10.2492ZM 28.4439 33.574C 37.5614 37.4082 46.1562 36.5766 52.9514 33.1841L 52.058 31.3947C 45.773 34.5325 37.7874 35.3336 29.2192 31.7304L 28.4439 33.574ZM 52.0558 31.3958C 47.645 33.6187 42.7124 34.834 37.4902 34.8267L 37.4902 36.8267C 42.9532 36.8194 48.3373 35.4951 52.9536 33.1829L 52.0558 31.3958Z"/>
<path id="path20_fill" d="M 0.0947043 1.42009e-06C 0.0947043 0.0930687 2.89032e-06 0.186133 2.89032e-06 0.186133C 2.89032e-06 0.186133 -5.77923e-06 0.0930687 0.0947043 1.42009e-06Z"/>
<path id="path21_stroke_2x" d="M 0.0947043 1.42009e-06L 1.0947 1.42009e-06L 1.0947 -2.38466L -0.606189 -0.713264L 0.0947043 1.42009e-06ZM 2.89032e-06 0.186133L -0.999997 0.186226L -0.999775 2.57067L 0.700918 0.899378L 2.89032e-06 0.186133ZM -0.905296 1.42009e-06C -0.905296 -0.259165 -0.789695 -0.419422 -0.780193 -0.433429C -0.764087 -0.457171 -0.749528 -0.474896 -0.738816 -0.487178C -0.744069 -0.481317 -0.719102 -0.50875 -0.721018 -0.506701C -0.723959 -0.503632 -0.710099 -0.517968 -0.711448 -0.516592C -0.713083 -0.514937 -0.70553 -0.522545 -0.706324 -0.521751C -0.707194 -0.520884 -0.703228 -0.524829 -0.703658 -0.524403C -0.704107 -0.523959 -0.702072 -0.52597 -0.702295 -0.52575C -0.702523 -0.525525 -0.701493 -0.526541 -0.701607 -0.526429C -0.701491 -0.526542 -0.701318 -0.526713 -0.70126 -0.526769C -0.701087 -0.52694 -0.700913 -0.527111 2.89032e-06 0.186133C 0.700918 0.899378 0.701093 0.899206 0.701268 0.899034C 0.701327 0.898976 0.701503 0.898803 0.701621 0.898686C 0.701741 0.898569 0.702096 0.898219 0.702335 0.897982C 0.702582 0.897739 0.703306 0.897023 0.703801 0.896534C 0.704321 0.896018 0.705825 0.894524 0.706874 0.893478C 0.708026 0.892325 0.711252 0.889082 0.713581 0.886723C 0.716316 0.883939 0.723632 0.876402 0.729163 0.870606C 0.736258 0.863104 0.754283 0.843493 0.768416 0.827453C 0.788356 0.804372 0.837811 0.742345 0.874901 0.689364C 0.931753 0.605558 1.0947 0.352235 1.0947 1.42009e-06L -0.905296 1.42009e-06ZM 2.89032e-06 0.186133C 1 0.18604 1 0.186537 1 0.187034C 1 0.187199 1 0.187697 1 0.188028C 1 0.187698 0.999993 0.190676 0.999995 0.190014C 0.999998 0.189357 0.999962 0.195306 0.999972 0.193986C 0.999983 0.192682 0.999838 0.204554 0.999877 0.201923C 0.999922 0.199354 0.999335 0.223016 0.99949 0.217786C 0.99967 0.212793 0.997266 0.259933 0.9979 0.249556C 0.998619 0.240059 0.988418 0.334678 0.991089 0.31393C 0.984802 0.357197 0.974615 0.402683 0.958852 0.449159C 0.926053 0.545864 0.871643 0.638542 0.795598 0.713267L -0.606189 -0.713264C -0.759262 -0.544547 -0.897846 -0.295263 -0.935177 -0.193224C -0.959473 -0.115386 -0.982197 -0.0116939 -0.988126 0.026345C -0.992277 0.0572711 -0.996436 0.0993987 -0.997525 0.114349C -0.998343 0.127453 -0.999213 0.145943 -0.999439 0.152345C -0.999617 0.158278 -0.999814 0.166876 -0.999865 0.169803C -0.999907 0.172613 -0.999953 0.17675 -0.999965 0.178145C -0.999975 0.17951 -0.999987 0.181538 -0.999989 0.182218C -0.999992 0.182891 -0.999995 0.183895 -0.999995 0.18423C -0.999996 0.184564 -0.999997 0.185064 -0.999997 0.18523C -0.999997 0.185729 -0.999997 0.186226 2.89032e-06 0.186133Z"/>
<path id="path22_fill" d="M 53.7943 19.2285C 48.6359 8.34444 39.6088 2.90241 31.5028 0.907004C 31.3186 0.907004 31.2265 0.816305 31.0422 0.816305L 31.0422 0.907004C 31.0422 0.907004 30.9501 0.816305 30.858 0.725604C 30.3975 0.634904 29.9369 0.544202 29.4763 0.453502C 27.7262 0.1814 25.976 -6.9199e-07 24.4101 -6.9199e-07C 20.8176 -6.9199e-07 17.5016 0.816305 14.646 2.08611C 11.4221 3.53732 9.48769 4.53502 5.52681 8.61654C 1.56593 12.6981 2.81108e-06 16.961 2.81108e-06 16.961C 2.81108e-06 16.961 2.85552 11.519 9.02713 8.61654C 14.3697 6.07693 17.041 6.16763 19.9886 6.16763C 30.4896 6.07693 39.6088 13.7865 41.7274 24.217C 44.0303 35.8267 36.8454 42.4478 36.7533 42.5385L 36.2927 42.992L 54.1627 54.511L 54.4391 54.0575C 54.6233 53.6947 62.7293 37.7314 53.7943 19.2285ZM 53.8864 52.8784L 50.2019 50.5202L 48.5438 48.5248C 48.5438 48.5248 56.5577 34.9197 49.4649 18.2308C 43.3855 3.99082 29.7526 -0.272101 18.9754 1.54191C 20.7255 1.08841 22.4757 0.907004 24.4101 0.907004C 34.1741 0.907004 46.7015 6.71184 52.9653 19.5913C 60.7949 35.9174 55.176 50.1574 53.8864 52.8784Z"/>
<path id="path23_stroke_2x" d="M 53.7943 19.2285L 52.8906 19.6568L 52.8938 19.6634L 53.7943 19.2285ZM 31.5028 0.907004L 31.7418 -0.0640083L 31.6241 -0.092996L 31.5028 -0.092996L 31.5028 0.907004ZM 31.0422 0.816305L 31.0422 -0.183695L 30.0422 -0.183695L 30.0422 0.816305L 31.0422 0.816305ZM 31.0422 0.907004L 30.3406 1.61955L 32.0422 3.2951L 32.0422 0.907004L 31.0422 0.907004ZM 30.858 0.725604L 31.5596 0.0130532L 31.3458 -0.197552L 31.0512 -0.255551L 30.858 0.725604ZM 29.4763 0.453502L 29.6695 -0.527654L 29.6498 -0.531538L 29.6299 -0.534627L 29.4763 0.453502ZM 14.646 2.08611L 14.2397 1.17237L 14.2356 1.17423L 14.646 2.08611ZM 2.81108e-06 16.961L -0.93867 16.6162L 0.885504 17.4256L 2.81108e-06 16.961ZM 9.02713 8.61654L 9.4527 9.52148L 9.45644 9.5197L 9.02713 8.61654ZM 19.9886 6.16763L 19.9886 7.16767L 19.9973 7.16759L 19.9886 6.16763ZM 41.7274 24.217L 42.7083 24.0225L 42.7074 24.018L 41.7274 24.217ZM 36.7533 42.5385L 37.4549 43.2511L 36.7533 42.5385ZM 36.2927 42.992L 35.5911 42.2795L 34.7011 43.1558L 35.7509 43.8325L 36.2927 42.992ZM 54.1627 54.511L 53.6209 55.3515L 54.483 55.9072L 55.0167 55.0313L 54.1627 54.511ZM 54.4391 54.0575L 55.293 54.5778L 55.3132 54.5448L 55.3307 54.5102L 54.4391 54.0575ZM 53.8864 52.8784L 53.3473 53.7206L 54.3037 54.3328L 54.79 53.3066L 53.8864 52.8784ZM 50.2019 50.5202L 49.4327 51.1593L 49.532 51.2787L 49.6628 51.3624L 50.2019 50.5202ZM 48.5438 48.5248L 47.6822 48.0172L 47.3253 48.6231L 47.7747 49.1638L 48.5438 48.5248ZM 49.4649 18.2308L 50.3853 17.8397L 50.3846 17.8382L 49.4649 18.2308ZM 18.9754 1.54191L 18.7245 0.573879L 19.1414 2.52804L 18.9754 1.54191ZM 52.9653 19.5913L 53.8669 19.1589L 53.8645 19.1539L 52.9653 19.5913ZM 54.6979 18.8002C 49.3891 7.59875 40.0866 1.99018 31.7418 -0.0640083L 31.2638 1.87802C 39.131 3.81465 47.8827 9.09014 52.8906 19.6568L 54.6979 18.8002ZM 31.5028 -0.092996C 31.5864 -0.092996 31.6528 -0.0660074 31.5844 -0.0884776C 31.5147 -0.111357 31.3101 -0.183695 31.0422 -0.183695L 31.0422 1.8163C 30.9587 1.8163 30.8922 1.78932 30.9607 1.81179C 31.0304 1.83467 31.235 1.907 31.5028 1.907L 31.5028 -0.092996ZM 30.0422 0.816305L 30.0422 0.907004L 32.0422 0.907004L 32.0422 0.816305L 30.0422 0.816305ZM 31.0422 0.907004C 31.7439 0.19446 31.7439 0.194459 31.7439 0.194459C 31.7439 0.194458 31.7439 0.194457 31.7439 0.194456C 31.7439 0.194453 31.7439 0.194449 31.7439 0.194443C 31.7438 0.194432 31.7438 0.194416 31.7438 0.194394C 31.7438 0.19435 31.7437 0.194284 31.7436 0.194197C 31.7434 0.194022 31.7432 0.193762 31.7428 0.193419C 31.7421 0.192732 31.7411 0.191714 31.7397 0.190385C 31.737 0.187728 31.7331 0.18383 31.728 0.17887C 31.718 0.168949 31.7036 0.154777 31.6863 0.13777C 31.6518 0.103757 31.6057 0.0584051 31.5596 0.0130532L 30.1564 1.43815C 30.2025 1.4835 30.2485 1.52885 30.283 1.56286C 30.3003 1.57987 30.3147 1.59404 30.3248 1.60396C 30.3298 1.60892 30.3338 1.61282 30.3365 1.61547C 30.3378 1.6168 30.3389 1.61782 30.3396 1.61851C 30.3399 1.61885 30.3402 1.61911 30.3403 1.61929C 30.3404 1.61937 30.3405 1.61944 30.3405 1.61948C 30.3406 1.6195 30.3406 1.61952 30.3406 1.61953C 30.3406 1.61954 30.3406 1.61954 30.3406 1.61954C 30.3406 1.61955 30.3406 1.61955 30.3406 1.61955C 30.3406 1.61955 30.3406 1.61955 31.0422 0.907004ZM 31.0512 -0.255551C 30.5907 -0.346251 30.1301 -0.436953 29.6695 -0.527654L 29.2831 1.43466C 29.7437 1.52536 30.2042 1.61606 30.6648 1.70676L 31.0512 -0.255551ZM 29.6299 -0.534627C 27.8546 -0.810322 26.0276 -0.998668 24.4101 -1L 24.4101 0.999999C 25.9244 0.998666 27.5978 1.17312 29.3227 1.44163L 29.6299 -0.534627ZM 24.4101 -1C 20.6973 -0.992727 17.1776 -0.129772 14.2397 1.17238L 15.0524 2.99984C 17.8255 1.76238 20.938 0.992726 24.4101 0.999999L 24.4101 -1ZM 14.2356 1.17423C 10.9142 2.66928 8.87049 3.73511 4.80918 7.92012L 6.24444 9.31297C 10.1049 5.33494 11.9299 4.40536 15.0565 2.99799L 14.2356 1.17423ZM 4.80918 7.92012C 2.76735 10.0303 1.31148 12.2218 0.406534 13.829C -0.0515034 14.6442 -0.390816 15.3446 -0.60524 15.8205C -0.714743 16.0639 -0.798706 16.2636 -0.851541 16.3937C -0.878985 16.4614 -0.900903 16.5172 -0.914359 16.552C -0.921572 16.5707 -0.927682 16.5868 -0.931248 16.5963C -0.933267 16.6016 -0.93513 16.6066 -0.936133 16.6093C -0.93675 16.611 -0.937386 16.6127 -0.937693 16.6135C -0.937905 16.6141 -0.938149 16.6148 -0.938255 16.6151C -0.938336 16.6153 -0.93844 16.6156 -0.93848 16.6157C -0.938578 16.6159 -0.93867 16.6162 2.81108e-06 16.961C 0.938676 17.3058 0.938596 17.306 0.938522 17.3062C 0.938505 17.3063 0.938437 17.3064 0.938404 17.3065C 0.938413 17.3065 0.938254 17.3069 0.938273 17.3069C 0.938198 17.3071 0.938288 17.3069 0.938438 17.3064C 0.938971 17.305 0.939415 17.3038 0.94048 17.301C 0.943081 17.2941 0.946248 17.2857 0.951471 17.2722C 0.962888 17.2426 0.97848 17.2029 1.00159 17.146C 1.04986 17.027 1.11918 16.8618 1.21838 16.6418C 1.42134 16.1908 1.72107 15.5704 2.14962 14.8097C 3.01786 13.265 4.32539 11.2843 6.24444 9.31297L 4.80918 7.92012ZM 2.81108e-06 16.961C 0.885504 17.4256 0.885363 17.4259 0.885232 17.4261C 0.885203 17.4262 0.885083 17.4264 0.885025 17.4265C 0.88504 17.4265 0.884773 17.427 0.884803 17.427C 0.88466 17.4272 0.884849 17.4269 0.885132 17.4263C 0.88611 17.4245 0.886939 17.4229 0.888885 17.4193C 0.893613 17.4105 0.89937 17.3999 0.908797 17.3829C 0.92938 17.3456 0.957338 17.2959 0.998474 17.2255C 1.08442 17.0781 1.2065 16.8763 1.37896 16.6135C 1.73217 16.0743 2.2432 15.3562 2.95668 14.53C 4.40383 12.8486 6.50006 10.8971 9.4527 9.52147L 8.60155 7.71162C 5.38259 9.2384 2.96526 11.4591 1.44174 13.2243C 0.669897 14.1214 0.0813254 14.9453 -0.29374 15.5171C -0.485413 15.8098 -0.634645 16.0559 -0.728964 16.2175C -0.777963 16.3015 -0.817381 16.3716 -0.841641 16.4154C -0.854635 16.439 -0.865666 16.4593 -0.87212 16.4712C -0.875765 16.478 -0.879126 16.4843 -0.88094 16.4877C -0.882053 16.4898 -0.883197 16.492 -0.883751 16.493C -0.884131 16.4938 -0.884569 16.4946 -0.884758 16.4949C -0.884903 16.4952 -0.885089 16.4956 -0.885161 16.4957C -0.885335 16.496 -0.885499 16.4964 2.81108e-06 16.961ZM 9.45644 9.5197C 14.6095 7.07019 17.1127 7.16763 19.9886 7.16763L 19.9886 5.16763C 16.9693 5.16763 14.1299 5.08367 8.59781 7.71339L 9.45644 9.5197ZM 19.9973 7.16759C 29.9943 7.08125 38.719 14.4296 40.7474 24.4161L 42.7074 24.018C 40.4986 13.1433 30.9849 5.07262 19.98 5.16767L 19.9973 7.16759ZM 40.7465 24.4116C 42.945 35.4949 36.0945 41.7838 36.0517 41.826L 37.4549 43.2511C 37.4433 43.2627 37.9748 42.7662 38.6747 41.894C 39.3453 41.0532 40.2409 39.7626 41.0373 38.1356C 42.6365 34.8551 43.909 30.0755 42.7083 24.0225L 40.7465 24.4116ZM 36.0517 41.826L 35.5911 42.2795L 36.9943 43.7046L 37.4549 43.2511L 36.0517 41.826ZM 35.7509 43.8325L 53.6209 55.3515L 54.7045 53.6705L 36.8345 42.1515L 35.7509 43.8325ZM 55.0167 55.0313L 55.293 54.5778L 53.5851 53.5371L 53.3088 53.9907L 55.0167 55.0313ZM 55.3307 54.5102C 55.5524 54.0735 63.8411 37.7341 54.6948 18.7936L 52.8938 19.6634C 61.6175 37.7287 53.6941 53.3158 53.5474 53.6047L 55.3307 54.5102ZM 54.4255 52.0361L 50.7409 49.6779L 49.6628 51.3624L 53.3473 53.7206L 54.4255 52.0361ZM 50.971 49.8811L 49.3129 47.8857L 47.7747 49.1638L 49.4327 51.1593L 50.971 49.8811ZM 48.5438 48.5248C 49.4054 49.0323 49.4057 49.0318 49.406 49.0314C 49.4061 49.0311 49.4064 49.0306 49.4067 49.0301C 49.4071 49.0294 49.4079 49.028 49.4087 49.0267C 49.41 49.0245 49.4124 49.0204 49.4149 49.0161C 49.4193 49.0084 49.4269 48.9953 49.4356 48.98C 49.4518 48.9516 49.4776 48.9056 49.5086 48.8493C 49.5681 48.7409 49.6584 48.5722 49.7661 48.36C 49.9766 47.9449 50.2778 47.3146 50.6081 46.523C 51.2593 44.9601 52.0697 42.6458 52.6441 39.8356C 53.7744 34.2641 53.9941 26.3906 50.3853 17.8397L 48.5446 18.6219C 52.0285 26.7599 51.7877 34.0334 50.6842 39.4367C 50.1417 42.1138 49.392 44.2438 48.7622 45.7534C 48.452 46.4981 48.1825 47.061 47.9825 47.4551C 47.8849 47.6476 47.81 47.7874 47.7556 47.8865C 47.7296 47.9339 47.7113 47.9664 47.6976 47.9904C 47.6913 48.0014 47.6875 48.0081 47.6843 48.0136C 47.683 48.0158 47.6825 48.0167 47.6818 48.0179C 47.6816 48.0182 47.6815 48.0183 47.6816 48.0182C 47.6817 48.0181 47.6818 48.0179 47.6818 48.0178C 47.682 48.0176 47.6822 48.0172 48.5438 48.5248ZM 50.3846 17.8382C 44.0872 3.08773 29.9435 -1.31829 18.8094 0.55578L 19.1414 2.52804C 29.5618 0.774092 42.6837 4.89391 48.5452 18.6234L 50.3846 17.8382ZM 19.2262 2.50994C 20.903 2.07253 22.5273 1.90567 24.4101 1.907L 24.4101 -0.092996C 22.4241 -0.0916629 20.5481 0.104279 18.7245 0.573879L 19.2262 2.50994ZM 24.4101 1.907C 33.8258 1.907 45.9842 7.5233 52.066 20.0287L 53.8645 19.1539C 47.4189 5.90037 34.5224 -0.092996 24.4101 -0.092996L 24.4101 1.907ZM 52.0636 20.0237C 59.7053 35.958 54.2136 49.853 52.9827 52.4501L 54.79 53.3066C 56.1384 50.4617 61.8845 35.8768 53.8669 19.1589L 52.0636 20.0237Z"/>
<path id="path24_fill" d="M 2.8294e-06 3.05176e-06C 0.0927166 3.05176e-06 0.185428 3.05176e-06 0.185428 3.05176e-06C 0.185428 3.05176e-06 0.0927166 3.05176e-06 2.8294e-06 3.05176e-06Z"/>
<path id="path25_stroke_2x" d="M 2.8294e-06 1C 0.0463597 1 0.0927159 1 0.127483 1C 0.144866 1 0.159353 1 0.169493 1C 0.174563 1 0.178547 1 0.181263 1C 0.182621 1 0.183662 1 0.184364 1C 0.184715 1 0.184981 1 0.185159 1C 0.185248 1 0.185315 1 0.18536 1C 0.185383 1 0.185399 1 0.185411 1C 0.185416 1 0.185421 1 0.185423 1C 0.185425 1 0.185426 1 0.185427 1C 0.185427 1 0.185428 1 0.185428 3.05176e-06C 0.185428 -0.999997 0.185427 -0.999997 0.185427 -0.999997C 0.185426 -0.999997 0.185425 -0.999997 0.185423 -0.999997C 0.185421 -0.999997 0.185416 -0.999997 0.185411 -0.999997C 0.185399 -0.999997 0.185383 -0.999997 0.18536 -0.999997C 0.185315 -0.999997 0.185248 -0.999997 0.185159 -0.999997C 0.184981 -0.999997 0.184715 -0.999997 0.184364 -0.999997C 0.183662 -0.999997 0.182621 -0.999997 0.181263 -0.999997C 0.178547 -0.999997 0.174563 -0.999997 0.169493 -0.999997C 0.159353 -0.999997 0.144866 -0.999997 0.127483 -0.999997C 0.0927159 -0.999997 0.0463597 -0.999997 2.8294e-06 -0.999997L 2.8294e-06 1ZM 0.185428 3.05176e-06C 0.185428 -0.999997 0.185427 -0.999997 0.185427 -0.999997C 0.185426 -0.999997 0.185425 -0.999997 0.185423 -0.999997C 0.185421 -0.999997 0.185416 -0.999997 0.185411 -0.999997C 0.185399 -0.999997 0.185383 -0.999997 0.18536 -0.999997C 0.185315 -0.999997 0.185248 -0.999997 0.185159 -0.999997C 0.184981 -0.999997 0.184715 -0.999997 0.184364 -0.999997C 0.183662 -0.999997 0.182621 -0.999997 0.181263 -0.999997C 0.178547 -0.999997 0.174563 -0.999997 0.169493 -0.999997C 0.159353 -0.999997 0.144866 -0.999997 0.127483 -0.999997C 0.0927159 -0.999997 0.0463597 -0.999997 2.8294e-06 -0.999997L 2.8294e-06 1C 0.0463597 1 0.0927159 1 0.127483 1C 0.144866 1 0.159353 1 0.169493 1C 0.174563 1 0.178547 1 0.181263 1C 0.182621 1 0.183662 1 0.184364 1C 0.184715 1 0.184981 1 0.185159 1C 0.185248 1 0.185315 1 0.18536 1C 0.185383 1 0.185399 1 0.185411 1C 0.185416 1 0.185421 1 0.185423 1C 0.185425 1 0.185426 1 0.185427 1C 0.185427 1 0.185428 1 0.185428 3.05176e-06Z"/>
<path id="path26_fill" d="M 49.1006 1.17911C 48.9164 1.08841 45.2319 0 39.4287 0C 33.2571 0 23.9536 1.36051 14.6502 7.80024C 6.91265 13.1516 1.84641 21.0425 0.372595 29.9312C -0.732767 37.0058 0.648941 43.9897 4.14925 48.7062C 6.35998 51.6086 7.28111 53.1505 11.7026 56.2343C 17.0451 59.953 21.4666 60.4065 21.4666 60.4065C 21.4666 60.4065 13.0843 57.7762 8.20224 46.62C 3.96502 35.3732 9.86029 23.0379 21.4666 18.5936C 24.23 17.5959 26.9934 17.0517 29.6647 17.0517C 34.1782 17.0517 37.5864 18.5029 39.3366 19.5006C 40.1656 19.9541 41.0868 20.589 41.0868 20.589L 41.3631 19.8634L 49.4691 1.26981L 49.1006 1.17911ZM 46.5215 5.89553L 44.7713 7.89094C 44.7713 7.89094 29.7568 2.44891 14.3739 12.1539C 1.20163 20.4983 -0.824869 34.4662 2.85967 44.5339C 1.0174 40.4524 0.464709 35.2825 1.29373 30.0219C 2.67543 21.3146 7.64956 13.6958 15.1108 8.52584C 24.23 2.17681 33.3492 0.907005 39.3366 0.907005C 43.758 0.907005 46.982 1.63261 48.1795 1.90471L 46.5215 5.89553Z"/>
<path id="path27_stroke_2x" d="M 49.1006 1.17911L 48.6589 2.07627L 48.7563 2.12419L 48.8616 2.15012L 49.1006 1.17911ZM 14.6502 7.80024L 15.219 8.6227L 15.2193 8.62248L 14.6502 7.80024ZM 0.372595 29.9312L -0.613979 29.7676L -0.615418 29.7768L 0.372595 29.9312ZM 4.14925 48.7062L 3.34618 49.3022L 3.35374 49.3121L 4.14925 48.7062ZM 11.7026 56.2343L 11.1305 57.0545L 11.1313 57.055L 11.7026 56.2343ZM 21.4666 60.4065L 21.3646 61.4013L 21.766 59.4524L 21.4666 60.4065ZM 8.20224 46.62L 7.26645 46.9726L 7.27565 46.997L 7.28612 47.0209L 8.20224 46.62ZM 21.4666 18.5936L 21.127 17.653L 21.118 17.6563L 21.109 17.6597L 21.4666 18.5936ZM 39.3366 19.5006L 38.8414 20.3694L 38.849 20.3737L 38.8567 20.3779L 39.3366 19.5006ZM 41.0868 20.589L 40.5193 21.4124L 41.568 22.1352L 42.0213 20.9449L 41.0868 20.589ZM 41.3631 19.8634L 40.4464 19.4638L 40.437 19.4854L 40.4286 19.5075L 41.3631 19.8634ZM 49.4691 1.26981L 50.3858 1.66944L 50.8597 0.582282L 49.7081 0.298795L 49.4691 1.26981ZM 46.5215 5.89553L 47.2733 6.55492L 47.3818 6.43119L 47.4449 6.2792L 46.5215 5.89553ZM 44.7713 7.89094L 44.4305 8.83109L 45.0727 9.06384L 45.5231 8.55033L 44.7713 7.89094ZM 14.3739 12.1539L 13.8403 11.3081L 13.8387 11.3091L 14.3739 12.1539ZM 2.85967 44.5339L 1.94822 44.9453L 3.79876 44.1903L 2.85967 44.5339ZM 1.29373 30.0219L 0.306087 29.8651L 0.305921 29.8662L 1.29373 30.0219ZM 15.1108 8.52584L 15.6803 9.34781L 15.6821 9.34653L 15.1108 8.52584ZM 48.1795 1.90471L 49.103 2.28838L 49.5583 1.19251L 48.4011 0.929568L 48.1795 1.90471ZM 49.5423 0.281943C 49.4271 0.225206 49.2584 0.174464 49.1543 0.143617C 49.0151 0.102408 48.8119 0.0465709 48.5689 -0.0138854C 48.0934 -0.13192 47.3974 -0.284361 46.5392 -0.430353C 44.8429 -0.717948 42.3874 -0.99837 39.4287 -1L 39.4287 1C 45.0887 0.989705 48.7653 2.13266 48.6589 2.07627L 49.5423 0.281943ZM 39.4287 -1C 33.1846 -0.997366 23.5871 0.430123 14.081 6.978L 15.2193 8.62248C 24.3202 2.29089 33.3297 0.997366 39.4287 1L 39.4287 -1ZM 14.0814 6.97778C 6.12997 12.477 0.905898 20.6014 -0.613936 29.7676L 1.35913 30.0947C 2.78692 21.4836 7.69533 13.8261 15.219 8.6227L 14.0814 6.97778ZM -0.615418 29.7768C -1.7518 37.0499 -0.349772 44.322 3.34624 49.3021L 4.95227 48.1102C 1.64765 43.6575 0.286264 36.9616 1.36061 30.0855L -0.615418 29.7768ZM 3.35374 49.3121C 5.57464 52.2279 6.5738 53.8764 11.1305 57.0545L 12.2746 55.4141C 7.98842 52.4246 7.14531 50.9893 4.94477 48.1002L 3.35374 49.3121ZM 11.1313 57.055C 13.8892 58.9684 16.463 60.0728 18.278 60.6657C 19.2026 60.9663 19.9784 61.1534 20.4942 61.2577C 20.7601 61.3113 20.9787 61.3478 21.1181 61.3687C 21.1917 61.3797 21.2535 61.388 21.2911 61.3927C 21.3117 61.3953 21.3301 61.3975 21.3406 61.3987C 21.3467 61.3994 21.3527 61.4 21.3558 61.4004C 21.3578 61.4006 21.36 61.4008 21.361 61.4009C 21.3617 61.401 21.3626 61.4011 21.363 61.4011C 21.3633 61.4012 21.3637 61.4012 21.3638 61.4012C 21.3642 61.4013 21.3646 61.4013 21.4666 60.4065C 21.5686 59.4117 21.569 59.4118 21.5693 59.4118C 21.5693 59.4118 21.5696 59.4118 21.5698 59.4119C 21.5697 59.4118 21.5708 59.412 21.5706 59.4119C 21.5707 59.4119 21.5711 59.412 21.5709 59.412C 21.5697 59.4118 21.5693 59.4118 21.5669 59.4115C 21.5603 59.4108 21.5532 59.4099 21.5402 59.4083C 21.5104 59.4046 21.472 59.3995 21.4142 59.3908C 21.291 59.3724 21.1225 59.3444 20.8903 59.2974C 20.4101 59.2005 19.7467 59.0417 18.8981 58.7642C 17.1667 58.2006 14.8585 57.2189 12.2738 55.4135L 11.1313 57.055ZM 21.4666 60.4065C 21.766 59.4524 21.7664 59.4525 21.7669 59.4527C 21.767 59.4527 21.7674 59.4528 21.7676 59.4529C 21.7675 59.4529 21.7685 59.4532 21.7684 59.4531C 21.7687 59.4533 21.7685 59.4532 21.7677 59.4529C 21.765 59.4521 21.7629 59.4514 21.7576 59.4496C 21.7443 59.4452 21.7286 59.4399 21.7027 59.4308C 21.6457 59.4108 21.5703 59.3833 21.4623 59.3408C 21.2354 59.2519 20.9257 59.1214 20.5193 58.9226C 19.6838 58.5152 18.5672 57.8871 17.2694 56.9001C 14.6238 54.8974 11.4746 51.6423 9.11836 46.2191L 7.28612 47.0209C 9.81192 52.7539 13.2949 56.3921 16.0609 58.4936C 17.469 59.5586 18.7531 60.2855 19.6418 60.7198C 20.0976 60.9419 20.4809 61.1041 20.7315 61.2026C 20.8622 61.2538 20.9716 61.2938 21.0398 61.3177C 21.0765 61.3306 21.1085 61.3414 21.1272 61.3476C 21.1379 61.3512 21.1479 61.3545 21.1533 61.3562C 21.1566 61.3573 21.1601 61.3584 21.1618 61.3589C 21.1629 61.3593 21.1643 61.3597 21.1649 61.3599C 21.1653 61.3601 21.1659 61.3602 21.1661 61.3603C 21.1667 61.3605 21.1672 61.3606 21.4666 60.4065ZM 9.13803 46.2675C 5.10843 35.5717 10.6948 23.7892 21.8242 19.5275L 21.109 17.6597C 9.02581 22.2867 2.82161 35.1747 7.26645 46.9726L 9.13803 46.2675ZM 21.8062 19.5342C 24.4972 18.5595 27.0905 18.047 29.6647 18.0517L 29.6647 16.0517C 26.8963 16.0564 23.9628 16.6322 21.127 17.653L 21.8062 19.5342ZM 29.6647 18.0517C 33.9647 18.0517 37.2031 19.4355 38.8414 20.3694L 39.8318 18.6318C 37.9697 17.5703 34.3918 16.0517 29.6647 16.0517L 29.6647 18.0517ZM 38.8567 20.3779C 39.2469 20.5909 39.6535 20.8442 39.9805 21.0552C 40.1421 21.1595 40.2757 21.2481 40.3729 21.3132C 40.4206 21.3452 40.457 21.3699 40.4829 21.3875C 40.4954 21.3961 40.5045 21.4022 40.511 21.4067C 40.5141 21.4088 40.5162 21.4102 40.5177 21.4113C 40.5184 21.4118 40.5188 21.4121 40.5191 21.4123C 40.5193 21.4124 40.5193 21.4124 40.5194 21.4125C 40.5194 21.4125 40.5194 21.4124 40.5194 21.4124C 40.5193 21.4124 40.5193 21.4124 40.5193 21.4124C 40.5193 21.4124 40.5193 21.4124 41.0868 20.589C 41.6543 19.7656 41.6542 19.7656 41.6542 19.7656C 41.6542 19.7656 41.6541 19.7655 41.6541 19.7655C 41.654 19.7655 41.6539 19.7654 41.6538 19.7653C 41.6537 19.7652 41.6534 19.765 41.653 19.7648C 41.6525 19.7644 41.6516 19.7638 41.6505 19.763C 41.6485 19.7617 41.6453 19.7595 41.6414 19.7568C 41.6341 19.7518 41.6225 19.7439 41.6083 19.7342C 41.5806 19.7153 41.5385 19.6868 41.4869 19.6522C 41.3854 19.5842 41.2369 19.4857 41.0647 19.3746C 40.7238 19.1547 40.2553 18.8638 39.8165 18.6233L 38.8567 20.3779ZM 42.0213 20.9449L 42.2976 20.2193L 40.4286 19.5075L 40.1522 20.2331L 42.0213 20.9449ZM 42.2798 20.263L 50.3858 1.66944L 48.5524 0.870176L 40.4464 19.4638L 42.2798 20.263ZM 49.7081 0.298795L 49.3397 0.208095L 48.8616 2.15012L 49.2301 2.24082L 49.7081 0.298795ZM 45.7697 5.23614L 44.0195 7.23155L 45.5231 8.55033L 47.2733 6.55492L 45.7697 5.23614ZM 44.7713 7.89094C 45.1121 6.95079 45.1116 6.95062 45.1111 6.95043C 45.1108 6.95034 45.1102 6.95013 45.1097 6.94994C 45.109 6.94968 45.1075 6.94913 45.106 6.94861C 45.1036 6.94775 45.0992 6.94618 45.0944 6.94449C 45.086 6.94151 45.0717 6.93648 45.055 6.93068C 45.0238 6.91988 44.9736 6.90279 44.912 6.88247C 44.7934 6.84337 44.6094 6.78487 44.3788 6.71685C 43.9273 6.58384 43.2457 6.39997 42.3975 6.21512C 40.7223 5.85104 38.2716 5.46099 35.3671 5.38338C 29.608 5.23726 21.7214 6.36238 13.8403 11.3081L 14.9074 12.9996C 22.4092 8.24039 29.7214 7.23405 35.3152 7.38271C 38.0873 7.45249 40.3516 7.81639 41.9723 8.1694C 42.7722 8.34311 43.3838 8.50857 43.8134 8.63527C 44.0234 8.6971 44.177 8.74603 44.2859 8.78192C 44.338 8.79908 44.374 8.81137 44.4005 8.82057C 44.4127 8.82477 44.4201 8.8274 44.4263 8.82958C 44.4288 8.83047 44.4299 8.83085 44.4311 8.8313C 44.4315 8.83143 44.4317 8.83151 44.4315 8.83144C 44.4315 8.83142 44.4312 8.83134 44.4312 8.83133C 44.4309 8.83122 44.4305 8.83109 44.7713 7.89094ZM 13.8387 11.3091C 0.207939 19.944 -1.89944 34.4397 1.92058 44.8776L 3.79876 44.1903C 0.249697 34.4927 2.19532 21.0526 14.909 12.9986L 13.8387 11.3091ZM 3.77112 44.1225C 2.02355 40.2508 1.47682 35.2839 2.28154 30.1775L 0.305921 29.8662C -0.547404 35.281 0.0112508 40.654 1.94822 44.9453L 3.77112 44.1225ZM 2.28137 30.1786C 3.61761 21.7578 8.42885 14.3724 15.6803 9.34781L 14.5412 7.70388C 6.87027 13.0191 1.73325 20.8714 0.306087 29.8651L 2.28137 30.1786ZM 15.6821 9.34653C 24.5947 3.10795 33.4183 1.90461 39.3366 1.907L 39.3366 -0.0929953C 33.2801 -0.0906035 23.8653 1.24567 14.5394 7.70516L 15.6821 9.34653ZM 39.3366 1.907C 43.6476 1.90089 46.7615 2.60798 47.9579 2.87985L 48.4011 0.929568C 47.2026 0.657239 43.8685 -0.0868756 39.3366 -0.0929953L 39.3366 1.907ZM 47.256 1.52104L 45.598 5.51186L 47.4449 6.2792L 49.103 2.28838L 47.256 1.52104Z"/>
</defs>
</svg>
