<svg width="218" height="74" viewBox="0 0 218 74" version="1.1" xmlns="http://www.w3.org/2000/svg" xmlns:xlink="http://www.w3.org/1999/xlink">
<title>Group</title>
<desc>Created using Figma</desc>
<g id="Canvas" transform="translate(-118 313)">
<g id="Group">
<g id="Group">
<g id="&#230;&#142;&#131;&#230;&#143;&#143; QR CODE &#229;&#140;&#175;&#229;&#133;&#165;&#229;&#160;&#177;&#229;&#144;&#141;&#232;&#179;&#135;&#230;&#150;&#153;">
<use xlink:href="#path0_fill" transform="translate(212 -287)" fill="#7AB6AD"/>
</g>
<g id="Ellipse">
<use xlink:href="#path1_fill" transform="translate(299 -290)" fill="#7AB6AD"/>
</g>
<g id="arrow-down-sign-to-navigate">
<g id="Vector">
<use xlink:href="#path2_fill" transform="matrix(-6.12323e-17 1 1 6.12323e-17 313 -280)" fill="#FFFFFF"/>
</g>
</g>
</g>
<g id="Group">
<g id="qr-code">
<g id="Vector">
<use xlink:href="#path3_fill" transform="translate(152.441 -277.914)" fill="#FFFFFF"/>
</g>
<g id="Vector">
<use xlink:href="#path4_fill" transform="translate(154.912 -275.442)" fill="#FFFFFF"/>
</g>
<g id="Vector">
<use xlink:href="#path5_fill" transform="translate(152.441 -265.554)" fill="#FFFFFF"/>
</g>
<g id="Vector">
<use xlink:href="#path4_fill" transform="translate(154.912 -263.082)" fill="#FFFFFF"/>
</g>
<g id="Vector">
<use xlink:href="#path6_fill" transform="translate(164.798 -277.914)" fill="#FFFFFF"/>
</g>
<g id="Vector">
<use xlink:href="#path4_fill" transform="translate(167.27 -275.442)" fill="#FFFFFF"/>
</g>
<g id="Vector">
<use xlink:href="#path7_fill" transform="translate(152.441 -269.262)" fill="#FFFFFF"/>
</g>
<g id="Vector">
<use xlink:href="#path4_fill" transform="translate(161.091 -266.79)" fill="#FFFFFF"/>
</g>
<g id="Vector">
<use xlink:href="#path8_fill" transform="translate(156.148 -269.262)" fill="#FFFFFF"/>
</g>
<g id="Vector">
<use xlink:href="#path9_fill" transform="translate(161.091 -263.082)" fill="#FFFFFF"/>
</g>
<g id="Vector">
<use xlink:href="#path10_fill" transform="translate(158.62 -269.262)" fill="#FFFFFF"/>
</g>
<g id="Vector">
<use xlink:href="#path11_fill" transform="translate(162.327 -272.97)" fill="#FFFFFF"/>
</g>
<g id="Vector">
<use xlink:href="#path12_fill" transform="translate(162.327 -269.262)" fill="#FFFFFF"/>
</g>
<g id="Vector">
<use xlink:href="#path13_fill" transform="translate(161.091 -270.498)" fill="#FFFFFF"/>
</g>
<g id="Vector">
<use xlink:href="#path4_fill" transform="translate(163.562 -260.61)" fill="#FFFFFF"/>
</g>
<g id="Vector">
<use xlink:href="#path11_fill" transform="translate(161.091 -260.61)" fill="#FFFFFF"/>
</g>
<g id="Vector">
<use xlink:href="#path13_fill" transform="translate(163.562 -264.318)" fill="#FFFFFF"/>
</g>
<g id="Vector">
<use xlink:href="#path14_fill" transform="translate(161.091 -277.914)" fill="#FFFFFF"/>
</g>
<g id="Vector">
<use xlink:href="#path11_fill" transform="translate(167.27 -260.61)" fill="#FFFFFF"/>
</g>
<g id="Vector">
<use xlink:href="#path8_fill" transform="translate(167.27 -263.082)" fill="#FFFFFF"/>
</g>
<g id="Vector">
<use xlink:href="#path13_fill" transform="translate(166.034 -261.846)" fill="#FFFFFF"/>
</g>
<g id="Vector">
<use xlink:href="#path13_fill" transform="translate(164.798 -263.082)" fill="#FFFFFF"/>
</g>
<g id="Vector">
<use xlink:href="#path15_fill" transform="translate(169.741 -265.554)" fill="#FFFFFF"/>
</g>
<g id="Vector">
<use xlink:href="#path16_fill" transform="translate(169.741 -261.846)" fill="#FFFFFF"/>
</g>
<g id="Vector">
<use xlink:href="#path17_fill" transform="translate(164.798 -266.79)" fill="#FFFFFF"/>
</g>
<g id="Vector">
<use xlink:href="#path18_fill" transform="translate(167.27 -269.262)" fill="#FFFFFF"/>
</g>
</g>
<g id="Group">
<g id="Group">
<g id="Vector">
<use xlink:href="#path19_fill" transform="translate(178.805 -274.173)" fill="#FFFFFF"/>
<mask id="mask0_outline_ins">
<use xlink:href="#path19_fill" fill="white" transform="translate(178.805 -274.173)"/>
</mask>
<g mask="url(#mask0_outline_ins)">
<use xlink:href="#path20_stroke_2x" transform="translate(178.805 -274.173)" fill="#FFFFFF"/>
</g>
</g>
<g id="Vector">
<use xlink:href="#path21_fill" transform="translate(118 -274.003)" fill="#FFFFFF"/>
<mask id="mask1_outline_ins">
<use xlink:href="#path21_fill" fill="white" transform="translate(118 -274.003)"/>
</mask>
<g mask="url(#mask1_outline_ins)">
<use xlink:href="#path22_stroke_2x" transform="translate(118 -274.003)" fill="#FFFFFF"/>
</g>
</g>
<g id="Vector">
<use xlink:href="#path23_fill" transform="translate(145.015 -277.402)" fill="#FFFFFF"/>
<mask id="mask2_outline_ins">
<use xlink:href="#path23_fill" fill="white" transform="translate(145.015 -277.402)"/>
</mask>
<g mask="url(#mask2_outline_ins)">
<use xlink:href="#path24_stroke_2x" transform="translate(145.015 -277.402)" fill="#FFFFFF"/>
</g>
</g>
<g id="Vector">
<use xlink:href="#path25_fill" transform="translate(145.015 -293.204)" fill="#FFFFFF"/>
<mask id="mask3_outline_ins">
<use xlink:href="#path25_fill" fill="white" transform="translate(145.015 -293.204)"/>
</mask>
<g mask="url(#mask3_outline_ins)">
<use xlink:href="#path26_stroke_2x" transform="translate(145.015 -293.204)" fill="#FFFFFF"/>
</g>
</g>
<g id="Vector">
<use xlink:href="#path27_fill" transform="translate(155.735 -254.548)" fill="#FFFFFF"/>
<mask id="mask4_outline_ins">
<use xlink:href="#path27_fill" fill="white" transform="translate(155.735 -254.548)"/>
</mask>
<g mask="url(#mask4_outline_ins)">
<use xlink:href="#path28_stroke_2x" transform="translate(155.735 -254.548)" fill="#FFFFFF"/>
</g>
</g>
<g id="Vector">
<use xlink:href="#path29_fill" transform="translate(135.32 -313)" fill="#FFFFFF"/>
<mask id="mask5_outline_ins">
<use xlink:href="#path29_fill" fill="white" transform="translate(135.32 -313)"/>
</mask>
<g mask="url(#mask5_outline_ins)">
<use xlink:href="#path30_stroke_2x" transform="translate(135.32 -313)" fill="#FFFFFF"/>
</g>
</g>
</g>
</g>
</g>
</g>
</g>
<defs>
<path id="path0_fill" d="M 10.478 3.772L 5.213 3.772L 5.213 4.526L 11.375 4.526L 11.375 2.849L 12.025 2.849L 12.025 2.147L 11.375 2.147L 11.375 0.561L 5.343 0.561L 5.343 1.302L 10.478 1.302L 10.478 2.147L 4.836 2.147L 4.836 2.849L 10.478 2.849L 10.478 3.772ZM 3.12 0.145L 2.21 0.145L 2.21 2.732L 0.598 2.732L 0.598 3.629L 2.21 3.629L 2.21 6.281C 1.534 6.489 0.91 6.684 0.416 6.827L 0.663 7.75L 2.21 7.243L 2.21 10.87C 2.21 11.065 2.145 11.104 1.989 11.104C 1.846 11.117 1.326 11.117 0.767 11.104C 0.897 11.377 1.014 11.767 1.053 12.001C 1.872 12.014 2.366 11.975 2.665 11.819C 2.99 11.663 3.12 11.403 3.12 10.87L 3.12 6.944L 4.446 6.502L 4.303 5.618L 3.12 5.995L 3.12 3.629L 4.511 3.629L 4.498 2.732L 3.12 2.732L 3.12 0.145ZM 11.349 7.243L 8.788 7.243L 8.788 5.969L 11.349 5.969L 11.349 7.243ZM 12.233 5.176L 4.537 5.176L 4.537 7.555L 5.395 7.555L 5.395 5.969L 7.917 5.969L 7.917 7.243L 5.408 7.243L 5.408 11.039L 6.279 11.039L 6.279 8.01L 7.917 8.01L 7.917 11.988L 8.788 11.988L 8.788 8.01L 10.582 8.01L 10.582 10.142C 10.582 10.272 10.543 10.298 10.413 10.311C 10.27 10.311 9.88 10.311 9.36 10.298C 9.464 10.532 9.568 10.844 9.607 11.091C 10.296 11.091 10.751 11.104 11.05 10.948C 11.362 10.805 11.427 10.584 11.427 10.155L 11.427 7.529L 12.233 7.529L 12.233 5.176ZM 19.227 3.928L 20.176 3.928L 20.176 2.654L 21.177 2.654L 21.177 1.757L 20.176 1.757L 20.176 0.132L 19.227 0.132L 19.227 1.757L 17.602 1.757L 17.602 2.654L 19.227 2.654L 19.227 3.928ZM 17.771 5.761L 16.315 6.19L 16.315 3.629L 17.758 3.629L 17.758 2.732L 16.315 2.732L 16.315 0.132L 15.379 0.132L 15.379 2.732L 13.585 2.732L 13.585 3.629L 15.379 3.629L 15.379 6.463C 14.638 6.658 13.962 6.853 13.416 6.996L 13.624 7.932L 15.379 7.399L 15.379 10.883C 15.379 11.065 15.314 11.13 15.132 11.13C 14.976 11.13 14.43 11.13 13.845 11.117C 13.975 11.377 14.105 11.754 14.144 12.001C 15.002 12.001 15.522 11.975 15.847 11.832C 16.185 11.676 16.315 11.416 16.315 10.883L 16.315 7.113C 16.835 6.957 17.368 6.775 17.901 6.606L 17.771 5.761ZM 21.086 5.462L 21.086 7.451L 19.123 7.451L 19.123 5.462L 21.086 5.462ZM 23.998 7.451L 21.97 7.451L 21.97 5.462L 23.998 5.462L 23.998 7.451ZM 21.97 10.454L 21.97 8.296L 23.998 8.296L 23.998 10.454L 21.97 10.454ZM 19.123 8.296L 21.086 8.296L 21.086 10.454L 19.123 10.454L 19.123 8.296ZM 18.239 11.988L 19.123 11.988L 19.123 11.312L 23.998 11.312L 23.998 11.91L 24.921 11.91L 24.921 4.604L 18.239 4.604L 18.239 11.988ZM 23.764 1.731L 23.764 0.132L 22.815 0.132L 22.815 1.731L 21.723 1.731L 21.723 2.628L 22.815 2.628L 22.815 3.928L 23.764 3.928L 23.764 2.628L 25.441 2.628L 25.441 1.731L 23.764 1.731ZM 35.75 2.836C 36.296 2.836 36.686 3.577 36.686 6.125C 36.686 8.738 36.296 9.609 35.75 9.609C 35.204 9.609 34.814 8.738 34.814 6.125C 34.814 3.577 35.204 2.836 35.75 2.836ZM 38.558 11.962C 38.389 12.053 38.194 12.079 37.96 12.079C 37.401 12.079 36.933 11.754 36.725 10.961C 37.908 10.441 38.649 8.855 38.649 6.125C 38.649 2.719 37.492 1.185 35.75 1.185C 34.008 1.185 32.851 2.719 32.851 6.125C 32.851 8.959 33.657 10.558 34.931 11.013C 35.373 12.612 36.361 13.626 37.804 13.626C 38.272 13.626 38.662 13.535 38.896 13.366L 38.558 11.962ZM 41.509 2.875L 41.938 2.875C 42.731 2.875 43.212 3.226 43.212 4.266C 43.212 5.306 42.731 5.839 41.938 5.839L 41.509 5.839L 41.509 2.875ZM 45.344 11L 43.758 6.97C 44.564 6.515 45.097 5.631 45.097 4.266C 45.097 2.056 43.784 1.341 42.12 1.341L 39.585 1.341L 39.585 11L 41.509 11L 41.509 7.36L 42.029 7.36L 43.316 11L 45.344 11ZM 56.004 11.156C 56.888 11.156 57.72 10.779 58.357 9.999L 57.265 8.842C 56.966 9.258 56.615 9.492 56.186 9.492C 55.276 9.492 54.496 8.621 54.496 6.151C 54.496 3.733 55.315 2.836 56.095 2.836C 56.55 2.836 56.836 3.07 57.161 3.447L 58.253 2.251C 57.733 1.679 56.992 1.185 56.017 1.185C 54.158 1.185 52.52 2.693 52.52 6.229C 52.52 9.778 54.158 11.156 56.004 11.156ZM 61.75 11.156C 63.492 11.156 64.649 9.531 64.649 6.125C 64.649 2.719 63.492 1.185 61.75 1.185C 60.008 1.185 58.851 2.719 58.851 6.125C 58.851 9.531 60.008 11.156 61.75 11.156ZM 61.75 9.492C 61.204 9.492 60.814 8.855 60.814 6.125C 60.814 3.382 61.204 2.836 61.75 2.836C 62.296 2.836 62.686 3.382 62.686 6.125C 62.686 8.855 62.296 9.492 61.75 9.492ZM 65.585 11L 67.47 11C 69.654 11 71.084 9.375 71.084 6.125C 71.084 2.875 69.654 1.328 67.353 1.328L 65.585 1.328L 65.585 11ZM 67.522 9.44L 67.522 2.888L 67.743 2.888C 68.601 2.888 69.108 3.772 69.108 6.125C 69.108 8.478 68.601 9.44 67.743 9.44L 67.522 9.44ZM 72.384 11L 77.337 11L 77.337 9.388L 74.321 9.388L 74.321 6.814L 76.752 6.814L 76.752 5.202L 74.321 5.202L 74.321 2.953L 77.233 2.953L 77.233 1.341L 72.384 1.341L 72.384 11ZM 2.171 30.649L 2.171 21.445L 12.064 21.445L 12.064 20.613L 1.222 20.613L 1.222 31.481L 12.311 31.481L 12.311 30.649L 2.171 30.649ZM 8.749 25.137L 6.851 25.137L 6.851 24.045L 8.749 24.045L 8.749 25.137ZM 8.749 26.931L 6.851 26.931L 6.851 25.852L 8.749 25.852L 8.749 26.931ZM 8.749 28.829L 6.851 28.829L 6.851 27.659L 8.749 27.659L 8.749 28.829ZM 11.895 24.045L 11.895 23.265L 10.049 23.265C 9.893 22.836 9.607 22.277 9.321 21.822L 8.476 22.082C 8.671 22.433 8.892 22.888 9.048 23.265L 7.033 23.265C 7.241 22.823 7.449 22.355 7.605 21.887L 6.812 21.666C 6.318 23.083 5.473 24.474 4.511 25.384C 4.693 25.54 5.005 25.904 5.109 26.086C 5.408 25.774 5.694 25.423 5.98 25.02L 5.98 30.155L 6.851 30.155L 6.851 29.609L 11.882 29.609L 11.882 28.829L 9.633 28.829L 9.633 27.659L 11.479 27.659L 11.479 26.931L 9.633 26.931L 9.633 25.852L 11.479 25.852L 11.479 25.137L 9.633 25.137L 9.633 24.045L 11.895 24.045ZM 2.314 24.695C 2.964 24.981 3.731 25.488 4.108 25.852L 4.641 25.215C 4.251 24.851 3.458 24.383 2.821 24.123L 2.314 24.695ZM 5.213 22.888C 4.849 22.511 4.095 22.043 3.484 21.757L 2.964 22.329C 3.588 22.628 4.316 23.122 4.667 23.499L 5.213 22.888ZM 4.433 26.554C 3.9 27.581 3.198 28.725 2.717 29.427L 3.393 30.038C 3.926 29.18 4.537 28.062 5.018 27.139L 4.433 26.554ZM 15.99 20.912L 15.99 21.874L 19.188 21.874C 19.214 22.368 19.266 22.94 19.357 23.538L 18.785 23.447C 17.992 27.087 16.393 29.7 13.52 31.195C 13.78 31.364 14.209 31.767 14.391 31.962C 16.978 30.441 18.616 28.075 19.578 24.708C 20.163 27.165 21.541 30.012 24.739 31.949C 24.908 31.715 25.298 31.299 25.519 31.143C 20.423 28.114 20.124 23.213 20.124 20.912L 15.99 20.912ZM 32.266 23.59L 29.978 23.59L 29.978 22.29L 31.941 22.29L 31.941 21.458L 29.978 21.458L 29.978 20.145L 29.081 20.145L 29.081 21.458L 27.04 21.458L 27.04 22.29L 29.081 22.29L 29.081 23.59L 26.663 23.59L 26.663 24.435L 32.266 24.435L 32.266 23.59ZM 29.978 27.113L 32.032 27.113L 32.032 26.268L 30.732 26.268C 31.018 25.774 31.33 25.189 31.603 24.656L 30.771 24.435C 30.563 24.955 30.212 25.709 29.874 26.268L 28.262 26.268L 28.912 26.034C 28.821 25.605 28.548 24.955 28.249 24.487L 27.534 24.682C 27.794 25.176 28.067 25.826 28.145 26.268L 26.936 26.268L 26.936 27.113L 29.081 27.113L 29.081 28.517L 26.65 28.517L 26.65 29.349L 29.081 29.349L 29.081 31.949L 29.978 31.949L 29.978 29.349L 32.292 29.349L 32.292 28.517L 29.978 28.517L 29.978 27.113ZM 33.644 25.904L 33.761 25.904C 34.151 27.217 34.697 28.452 35.412 29.505C 34.905 30.181 34.32 30.766 33.644 31.221L 33.644 25.904ZM 37.037 25.904C 36.803 26.879 36.439 27.841 35.919 28.712C 35.36 27.867 34.905 26.905 34.593 25.904L 37.037 25.904ZM 37.492 25.059L 37.336 25.098L 33.644 25.098L 33.644 21.601L 36.894 21.601L 36.894 23.2C 36.894 23.356 36.842 23.395 36.634 23.408C 36.439 23.421 35.763 23.421 34.957 23.395C 35.087 23.655 35.217 23.98 35.256 24.253C 36.244 24.253 36.894 24.24 37.297 24.097C 37.7 23.954 37.791 23.707 37.791 23.213L 37.791 20.717L 32.76 20.717L 32.76 31.975L 33.644 31.975L 33.644 31.546C 33.813 31.689 33.969 31.871 34.073 32.027C 34.801 31.559 35.425 30.948 35.971 30.259C 36.556 30.935 37.193 31.507 37.921 31.91C 38.077 31.663 38.363 31.312 38.584 31.13C 37.817 30.753 37.115 30.194 36.517 29.492C 37.297 28.244 37.817 26.814 38.103 25.28L 37.492 25.059ZM 43.251 30.428L 43.251 27.477L 49.023 27.477L 49.023 30.428L 43.251 30.428ZM 48.516 22.303C 47.775 23.395 46.696 24.357 45.448 25.137C 44.811 24.526 43.719 23.707 42.835 23.083C 43.134 22.823 43.433 22.576 43.706 22.303L 48.516 22.303ZM 50.011 26.58L 44.85 26.58C 47.008 25.436 48.88 23.837 49.946 21.77L 49.296 21.367L 49.14 21.419L 44.538 21.419C 44.863 21.055 45.136 20.678 45.383 20.314L 44.304 20.08C 43.524 21.315 42.055 22.758 39.962 23.772C 40.17 23.915 40.482 24.279 40.625 24.5C 41.145 24.24 41.626 23.941 42.081 23.629C 42.939 24.266 43.927 25.046 44.551 25.67C 43.017 26.502 41.301 27.113 39.65 27.451C 39.845 27.659 40.066 28.075 40.144 28.335C 40.859 28.166 41.587 27.958 42.302 27.711L 42.302 31.988L 43.251 31.988L 43.251 31.312L 49.023 31.312L 49.023 31.988L 50.011 31.988L 50.011 26.58ZM 59.774 21.757L 59.774 21.887C 59.774 22.563 59.462 23.447 56.095 23.902C 56.264 24.058 56.511 24.409 56.615 24.617C 58.903 24.266 59.93 23.668 60.359 23.031C 61.165 23.824 62.413 24.344 63.895 24.552C 64.012 24.318 64.259 23.967 64.441 23.785C 62.738 23.642 61.321 23.135 60.632 22.355C 60.658 22.199 60.671 22.056 60.671 21.926L 60.671 21.757L 62.738 21.757C 62.556 22.134 62.322 22.511 62.127 22.784L 62.894 23.057C 63.245 22.602 63.661 21.848 63.986 21.185L 63.336 20.964L 63.18 21.003L 58.825 21.003C 58.916 20.769 59.02 20.535 59.098 20.288L 58.227 20.093C 57.941 21.042 57.408 21.952 56.732 22.563C 56.94 22.667 57.304 22.914 57.46 23.057C 57.811 22.706 58.149 22.251 58.435 21.757L 59.774 21.757ZM 55.315 28.374L 61.828 28.374L 61.828 29.284L 55.315 29.284L 55.315 28.374ZM 55.315 26.866L 61.828 26.866L 61.828 27.75L 55.315 27.75L 55.315 26.866ZM 55.315 25.358L 61.828 25.358L 61.828 26.242L 55.315 26.242L 55.315 25.358ZM 54.379 29.921L 62.79 29.921L 62.79 24.708L 54.379 24.708L 54.379 29.921ZM 56.069 20.899L 52.962 20.899L 52.962 21.653L 56.069 21.653L 56.069 20.899ZM 56.394 22.914L 52.676 22.914L 52.676 23.694L 56.394 23.694L 56.394 22.914ZM 56.55 30.012C 55.627 30.519 54.067 30.987 52.741 31.26C 52.962 31.429 53.287 31.793 53.456 31.988C 54.743 31.637 56.381 31.026 57.421 30.402L 56.55 30.012ZM 59.722 30.519C 61.126 30.987 62.53 31.546 63.362 31.962L 64.207 31.403C 63.297 30.987 61.776 30.428 60.385 29.999L 59.722 30.519ZM 74.243 22.628C 73.827 22.147 72.93 21.484 72.202 21.042L 71.708 21.692C 72.449 22.173 73.333 22.875 73.749 23.369L 74.243 22.628ZM 73.671 25.735C 73.216 25.28 72.267 24.682 71.5 24.279L 71.045 24.955C 71.812 25.384 72.748 26.047 73.19 26.515L 73.671 25.735ZM 69.927 20.912C 69.732 21.783 69.368 23.057 69.056 23.824L 69.693 24.032C 70.044 23.304 70.447 22.095 70.759 21.12L 69.927 20.912ZM 67.223 23.811C 67.132 23.031 66.833 21.861 66.456 20.964L 65.754 21.133C 66.092 22.043 66.391 23.239 66.469 24.006L 67.223 23.811ZM 66.781 26.125C 66.56 27.282 66.027 28.725 65.481 29.479C 65.663 29.765 65.884 30.22 65.988 30.545C 66.664 29.609 67.21 27.789 67.483 26.346L 66.781 26.125ZM 70.759 25.371L 70.759 24.461L 68.64 24.461L 68.64 20.132L 67.743 20.132L 67.743 24.461L 65.663 24.461L 65.663 25.371L 67.743 25.371L 67.743 32.001L 68.64 32.001L 68.64 25.371L 70.759 25.371ZM 68.705 26.515C 68.978 27.074 69.693 28.738 69.927 29.44L 70.616 28.725C 70.421 28.283 69.485 26.515 69.238 26.138L 68.705 26.515ZM 77.506 28.036L 77.363 27.152L 75.829 27.425L 75.829 20.132L 74.919 20.132L 74.919 27.594L 70.733 28.335L 70.889 29.245L 74.919 28.504L 74.919 31.988L 75.829 31.988L 75.829 28.335L 77.506 28.036Z"/>
<path id="path1_fill" d="M 37 18.5C 37 28.7173 28.7173 37 18.5 37C 8.28273 37 0 28.7173 0 18.5C 0 8.28273 8.28273 0 18.5 0C 28.7173 0 37 8.28273 37 18.5Z"/>
<path id="path2_fill" d="M 9.49997 11C 9.15945 11 8.81897 10.8679 8.55936 10.6044L 0.389769 2.30691C -0.129923 1.77909 -0.129923 0.923317 0.389769 0.395707C 0.909252 -0.131902 1.75168 -0.131902 2.27141 0.395707L 9.49997 7.73778L 16.7286 0.395963C 17.2483 -0.131646 18.0906 -0.131646 18.61 0.395963C 19.13 0.923573 19.13 1.77935 18.61 2.30717L 10.4406 10.6047C 10.1808 10.8682 9.84036 11 9.49997 11Z"/>
<path id="path3_fill" d="M 7.41437 0L 0 0L 0 7.41595L 7.41437 7.41595L 7.41437 0ZM 6.17864 6.17996L 1.23573 6.17996L 1.23573 1.23599L 6.17864 1.23599L 6.17864 6.17996Z"/>
<path id="path4_fill" d="M 0 0L 2.47146 0L 2.47146 2.47198L 0 2.47198L 0 0Z"/>
<path id="path5_fill" d="M 0 7.41595L 7.41437 7.41595L 7.41437 0L 0 0L 0 7.41595ZM 1.23573 1.23599L 6.17864 1.23599L 6.17864 6.17996L 1.23573 6.17996L 1.23573 1.23599Z"/>
<path id="path6_fill" d="M 0 0L 0 7.41595L 7.41437 7.41595L 7.41437 0L 0 0ZM 6.17864 6.17996L 1.23573 6.17996L 1.23573 1.23599L 6.17864 1.23599L 6.17864 6.17996Z"/>
<path id="path7_fill" d="M 2.47146 0L 0 0L 0 2.47198L 3.70719 2.47198L 3.70719 1.23599L 2.47146 1.23599L 2.47146 0Z"/>
<path id="path8_fill" d="M 0 0L 2.47146 0L 2.47146 1.23599L 0 1.23599L 0 0Z"/>
<path id="path9_fill" d="M 2.47146 0L 0 0L 0 1.23599L 1.23573 1.23599L 1.23573 2.47198L 2.47146 2.47198L 2.47146 1.23599L 2.47146 0Z"/>
<path id="path10_fill" d="M 1.23573 0L 1.23573 1.23599L 0 1.23599L 0 2.47198L 2.47146 2.47198L 2.47146 0L 1.23573 0Z"/>
<path id="path11_fill" d="M 0 0L 1.23573 0L 1.23573 2.47198L 0 2.47198L 0 0Z"/>
<path id="path12_fill" d="M 1.23573 1.23599L 1.23573 2.47198L 3.70719 2.47198L 3.70719 0L 0 0L 0 1.23599L 1.23573 1.23599Z"/>
<path id="path13_fill" d="M 0 0L 1.23573 0L 1.23573 1.23599L 0 1.23599L 0 0Z"/>
<path id="path14_fill" d="M 2.47146 3.70797L 2.47146 1.23599L 1.23573 1.23599L 1.23573 0L 0 0L 0 4.94397L 1.23573 4.94397L 1.23573 3.70797L 2.47146 3.70797Z"/>
<path id="path15_fill" d="M 0 0L 0 1.23599L 1.23573 1.23599L 1.23573 2.47198L 2.47146 2.47198L 2.47146 0L 1.23573 0L 0 0Z"/>
<path id="path16_fill" d="M 1.23573 0L 0 0L 0 3.70797L 2.47146 3.70797L 2.47146 1.23599L 1.23573 1.23599L 1.23573 0Z"/>
<path id="path17_fill" d="M 0 1.23599L 0 2.47198L 3.70719 2.47198L 3.70719 0L 1.23573 0L 1.23573 1.23599L 0 1.23599Z"/>
<path id="path18_fill" d="M 0 0L 0 1.23599L 2.47146 1.23599L 2.47146 2.47198L 4.94291 2.47198L 4.94291 0L 2.47146 0L 0 0Z"/>
<path id="path19_fill" d="M 0.0881811 0.174355C 0.0881811 0.0871783 -2.69099e-06 6.65108e-07 -2.69099e-06 6.65108e-07C -2.69099e-06 6.65108e-07 0.0881811 0.0871783 0.0881811 0.174355Z"/>
<path id="path20_stroke_2x" d="M 1.08818 0.174355C 1.08818 -0.173179 0.928419 -0.422715 0.873183 -0.504623C 0.837052 -0.556508 0.788607 -0.617649 0.769327 -0.640106C 0.755539 -0.655844 0.737824 -0.675236 0.730923 -0.682576C 0.725496 -0.688297 0.718271 -0.695785 0.715589 -0.69853C 0.713291 -0.700873 0.710092 -0.704108 0.708955 -0.705252C 0.707915 -0.706295 0.706421 -0.707789 0.705905 -0.708304C 0.705413 -0.708793 0.704692 -0.70951 0.704447 -0.709753C 0.704209 -0.70999 0.703855 -0.71034 0.703736 -0.710458C 0.703618 -0.710575 0.703443 -0.710748 0.703384 -0.710806C 0.70321 -0.710979 0.703036 -0.711151 -2.69099e-06 6.65108e-07C -0.703041 0.711153 -0.703215 0.710981 -0.703388 0.71081C -0.703445 0.710753 -0.703618 0.710582 -0.703733 0.710468C -0.703619 0.71058 -0.704649 0.70956 -0.704421 0.709786C -0.704197 0.710008 -0.706232 0.707985 -0.705782 0.708432C -0.705351 0.708862 -0.709328 0.704883 -0.708455 0.705758C -0.707651 0.706567 -0.715267 0.69885 -0.713614 0.700532C -0.712224 0.701958 -0.726365 0.687243 -0.72335 0.69041C -0.721272 0.692643 -0.747295 0.66387 -0.741775 0.670074C -0.753022 0.657102 -0.768254 0.638435 -0.785005 0.613596C -0.796149 0.597071 -0.911819 0.434713 -0.911819 0.174355L 1.08818 0.174355ZM -2.69099e-06 6.65108e-07C -0.703041 0.711153 -0.703215 0.710981 -0.703388 0.71081C -0.703445 0.710753 -0.703618 0.710582 -0.703733 0.710468C -0.703619 0.71058 -0.704649 0.70956 -0.704421 0.709786C -0.704197 0.710008 -0.706232 0.707985 -0.705782 0.708432C -0.705351 0.708862 -0.709328 0.704883 -0.708455 0.705758C -0.707651 0.706567 -0.715267 0.69885 -0.713614 0.700532C -0.712224 0.701958 -0.726365 0.687243 -0.72335 0.69041C -0.721272 0.692643 -0.747295 0.66387 -0.741775 0.670074C -0.753022 0.657102 -0.768254 0.638435 -0.785005 0.613596C -0.796149 0.597071 -0.911819 0.434713 -0.911819 0.174355L 1.08818 0.174355C 1.08818 -0.173179 0.928419 -0.422715 0.873183 -0.504623C 0.837052 -0.556508 0.788607 -0.617649 0.769327 -0.640106C 0.755539 -0.655844 0.737824 -0.675236 0.730923 -0.682576C 0.725496 -0.688297 0.718271 -0.695785 0.715589 -0.69853C 0.713291 -0.700873 0.710092 -0.704108 0.708955 -0.705252C 0.707915 -0.706295 0.706421 -0.707789 0.705905 -0.708304C 0.705413 -0.708793 0.704692 -0.70951 0.704447 -0.709753C 0.704209 -0.70999 0.703855 -0.71034 0.703736 -0.710458C 0.703618 -0.710575 0.703443 -0.710748 0.703384 -0.710806C 0.70321 -0.710979 0.703036 -0.711151 -2.69099e-06 6.65108e-07Z"/>
<path id="path21_fill" d="M 60.8902 1.29639e-06C 60.8902 1.29639e-06 62.4339 10.1102 57.031 17.3318C 52.9144 22.7693 47.0827 25.7429 40.4791 25.7429C 36.1053 25.7429 31.8173 24.3835 28.2153 21.9197C 19.0389 15.5477 19.5535 5.86224 19.5535 5.86224L 2.61721e-06 9.43055L 0.171522 9.94031C 0.257282 10.1102 5.23141 25.9977 23.3269 32.8795C 27.1004 34.3238 31.0454 35.0035 34.9047 35.0035C 46.5681 35.0035 57.6313 28.2917 60.8044 19.4558C 61.9193 16.2274 62.3481 13.8485 62.2624 8.75087C 62.2624 2.63376 60.8902 1.29639e-06 60.8902 1.29639e-06ZM 34.9047 33.5592C 31.0454 33.5592 27.2719 33.1344 23.5842 31.6901C 7.63272 25.6579 2.05827 12.744 1.1149 10.0253L 5.14565 9.26063L 7.63271 9.60047C 7.63271 9.60047 11.2347 23.9587 26.8431 30.5856C 35.0762 34.0689 42.7947 33.3043 48.8837 30.2457C 44.6814 32.3697 39.8788 33.5592 34.9047 33.5592Z"/>
<path id="path22_stroke_2x" d="M 60.8902 1.29639e-06L 61.777 -0.462043L 59.9016 0.150938L 60.8902 1.29639e-06ZM 57.031 17.3318L 57.8283 17.9354L 57.8317 17.9309L 57.031 17.3318ZM 28.2153 21.9197L 27.6449 22.7411L 27.6507 22.745L 28.2153 21.9197ZM 19.5535 5.86224L 20.5521 5.91529L 20.6192 4.65123L 19.3739 4.87848L 19.5535 5.86224ZM 2.61721e-06 9.43055L -0.179523 8.4468L -1.31629 8.65425L -0.947785 9.74946L 2.61721e-06 9.43055ZM 0.171522 9.94031L -0.776266 10.2592L -0.753451 10.327L -0.721216 10.3909L 0.171522 9.94031ZM 23.3269 32.8795L 23.6844 31.9456L 23.6824 31.9448L 23.3269 32.8795ZM 60.8044 19.4558L 61.7456 19.7938L 61.7496 19.7822L 60.8044 19.4558ZM 62.2624 8.75087L 61.2624 8.75087L 61.2624 8.75929L 61.2625 8.7677L 62.2624 8.75087ZM 23.5842 31.6901L 23.9489 30.7589L 23.9379 30.7547L 23.5842 31.6901ZM 1.1149 10.0253L 0.928518 9.0428L -0.20959 9.2587L 0.170155 10.3531L 1.1149 10.0253ZM 5.14565 9.26063L 5.28104 8.26984L 5.11948 8.24776L 4.95927 8.27815L 5.14565 9.26063ZM 7.63271 9.60047L 8.60266 9.35715L 8.43811 8.70123L 7.7681 8.60968L 7.63271 9.60047ZM 26.8431 30.5856L 26.4523 31.5061L 26.4535 31.5065L 26.8431 30.5856ZM 48.8837 30.2457L 49.3348 31.1382L 48.4348 29.3521L 48.8837 30.2457ZM 60.8902 1.29639e-06C 59.9016 0.150938 59.9016 0.150673 59.9016 0.150446C 59.9016 0.150422 59.9015 0.150232 59.9015 0.150183C 59.9015 0.150079 59.9015 0.150136 59.9016 0.150342C 59.9017 0.15116 59.9018 0.151764 59.902 0.153383C 59.9026 0.157439 59.9033 0.162233 59.9044 0.170228C 59.907 0.187871 59.9102 0.211501 59.9148 0.245915C 59.9243 0.318128 59.9369 0.419116 59.9519 0.556845C 59.9827 0.839365 60.0196 1.23674 60.0486 1.74932C 60.1079 2.78972 60.132 4.2087 59.9902 5.87374C 59.7087 9.23702 58.8237 13.3035 56.2302 16.7328L 57.8317 17.9309C 60.6411 14.1385 61.6858 9.53913 61.9831 6.0419C 62.1308 4.27668 62.1066 2.71675 62.0454 1.6358C 62.014 1.08772 61.9726 0.638808 61.9401 0.340215C 61.9234 0.187388 61.9081 0.0641113 61.8976 -0.0153009C 61.8922 -0.0566995 61.8875 -0.0907229 61.8845 -0.111779C 61.8828 -0.123134 61.8814 -0.132952 61.8806 -0.138669C 61.8801 -0.141938 61.8796 -0.145011 61.8794 -0.146649C 61.8792 -0.147671 61.8791 -0.148745 61.879 -0.149256C 61.8789 -0.149613 61.8789 -0.150034 61.8788 -0.150212C 61.8788 -0.150593 61.8787 -0.150936 60.8902 1.29639e-06ZM 56.2337 16.7282C 52.2979 21.9269 46.7561 24.7429 40.4791 24.7429L 40.4791 26.7429C 47.4093 26.7429 53.531 23.6116 57.8282 17.9354L 56.2337 16.7282ZM 40.4791 24.7429C 36.2582 24.7546 32.2553 23.4846 28.7799 21.0943L 27.6507 22.745C 31.3792 25.2824 35.9524 26.7311 40.4791 26.7429L 40.4791 24.7429ZM 28.7857 21.0983C 24.4146 18.063 22.3626 14.252 21.3966 11.1997C 20.9074 9.66308 20.7038 8.35773 20.612 7.38114C 20.5667 6.90482 20.5528 6.54168 20.5492 6.27696C 20.5474 6.15015 20.5483 6.06048 20.5497 5.99364C 20.5503 5.96288 20.551 5.94347 20.5516 5.92764C 20.5518 5.92102 20.552 5.91798 20.5521 5.9146C 20.5522 5.91356 20.5522 5.91268 20.5522 5.91321C 20.5522 5.91316 20.5521 5.91384 20.5521 5.91382C 20.5521 5.91399 20.5521 5.91436 20.5521 5.91444C 20.5521 5.91485 20.5521 5.91529 19.5535 5.86224C 18.5549 5.80918 18.5549 5.8097 18.5548 5.81025C 18.5548 5.81048 18.5548 5.81107 18.5548 5.81154C 18.5547 5.81216 18.5547 5.81356 18.5546 5.81479C 18.5545 5.81661 18.5543 5.82032 18.5542 5.82395C 18.5539 5.82994 18.5534 5.84089 18.553 5.85279C 18.5522 5.87399 18.5511 5.90975 18.5502 5.95148C 18.5485 6.02963 18.5474 6.15427 18.5494 6.30474C 18.5535 6.59459 18.5711 7.0379 18.6209 7.56915C 18.7194 8.60771 18.9607 10.122 19.4898 11.8032C 20.5606 15.1866 22.8397 19.4043 27.6449 22.7411L 28.7857 21.0983ZM 19.3739 4.87848L -0.179523 8.4468L 0.179528 10.4143L 19.733 6.84599L 19.3739 4.87848ZM -0.947785 9.74946L -0.776266 10.2592L 1.11931 9.62141L 0.94779 9.11165L -0.947785 9.74946ZM -0.721216 10.3909C -0.763492 10.3071 0.610995 14.5455 4.18576 19.4797C 7.75305 24.3977 13.7386 30.2799 22.9715 33.8142L 23.6824 31.9448C 6.02327 25.229 1.20884 9.77619 1.06426 9.48973L -0.721216 10.3909ZM 22.9695 33.8134C 26.8355 35.2881 30.9602 35.9999 34.9047 36.0035L 34.9047 34.0035C 31.1306 34.0071 27.3653 33.3595 23.6844 31.9456L 22.9695 33.8134ZM 34.9047 36.0035C 46.8687 36.0035 58.3927 29.1301 61.7456 19.7938L 59.8633 19.1178C 56.8698 27.4532 46.2676 34.0035 34.9047 34.0035L 34.9047 36.0035ZM 61.7496 19.7822C 62.8869 16.48 63.3449 13.9291 63.2622 8.73405L 61.2625 8.7677C 61.3514 13.7678 60.9518 15.9747 59.8592 19.1294L 61.7496 19.7822ZM 63.2624 8.75087C 63.2593 5.61463 62.9002 3.30981 62.5484 1.84718C 62.3665 1.09606 62.1764 0.517203 62.0407 0.155491C 61.9691 -0.0347351 61.9037 -0.189637 61.8621 -0.28286C 61.8392 -0.334015 61.8181 -0.378954 61.8059 -0.404257C 61.7987 -0.419144 61.7915 -0.433628 61.7878 -0.441028C 61.7854 -0.445836 61.7827 -0.451099 61.7815 -0.453496C 61.7806 -0.455246 61.7795 -0.457385 61.779 -0.458258C 61.7786 -0.45897 61.7782 -0.459917 61.778 -0.460273C 61.7778 -0.460588 61.7776 -0.461031 61.7775 -0.461189C 61.7773 -0.461621 61.777 -0.462043 60.8902 1.29639e-06C 60.0033 0.462046 60.0031 0.461644 60.0029 0.461252C 60.0029 0.461134 60.0027 0.460752 60.0025 0.460517C 60.0026 0.460712 60.0017 0.458836 60.0019 0.459226C 60.002 0.459456 60.0007 0.456902 60.0009 0.457363C 60.0008 0.45718 60.0003 0.456152 60.0005 0.456514C 60.002 0.459455 60.0025 0.460506 60.0053 0.466403C 60.0132 0.482668 60.0216 0.500286 60.0362 0.533096C 60.0696 0.607801 60.1115 0.706452 60.1684 0.85872C 60.2901 1.182 60.443 1.6439 60.6041 2.31586C 60.9385 3.69939 61.2654 5.77001 61.2624 8.75087L 63.2624 8.75087ZM 34.9047 32.5592C 31.1014 32.5607 27.5123 32.1637 23.9489 30.7589L 23.2195 32.6212C 27.0316 34.1051 30.9894 34.5576 34.9047 34.5592L 34.9047 32.5592ZM 23.9379 30.7547C 8.37584 24.8698 2.95347 12.2734 2.05964 9.69746L 0.170155 10.3531C 1.16306 13.2146 6.8896 26.446 23.2305 32.6254L 23.9379 30.7547ZM 1.30127 11.0078L 5.33203 10.2431L 4.95927 8.27815L 0.928518 9.0428L 1.30127 11.0078ZM 5.01027 10.2514L 7.49733 10.5913L 7.7681 8.60968L 5.28104 8.26984L 5.01027 10.2514ZM 7.63271 9.60047C 6.66277 9.8438 6.66289 9.84429 6.66303 9.84483C 6.66309 9.84508 6.66324 9.84568 6.66337 9.84619C 6.66355 9.84692 6.66394 9.84844 6.66431 9.84989C 6.6649 9.85222 6.66602 9.85658 6.66722 9.86122C 6.66931 9.86933 6.67295 9.88323 6.67722 9.8993C 6.68516 9.92908 6.69823 9.97712 6.7147 10.0354C 6.74633 10.1472 6.79725 10.3202 6.865 10.5334C 6.99755 10.95 7.21142 11.5715 7.5113 12.3198C 8.10379 13.7956 9.08413 15.8834 10.5446 18.1502C 13.4446 22.6368 18.4615 28.0886 26.4523 31.5061L 27.2339 29.6651C 19.6163 26.4557 15.028 21.4149 12.2249 17.0656C 10.8338 14.9146 9.93814 12.9986 9.3675 11.5752C 9.08581 10.8739 8.89634 10.3218 8.77094 9.9273C 8.70971 9.73497 8.668 9.593 8.63925 9.49126C 8.62553 9.44278 8.61646 9.40939 8.60982 9.38443C 8.6068 9.37313 8.60503 9.36634 8.60355 9.36059C 8.60295 9.3583 8.60274 9.35745 8.60244 9.35629C 8.60237 9.356 8.60235 9.35592 8.60238 9.35607C 8.6024 9.35614 8.60247 9.35641 8.60248 9.35645C 8.60256 9.35677 8.60266 9.35715 7.63271 9.60047ZM 26.4535 31.5065C 34.9626 35.1067 42.9874 34.3265 49.3325 31.1393L 48.4348 29.3521C 42.6019 32.2821 35.1898 33.0312 27.2328 29.6646L 26.4535 31.5065ZM 48.4326 29.3533C 44.3334 31.4322 39.7577 32.5665 34.9047 32.5592L 34.9047 34.5592C 39.9999 34.5518 45.0293 33.3072 49.3348 31.1382L 48.4326 29.3533Z"/>
<path id="path23_fill" d="M 0.088173 1.33022e-06C 0.088173 0.0871783 2.69099e-06 0.174353 2.69099e-06 0.174353C 2.69099e-06 0.174353 -5.38067e-06 0.0871783 0.088173 1.33022e-06Z"/>
<path id="path24_stroke_2x" d="M 0.088173 1.33022e-06L 1.08817 1.33022e-06L 1.08817 -2.39485L -0.614884 -0.711132L 0.088173 1.33022e-06ZM 2.69099e-06 0.174353L -0.999997 0.174445L -0.999776 2.56909L 0.703082 0.885464L 2.69099e-06 0.174353ZM -0.911827 1.33022e-06C -0.911827 -0.260315 -0.79619 -0.422654 -0.785039 -0.439192C -0.76829 -0.464033 -0.753058 -0.482702 -0.741811 -0.495676C -0.747331 -0.489471 -0.721307 -0.518247 -0.723385 -0.516014C -0.7264 -0.512847 -0.71226 -0.527564 -0.713649 -0.526138C -0.715302 -0.524455 -0.707686 -0.532173 -0.70849 -0.531364C -0.709363 -0.530489 -0.705386 -0.534468 -0.705818 -0.534038C -0.706267 -0.533591 -0.704232 -0.535614 -0.704456 -0.535392C -0.704684 -0.535166 -0.703655 -0.536187 -0.703768 -0.536074C -0.703654 -0.536188 -0.70348 -0.536359 -0.703423 -0.536416C -0.70325 -0.536588 -0.703076 -0.536759 2.69099e-06 0.174353C 0.703082 0.885464 0.703256 0.885292 0.70343 0.88512C 0.703489 0.885061 0.703664 0.884888 0.703782 0.884771C 0.703901 0.884653 0.704255 0.884303 0.704493 0.884066C 0.704738 0.883823 0.705459 0.883106 0.705951 0.882616C 0.706467 0.882102 0.707961 0.880607 0.709001 0.879564C 0.710138 0.87842 0.713336 0.875185 0.715635 0.872842C 0.718316 0.870097 0.725541 0.862608 0.730968 0.856887C 0.737868 0.849546 0.755583 0.830154 0.769369 0.814415C 0.788647 0.791958 0.837087 0.730815 0.873215 0.678929C 0.928451 0.59701 1.08817 0.347495 1.08817 1.33022e-06L -0.911827 1.33022e-06ZM 2.69099e-06 0.174353C 1 0.17426 1 0.174754 1 0.175248C 1 0.175412 1 0.175907 1 0.176236C 1 0.175908 0.999993 0.178869 0.999995 0.178211C 0.999998 0.177557 0.999963 0.183475 0.999972 0.182162C 0.999983 0.180863 0.99984 0.192682 0.999878 0.190063C 0.999923 0.187498 0.999341 0.211093 0.999495 0.205875C 0.999674 0.200872 0.997283 0.248025 0.997914 0.237632C 0.998635 0.228035 0.988428 0.323229 0.991111 0.302309C 0.984814 0.345908 0.974572 0.39201 0.958626 0.439313C 0.925501 0.537576 0.87012 0.63314 0.79123 0.711135L -0.614884 -0.711132C -0.764147 -0.545276 -0.900311 -0.299173 -0.936584 -0.199576C -0.960275 -0.123128 -0.982576 -0.02081 -0.988352 0.01643C -0.992411 0.0468845 -0.9965 0.0885357 -0.997565 0.103241C -0.998369 0.116188 -0.999225 0.134506 -0.999447 0.14083C -0.999623 0.146707 -0.999817 0.155238 -0.999867 0.158137C -0.999908 0.160925 -0.999954 0.165033 -0.999966 0.166417C -0.999976 0.167772 -0.999987 0.169787 -0.99999 0.170462C -0.999992 0.17113 -0.999995 0.172128 -0.999996 0.172462C -0.999996 0.172793 -0.999997 0.17329 -0.999997 0.173455C -0.999997 0.17395 -0.999997 0.174445 2.69099e-06 0.174353Z"/>
<path id="path25_fill" d="M 50.0843 18.0115C 45.2817 7.81631 36.8772 2.71872 29.3302 0.849599C 29.1587 0.849599 29.0729 0.76464 28.9014 0.76464L 28.9014 0.849599C 28.9014 0.849599 28.8156 0.76464 28.7299 0.67968C 28.3011 0.59472 27.8723 0.509759 27.4435 0.424799C 25.814 0.169919 24.1846 -6.48193e-07 22.7266 -6.48193e-07C 19.382 -6.48193e-07 16.2946 0.76464 13.636 1.95408C 10.6343 3.31344 8.83337 4.248 5.14565 8.07119C 1.45794 11.8944 2.61721e-06 15.8875 2.61721e-06 15.8875C 2.61721e-06 15.8875 2.65859 10.7899 8.40457 8.07119C 13.3787 5.69232 15.8658 5.77728 18.6101 5.77728C 28.3868 5.69232 36.8772 12.9139 38.8497 22.6843C 40.9937 33.5592 34.3043 39.7612 34.2186 39.8462L 33.7898 40.271L 50.4274 51.0609L 50.6846 50.6361C 50.8562 50.2963 58.4031 35.3433 50.0843 18.0115ZM 50.1701 49.5316L 46.7397 47.3227L 45.196 45.4536C 45.196 45.4536 52.6571 32.7096 46.0536 17.077C 40.3933 3.73824 27.7007 -0.25488 17.6667 1.44432C 19.2962 1.01952 20.9256 0.849599 22.7266 0.849599C 31.8173 0.849599 43.4807 6.28704 49.3125 18.3513C 56.6021 33.6441 51.3707 46.9828 50.1701 49.5316Z"/>
<path id="path26_stroke_2x" d="M 50.0843 18.0115L 49.1796 18.4377L 49.1828 18.4442L 50.0843 18.0115ZM 29.3302 0.849599L 29.5706 -0.121075L 29.4522 -0.150401L 29.3302 -0.150401L 29.3302 0.849599ZM 28.9014 0.76464L 28.9014 -0.23536L 27.9014 -0.23536L 27.9014 0.76464L 28.9014 0.76464ZM 28.9014 0.849599L 28.1976 1.56001L 29.9014 3.24792L 29.9014 0.849599L 28.9014 0.849599ZM 28.7299 0.67968L 29.4337 -0.0307364L 29.2197 -0.242713L 28.9242 -0.301252L 28.7299 0.67968ZM 27.4435 0.424799L 27.6378 -0.556132L 27.618 -0.560062L 27.598 -0.563187L 27.4435 0.424799ZM 13.636 1.95408L 13.2276 1.04126L 13.2234 1.04314L 13.636 1.95408ZM 2.61721e-06 15.8875L -0.939345 15.5445L 0.886661 16.3499L 2.61721e-06 15.8875ZM 8.40457 8.07119L 8.83226 8.97513L 8.83601 8.97333L 8.40457 8.07119ZM 18.6101 5.77728L 18.6101 6.77731L 18.6188 6.77724L 18.6101 5.77728ZM 38.8497 22.6843L 39.8308 22.4909L 39.8299 22.4864L 38.8497 22.6843ZM 34.2186 39.8462L 33.5148 39.1358L 34.2186 39.8462ZM 33.7898 40.271L 33.086 39.5606L 32.2039 40.4344L 33.2456 41.11L 33.7898 40.271ZM 50.4274 51.0609L 49.8833 51.8999L 50.7485 52.4611L 51.2827 51.579L 50.4274 51.0609ZM 50.6846 50.6361L 51.54 51.1542L 51.56 51.1212L 51.5774 51.0867L 50.6846 50.6361ZM 50.1701 49.5316L 49.6287 50.3724L 50.5883 50.9904L 51.0747 49.9578L 50.1701 49.5316ZM 46.7397 47.3227L 45.9686 47.9595L 46.0676 48.0793L 46.1983 48.1635L 46.7397 47.3227ZM 45.196 45.4536L 44.333 44.9483L 43.9799 45.5515L 44.4249 46.0904L 45.196 45.4536ZM 46.0536 17.077L 46.9748 16.6878L 46.9741 16.6863L 46.0536 17.077ZM 17.6667 1.44432L 17.4145 0.476662L 17.8337 2.43028L 17.6667 1.44432ZM 49.3125 18.3513L 50.2152 17.9211L 50.2128 17.9161L 49.3125 18.3513ZM 50.989 17.5854C 46.0371 7.07338 37.3582 1.80763 29.5706 -0.121075L 29.0898 1.82027C 36.3962 3.6298 44.5263 8.55925 49.1797 18.4377L 50.989 17.5854ZM 29.3302 -0.150401C 29.4212 -0.150401 29.4931 -0.121386 29.4294 -0.142448C 29.3645 -0.163865 29.1639 -0.23536 28.9014 -0.23536L 28.9014 1.76464C 28.8104 1.76464 28.7385 1.73562 28.8022 1.75669C 28.8671 1.7781 29.0677 1.8496 29.3302 1.8496L 29.3302 -0.150401ZM 27.9014 0.76464L 27.9014 0.849599L 29.9014 0.849599L 29.9014 0.76464L 27.9014 0.76464ZM 28.9014 0.849599C 29.6052 0.139189 29.6052 0.139189 29.6052 0.139188C 29.6052 0.139188 29.6052 0.139187 29.6052 0.139185C 29.6052 0.139183 29.6052 0.139179 29.6052 0.139174C 29.6052 0.139163 29.6051 0.139148 29.6051 0.139127C 29.6051 0.139086 29.605 0.139025 29.6049 0.138943C 29.6048 0.138779 29.6045 0.138536 29.6042 0.138214C 29.6036 0.137571 29.6026 0.136617 29.6013 0.135372C 29.5988 0.132883 29.5951 0.129232 29.5904 0.124586C 29.5811 0.115293 29.5677 0.102018 29.5516 0.0860875C 29.5194 0.0542273 29.4765 0.0117453 29.4337 -0.0307364L 28.0261 1.3901C 28.069 1.43257 28.1119 1.47505 28.144 1.50691C 28.1601 1.52284 28.1735 1.53611 28.1829 1.54541C 28.1876 1.55005 28.1912 1.5537 28.1938 1.55619C 28.195 1.55744 28.196 1.55839 28.1966 1.55903C 28.197 1.55936 28.1972 1.5596 28.1974 1.55976C 28.1974 1.55984 28.1975 1.55991 28.1975 1.55995C 28.1976 1.55997 28.1976 1.55998 28.1976 1.55999C 28.1976 1.56 28.1976 1.56 28.1976 1.56C 28.1976 1.56001 28.1976 1.56001 28.1976 1.56001C 28.1976 1.56001 28.1976 1.56001 28.9014 0.849599ZM 28.9242 -0.301252C 28.4954 -0.386211 28.0666 -0.471172 27.6378 -0.556132L 27.2491 1.40573C 27.6779 1.49069 28.1067 1.57565 28.5355 1.66061L 28.9242 -0.301252ZM 27.598 -0.563187C 25.9432 -0.821703 24.2365 -0.998651 22.7266 -1L 22.7266 0.999999C 24.1326 0.99865 25.6848 1.16154 27.2889 1.41279L 27.598 -0.563187ZM 22.7266 -1C 19.2609 -0.992642 15.9689 -0.18084 13.2276 1.04127L 14.0444 2.86689C 16.6202 1.71012 19.503 0.992641 22.7266 0.999999L 22.7266 -1ZM 13.2234 1.04314C 10.124 2.44677 8.21377 3.44993 4.42591 7.37695L 5.8654 8.76543C 9.45296 5.04606 11.1446 4.18011 14.0485 2.86502L 13.2234 1.04314ZM 4.42591 7.37695C 2.52095 9.35806 1.16079 11.4176 0.317122 12.925C -0.110223 13.6902 -0.427332 14.3488 -0.627312 14.7953C -0.729572 15.024 -0.808181 15.2121 -0.857508 15.3343C -0.883188 15.398 -0.903782 15.4507 -0.916371 15.4835C -0.923145 15.5012 -0.92892 15.5165 -0.932269 15.5254C -0.934177 15.5305 -0.935953 15.5353 -0.936901 15.5379C -0.937489 15.5395 -0.938102 15.5412 -0.938395 15.5419C -0.938598 15.5425 -0.938836 15.5432 -0.938938 15.5434C -0.939017 15.5436 -0.939119 15.5439 -0.939158 15.544C -0.939254 15.5443 -0.939345 15.5445 2.61721e-06 15.8875C 0.93935 16.2305 0.939271 16.2307 0.939197 16.2309C 0.93918 16.2309 0.939111 16.2311 0.939077 16.2312C 0.939089 16.2312 0.93891 16.2317 0.938935 16.2316C 0.938871 16.2318 0.938921 16.2316 0.939047 16.2313C 0.93953 16.23 0.9399 16.229 0.940864 16.2264C 0.943257 16.22 0.946119 16.2124 0.950923 16.1999C 0.961492 16.1724 0.975821 16.1356 0.997209 16.0826C 1.04202 15.9715 1.10612 15.8178 1.19816 15.6124C 1.38679 15.1908 1.66464 14.6121 2.06275 13.9011C 2.86997 12.4562 4.08264 10.6075 5.8654 8.76543L 4.42591 7.37695ZM 2.61721e-06 15.8875C 0.886661 16.3499 0.88652 16.3502 0.886389 16.3505C 0.886359 16.3505 0.886238 16.3507 0.886178 16.3509C 0.886198 16.3508 0.885893 16.3514 0.885934 16.3513C 0.885813 16.3516 0.885926 16.3513 0.886165 16.3509C 0.88705 16.3492 0.887745 16.3479 0.889504 16.3446C 0.893854 16.3365 0.899053 16.3268 0.907721 16.3111C 0.926772 16.2764 0.952451 16.2304 0.990509 16.1649C 1.07027 16.0272 1.18309 15.8397 1.34306 15.5944C 1.67122 15.0903 2.14456 14.4211 2.80697 13.6495C 4.15182 12.0772 6.09254 10.2584 8.83226 8.97512L 7.97687 7.16727C 4.97062 8.60271 2.70906 10.6921 1.28812 12.3483C 0.567636 13.1909 0.0171992 13.966 -0.332684 14.5027C -0.511734 14.7778 -0.651514 15.0097 -0.739586 15.1615C -0.785447 15.2406 -0.822497 15.3068 -0.845196 15.3481C -0.857403 15.3704 -0.867834 15.3897 -0.873895 15.401C -0.877341 15.4074 -0.880547 15.4135 -0.882262 15.4167C -0.883323 15.4187 -0.884426 15.4208 -0.884955 15.4218C -0.88532 15.4225 -0.885746 15.4233 -0.885929 15.4237C -0.886071 15.424 -0.886252 15.4243 -0.886323 15.4244C -0.886494 15.4248 -0.886656 15.4251 2.61721e-06 15.8875ZM 8.83601 8.97333C 13.6199 6.68545 15.938 6.77728 18.6101 6.77728L 18.6101 4.77728C 15.7935 4.77728 13.1375 4.69918 7.97312 7.16906L 8.83601 8.97333ZM 18.6188 6.77724C 27.887 6.6967 35.9859 13.5523 37.8694 22.8822L 39.8299 22.4864C 37.7685 12.2755 28.8867 4.68793 18.6014 4.77731L 18.6188 6.77724ZM 37.8685 22.8777C 39.9094 33.2295 33.5504 39.1005 33.5148 39.1358L 34.9223 40.5566C 34.9123 40.5668 35.4084 40.1004 36.0632 39.2797C 36.6888 38.4904 37.5264 37.2758 38.2702 35.7475C 39.7639 32.6648 40.9514 28.175 39.8308 22.4909L 37.8685 22.8777ZM 33.5148 39.1358L 33.086 39.5606L 34.4935 40.9814L 34.9223 40.5566L 33.5148 39.1358ZM 33.2456 41.11L 49.8833 51.8999L 50.9715 50.2219L 34.3339 39.432L 33.2456 41.11ZM 51.2827 51.579L 51.54 51.1542L 49.8293 50.1181L 49.572 50.5429L 51.2827 51.579ZM 51.5774 51.0867C 51.7862 50.6729 59.5136 35.346 50.9859 17.5788L 49.1828 18.4442C 57.2926 35.3406 49.9261 49.9197 49.7919 50.1855L 51.5774 51.0867ZM 50.7115 48.6909L 47.281 46.4819L 46.1983 48.1635L 49.6287 50.3724L 50.7115 48.6909ZM 47.5107 46.6859L 45.967 44.8168L 44.4249 46.0904L 45.9686 47.9595L 47.5107 46.6859ZM 45.196 45.4536C 46.0589 45.9588 46.0592 45.9584 46.0595 45.9579C 46.0596 45.9577 46.0599 45.9571 46.0602 45.9567C 46.0606 45.956 46.0614 45.9547 46.0621 45.9534C 46.0633 45.9513 46.0656 45.9474 46.068 45.9432C 46.0721 45.936 46.0793 45.9235 46.0875 45.909C 46.1026 45.8823 46.1269 45.8388 46.1559 45.7858C 46.2114 45.684 46.296 45.525 46.3966 45.3257C 46.5929 44.9363 46.8742 44.3438 47.1824 43.6009C 47.7893 42.1353 48.5456 39.962 49.0812 37.3258C 50.1344 32.1021 50.3383 24.7096 46.9747 16.6878L 45.1324 17.4661C 48.3724 25.077 48.1475 31.8728 47.121 36.9292C 46.6168 39.4331 45.9205 41.4228 45.3348 42.8352C 45.0466 43.5314 44.7967 44.0566 44.6108 44.4252C 44.5202 44.6049 44.4509 44.735 44.4004 44.8275C 44.3764 44.8716 44.3595 44.9016 44.3469 44.924C 44.3411 44.9342 44.3377 44.9402 44.3347 44.9453C 44.3335 44.9473 44.3331 44.9481 44.3325 44.9491C 44.3324 44.9494 44.3323 44.9494 44.3324 44.9493C 44.3325 44.9492 44.3326 44.949 44.3326 44.949C 44.3328 44.9487 44.333 44.9483 45.196 45.4536ZM 46.9741 16.6863C 41.0977 2.83803 27.8948 -1.30198 17.4998 0.458356L 17.8337 2.43028C 27.5067 0.792218 39.689 4.63845 45.133 17.4676L 46.9741 16.6863ZM 17.919 2.41198C 19.4747 2.00346 20.9776 1.84825 22.7266 1.8496L 22.7266 -0.150401C 20.8737 -0.149052 19.1177 0.0355798 17.4145 0.476662L 17.919 2.41198ZM 22.7266 1.8496C 31.4657 1.8496 42.7609 7.09556 48.4121 18.7866L 50.2128 17.9161C 44.2006 5.47852 32.1688 -0.150401 22.7266 -0.150401L 22.7266 1.8496ZM 48.4098 18.7816C 55.5136 33.6845 50.4078 46.6803 49.2654 49.1055L 51.0747 49.9578C 52.3336 47.2854 57.6907 33.6037 50.2152 17.9211L 48.4098 18.7816Z"/>
<path id="path27_fill" d="M 2.63427e-06 3.05176e-06C 0.0863224 3.05176e-06 0.172639 3.05176e-06 0.172639 3.05176e-06C 0.172639 3.05176e-06 0.0863224 3.05176e-06 2.63427e-06 3.05176e-06Z"/>
<path id="path28_stroke_2x" d="M 2.63427e-06 1C 0.0431625 1 0.0863217 1 0.118691 1C 0.134876 1 0.148363 1 0.157804 1C 0.162524 1 0.166233 1 0.168762 1C 0.170026 1 0.170996 1 0.171649 1C 0.171976 1 0.172223 1 0.172389 1C 0.172472 1 0.172535 1 0.172577 1C 0.172597 1 0.172613 1 0.172624 1C 0.172629 1 0.172633 1 0.172636 1C 0.172637 1 0.172638 1 0.172638 1C 0.172639 1 0.172639 1 0.172639 3.05176e-06C 0.172639 -0.999997 0.172639 -0.999997 0.172638 -0.999997C 0.172638 -0.999997 0.172637 -0.999997 0.172636 -0.999997C 0.172633 -0.999997 0.172629 -0.999997 0.172624 -0.999997C 0.172613 -0.999997 0.172597 -0.999997 0.172577 -0.999997C 0.172535 -0.999997 0.172472 -0.999997 0.172389 -0.999997C 0.172223 -0.999997 0.171976 -0.999997 0.171649 -0.999997C 0.170996 -0.999997 0.170026 -0.999997 0.168762 -0.999997C 0.166233 -0.999997 0.162524 -0.999997 0.157804 -0.999997C 0.148363 -0.999997 0.134876 -0.999997 0.118691 -0.999997C 0.0863217 -0.999997 0.0431625 -0.999997 2.63427e-06 -0.999997L 2.63427e-06 1ZM 0.172639 3.05176e-06C 0.172639 -0.999997 0.172639 -0.999997 0.172638 -0.999997C 0.172638 -0.999997 0.172637 -0.999997 0.172636 -0.999997C 0.172633 -0.999997 0.172629 -0.999997 0.172624 -0.999997C 0.172613 -0.999997 0.172597 -0.999997 0.172577 -0.999997C 0.172535 -0.999997 0.172472 -0.999997 0.172389 -0.999997C 0.172223 -0.999997 0.171976 -0.999997 0.171649 -0.999997C 0.170996 -0.999997 0.170026 -0.999997 0.168762 -0.999997C 0.166233 -0.999997 0.162524 -0.999997 0.157804 -0.999997C 0.148363 -0.999997 0.134876 -0.999997 0.118691 -0.999997C 0.0863217 -0.999997 0.0431625 -0.999997 2.63427e-06 -0.999997L 2.63427e-06 1C 0.0431625 1 0.0863217 1 0.118691 1C 0.134876 1 0.148363 1 0.157804 1C 0.162524 1 0.166233 1 0.168762 1C 0.170026 1 0.170996 1 0.171649 1C 0.171976 1 0.172223 1 0.172389 1C 0.172472 1 0.172535 1 0.172577 1C 0.172597 1 0.172613 1 0.172624 1C 0.172629 1 0.172633 1 0.172636 1C 0.172637 1 0.172638 1 0.172638 1C 0.172639 1 0.172639 1 0.172639 3.05176e-06Z"/>
<path id="path29_fill" d="M 45.7144 1.10448C 45.5429 1.01952 42.1124 0 36.7095 0C 30.9635 0 22.3017 1.2744 13.6398 7.30655C 6.43592 12.3192 1.71907 19.7107 0.346899 28.0368C -0.682231 34.6637 0.604187 41.2056 3.8631 45.6235C 5.92136 48.3422 6.77896 49.7865 10.8955 52.6752C 15.8696 56.1585 19.9861 56.5833 19.9861 56.5833C 19.9861 56.5833 12.1819 54.1195 7.63657 43.6694C 3.69157 33.1344 9.18027 21.5798 19.9861 17.4168C 22.559 16.4822 25.1318 15.9725 27.6188 15.9725C 31.8211 15.9725 34.9943 17.3318 36.6237 18.2664C 37.3956 18.6912 38.2532 19.2859 38.2532 19.2859L 38.5105 18.6062L 46.0574 1.18944L 45.7144 1.10448ZM 43.3131 5.5224L 41.6836 7.39151C 41.6836 7.39151 27.7046 2.29392 13.3826 11.3846C 1.11876 19.2009 -0.767982 32.2848 2.66245 41.7153C 0.947235 37.8921 0.43266 33.0494 1.20451 28.1217C 2.49092 19.9656 7.122 12.8289 14.0686 7.98623C 22.559 2.03904 31.0493 0.849599 36.6237 0.849599C 40.7403 0.849599 43.7419 1.52928 44.8568 1.78416L 43.3131 5.5224Z"/>
<path id="path30_stroke_2x" d="M 45.7144 1.10448L 45.2705 2.00057L 45.3682 2.04895L 45.474 2.07515L 45.7144 1.10448ZM 13.6398 7.30655L 14.211 8.12739L 14.2113 8.12717L 13.6398 7.30655ZM 0.346899 28.0368L -0.639834 27.8742L -0.641257 27.8833L 0.346899 28.0368ZM 3.8631 45.6235L 3.05829 46.2172L 3.06581 46.2271L 3.8631 45.6235ZM 10.8955 52.6752L 10.3211 53.4937L 10.3219 53.4943L 10.8955 52.6752ZM 19.9861 56.5833L 19.8835 57.578L 20.2872 55.6297L 19.9861 56.5833ZM 7.63657 43.6694L 6.70008 44.0201L 6.70919 44.0444L 6.71956 44.0683L 7.63657 43.6694ZM 19.9861 17.4168L 19.6447 16.4769L 19.6356 16.4802L 19.6266 16.4836L 19.9861 17.4168ZM 36.6237 18.2664L 36.1262 19.1338L 36.1339 19.1382L 36.1416 19.1425L 36.6237 18.2664ZM 38.2532 19.2859L 37.6833 20.1077L 38.7353 20.8371L 39.1884 19.6399L 38.2532 19.2859ZM 38.5105 18.6062L 37.5929 18.2086L 37.5836 18.2302L 37.5752 18.2522L 38.5105 18.6062ZM 46.0574 1.18944L 46.975 1.58703L 47.4448 0.502832L 46.2978 0.218767L 46.0574 1.18944ZM 43.3131 5.5224L 44.0669 6.17952L 44.1747 6.0558L 44.2374 5.90408L 43.3131 5.5224ZM 41.6836 7.39151L 41.341 8.331L 41.9862 8.56625L 42.4374 8.04864L 41.6836 7.39151ZM 13.3826 11.3846L 12.8467 10.5403L 12.8451 10.5413L 13.3826 11.3846ZM 2.66245 41.7153L 1.75006 42.1247L 3.60221 41.3735L 2.66245 41.7153ZM 1.20451 28.1217L 0.216717 27.9659L 0.216553 27.967L 1.20451 28.1217ZM 14.0686 7.98623L 14.6405 8.80657L 14.6424 8.80529L 14.0686 7.98623ZM 44.8568 1.78416L 45.7811 2.16584L 46.2324 1.07285L 45.0796 0.809309L 44.8568 1.78416ZM 46.1582 0.208385C 46.0443 0.151944 45.8806 0.102667 45.7855 0.0743181C 45.6552 0.0355121 45.4644 -0.0172279 45.2373 -0.0740853C 44.7937 -0.184891 44.1429 -0.328273 43.3421 -0.465345C 41.7609 -0.735049 39.4684 -0.99835 36.7095 -1L 36.7095 1C 39.3535 0.99835 41.4777 1.24481 43.0054 1.5061C 43.759 1.63453 44.3357 1.76196 44.7523 1.86621C 44.9553 1.91688 45.1029 1.95773 45.2141 1.99094C 45.3605 2.03461 45.3416 2.03577 45.2705 2.00057L 46.1582 0.208385ZM 36.7095 -1C 30.8905 -0.997334 21.9334 0.344698 13.0683 6.48594L 14.2113 8.12717C 22.67 2.2041 31.0365 0.997334 36.7095 1L 36.7095 -1ZM 13.0687 6.48571C 5.65082 11.6472 0.777826 19.2724 -0.639792 27.8742L 1.33359 28.1994C 2.66032 20.1491 7.22102 12.9912 14.211 8.12739L 13.0687 6.48571ZM -0.641257 27.8833C -1.70098 34.7072 -0.394795 41.5359 3.05836 46.2171L 4.66784 45.0299C 1.60317 40.8753 0.336517 34.6201 1.33505 28.1902L -0.641257 27.8833ZM 3.06581 46.2271C 5.13408 48.959 6.06946 50.5103 10.3211 53.4937L 11.4699 51.8566C 7.48847 49.0628 6.70864 47.7254 4.66038 45.0199L 3.06581 46.2271ZM 10.3219 53.4943C 12.8957 55.2903 15.3015 56.3292 16.9944 56.8857C 17.858 57.1682 18.5844 57.3444 19.066 57.4425C 19.3148 57.4929 19.5201 57.5274 19.6506 57.5471C 19.7197 57.5575 19.7781 57.5654 19.8134 57.5698C 19.8329 57.5723 19.8505 57.5744 19.8603 57.5755C 19.8662 57.5762 19.872 57.5768 19.8749 57.5771C 19.8768 57.5773 19.879 57.5776 19.88 57.5777C 19.8807 57.5777 19.8816 57.5778 19.8819 57.5779C 19.8822 57.5779 19.8826 57.5779 19.8827 57.578C 19.8831 57.578 19.8835 57.578 19.9861 56.5833C 20.0888 55.5886 20.0891 55.5886 20.0894 55.5887C 20.0895 55.5887 20.0898 55.5887 20.09 55.5887C 20.0899 55.5887 20.091 55.5888 20.0908 55.5888C 20.0908 55.5888 20.0914 55.5889 20.0914 55.5889C 20.0903 55.5888 20.0901 55.5887 20.088 55.5885C 20.082 55.5878 20.0759 55.5871 20.064 55.5856C 20.0365 55.5821 20.0017 55.5775 19.9485 55.5694C 19.8344 55.5523 19.6793 55.5264 19.4644 55.4826C 19.0187 55.3921 18.4051 55.2445 17.6178 54.9853C 16.0089 54.4585 13.8694 53.5434 11.4691 51.856L 10.3219 53.4943ZM 19.9861 56.5833C 20.2872 55.6297 20.2877 55.6299 20.2881 55.63C 20.2882 55.63 20.2886 55.6302 20.2888 55.6302C 20.2887 55.6302 20.2899 55.6306 20.2897 55.6305C 20.29 55.6306 20.29 55.6306 20.2894 55.6304C 20.287 55.6296 20.2853 55.6291 20.2805 55.6275C 20.2683 55.6234 20.2543 55.6186 20.2306 55.6103C 20.178 55.5917 20.1089 55.5664 20.0092 55.5269C 19.7988 55.4439 19.5131 55.3229 19.1366 55.1375C 18.3606 54.7568 17.3269 54.172 16.1225 53.2501C 13.6633 51.3776 10.742 48.3409 8.55358 43.2705L 6.71956 44.0683C 9.07644 49.448 12.3299 52.8683 14.9092 54.8401C 16.224 55.8405 17.4255 56.5248 18.2548 56.9326C 18.6809 57.1415 19.0404 57.2946 19.2746 57.3871C 19.3972 57.4355 19.5003 57.4733 19.5641 57.4959C 19.5987 57.5081 19.6291 57.5185 19.6467 57.5244C 19.6568 57.5278 19.6664 57.5309 19.6715 57.5326C 19.6747 57.5336 19.6781 57.5347 19.6797 57.5352C 19.6809 57.5356 19.6822 57.536 19.6828 57.5362C 19.6832 57.5363 19.6838 57.5365 19.684 57.5366C 19.6846 57.5368 19.6851 57.5369 19.9861 56.5833ZM 8.57306 43.3187C 4.83249 33.3296 10.0191 22.3283 20.3456 18.3499L 19.6266 16.4836C 8.34149 20.8313 2.55065 32.9391 6.70008 44.0201L 8.57306 43.3187ZM 20.3276 18.3567C 22.8276 17.4455 25.2294 16.9677 27.6188 16.9725L 27.6188 14.9725C 25.0341 14.9772 22.2903 15.519 19.6447 16.4769L 20.3276 18.3567ZM 27.6188 16.9725C 31.6062 16.9725 34.6088 18.2636 36.1262 19.1338L 37.1213 17.3989C 35.3797 16.4001 32.0361 14.9725 27.6188 14.9725L 27.6188 16.9725ZM 36.1416 19.1425C 36.5032 19.341 36.8796 19.577 37.1835 19.7743C 37.3336 19.8717 37.4575 19.9543 37.5478 20.0153C 37.5921 20.0452 37.6257 20.0681 37.6498 20.0846C 37.6614 20.0926 37.6698 20.0983 37.6758 20.1025C 37.6787 20.1044 37.6805 20.1057 37.682 20.1067C 37.6826 20.1072 37.683 20.1074 37.6833 20.1076C 37.6834 20.1077 37.6834 20.1077 37.6835 20.1077C 37.6835 20.1077 37.6834 20.1077 37.6834 20.1077C 37.6834 20.1077 37.6834 20.1077 37.6834 20.1077C 37.6834 20.1077 37.6833 20.1077 38.2532 19.2859C 38.823 18.4642 38.823 18.4641 38.823 18.4641C 38.8229 18.4641 38.8229 18.4641 38.8229 18.464C 38.8228 18.464 38.8227 18.4639 38.8226 18.4639C 38.8225 18.4637 38.8222 18.4635 38.8219 18.4633C 38.8213 18.463 38.8204 18.4624 38.8194 18.4616C 38.8176 18.4604 38.8145 18.4583 38.8109 18.4558C 38.804 18.451 38.7932 18.4436 38.7799 18.4344C 38.754 18.4167 38.7147 18.3899 38.6665 18.3574C 38.5718 18.2936 38.4331 18.201 38.2723 18.0966C 37.9545 17.8904 37.5161 17.6165 37.1059 17.3903L 36.1416 19.1425ZM 39.1884 19.6399L 39.4457 18.9602L 37.5752 18.2522L 37.318 18.9319L 39.1884 19.6399ZM 39.428 19.0038L 46.975 1.58703L 45.1399 0.791846L 37.5929 18.2086L 39.428 19.0038ZM 46.2978 0.218767L 45.9548 0.133807L 45.474 2.07515L 45.817 2.16011L 46.2978 0.218767ZM 42.5593 4.86527L 40.9298 6.73439L 42.4374 8.04864L 44.0669 6.17952L 42.5593 4.86527ZM 41.6836 7.39151C 42.0262 6.45203 42.0258 6.45186 42.0252 6.45167C 42.025 6.45158 42.0244 6.45137 42.0239 6.45119C 42.0232 6.45094 42.0217 6.4504 42.0203 6.4499C 42.0181 6.44908 42.0138 6.44756 42.0093 6.44595C 42.0014 6.44313 41.9879 6.43833 41.9721 6.43284C 41.9429 6.42267 41.8957 6.40648 41.8379 6.38733C 41.7271 6.35059 41.5547 6.29544 41.3393 6.23149C 40.9181 6.10667 40.2809 5.93375 39.4895 5.76019C 37.9277 5.41873 35.639 5.05239 32.93 4.9794C 27.5619 4.84262 20.198 5.90089 12.8467 10.5403L 13.9185 12.2289C 20.8892 7.77766 27.6758 6.83937 32.8778 6.97871C 35.4537 7.04378 37.5549 7.38367 39.0618 7.71393C 39.8047 7.87622 40.3715 8.03053 40.7707 8.14897C 40.9655 8.20666 41.1074 8.25215 41.2083 8.28564C 41.2565 8.3016 41.2895 8.31293 41.3141 8.32149C 41.3252 8.32537 41.3319 8.32775 41.3376 8.32976C 41.3398 8.33056 41.3407 8.33087 41.3418 8.33128C 41.3421 8.33139 41.3422 8.33142 41.3421 8.33137C 41.342 8.33135 41.3417 8.33125 41.3417 8.33124C 41.3414 8.33113 41.341 8.331 41.6836 7.39151ZM 12.8451 10.5413C 0.123478 18.6494 -1.84118 32.2598 1.72269 42.0572L 3.60221 41.3735C 0.305214 32.3098 2.11403 19.7524 13.92 12.2279L 12.8451 10.5413ZM 3.57484 41.306C 1.95337 37.6918 1.44461 33.0509 2.19246 28.2765L 0.216553 27.967C -0.579293 33.0479 -0.0588994 38.0925 1.75006 42.1247L 3.57484 41.306ZM 2.1923 28.2775C 3.43381 20.406 7.90374 13.503 14.6405 8.80657L 13.4967 7.1659C 6.34026 12.1549 1.54803 19.5251 0.216718 27.9659L 2.1923 28.2775ZM 14.6424 8.80529C 22.9253 2.9695 31.1188 1.84718 36.6237 1.8496L 36.6237 -0.150401C 30.9797 -0.14798 22.1926 1.10857 13.4949 7.16718L 14.6424 8.80529ZM 36.6237 1.8496C 40.6291 1.84341 43.52 2.50436 44.6339 2.75901L 45.0796 0.809309C 43.9637 0.554199 40.8514 -0.144209 36.6237 -0.150401L 36.6237 1.8496ZM 43.9325 1.40247L 42.3888 5.14071L 44.2374 5.90408L 45.7811 2.16584L 43.9325 1.40247Z"/>
</defs>
</svg>
