<svg width="70" height="150" viewBox="0 0 70 150" version="1.1" xmlns="http://www.w3.org/2000/svg" xmlns:xlink="http://www.w3.org/1999/xlink">
<title>facebook-letter-logo</title>
<desc>Created using Figma</desc>
<g id="Canvas" transform="translate(-949 1940)">
<g id="facebook-letter-logo">
<g id="Group">
<g id="Facebook">
<use xlink:href="#path0_fill" transform="translate(949 -1940)" fill="#000033"/>
</g>
</g>
</g>
</g>
<defs>
<path id="path0_fill" d="M 15.1301 29.0502C 15.1301 32.8303 15.1301 49.7023 15.1301 49.7023L -2.97997e-07 49.7023L -2.97997e-07 74.9557L 15.1301 74.9557L 15.1301 150L 46.2106 150L 46.2106 74.9578L 67.0671 74.9578C 67.0671 74.9578 69.0204 62.849 69.9672 49.6092C 67.2526 49.6092 46.3282 49.6092 46.3282 49.6092C 46.3282 49.6092 46.3282 34.9175 46.3282 32.3424C 46.3282 29.7617 49.7169 26.2902 53.0662 26.2902C 56.4092 26.2902 63.4649 26.2902 70 26.2902C 70 22.852 70 10.9719 70 9.02252e-08C 61.2759 9.02252e-08 51.3507 9.02252e-08 46.9758 9.02252e-08C 14.3619 -0.00174364 15.1301 25.2768 15.1301 29.0502Z"/>
</defs>
</svg>
