<svg width="729" height="164" viewBox="0 0 729 164" version="1.1" xmlns="http://www.w3.org/2000/svg" xmlns:xlink="http://www.w3.org/1999/xlink">
<title>title-deco-dot</title>
<desc>Created using Figma</desc>
<g id="Canvas" transform="translate(-1115 1171)">
<g id="title-deco-dot">
<g id="Group">
<g id="Canvas">
<g id="Group" opacity="0.6">
<g id="Vector">
<g id="Vector" opacity="0.25">
<use xlink:href="#path0_fill" transform="translate(1115.1 -1080.43)" fill="#E3E1D9"/>
</g>
</g>
<g id="Vector">
<g id="Vector" opacity="0.25">
<use xlink:href="#path1_fill" transform="translate(1145.77 -1110.5)" fill="#E3E1D9"/>
</g>
</g>
<g id="Vector">
<g id="Vector" opacity="0.25">
<use xlink:href="#path2_fill" transform="translate(1176.51 -1140.76)" fill="#E3E1D9"/>
</g>
</g>
<g id="Vector">
<g id="Vector" opacity="0.25">
<use xlink:href="#path3_fill" transform="translate(1207.26 -1171)" fill="#E3E1D9"/>
</g>
</g>
<g id="Vector">
<g id="Vector" opacity="0.25">
<use xlink:href="#path4_fill" transform="translate(1115.13 -1050.16)" fill="#E3E1D9"/>
</g>
</g>
<g id="Vector">
<g id="Vector" opacity="0.25">
<use xlink:href="#path5_fill" transform="translate(1146.01 -1080.51)" fill="#E3E1D9"/>
</g>
</g>
<g id="Vector">
<g id="Vector" opacity="0.25">
<use xlink:href="#path6_fill" transform="translate(1176.6 -1110.68)" fill="#E3E1D9"/>
</g>
</g>
<g id="Vector">
<g id="Vector" opacity="0.25">
<use xlink:href="#path7_fill" transform="translate(1207.35 -1140.78)" fill="#E3E1D9"/>
</g>
</g>
<g id="Vector">
<g id="Vector" opacity="0.25">
<use xlink:href="#path8_fill" transform="translate(1238.1 -1171)" fill="#E3E1D9"/>
</g>
</g>
<g id="Vector">
<g id="Vector" opacity="0.25">
<use xlink:href="#path9_fill" transform="translate(1145.84 -1050.24)" fill="#E3E1D9"/>
</g>
</g>
<g id="Vector">
<g id="Vector" opacity="0.25">
<use xlink:href="#path10_fill" transform="translate(1176.6 -1080.46)" fill="#E3E1D9"/>
</g>
</g>
<g id="Vector">
<g id="Vector" opacity="0.25">
<use xlink:href="#path11_fill" transform="translate(1207.37 -1110.58)" fill="#E3E1D9"/>
</g>
</g>
<g id="Vector">
<g id="Vector" opacity="0.25">
<use xlink:href="#path12_fill" transform="translate(1238.12 -1140.8)" fill="#E3E1D9"/>
</g>
</g>
<g id="Vector">
<g id="Vector" opacity="0.25">
<use xlink:href="#path13_fill" transform="translate(1115.09 -1140.74)" fill="#E3E1D9"/>
</g>
</g>
<g id="Vector">
<g id="Vector" opacity="0.25">
<use xlink:href="#path14_fill" transform="translate(1145.84 -1170.96)" fill="#E3E1D9"/>
</g>
</g>
<g id="Vector">
<g id="Vector" opacity="0.25">
<use xlink:href="#path15_fill" transform="translate(1115 -1110.54)" fill="#E3E1D9"/>
</g>
</g>
<g id="Vector">
<g id="Vector" opacity="0.25">
<use xlink:href="#path16_fill" transform="translate(1145.86 -1140.87)" fill="#E3E1D9"/>
</g>
</g>
<g id="Vector">
<g id="Vector" opacity="0.25">
<use xlink:href="#path17_fill" transform="translate(1176.47 -1170.98)" fill="#E3E1D9"/>
</g>
</g>
<g id="Vector">
<g id="Vector" opacity="0.25">
<use xlink:href="#path18_fill" transform="translate(1207.35 -1019.9)" fill="#E3E1D9"/>
</g>
</g>
<g id="Vector">
<g id="Vector" opacity="0.25">
<use xlink:href="#path19_fill" transform="translate(1238.1 -1050.12)" fill="#E3E1D9"/>
</g>
</g>
<g id="Vector">
<g id="Vector" opacity="0.25">
<use xlink:href="#path20_fill" transform="translate(1268.73 -1080.34)" fill="#E3E1D9"/>
</g>
</g>
<g id="Vector">
<g id="Vector" opacity="0.25">
<use xlink:href="#path21_fill" transform="translate(1238.12 -1019.98)" fill="#E3E1D9"/>
</g>
</g>
<g id="Vector">
<g id="Vector" opacity="0.25">
<use xlink:href="#path22_fill" transform="translate(1268.86 -1050.12)" fill="#E3E1D9"/>
</g>
</g>
<g id="Vector">
<g id="Vector" opacity="0.25">
<use xlink:href="#path23_fill" transform="translate(1145.75 -1019.94)" fill="#E3E1D9"/>
</g>
</g>
<g id="Vector">
<g id="Vector" opacity="0.25">
<use xlink:href="#path24_fill" transform="translate(1176.47 -1050.12)" fill="#E3E1D9"/>
</g>
</g>
<g id="Vector">
<g id="Vector" opacity="0.25">
<use xlink:href="#path25_fill" transform="translate(1207.22 -1080.34)" fill="#E3E1D9"/>
</g>
</g>
<g id="Vector">
<g id="Vector" opacity="0.25">
<use xlink:href="#path26_fill" transform="translate(1238.08 -1110.52)" fill="#E3E1D9"/>
</g>
</g>
<g id="Vector">
<g id="Vector" opacity="0.25">
<use xlink:href="#path27_fill" transform="translate(1268.77 -1140.76)" fill="#E3E1D9"/>
</g>
</g>
<g id="Vector">
<g id="Vector" opacity="0.25">
<use xlink:href="#path28_fill" transform="translate(1176.62 -1019.98)" fill="#E3E1D9"/>
</g>
</g>
<g id="Vector">
<g id="Vector" opacity="0.25">
<use xlink:href="#path29_fill" transform="translate(1207.28 -1050.12)" fill="#E3E1D9"/>
</g>
</g>
<g id="Vector">
<g id="Vector" opacity="0.25">
<use xlink:href="#path30_fill" transform="translate(1237.97 -1080.34)" fill="#E3E1D9"/>
</g>
</g>
<g id="Vector">
<g id="Vector" opacity="0.25">
<use xlink:href="#path31_fill" transform="translate(1268.88 -1110.58)" fill="#E3E1D9"/>
</g>
</g>
</g>
<g id="Group" opacity="0.6">
<g id="Vector">
<g id="Vector" opacity="0.25">
<use xlink:href="#path0_fill" transform="translate(1677.1 -1080.43)" fill="#E3E1D9"/>
</g>
</g>
<g id="Vector">
<g id="Vector" opacity="0.25">
<use xlink:href="#path1_fill" transform="translate(1707.77 -1110.5)" fill="#E3E1D9"/>
</g>
</g>
<g id="Vector">
<g id="Vector" opacity="0.25">
<use xlink:href="#path2_fill" transform="translate(1738.51 -1140.76)" fill="#E3E1D9"/>
</g>
</g>
<g id="Vector">
<g id="Vector" opacity="0.25">
<use xlink:href="#path3_fill" transform="translate(1769.26 -1171)" fill="#E3E1D9"/>
</g>
</g>
<g id="Vector">
<g id="Vector" opacity="0.25">
<use xlink:href="#path4_fill" transform="translate(1677.13 -1050.16)" fill="#E3E1D9"/>
</g>
</g>
<g id="Vector">
<g id="Vector" opacity="0.25">
<use xlink:href="#path5_fill" transform="translate(1708.01 -1080.51)" fill="#E3E1D9"/>
</g>
</g>
<g id="Vector">
<g id="Vector" opacity="0.25">
<use xlink:href="#path6_fill" transform="translate(1738.6 -1110.68)" fill="#E3E1D9"/>
</g>
</g>
<g id="Vector">
<g id="Vector" opacity="0.25">
<use xlink:href="#path7_fill" transform="translate(1769.35 -1140.78)" fill="#E3E1D9"/>
</g>
</g>
<g id="Vector">
<g id="Vector" opacity="0.25">
<use xlink:href="#path8_fill" transform="translate(1800.1 -1171)" fill="#E3E1D9"/>
</g>
</g>
<g id="Vector">
<g id="Vector" opacity="0.25">
<use xlink:href="#path9_fill" transform="translate(1707.84 -1050.24)" fill="#E3E1D9"/>
</g>
</g>
<g id="Vector">
<g id="Vector" opacity="0.25">
<use xlink:href="#path10_fill" transform="translate(1738.6 -1080.46)" fill="#E3E1D9"/>
</g>
</g>
<g id="Vector">
<g id="Vector" opacity="0.25">
<use xlink:href="#path11_fill" transform="translate(1769.37 -1110.58)" fill="#E3E1D9"/>
</g>
</g>
<g id="Vector">
<g id="Vector" opacity="0.25">
<use xlink:href="#path12_fill" transform="translate(1800.12 -1140.8)" fill="#E3E1D9"/>
</g>
</g>
<g id="Vector">
<g id="Vector" opacity="0.25">
<use xlink:href="#path13_fill" transform="translate(1677.09 -1140.74)" fill="#E3E1D9"/>
</g>
</g>
<g id="Vector">
<g id="Vector" opacity="0.25">
<use xlink:href="#path14_fill" transform="translate(1707.84 -1170.96)" fill="#E3E1D9"/>
</g>
</g>
<g id="Vector">
<g id="Vector" opacity="0.25">
<use xlink:href="#path15_fill" transform="translate(1677 -1110.54)" fill="#E3E1D9"/>
</g>
</g>
<g id="Vector">
<g id="Vector" opacity="0.25">
<use xlink:href="#path16_fill" transform="translate(1707.86 -1140.87)" fill="#E3E1D9"/>
</g>
</g>
<g id="Vector">
<g id="Vector" opacity="0.25">
<use xlink:href="#path17_fill" transform="translate(1738.47 -1170.98)" fill="#E3E1D9"/>
</g>
</g>
<g id="Vector">
<g id="Vector" opacity="0.25">
<use xlink:href="#path18_fill" transform="translate(1769.35 -1019.9)" fill="#E3E1D9"/>
</g>
</g>
<g id="Vector">
<g id="Vector" opacity="0.25">
<use xlink:href="#path19_fill" transform="translate(1800.1 -1050.12)" fill="#E3E1D9"/>
</g>
</g>
<g id="Vector">
<g id="Vector" opacity="0.25">
<use xlink:href="#path20_fill" transform="translate(1830.73 -1080.34)" fill="#E3E1D9"/>
</g>
</g>
<g id="Vector">
<g id="Vector" opacity="0.25">
<use xlink:href="#path21_fill" transform="translate(1800.12 -1019.98)" fill="#E3E1D9"/>
</g>
</g>
<g id="Vector">
<g id="Vector" opacity="0.25">
<use xlink:href="#path22_fill" transform="translate(1830.86 -1050.12)" fill="#E3E1D9"/>
</g>
</g>
<g id="Vector">
<g id="Vector" opacity="0.25">
<use xlink:href="#path23_fill" transform="translate(1707.75 -1019.94)" fill="#E3E1D9"/>
</g>
</g>
<g id="Vector">
<g id="Vector" opacity="0.25">
<use xlink:href="#path24_fill" transform="translate(1738.47 -1050.12)" fill="#E3E1D9"/>
</g>
</g>
<g id="Vector">
<g id="Vector" opacity="0.25">
<use xlink:href="#path25_fill" transform="translate(1769.22 -1080.34)" fill="#E3E1D9"/>
</g>
</g>
<g id="Vector">
<g id="Vector" opacity="0.25">
<use xlink:href="#path26_fill" transform="translate(1800.08 -1110.52)" fill="#E3E1D9"/>
</g>
</g>
<g id="Vector">
<g id="Vector" opacity="0.25">
<use xlink:href="#path27_fill" transform="translate(1830.77 -1140.76)" fill="#E3E1D9"/>
</g>
</g>
<g id="Vector">
<g id="Vector" opacity="0.25">
<use xlink:href="#path28_fill" transform="translate(1738.62 -1019.98)" fill="#E3E1D9"/>
</g>
</g>
<g id="Vector">
<g id="Vector" opacity="0.25">
<use xlink:href="#path29_fill" transform="translate(1769.28 -1050.12)" fill="#E3E1D9"/>
</g>
</g>
<g id="Vector">
<g id="Vector" opacity="0.25">
<use xlink:href="#path30_fill" transform="translate(1799.97 -1080.34)" fill="#E3E1D9"/>
</g>
</g>
<g id="Vector">
<g id="Vector" opacity="0.25">
<use xlink:href="#path31_fill" transform="translate(1830.88 -1110.58)" fill="#E3E1D9"/>
</g>
</g>
</g>
</g>
</g>
<g id="TICKET">
<use xlink:href="#path32_fill" transform="translate(1283 -1180.14)" fill="#F1E28C"/>
</g>
</g>
</g>
<defs>
<path id="path0_fill" d="M 10.8583 11.278C 13.6073 8.74552 13.9509 4.86239 11.3738 2.16107C 8.79664 -0.540245 4.84505 -0.709108 2.26793 1.65454C -0.481005 4.18701 -0.8246 8.07022 1.75253 10.7715C 4.15786 13.4728 8.10941 13.6416 10.8583 11.278Z"/>
<path id="path1_fill" d="M 10.936 11.1267C 13.6849 8.59423 13.8567 4.71111 11.2796 2.0098C 8.70248 -0.52268 4.75086 -0.691531 2.17374 1.67212C -0.575196 4.20458 -0.746972 8.08771 1.83015 10.789C 4.40728 13.3215 8.35883 13.4904 10.936 11.1267Z"/>
<path id="path2_fill" d="M 11.1267 10.9957C 13.8757 8.46323 13.8757 4.41125 11.1267 1.87879C 8.54961 -0.653695 4.42619 -0.653733 1.84908 2.04758C -0.728042 4.58007 -0.556227 8.46323 2.0209 10.9957C 4.59802 13.5282 8.54961 13.5282 11.1267 10.9957Z"/>
<path id="path3_fill" d="M 11.1267 11.0163C 13.8757 8.48386 13.8757 4.43184 11.1267 1.89936C 8.54958 -0.63312 4.59803 -0.63312 2.0209 1.89936C -0.556225 4.43184 -0.728044 8.315 1.84908 10.8475C 4.59803 13.5488 8.54958 13.5488 11.1267 11.0163Z"/>
<path id="path4_fill" d="M 2.0617 1.77274C -0.687233 4.30523 -0.687233 8.35721 2.0617 10.8897C 4.63883 13.4222 8.59046 13.4222 11.1676 10.8897C 13.9165 8.35721 13.9165 4.30523 11.1676 1.77274C 8.59046 -0.590912 4.63883 -0.590912 2.0617 1.77274Z"/>
<path id="path5_fill" d="M 11.0387 11.0163C 13.6158 8.48381 13.6158 4.43183 11.0387 1.89936C 8.46158 -0.633121 4.50995 -0.633121 1.93284 1.89936C -0.644281 4.43183 -0.644281 8.48381 1.93284 11.0163C 4.50995 13.7176 8.46158 13.7176 11.0387 11.0163Z"/>
<path id="path6_fill" d="M 11.0387 11.1429C 13.7876 8.61044 13.7876 4.72731 11.2105 2.02598C 8.63337 -0.675328 4.50996 -0.675328 1.93284 2.02598C -0.64428 4.55846 -0.64428 8.44159 1.93284 10.9741C 4.50996 13.5065 8.28972 13.6754 11.0387 11.1429Z"/>
<path id="path7_fill" d="M 11.2105 10.8474C 13.7876 8.31497 13.7876 4.43184 11.2105 1.89936C 8.63334 -0.633121 4.50997 -0.633121 1.93284 1.89936C -0.64428 4.43184 -0.64428 8.31497 1.93284 10.8474C 4.50997 13.5487 8.63334 13.5487 11.2105 10.8474Z"/>
<path id="path8_fill" d="M 11.2105 10.8475C 13.7876 8.315 13.7876 4.43184 11.2105 1.89936C 8.63336 -0.63312 4.50998 -0.63312 1.93284 1.89936C -0.644281 4.43184 -0.644281 8.315 1.93284 10.8475C 4.50998 13.5488 8.46153 13.5488 11.2105 10.8475Z"/>
<path id="path9_fill" d="M 11.2105 10.9741C 13.7876 8.44165 13.7876 4.55848 11.2105 2.02599C 8.63336 -0.675329 4.50999 -0.675329 1.93284 2.02599C -0.644281 4.55848 -0.644281 8.44165 1.93284 10.9741C 4.50999 13.6754 8.46154 13.6754 11.2105 10.9741Z"/>
<path id="path10_fill" d="M 11.2105 10.9741C 13.7876 8.4416 13.7876 4.55847 11.2105 2.02598C 8.63337 -0.675328 4.50996 -0.675328 1.93284 2.02598C -0.64428 4.55847 -0.64428 8.4416 1.93284 10.9741C 4.50996 13.6754 8.46154 13.6754 11.2105 10.9741Z"/>
<path id="path11_fill" d="M 11.0177 11.038C 13.7666 8.50547 13.7667 4.62234 11.1895 1.92101C 8.6124 -0.611465 4.66081 -0.611476 2.0837 1.75218C -0.665232 4.28467 -0.665243 8.16776 1.91188 10.8691C 4.48902 13.5704 8.44057 13.5704 11.0177 11.038Z"/>
<path id="path12_fill" d="M 2.0837 1.75217C -0.665233 4.28466 -0.665241 8.16779 1.91188 10.8691C 4.48899 13.4016 8.44062 13.5704 11.0177 11.0379C 13.7667 8.50546 13.7666 4.62233 11.1895 1.92102C 8.61241 -0.611464 4.66082 -0.611476 2.0837 1.75217Z"/>
<path id="path13_fill" d="M 11.2105 10.9741C 13.7877 8.44162 13.7877 4.55845 11.2105 2.02599C 8.6334 -0.675329 4.50995 -0.675329 1.93284 2.02599C -0.64428 4.55845 -0.64428 8.44162 1.93284 10.9741C 4.50995 13.5066 8.46161 13.5066 11.2105 10.9741Z"/>
<path id="path14_fill" d="M 11.2105 10.9741C 13.7876 8.44165 13.7876 4.55848 11.2105 2.02599C 8.63336 -0.675329 4.50999 -0.675329 1.93284 2.02599C -0.644281 4.55848 -0.644281 8.44165 1.93284 10.9741C 4.50999 13.5066 8.46154 13.5066 11.2105 10.9741Z"/>
<path id="path15_fill" d="M 11.2986 10.8268C 13.8757 8.29436 13.7039 4.41124 11.1267 1.87876C 8.54961 -0.653717 4.42623 -0.65371 1.8491 2.04761C -0.728018 4.58009 -0.556254 8.46322 2.02087 10.9957C 4.76981 13.5282 8.72144 13.5281 11.2986 10.8268Z"/>
<path id="path16_fill" d="M 11.0177 11.1028C 13.7667 8.57034 13.7667 4.68721 11.1895 1.98589C 8.61244 -0.546589 4.66081 -0.715433 2.08367 1.81705C -0.665259 4.34954 -0.665216 8.23267 1.91191 10.934C 4.48902 13.6353 8.44061 13.6353 11.0177 11.1028Z"/>
<path id="path17_fill" d="M 11.1675 10.9957C 13.7447 8.46325 13.9164 4.58008 11.3394 2.04761C 8.76222 -0.65371 4.81063 -0.653717 2.0617 1.87876C -0.687233 4.41123 -0.687233 8.46325 2.0617 10.9957C 4.63881 13.5282 8.5904 13.5282 11.1675 10.9957Z"/>
<path id="path18_fill" d="M 1.93284 1.89936C -0.64428 4.43184 -0.64428 8.315 1.93284 10.8475C 4.50997 13.5488 8.63334 13.5488 11.2105 10.8475C 13.7876 8.315 13.7876 4.43184 11.2105 1.89936C 8.63334 -0.63312 4.50997 -0.63312 1.93284 1.89936Z"/>
<path id="path19_fill" d="M 11.0387 11.0163C 13.6158 8.48381 13.6158 4.43183 11.0387 1.89936C 8.46161 -0.633121 4.50998 -0.633121 1.93284 1.89936C -0.644281 4.43183 -0.644281 8.48381 1.93284 11.0163C 4.50998 13.5488 8.46161 13.5488 11.0387 11.0163Z"/>
<path id="path20_fill" d="M 11.1676 11.0163C 13.9165 8.4838 13.9165 4.43186 11.1676 1.89936C 8.59043 -0.63312 4.63884 -0.63312 2.0617 1.89936C -0.687232 4.43186 -0.687232 8.4838 2.0617 11.0163C 4.63884 13.5488 8.59043 13.5488 11.1676 11.0163Z"/>
<path id="path21_fill" d="M 11.0177 11.1028C 13.7667 8.57035 13.7666 4.68718 11.1895 1.98587C 8.61241 -0.546618 4.66082 -0.715407 2.0837 1.81707C -0.665233 4.34955 -0.665241 8.23268 1.91188 10.934C 4.48899 13.4665 8.44062 13.6353 11.0177 11.1028Z"/>
<path id="path22_fill" d="M 11.2105 10.8475C 13.7877 8.315 13.7877 4.43183 11.2105 1.89936C 8.6334 -0.633121 4.50995 -0.633121 1.93284 1.89936C -0.64428 4.43183 -0.64428 8.315 1.93284 10.8475C 4.50995 13.5488 8.46161 13.5488 11.2105 10.8475Z"/>
<path id="path23_fill" d="M 1.84908 2.11238C -0.728045 4.64488 -0.556226 8.52805 2.0209 11.0605C 4.59801 13.593 8.72142 13.593 11.2986 10.8917C 13.8756 8.35919 13.7039 4.47603 11.1267 1.94354C 8.5496 -0.757771 4.59801 -0.588931 1.84908 2.11238Z"/>
<path id="path24_fill" d="M 11.1675 11.0163C 13.9164 8.48381 13.9164 4.43183 11.1675 1.89936C 8.5904 -0.633121 4.63881 -0.633121 2.0617 1.89936C -0.687233 4.43183 -0.687233 8.48381 2.0617 11.0163C 4.63881 13.5488 8.5904 13.5488 11.1675 11.0163Z"/>
<path id="path25_fill" d="M 11.1675 11.0163C 13.9165 8.4838 13.9165 4.43186 11.1675 1.89936C 8.59041 -0.63312 4.63882 -0.63312 2.0617 1.89936C -0.687233 4.43186 -0.687233 8.4838 2.0617 11.0163C 4.63882 13.5488 8.59041 13.5488 11.1675 11.0163Z"/>
<path id="path26_fill" d="M 11.0607 10.9741C 13.6379 8.44158 13.6378 4.55845 11.2325 2.02599C 8.65539 -0.675329 4.53202 -0.675329 1.95488 2.02599C -0.622243 4.55845 -0.622255 8.44158 1.78306 10.9741C 4.53198 13.5065 8.48364 13.5065 11.0607 10.9741Z"/>
<path id="path27_fill" d="M 11.1267 10.9957C 13.8757 8.46323 13.7039 4.41125 11.1267 1.87879C 8.54961 -0.653695 4.42623 -0.653733 1.8491 2.04758C -0.728018 4.58007 -0.556254 8.46323 2.02087 10.9957C 4.59798 13.5282 8.54961 13.5282 11.1267 10.9957Z"/>
<path id="path28_fill" d="M 11.0177 11.1028C 13.7666 8.57035 13.7666 4.68718 11.1895 1.98587C 8.61239 -0.546618 4.66084 -0.715407 2.0837 1.81707C -0.665232 4.34955 -0.665243 8.23268 1.91188 10.934C 4.48901 13.4665 8.44056 13.6353 11.0177 11.1028Z"/>
<path id="path29_fill" d="M 1.83013 10.8496C 4.40724 13.5509 8.35887 13.5509 10.936 11.1873C 13.6849 8.65477 13.8567 4.77164 11.2796 2.07032C 8.70244 -0.630998 4.75089 -0.631017 2.17377 1.73263C -0.575167 4.26512 -0.746998 8.14828 1.83013 10.8496Z"/>
<path id="path30_fill" d="M 11.1676 11.0163C 13.9165 8.4838 13.9165 4.43186 11.1676 1.89936C 8.59046 -0.63312 4.63883 -0.63312 2.0617 1.89936C -0.687233 4.43186 -0.687233 8.4838 2.0617 11.0163C 4.63883 13.5488 8.59046 13.5488 11.1676 11.0163Z"/>
<path id="path31_fill" d="M 2.0837 1.75218C -0.665232 4.28467 -0.665243 8.16776 1.91188 10.8691C 4.489 13.4016 8.44063 13.5704 11.0178 11.038C 13.7667 8.50547 13.7667 4.62234 11.1896 1.92101C 8.61246 -0.611465 4.66083 -0.611476 2.0837 1.75218Z"/>
<path id="path32_fill" d="M 95.8661 111L 102.478 111L 102.478 74.577L 114.847 74.577L 114.847 69.048L 83.5541 69.048L 83.5541 74.577L 95.8661 74.577L 95.8661 111ZM 127.806 111L 134.418 111L 134.418 69.048L 127.806 69.048L 127.806 111ZM 167.455 111.741C 172.87 111.741 177.145 109.575 180.508 105.699L 176.974 101.538C 174.466 104.274 171.502 105.984 167.683 105.984C 160.273 105.984 155.599 99.885 155.599 89.91C 155.599 80.049 160.615 74.007 167.854 74.007C 171.274 74.007 173.896 75.546 176.062 77.769L 179.653 73.551C 177.088 70.758 172.984 68.25 167.74 68.25C 157.138 68.25 148.816 76.458 148.816 90.138C 148.816 103.875 156.91 111.741 167.455 111.741ZM 193.646 111L 200.258 111L 200.258 98.346L 206.699 90.48L 218.555 111L 225.908 111L 210.746 85.236L 223.742 69.048L 216.389 69.048L 200.429 88.884L 200.258 88.884L 200.258 69.048L 193.646 69.048L 193.646 111ZM 237.142 111L 262.564 111L 262.564 105.414L 243.754 105.414L 243.754 91.848L 259.144 91.848L 259.144 86.262L 243.754 86.262L 243.754 74.577L 261.937 74.577L 261.937 69.048L 237.142 69.048L 237.142 111ZM 285.569 111L 292.181 111L 292.181 74.577L 304.55 74.577L 304.55 69.048L 273.257 69.048L 273.257 74.577L 285.569 74.577L 285.569 111Z"/>
</defs>
</svg>
