<svg width="729" height="164" viewBox="0 0 729 164" version="1.1" xmlns="http://www.w3.org/2000/svg" xmlns:xlink="http://www.w3.org/1999/xlink">
<title>title-deco-dot</title>
<desc>Created using Figma</desc>
<g id="Canvas" transform="translate(-101 1171)">
<g id="title-deco-dot">
<g id="Group">
<g id="Group">
<g id="SPEAKERS">
<use xlink:href="#path0_fill" transform="translate(269 -1180.14)" fill="#F1E28C"/>
</g>
</g>
<g id="Canvas">
<g id="Group" opacity="0.6">
<g id="Vector">
<g id="Vector" opacity="0.25">
<use xlink:href="#path1_fill" transform="translate(101.097 -1080.43)" fill="#E3E1D9"/>
</g>
</g>
<g id="Vector">
<g id="Vector" opacity="0.25">
<use xlink:href="#path2_fill" transform="translate(131.773 -1110.5)" fill="#E3E1D9"/>
</g>
</g>
<g id="Vector">
<g id="Vector" opacity="0.25">
<use xlink:href="#path3_fill" transform="translate(162.507 -1140.76)" fill="#E3E1D9"/>
</g>
</g>
<g id="Vector">
<g id="Vector" opacity="0.25">
<use xlink:href="#path4_fill" transform="translate(193.261 -1171)" fill="#E3E1D9"/>
</g>
</g>
<g id="Vector">
<g id="Vector" opacity="0.25">
<use xlink:href="#path5_fill" transform="translate(101.131 -1050.16)" fill="#E3E1D9"/>
</g>
</g>
<g id="Vector">
<g id="Vector" opacity="0.25">
<use xlink:href="#path6_fill" transform="translate(132.014 -1080.51)" fill="#E3E1D9"/>
</g>
</g>
<g id="Vector">
<g id="Vector" opacity="0.25">
<use xlink:href="#path7_fill" transform="translate(162.595 -1110.68)" fill="#E3E1D9"/>
</g>
</g>
<g id="Vector">
<g id="Vector" opacity="0.25">
<use xlink:href="#path8_fill" transform="translate(193.349 -1140.78)" fill="#E3E1D9"/>
</g>
</g>
<g id="Vector">
<g id="Vector" opacity="0.25">
<use xlink:href="#path9_fill" transform="translate(224.103 -1171)" fill="#E3E1D9"/>
</g>
</g>
<g id="Vector">
<g id="Vector" opacity="0.25">
<use xlink:href="#path10_fill" transform="translate(131.842 -1050.24)" fill="#E3E1D9"/>
</g>
</g>
<g id="Vector">
<g id="Vector" opacity="0.25">
<use xlink:href="#path11_fill" transform="translate(162.595 -1080.46)" fill="#E3E1D9"/>
</g>
</g>
<g id="Vector">
<g id="Vector" opacity="0.25">
<use xlink:href="#path12_fill" transform="translate(193.37 -1110.58)" fill="#E3E1D9"/>
</g>
</g>
<g id="Vector">
<g id="Vector" opacity="0.25">
<use xlink:href="#path13_fill" transform="translate(224.124 -1140.8)" fill="#E3E1D9"/>
</g>
</g>
<g id="Vector">
<g id="Vector" opacity="0.25">
<use xlink:href="#path14_fill" transform="translate(101.088 -1140.74)" fill="#E3E1D9"/>
</g>
</g>
<g id="Vector">
<g id="Vector" opacity="0.25">
<use xlink:href="#path15_fill" transform="translate(131.842 -1170.96)" fill="#E3E1D9"/>
</g>
</g>
<g id="Vector">
<g id="Vector" opacity="0.25">
<use xlink:href="#path16_fill" transform="translate(101 -1110.54)" fill="#E3E1D9"/>
</g>
</g>
<g id="Vector">
<g id="Vector" opacity="0.25">
<use xlink:href="#path17_fill" transform="translate(131.863 -1140.87)" fill="#E3E1D9"/>
</g>
</g>
<g id="Vector">
<g id="Vector" opacity="0.25">
<use xlink:href="#path18_fill" transform="translate(162.467 -1170.98)" fill="#E3E1D9"/>
</g>
</g>
<g id="Vector">
<g id="Vector" opacity="0.25">
<use xlink:href="#path19_fill" transform="translate(193.349 -1019.9)" fill="#E3E1D9"/>
</g>
</g>
<g id="Vector">
<g id="Vector" opacity="0.25">
<use xlink:href="#path20_fill" transform="translate(224.103 -1050.12)" fill="#E3E1D9"/>
</g>
</g>
<g id="Vector">
<g id="Vector" opacity="0.25">
<use xlink:href="#path21_fill" transform="translate(254.728 -1080.34)" fill="#E3E1D9"/>
</g>
</g>
<g id="Vector">
<g id="Vector" opacity="0.25">
<use xlink:href="#path22_fill" transform="translate(224.124 -1019.98)" fill="#E3E1D9"/>
</g>
</g>
<g id="Vector">
<g id="Vector" opacity="0.25">
<use xlink:href="#path23_fill" transform="translate(254.857 -1050.12)" fill="#E3E1D9"/>
</g>
</g>
<g id="Vector">
<g id="Vector" opacity="0.25">
<use xlink:href="#path24_fill" transform="translate(131.754 -1019.94)" fill="#E3E1D9"/>
</g>
</g>
<g id="Vector">
<g id="Vector" opacity="0.25">
<use xlink:href="#path25_fill" transform="translate(162.467 -1050.12)" fill="#E3E1D9"/>
</g>
</g>
<g id="Vector">
<g id="Vector" opacity="0.25">
<use xlink:href="#path26_fill" transform="translate(193.22 -1080.34)" fill="#E3E1D9"/>
</g>
</g>
<g id="Vector">
<g id="Vector" opacity="0.25">
<use xlink:href="#path27_fill" transform="translate(224.081 -1110.52)" fill="#E3E1D9"/>
</g>
</g>
<g id="Vector">
<g id="Vector" opacity="0.25">
<use xlink:href="#path28_fill" transform="translate(254.768 -1140.76)" fill="#E3E1D9"/>
</g>
</g>
<g id="Vector">
<g id="Vector" opacity="0.25">
<use xlink:href="#path29_fill" transform="translate(162.616 -1019.98)" fill="#E3E1D9"/>
</g>
</g>
<g id="Vector">
<g id="Vector" opacity="0.25">
<use xlink:href="#path30_fill" transform="translate(193.28 -1050.12)" fill="#E3E1D9"/>
</g>
</g>
<g id="Vector">
<g id="Vector" opacity="0.25">
<use xlink:href="#path31_fill" transform="translate(223.974 -1080.34)" fill="#E3E1D9"/>
</g>
</g>
<g id="Vector">
<g id="Vector" opacity="0.25">
<use xlink:href="#path32_fill" transform="translate(254.877 -1110.58)" fill="#E3E1D9"/>
</g>
</g>
</g>
<g id="Group" opacity="0.6">
<g id="Vector">
<g id="Vector" opacity="0.25">
<use xlink:href="#path1_fill" transform="translate(663.097 -1080.43)" fill="#E3E1D9"/>
</g>
</g>
<g id="Vector">
<g id="Vector" opacity="0.25">
<use xlink:href="#path2_fill" transform="translate(693.773 -1110.5)" fill="#E3E1D9"/>
</g>
</g>
<g id="Vector">
<g id="Vector" opacity="0.25">
<use xlink:href="#path3_fill" transform="translate(724.507 -1140.76)" fill="#E3E1D9"/>
</g>
</g>
<g id="Vector">
<g id="Vector" opacity="0.25">
<use xlink:href="#path4_fill" transform="translate(755.261 -1171)" fill="#E3E1D9"/>
</g>
</g>
<g id="Vector">
<g id="Vector" opacity="0.25">
<use xlink:href="#path5_fill" transform="translate(663.131 -1050.16)" fill="#E3E1D9"/>
</g>
</g>
<g id="Vector">
<g id="Vector" opacity="0.25">
<use xlink:href="#path6_fill" transform="translate(694.014 -1080.51)" fill="#E3E1D9"/>
</g>
</g>
<g id="Vector">
<g id="Vector" opacity="0.25">
<use xlink:href="#path7_fill" transform="translate(724.595 -1110.68)" fill="#E3E1D9"/>
</g>
</g>
<g id="Vector">
<g id="Vector" opacity="0.25">
<use xlink:href="#path8_fill" transform="translate(755.349 -1140.78)" fill="#E3E1D9"/>
</g>
</g>
<g id="Vector">
<g id="Vector" opacity="0.25">
<use xlink:href="#path9_fill" transform="translate(786.103 -1171)" fill="#E3E1D9"/>
</g>
</g>
<g id="Vector">
<g id="Vector" opacity="0.25">
<use xlink:href="#path10_fill" transform="translate(693.842 -1050.24)" fill="#E3E1D9"/>
</g>
</g>
<g id="Vector">
<g id="Vector" opacity="0.25">
<use xlink:href="#path11_fill" transform="translate(724.595 -1080.46)" fill="#E3E1D9"/>
</g>
</g>
<g id="Vector">
<g id="Vector" opacity="0.25">
<use xlink:href="#path12_fill" transform="translate(755.37 -1110.58)" fill="#E3E1D9"/>
</g>
</g>
<g id="Vector">
<g id="Vector" opacity="0.25">
<use xlink:href="#path13_fill" transform="translate(786.124 -1140.8)" fill="#E3E1D9"/>
</g>
</g>
<g id="Vector">
<g id="Vector" opacity="0.25">
<use xlink:href="#path14_fill" transform="translate(663.088 -1140.74)" fill="#E3E1D9"/>
</g>
</g>
<g id="Vector">
<g id="Vector" opacity="0.25">
<use xlink:href="#path15_fill" transform="translate(693.842 -1170.96)" fill="#E3E1D9"/>
</g>
</g>
<g id="Vector">
<g id="Vector" opacity="0.25">
<use xlink:href="#path16_fill" transform="translate(663 -1110.54)" fill="#E3E1D9"/>
</g>
</g>
<g id="Vector">
<g id="Vector" opacity="0.25">
<use xlink:href="#path17_fill" transform="translate(693.863 -1140.87)" fill="#E3E1D9"/>
</g>
</g>
<g id="Vector">
<g id="Vector" opacity="0.25">
<use xlink:href="#path18_fill" transform="translate(724.467 -1170.98)" fill="#E3E1D9"/>
</g>
</g>
<g id="Vector">
<g id="Vector" opacity="0.25">
<use xlink:href="#path19_fill" transform="translate(755.349 -1019.9)" fill="#E3E1D9"/>
</g>
</g>
<g id="Vector">
<g id="Vector" opacity="0.25">
<use xlink:href="#path20_fill" transform="translate(786.103 -1050.12)" fill="#E3E1D9"/>
</g>
</g>
<g id="Vector">
<g id="Vector" opacity="0.25">
<use xlink:href="#path21_fill" transform="translate(816.728 -1080.34)" fill="#E3E1D9"/>
</g>
</g>
<g id="Vector">
<g id="Vector" opacity="0.25">
<use xlink:href="#path22_fill" transform="translate(786.124 -1019.98)" fill="#E3E1D9"/>
</g>
</g>
<g id="Vector">
<g id="Vector" opacity="0.25">
<use xlink:href="#path23_fill" transform="translate(816.857 -1050.12)" fill="#E3E1D9"/>
</g>
</g>
<g id="Vector">
<g id="Vector" opacity="0.25">
<use xlink:href="#path24_fill" transform="translate(693.754 -1019.94)" fill="#E3E1D9"/>
</g>
</g>
<g id="Vector">
<g id="Vector" opacity="0.25">
<use xlink:href="#path25_fill" transform="translate(724.467 -1050.12)" fill="#E3E1D9"/>
</g>
</g>
<g id="Vector">
<g id="Vector" opacity="0.25">
<use xlink:href="#path26_fill" transform="translate(755.22 -1080.34)" fill="#E3E1D9"/>
</g>
</g>
<g id="Vector">
<g id="Vector" opacity="0.25">
<use xlink:href="#path27_fill" transform="translate(786.081 -1110.52)" fill="#E3E1D9"/>
</g>
</g>
<g id="Vector">
<g id="Vector" opacity="0.25">
<use xlink:href="#path28_fill" transform="translate(816.768 -1140.76)" fill="#E3E1D9"/>
</g>
</g>
<g id="Vector">
<g id="Vector" opacity="0.25">
<use xlink:href="#path29_fill" transform="translate(724.616 -1019.98)" fill="#E3E1D9"/>
</g>
</g>
<g id="Vector">
<g id="Vector" opacity="0.25">
<use xlink:href="#path30_fill" transform="translate(755.28 -1050.12)" fill="#E3E1D9"/>
</g>
</g>
<g id="Vector">
<g id="Vector" opacity="0.25">
<use xlink:href="#path31_fill" transform="translate(785.974 -1080.34)" fill="#E3E1D9"/>
</g>
</g>
<g id="Vector">
<g id="Vector" opacity="0.25">
<use xlink:href="#path32_fill" transform="translate(816.877 -1110.58)" fill="#E3E1D9"/>
</g>
</g>
</g>
</g>
</g>
</g>
</g>
<defs>
<path id="path0_fill" d="M 49.3889 111.741C 58.5659 111.741 64.1519 106.269 64.1519 99.543C 64.1519 93.387 60.5609 90.309 55.6019 88.2L 49.8449 85.749C 46.4249 84.381 43.0619 83.013 43.0619 79.422C 43.0619 76.059 45.8549 74.007 50.1299 74.007C 53.8349 74.007 56.7419 75.432 59.3639 77.769L 62.8409 73.551C 59.6489 70.302 55.0319 68.25 50.1299 68.25C 42.1499 68.25 36.3359 73.209 36.3359 79.821C 36.3359 85.92 40.8389 89.112 44.8859 90.822L 50.6999 93.33C 54.5759 95.04 57.4259 96.237 57.4259 100.056C 57.4259 103.59 54.5759 105.984 49.5029 105.984C 45.4559 105.984 41.3519 104.046 38.3309 101.025L 34.4549 105.585C 38.2739 109.461 43.6319 111.741 49.3889 111.741ZM 77.7976 111L 84.4096 111L 84.4096 95.097L 90.7366 95.097C 99.8566 95.097 106.526 90.879 106.526 81.702C 106.526 72.24 99.8566 69.048 90.5086 69.048L 77.7976 69.048L 77.7976 111ZM 84.4096 89.796L 84.4096 74.349L 89.8816 74.349C 96.5506 74.349 100.028 76.173 100.028 81.702C 100.028 87.231 96.8356 89.796 90.1096 89.796L 84.4096 89.796ZM 120.403 111L 145.825 111L 145.825 105.414L 127.015 105.414L 127.015 91.848L 142.405 91.848L 142.405 86.262L 127.015 86.262L 127.015 74.577L 145.198 74.577L 145.198 69.048L 120.403 69.048L 120.403 111ZM 166.608 93.843L 168.318 88.2C 169.686 83.64 170.997 79.023 172.194 74.235L 172.422 74.235C 173.733 78.966 174.987 83.64 176.412 88.2L 178.065 93.843L 166.608 93.843ZM 183.195 111L 190.206 111L 176.298 69.048L 168.66 69.048L 154.752 111L 161.478 111L 165.069 99.03L 179.661 99.03L 183.195 111ZM 201.439 111L 208.051 111L 208.051 98.346L 214.492 90.48L 226.348 111L 233.701 111L 218.539 85.236L 231.535 69.048L 224.182 69.048L 208.222 88.884L 208.051 88.884L 208.051 69.048L 201.439 69.048L 201.439 111ZM 244.935 111L 270.357 111L 270.357 105.414L 251.547 105.414L 251.547 91.848L 266.937 91.848L 266.937 86.262L 251.547 86.262L 251.547 74.577L 269.73 74.577L 269.73 69.048L 244.935 69.048L 244.935 111ZM 291.424 74.349L 297.751 74.349C 303.85 74.349 307.156 76.116 307.156 81.189C 307.156 86.262 303.85 88.77 297.751 88.77L 291.424 88.77L 291.424 74.349ZM 315.193 111L 304.933 93.216C 310.234 91.563 313.711 87.687 313.711 81.189C 313.711 72.126 307.213 69.048 298.549 69.048L 284.812 69.048L 284.812 111L 291.424 111L 291.424 94.071L 298.207 94.071L 307.726 111L 315.193 111ZM 338.998 111.741C 348.175 111.741 353.761 106.269 353.761 99.543C 353.761 93.387 350.17 90.309 345.211 88.2L 339.454 85.749C 336.034 84.381 332.671 83.013 332.671 79.422C 332.671 76.059 335.464 74.007 339.739 74.007C 343.444 74.007 346.351 75.432 348.973 77.769L 352.45 73.551C 349.258 70.302 344.641 68.25 339.739 68.25C 331.759 68.25 325.945 73.209 325.945 79.821C 325.945 85.92 330.448 89.112 334.495 90.822L 340.309 93.33C 344.185 95.04 347.035 96.237 347.035 100.056C 347.035 103.59 344.185 105.984 339.112 105.984C 335.065 105.984 330.961 104.046 327.94 101.025L 324.064 105.585C 327.883 109.461 333.241 111.741 338.998 111.741Z"/>
<path id="path1_fill" d="M 10.8583 11.278C 13.6073 8.74552 13.9509 4.86239 11.3738 2.16107C 8.79664 -0.540245 4.84505 -0.709108 2.26793 1.65454C -0.481005 4.18701 -0.8246 8.07022 1.75253 10.7715C 4.15786 13.4728 8.10941 13.6416 10.8583 11.278Z"/>
<path id="path2_fill" d="M 10.936 11.1267C 13.6849 8.59423 13.8567 4.71111 11.2796 2.0098C 8.70248 -0.52268 4.75086 -0.691531 2.17374 1.67212C -0.575196 4.20458 -0.746972 8.08771 1.83015 10.789C 4.40728 13.3215 8.35883 13.4904 10.936 11.1267Z"/>
<path id="path3_fill" d="M 11.1267 10.9957C 13.8757 8.46323 13.8757 4.41125 11.1267 1.87879C 8.54961 -0.653695 4.42619 -0.653733 1.84908 2.04758C -0.728042 4.58007 -0.556227 8.46323 2.0209 10.9957C 4.59802 13.5282 8.54961 13.5282 11.1267 10.9957Z"/>
<path id="path4_fill" d="M 11.1267 11.0163C 13.8757 8.48386 13.8757 4.43184 11.1267 1.89936C 8.54958 -0.63312 4.59803 -0.63312 2.0209 1.89936C -0.556225 4.43184 -0.728044 8.315 1.84908 10.8475C 4.59803 13.5488 8.54958 13.5488 11.1267 11.0163Z"/>
<path id="path5_fill" d="M 2.0617 1.77274C -0.687233 4.30523 -0.687233 8.35721 2.0617 10.8897C 4.63883 13.4222 8.59046 13.4222 11.1676 10.8897C 13.9165 8.35721 13.9165 4.30523 11.1676 1.77274C 8.59046 -0.590912 4.63883 -0.590912 2.0617 1.77274Z"/>
<path id="path6_fill" d="M 11.0387 11.0163C 13.6158 8.48381 13.6158 4.43183 11.0387 1.89936C 8.46158 -0.633121 4.50995 -0.633121 1.93284 1.89936C -0.644281 4.43183 -0.644281 8.48381 1.93284 11.0163C 4.50995 13.7176 8.46158 13.7176 11.0387 11.0163Z"/>
<path id="path7_fill" d="M 11.0387 11.1429C 13.7876 8.61044 13.7876 4.72731 11.2105 2.02598C 8.63337 -0.675328 4.50996 -0.675328 1.93284 2.02598C -0.64428 4.55846 -0.64428 8.44159 1.93284 10.9741C 4.50996 13.5065 8.28972 13.6754 11.0387 11.1429Z"/>
<path id="path8_fill" d="M 11.2105 10.8474C 13.7876 8.31497 13.7876 4.43184 11.2105 1.89936C 8.63334 -0.633121 4.50997 -0.633121 1.93284 1.89936C -0.64428 4.43184 -0.64428 8.31497 1.93284 10.8474C 4.50997 13.5487 8.63334 13.5487 11.2105 10.8474Z"/>
<path id="path9_fill" d="M 11.2105 10.8475C 13.7876 8.315 13.7876 4.43184 11.2105 1.89936C 8.63336 -0.63312 4.50998 -0.63312 1.93284 1.89936C -0.644281 4.43184 -0.644281 8.315 1.93284 10.8475C 4.50998 13.5488 8.46153 13.5488 11.2105 10.8475Z"/>
<path id="path10_fill" d="M 11.2105 10.9741C 13.7876 8.44165 13.7876 4.55848 11.2105 2.02599C 8.63336 -0.675329 4.50999 -0.675329 1.93284 2.02599C -0.644281 4.55848 -0.644281 8.44165 1.93284 10.9741C 4.50999 13.6754 8.46154 13.6754 11.2105 10.9741Z"/>
<path id="path11_fill" d="M 11.2105 10.9741C 13.7876 8.4416 13.7876 4.55847 11.2105 2.02598C 8.63337 -0.675328 4.50996 -0.675328 1.93284 2.02598C -0.64428 4.55847 -0.64428 8.4416 1.93284 10.9741C 4.50996 13.6754 8.46154 13.6754 11.2105 10.9741Z"/>
<path id="path12_fill" d="M 11.0177 11.038C 13.7666 8.50547 13.7667 4.62234 11.1895 1.92101C 8.6124 -0.611465 4.66081 -0.611476 2.0837 1.75218C -0.665232 4.28467 -0.665243 8.16776 1.91188 10.8691C 4.48902 13.5704 8.44057 13.5704 11.0177 11.038Z"/>
<path id="path13_fill" d="M 2.0837 1.75217C -0.665233 4.28466 -0.665241 8.16779 1.91188 10.8691C 4.48899 13.4016 8.44062 13.5704 11.0177 11.0379C 13.7667 8.50546 13.7666 4.62233 11.1895 1.92102C 8.61241 -0.611464 4.66082 -0.611476 2.0837 1.75217Z"/>
<path id="path14_fill" d="M 11.2105 10.9741C 13.7877 8.44162 13.7877 4.55845 11.2105 2.02599C 8.6334 -0.675329 4.50995 -0.675329 1.93284 2.02599C -0.64428 4.55845 -0.64428 8.44162 1.93284 10.9741C 4.50995 13.5066 8.46161 13.5066 11.2105 10.9741Z"/>
<path id="path15_fill" d="M 11.2105 10.9741C 13.7876 8.44165 13.7876 4.55848 11.2105 2.02599C 8.63336 -0.675329 4.50999 -0.675329 1.93284 2.02599C -0.644281 4.55848 -0.644281 8.44165 1.93284 10.9741C 4.50999 13.5066 8.46154 13.5066 11.2105 10.9741Z"/>
<path id="path16_fill" d="M 11.2986 10.8268C 13.8757 8.29436 13.7039 4.41124 11.1267 1.87876C 8.54961 -0.653717 4.42623 -0.65371 1.8491 2.04761C -0.728018 4.58009 -0.556254 8.46322 2.02087 10.9957C 4.76981 13.5282 8.72144 13.5281 11.2986 10.8268Z"/>
<path id="path17_fill" d="M 11.0177 11.1028C 13.7667 8.57034 13.7667 4.68721 11.1895 1.98589C 8.61244 -0.546589 4.66081 -0.715433 2.08367 1.81705C -0.665259 4.34954 -0.665216 8.23267 1.91191 10.934C 4.48902 13.6353 8.44061 13.6353 11.0177 11.1028Z"/>
<path id="path18_fill" d="M 11.1675 10.9957C 13.7447 8.46325 13.9164 4.58008 11.3394 2.04761C 8.76222 -0.65371 4.81063 -0.653717 2.0617 1.87876C -0.687233 4.41123 -0.687233 8.46325 2.0617 10.9957C 4.63881 13.5282 8.5904 13.5282 11.1675 10.9957Z"/>
<path id="path19_fill" d="M 1.93284 1.89936C -0.64428 4.43184 -0.64428 8.315 1.93284 10.8475C 4.50997 13.5488 8.63334 13.5488 11.2105 10.8475C 13.7876 8.315 13.7876 4.43184 11.2105 1.89936C 8.63334 -0.63312 4.50997 -0.63312 1.93284 1.89936Z"/>
<path id="path20_fill" d="M 11.0387 11.0163C 13.6158 8.48381 13.6158 4.43183 11.0387 1.89936C 8.46161 -0.633121 4.50998 -0.633121 1.93284 1.89936C -0.644281 4.43183 -0.644281 8.48381 1.93284 11.0163C 4.50998 13.5488 8.46161 13.5488 11.0387 11.0163Z"/>
<path id="path21_fill" d="M 11.1676 11.0163C 13.9165 8.4838 13.9165 4.43186 11.1676 1.89936C 8.59043 -0.63312 4.63884 -0.63312 2.0617 1.89936C -0.687232 4.43186 -0.687232 8.4838 2.0617 11.0163C 4.63884 13.5488 8.59043 13.5488 11.1676 11.0163Z"/>
<path id="path22_fill" d="M 11.0177 11.1028C 13.7667 8.57035 13.7666 4.68718 11.1895 1.98587C 8.61241 -0.546618 4.66082 -0.715407 2.0837 1.81707C -0.665233 4.34955 -0.665241 8.23268 1.91188 10.934C 4.48899 13.4665 8.44062 13.6353 11.0177 11.1028Z"/>
<path id="path23_fill" d="M 11.2105 10.8475C 13.7877 8.315 13.7877 4.43183 11.2105 1.89936C 8.6334 -0.633121 4.50995 -0.633121 1.93284 1.89936C -0.64428 4.43183 -0.64428 8.315 1.93284 10.8475C 4.50995 13.5488 8.46161 13.5488 11.2105 10.8475Z"/>
<path id="path24_fill" d="M 1.84908 2.11238C -0.728045 4.64488 -0.556226 8.52805 2.0209 11.0605C 4.59801 13.593 8.72142 13.593 11.2986 10.8917C 13.8756 8.35919 13.7039 4.47603 11.1267 1.94354C 8.5496 -0.757771 4.59801 -0.588931 1.84908 2.11238Z"/>
<path id="path25_fill" d="M 11.1675 11.0163C 13.9164 8.48381 13.9164 4.43183 11.1675 1.89936C 8.5904 -0.633121 4.63881 -0.633121 2.0617 1.89936C -0.687233 4.43183 -0.687233 8.48381 2.0617 11.0163C 4.63881 13.5488 8.5904 13.5488 11.1675 11.0163Z"/>
<path id="path26_fill" d="M 11.1675 11.0163C 13.9165 8.4838 13.9165 4.43186 11.1675 1.89936C 8.59041 -0.63312 4.63882 -0.63312 2.0617 1.89936C -0.687233 4.43186 -0.687233 8.4838 2.0617 11.0163C 4.63882 13.5488 8.59041 13.5488 11.1675 11.0163Z"/>
<path id="path27_fill" d="M 11.0607 10.9741C 13.6379 8.44158 13.6378 4.55845 11.2325 2.02599C 8.65539 -0.675329 4.53202 -0.675329 1.95488 2.02599C -0.622243 4.55845 -0.622255 8.44158 1.78306 10.9741C 4.53198 13.5065 8.48364 13.5065 11.0607 10.9741Z"/>
<path id="path28_fill" d="M 11.1267 10.9957C 13.8757 8.46323 13.7039 4.41125 11.1267 1.87879C 8.54961 -0.653695 4.42623 -0.653733 1.8491 2.04758C -0.728018 4.58007 -0.556254 8.46323 2.02087 10.9957C 4.59798 13.5282 8.54961 13.5282 11.1267 10.9957Z"/>
<path id="path29_fill" d="M 11.0177 11.1028C 13.7666 8.57035 13.7666 4.68718 11.1895 1.98587C 8.61239 -0.546618 4.66084 -0.715407 2.0837 1.81707C -0.665232 4.34955 -0.665243 8.23268 1.91188 10.934C 4.48901 13.4665 8.44056 13.6353 11.0177 11.1028Z"/>
<path id="path30_fill" d="M 1.83013 10.8496C 4.40724 13.5509 8.35887 13.5509 10.936 11.1873C 13.6849 8.65477 13.8567 4.77164 11.2796 2.07032C 8.70244 -0.630998 4.75089 -0.631017 2.17377 1.73263C -0.575167 4.26512 -0.746998 8.14828 1.83013 10.8496Z"/>
<path id="path31_fill" d="M 11.1676 11.0163C 13.9165 8.4838 13.9165 4.43186 11.1676 1.89936C 8.59046 -0.63312 4.63883 -0.63312 2.0617 1.89936C -0.687233 4.43186 -0.687233 8.4838 2.0617 11.0163C 4.63883 13.5488 8.59046 13.5488 11.1676 11.0163Z"/>
<path id="path32_fill" d="M 2.0837 1.75218C -0.665232 4.28467 -0.665243 8.16776 1.91188 10.8691C 4.489 13.4016 8.44063 13.5704 11.0178 11.038C 13.7667 8.50547 13.7667 4.62234 11.1896 1.92101C 8.61246 -0.611465 4.66083 -0.611476 2.0837 1.75218Z"/>
</defs>
</svg>
