<svg width="429" height="429" viewBox="0 0 429 429" version="1.1" xmlns="http://www.w3.org/2000/svg" xmlns:xlink="http://www.w3.org/1999/xlink">
<title>Group</title>
<desc>Created using Figma</desc>
<g id="Canvas" transform="translate(221 -442)">
<g id="Group" opacity="0.25">
<g id="Vector">
<use xlink:href="#path0_fill" transform="translate(-220.752 678.918)" fill="#E3E1D9"/>
</g>
<g id="Vector">
<use xlink:href="#path1_fill" transform="translate(-141.949 600.26)" fill="#E3E1D9"/>
</g>
<g id="Vector">
<use xlink:href="#path2_fill" transform="translate(-62.9959 521.108)" fill="#E3E1D9"/>
</g>
<g id="Vector">
<use xlink:href="#path3_fill" transform="translate(16.0063 442)" fill="#E3E1D9"/>
</g>
<g id="Vector">
<use xlink:href="#path4_fill" transform="translate(-220.663 758.104)" fill="#E3E1D9"/>
</g>
<g id="Vector">
<use xlink:href="#path5_fill" transform="translate(-141.33 678.719)" fill="#E3E1D9"/>
</g>
<g id="Vector">
<use xlink:href="#path6_fill" transform="translate(-62.7696 599.776)" fill="#E3E1D9"/>
</g>
<g id="Vector">
<use xlink:href="#path7_fill" transform="translate(16.2324 521.054)" fill="#E3E1D9"/>
</g>
<g id="Vector">
<use xlink:href="#path8_fill" transform="translate(95.2344 442)" fill="#E3E1D9"/>
</g>
<g id="Vector">
<use xlink:href="#path9_fill" transform="translate(-141.772 757.883)" fill="#E3E1D9"/>
</g>
<g id="Vector">
<use xlink:href="#path10_fill" transform="translate(-62.7696 678.83)" fill="#E3E1D9"/>
</g>
<g id="Vector">
<use xlink:href="#path11_fill" transform="translate(16.2863 600.051)" fill="#E3E1D9"/>
</g>
<g id="Vector">
<use xlink:href="#path12_fill" transform="translate(95.2883 520.997)" fill="#E3E1D9"/>
</g>
<g id="Vector">
<use xlink:href="#path13_fill" transform="translate(-220.774 521.164)" fill="#E3E1D9"/>
</g>
<g id="Vector">
<use xlink:href="#path14_fill" transform="translate(-141.772 442.111)" fill="#E3E1D9"/>
</g>
<g id="Vector">
<use xlink:href="#path15_fill" transform="translate(-221 600.161)" fill="#E3E1D9"/>
</g>
<g id="Vector">
<use xlink:href="#path16_fill" transform="translate(-141.718 520.827)" fill="#E3E1D9"/>
</g>
<g id="Vector">
<use xlink:href="#path17_fill" transform="translate(-63.1007 442.054)" fill="#E3E1D9"/>
</g>
<g id="Vector">
<use xlink:href="#path18_fill" transform="translate(16.2324 837.268)" fill="#E3E1D9"/>
</g>
<g id="Vector">
<use xlink:href="#path19_fill" transform="translate(95.2344 758.214)" fill="#E3E1D9"/>
</g>
<g id="Vector">
<use xlink:href="#path20_fill" transform="translate(173.906 679.161)" fill="#E3E1D9"/>
</g>
<g id="Vector">
<use xlink:href="#path21_fill" transform="translate(95.2883 837.042)" fill="#E3E1D9"/>
</g>
<g id="Vector">
<use xlink:href="#path22_fill" transform="translate(174.237 758.214)" fill="#E3E1D9"/>
</g>
<g id="Vector">
<use xlink:href="#path23_fill" transform="translate(-141.998 837.153)" fill="#E3E1D9"/>
</g>
<g id="Vector">
<use xlink:href="#path24_fill" transform="translate(-63.1007 758.214)" fill="#E3E1D9"/>
</g>
<g id="Vector">
<use xlink:href="#path25_fill" transform="translate(15.9014 679.161)" fill="#E3E1D9"/>
</g>
<g id="Vector">
<use xlink:href="#path26_fill" transform="translate(95.1779 600.218)" fill="#E3E1D9"/>
</g>
<g id="Vector">
<use xlink:href="#path27_fill" transform="translate(174.01 521.108)" fill="#E3E1D9"/>
</g>
<g id="Vector">
<use xlink:href="#path28_fill" transform="translate(-62.7159 837.042)" fill="#E3E1D9"/>
</g>
<g id="Vector">
<use xlink:href="#path29_fill" transform="translate(16.0549 758.209)" fill="#E3E1D9"/>
</g>
<g id="Vector">
<use xlink:href="#path30_fill" transform="translate(94.9035 679.161)" fill="#E3E1D9"/>
</g>
<g id="Vector">
<use xlink:href="#path31_fill" transform="translate(174.29 600.051)" fill="#E3E1D9"/>
</g>
</g>
</g>
<defs>
<path id="path0_fill" d="M 27.8936 29.5016C 34.9553 22.877 35.8379 12.7193 29.2177 5.65302C 22.5974 -1.41322 12.4463 -1.85494 5.82603 4.32802C -1.23561 10.9526 -2.11826 21.1105 4.50203 28.1767C 10.681 35.243 20.832 35.6845 27.8936 29.5016Z"/>
<path id="path1_fill" d="M 28.093 29.1059C 35.1547 22.4813 35.5961 12.3236 28.9758 5.25737C 22.3555 -1.36723 12.2043 -1.80892 5.58403 4.37404C -1.47761 10.9986 -1.91888 21.1563 4.7014 28.2226C 11.3217 34.8472 21.4727 35.2889 28.093 29.1059Z"/>
<path id="path2_fill" d="M 28.5831 28.7632C 35.6447 22.1386 35.6447 11.5392 28.5831 4.91464C 21.9628 -1.70997 11.3703 -1.71007 4.75005 5.35617C -1.87023 11.9808 -1.42886 22.1386 5.19143 28.7632C 11.8117 35.3878 21.9628 35.3878 28.5831 28.7632Z"/>
<path id="path3_fill" d="M 28.583 28.8171C 35.6447 22.1925 35.6447 11.593 28.583 4.9684C 21.9627 -1.6562 11.8117 -1.6562 5.1914 4.9684C -1.42888 11.593 -1.87026 21.7508 4.75002 28.3754C 11.8117 35.4417 21.9627 35.4417 28.583 28.8171Z"/>
<path id="path4_fill" d="M 5.2962 4.63717C -1.76544 11.2618 -1.76544 21.8612 5.2962 28.4859C 11.9165 35.1105 22.0677 35.1105 28.688 28.4859C 35.7496 21.8612 35.7496 11.2618 28.688 4.63717C 22.0677 -1.54579 11.9165 -1.54579 5.2962 4.63717Z"/>
<path id="path5_fill" d="M 28.3569 28.817C 34.9772 22.1924 34.9772 11.593 28.3569 4.96843C 21.7366 -1.65618 11.5854 -1.65618 4.96516 4.96843C -1.65513 11.593 -1.65513 22.1924 4.96516 28.817C 11.5854 35.8832 21.7366 35.8832 28.3569 28.817Z"/>
<path id="path6_fill" d="M 28.3569 29.1483C 35.4185 22.5237 35.4185 12.366 28.7982 5.29971C 22.178 -1.76653 11.5855 -1.76653 4.96524 5.29971C -1.65504 11.9243 -1.65504 22.082 4.96524 28.7066C 11.5855 35.3312 21.2952 35.7729 28.3569 29.1483Z"/>
<path id="path7_fill" d="M 28.7982 28.3754C 35.4185 21.7508 35.4185 11.5931 28.7982 4.96851C 22.1779 -1.6561 11.5855 -1.6561 4.96521 4.96851C -1.65507 11.5931 -1.65507 21.7508 4.96521 28.3754C 11.5855 35.4416 22.1779 35.4416 28.7982 28.3754Z"/>
<path id="path8_fill" d="M 28.7982 28.3754C 35.4185 21.7508 35.4185 11.593 28.7982 4.9684C 22.1779 -1.6562 11.5855 -1.6562 4.96519 4.9684C -1.6551 11.593 -1.6551 21.7508 4.96519 28.3754C 11.5855 35.4417 21.7365 35.4417 28.7982 28.3754Z"/>
<path id="path9_fill" d="M 28.7983 28.7067C 35.4186 22.0821 35.4186 11.9243 28.7983 5.29966C 22.178 -1.76659 11.5856 -1.76659 4.96527 5.29966C -1.65502 11.9243 -1.65502 22.0821 4.96527 28.7067C 11.5856 35.7729 21.7366 35.7729 28.7983 28.7067Z"/>
<path id="path10_fill" d="M 28.7982 28.7066C 35.4185 22.082 35.4185 11.9243 28.7982 5.29968C 22.178 -1.76656 11.5855 -1.76656 4.96524 5.29968C -1.65504 11.9243 -1.65504 22.082 4.96524 28.7066C 11.5855 35.7728 21.7366 35.7728 28.7982 28.7066Z"/>
<path id="path11_fill" d="M 28.303 28.8737C 35.3646 22.2491 35.3647 12.0914 28.7444 5.02511C 22.1241 -1.59949 11.973 -1.59952 5.35276 4.58345C -1.70888 11.2081 -1.70891 21.3657 4.91138 28.432C 11.5317 35.4982 21.6827 35.4983 28.303 28.8737Z"/>
<path id="path12_fill" d="M 5.35273 4.58347C -1.70891 11.2081 -1.70893 21.3658 4.91135 28.432C 11.5316 35.0566 21.6828 35.4983 28.3031 28.8737C 35.3647 22.2491 35.3646 12.0914 28.7444 5.02514C 22.1241 -1.59946 11.973 -1.59949 5.35273 4.58347Z"/>
<path id="path13_fill" d="M 28.7983 28.7066C 35.4186 22.082 35.4186 11.9242 28.7983 5.29963C 22.178 -1.76662 11.5854 -1.76662 4.96516 5.29963C -1.65512 11.9242 -1.65512 22.082 4.96516 28.7066C 11.5854 35.3312 21.7367 35.3312 28.7983 28.7066Z"/>
<path id="path14_fill" d="M 28.7983 28.7067C 35.4186 22.0821 35.4186 11.9243 28.7983 5.29966C 22.178 -1.76659 11.5856 -1.76659 4.96527 5.29966C -1.65502 11.9243 -1.65502 22.0821 4.96527 28.7067C 11.5856 35.3313 21.7366 35.3313 28.7983 28.7067Z"/>
<path id="path15_fill" d="M 29.0245 28.3215C 35.6448 21.6969 35.2034 11.5392 28.5831 4.91461C 21.9628 -1.70999 11.3704 -1.70997 4.7501 5.35628C -1.87018 11.9809 -1.42894 22.1386 5.19135 28.7632C 12.253 35.3878 22.4042 35.3877 29.0245 28.3215Z"/>
<path id="path16_fill" d="M 28.3031 29.0434C 35.3647 22.4188 35.3647 12.2611 28.7444 5.19484C 22.1242 -1.42976 11.973 -1.87143 5.35268 4.75318C -1.70896 11.3778 -1.70885 21.5355 4.91143 28.6017C 11.5317 35.668 21.6828 35.668 28.3031 29.0434Z"/>
<path id="path17_fill" d="M 28.6879 28.7632C 35.3082 22.1386 35.7495 11.9808 29.1293 5.3562C 22.509 -1.71005 12.3579 -1.71007 5.29626 4.91453C -1.76538 11.5391 -1.76538 22.1386 5.29626 28.7632C 11.9165 35.3878 22.0676 35.3878 28.6879 28.7632Z"/>
<path id="path18_fill" d="M 4.96521 4.9684C -1.65507 11.593 -1.65507 21.7508 4.96521 28.3754C 11.5855 35.4417 22.1779 35.4417 28.7982 28.3754C 35.4185 21.7508 35.4185 11.593 28.7982 4.9684C 22.1779 -1.6562 11.5855 -1.6562 4.96521 4.9684Z"/>
<path id="path19_fill" d="M 28.3569 28.817C 34.9772 22.1924 34.9772 11.593 28.3569 4.96843C 21.7367 -1.65618 11.5855 -1.65618 4.96519 4.96843C -1.6551 11.593 -1.6551 22.1924 4.96519 28.817C 11.5855 35.4416 21.7367 35.4416 28.3569 28.817Z"/>
<path id="path20_fill" d="M 28.6879 28.817C 35.7496 22.1924 35.7496 11.5931 28.6879 4.96845C 22.0676 -1.65615 11.9165 -1.65615 5.29617 4.96845C -1.76546 11.5931 -1.76546 22.1924 5.29617 28.817C 11.9165 35.4416 22.0676 35.4416 28.6879 28.817Z"/>
<path id="path21_fill" d="M 28.3031 29.0434C 35.3647 22.4188 35.3646 12.261 28.7444 5.19474C 22.1241 -1.42987 11.973 -1.8714 5.35273 4.7532C -1.70891 11.3778 -1.70893 21.5355 4.91135 28.6018C 11.5316 35.2264 21.6828 35.668 28.3031 29.0434Z"/>
<path id="path22_fill" d="M 28.7983 28.3754C 35.4186 21.7508 35.4186 11.593 28.7983 4.96843C 22.178 -1.65618 11.5854 -1.65618 4.96516 4.96843C -1.65512 11.593 -1.65512 21.7508 4.96516 28.3754C 11.5854 35.4417 21.7367 35.4417 28.7983 28.3754Z"/>
<path id="path23_fill" d="M 4.75008 5.52565C -1.87021 12.1503 -1.42883 22.3081 5.19146 28.9327C 11.8117 35.5573 22.4042 35.5572 29.0245 28.491C 35.6447 21.8664 35.2034 11.7086 28.5831 5.08398C 21.9628 -1.98226 11.8117 -1.5406 4.75008 5.52565Z"/>
<path id="path24_fill" d="M 28.6879 28.817C 35.7495 22.1924 35.7495 11.593 28.6879 4.96843C 22.0676 -1.65618 11.9165 -1.65618 5.29626 4.96843C -1.76538 11.593 -1.76538 22.1924 5.29626 28.817C 11.9165 35.4416 22.0676 35.4416 28.6879 28.817Z"/>
<path id="path25_fill" d="M 28.6879 28.817C 35.7495 22.1924 35.7495 11.5931 28.6879 4.96845C 22.0676 -1.65615 11.9165 -1.65615 5.29623 4.96845C -1.76541 11.5931 -1.76541 22.1924 5.29623 28.817C 11.9165 35.4416 22.0676 35.4416 28.6879 28.817Z"/>
<path id="path26_fill" d="M 28.4135 28.7066C 35.0338 22.082 35.0337 11.9243 28.8548 5.29974C 22.2345 -1.76651 11.6421 -1.76651 5.02178 5.29974C -1.5985 11.9243 -1.59853 22.082 4.5804 28.7066C 11.642 35.3312 21.7933 35.3312 28.4135 28.7066Z"/>
<path id="path27_fill" d="M 28.5831 28.7632C 35.6447 22.1386 35.2034 11.5392 28.5831 4.91464C 21.9628 -1.70997 11.3704 -1.71007 4.7501 5.35617C -1.87018 11.9808 -1.42894 22.1386 5.19135 28.7632C 11.8116 35.3878 21.9628 35.3878 28.5831 28.7632Z"/>
<path id="path28_fill" d="M 28.303 29.0434C 35.3647 22.4188 35.3647 12.261 28.7444 5.19474C 22.1241 -1.42987 11.9731 -1.8714 5.35279 4.7532C -1.70885 11.3778 -1.70888 21.5355 4.91141 28.6018C 11.5317 35.2264 21.6827 35.668 28.303 29.0434Z"/>
<path id="path29_fill" d="M 4.70135 28.381C 11.3216 35.4472 21.4728 35.4471 28.0931 29.2642C 35.1547 22.6396 35.596 12.4819 28.9757 5.41562C 22.3554 -1.65063 12.2044 -1.65068 5.58411 4.53228C -1.47753 11.1569 -1.91894 21.3147 4.70135 28.381Z"/>
<path id="path30_fill" d="M 28.688 28.817C 35.7496 22.1924 35.7496 11.5931 28.688 4.96845C 22.0677 -1.65615 11.9165 -1.65615 5.2962 4.96845C -1.76544 11.5931 -1.76544 22.1924 5.2962 28.817C 11.9165 35.4416 22.0677 35.4416 28.688 28.817Z"/>
<path id="path31_fill" d="M 5.35271 4.58345C -1.70893 11.2081 -1.70896 21.3657 4.91133 28.432C 11.5316 35.0566 21.6828 35.4983 28.3031 28.8737C 35.3647 22.2491 35.3647 12.0914 28.7445 5.02511C 22.1242 -1.59949 11.973 -1.59952 5.35271 4.58345Z"/>
</defs>
</svg>
