<?xml version="1.0" encoding="UTF-8" standalone="no"?>
<svg width="382px" height="342px" viewBox="0 0 382 342" version="1.1" xmlns="http://www.w3.org/2000/svg" xmlns:xlink="http://www.w3.org/1999/xlink" xmlns:sketch="http://www.bohemiancoding.com/sketch/ns">
    <!-- Generator: Sketch 3.0.4 (8053) - http://www.bohemiancoding.com/sketch -->
    <title>index-logo-line</title>
    <desc>Created with Sketch.</desc>
    <defs></defs>
    <g id="Page-1" stroke="none" stroke-width="1" fill="none" fill-rule="evenodd" sketch:type="MSPage">
        <g id="index-logo-line" sketch:type="MSLayerGroup" transform="translate(1.000000, 0.000000)" stroke-opacity="0.3" stroke="#FF6F4D">
            <path d="M290.906192,243.209344 C297.697015,210.91945 287.292728,180.754709 285.532719,176.052902 C287.230425,180.73914 296.902677,211.067354 276.475692,247.584205 C273.944708,250.285409 270.954255,253.726135 267.325212,257.992013 C249.141069,283.159136 220.825207,297.607075 189.659066,297.607075 C169.107478,297.607075 149.171115,291.293888 132.053879,279.336973 C89.0349481,249.335706 91.316727,206.334409 91.3400899,205.921833 L91.534781,203.189492 L-0.203636337,220.587735 L0.473888477,222.78295 C0.69194225,223.545826 24.1716815,298.766957 109.088125,331.134697 C126.812796,337.844891 145.090391,341.114361 163.515952,341.114361 L163.539313,341.114361 C218.052805,341.114361 270.261155,309.540636 284.917496,267.457904 C290.197518,252.286012 291.233274,246.17522 290.906192,243.209344 L290.906192,243.209344 L290.906192,243.209344 Z M163.539313,334.941292 L163.515952,334.941292 C145.612164,334.941292 127.817403,332.738293 110.614503,326.20714 C35.8297811,297.723841 9.8268459,236.452443 5.25550034,223.872773 L24.0626545,220.31528 L35.5572136,221.732049 C35.5572136,221.732049 52.3240059,289.472327 125.71474,321.084974 C161.280898,336.404769 194.666519,334.240694 222.079016,322.571804 C204.23753,330.40296 184.098687,334.941292 163.539313,334.941292 L163.539313,334.941292 L163.539313,334.941292 Z" id="Fill-1" sketch:type="MSShapeGroup"></path>
            <path d="M361.547889,170.253487 C338.862488,122.17673 299.682865,97.811404 264.326972,88.9604855 L299.838617,6.46089375 L297.587988,5.76029333 C296.933827,5.54232876 280.525266,0.529143535 255.308881,0.529143535 C228.324705,0.529143535 187.649852,6.52316935 146.967214,35.0920976 C113.192212,58.8502361 91.0675225,93.7089993 84.7673203,133.261785 C79.7442918,164.687606 85.9666173,195.731989 101.347209,216.352995 C110.98831,229.236258 115.497354,233.541059 118.160727,234.926691 C141.126484,258.638123 171.988907,266.912992 176.879544,268.088444 C171.988907,266.897423 141.469138,257.906385 122.669773,220.587735 C121.836493,217.014673 120.699498,212.624244 119.165333,207.198483 C100.833225,157.214535 126.314387,102.731176 177.159901,83.1299329 C189.059416,78.5448925 201.09911,76.2173422 212.912961,76.2173422 C232.701358,76.2173422 247.614693,82.7562796 255.231007,86.9988041 C247.536815,85.6131722 240.115195,84.9437096 233.191981,84.9437096 C217.476519,84.9437096 202.804603,88.189825 190.718183,94.2850487 C177.050874,101.228777 171.560587,105.121002 169.489073,107.713223 C142.123301,126.279134 128.712982,155.369621 126.750496,159.892386 C128.736343,155.400759 142.777462,126.792908 182.860454,114.602461 C186.933389,114.384496 191.699426,113.917429 196.691304,113.419225 C202.45416,112.383893 208.318254,111.838981 214.088895,111.838981 C259.926953,111.838981 299.838617,145.460017 308.996883,191.793058 C319.222057,243.185991 287.752198,272.603425 287.432905,272.899234 L285.415905,274.744149 L363.588249,325.755644 L364.686308,323.68498 C365.005602,322.976594 400.361494,252.45727 361.547889,170.253487 L361.547889,170.253487 L361.547889,170.253487 Z M146.094998,54.5376515 C88.4041492,91.4982157 79.8221681,153.470215 95.771258,198.207444 C87.8122881,179.921773 85.2267914,157.051062 88.9181333,133.923464 C95.0625825,95.5149916 116.525323,61.6448535 149.381384,38.548393 C189.168443,10.6022207 228.916566,4.74053051 255.308881,4.74053051 C274.575508,4.74053051 288.780166,7.80760346 294.083551,9.1465287 L286.506175,26.8094437 L278.944375,35.4813202 C278.944375,35.4813202 213.356857,11.4507256 146.094998,54.5376515 L146.094998,54.5376515 L146.094998,54.5376515 Z M361.906121,319.621497 L345.855791,309.151413 L338.566559,300.175944 C338.566559,300.175944 373.478556,239.73748 342.538255,166.073238 C315.959036,102.894649 256.235611,83.8616714 209.38516,91.9730671 C216.822358,90.1515061 224.843629,89.1628811 233.191981,89.1628811 C275.720292,89.1628811 330.716615,114.789287 357.747519,172.05948 C391.880753,244.439288 367.310744,307.392128 361.906121,319.621497 L361.906121,319.621497 L361.906121,319.621497 Z" id="Fill-2" sketch:type="MSShapeGroup"></path>
            <path d="M263.213338,197.592473 C263.213338,181.774472 256.173311,167.482224 245.628843,157.269026 C237.28828,164.36066 222.694241,169.062467 206.363557,169.062467 C190.040659,169.062467 175.579008,164.36066 167.238444,157.269026 C156.670616,167.482224 150.253599,181.774472 150.253599,197.592473 C150.253599,216.026048 154.521225,232.404529 173.079174,242.617726 L173.079174,208.584115 C173.079174,202.348771 182.299742,197.281095 188.537643,197.281095 C194.767757,197.281095 204.0039,202.348771 204.0039,208.584115 L204.0039,252.636312 C204.0039,253.321344 206.667275,253.694997 210.389767,253.694997 C213.948718,253.694997 216.339524,253.344697 216.339524,252.690804 L216.339524,208.584115 C216.339524,202.348771 222.483972,197.281095 228.73745,197.281095 C234.951987,197.281095 241.096438,202.348771 241.096438,208.584115 L241.096438,242.913535 C253.455423,232.731476 263.213338,216.212875 263.213338,197.592473" id="Fill-3" sketch:type="MSShapeGroup"></path>
        </g>
    </g>
</svg>