<?xml version="1.0" encoding="UTF-8" standalone="no"?>
<svg width="255px" height="228px" viewBox="0 0 255 228" version="1.1" xmlns="http://www.w3.org/2000/svg" xmlns:xlink="http://www.w3.org/1999/xlink" xmlns:sketch="http://www.bohemiancoding.com/sketch/ns">
    <!-- Generator: Sketch 3.0.4 (8053) - http://www.bohemiancoding.com/sketch -->
    <title>Fill-1 + Fill-2 + Fill-3</title>
    <desc>Created with Sketch.</desc>
    <defs>
        <linearGradient x1="18.2974628%" y1="-48.4352612%" x2="122.36205%" y2="83.3866296%" id="linearGradient-1">
            <stop stop-color="#0DA387" offset="0%"></stop>
            <stop stop-color="#1373AE" offset="100%"></stop>
        </linearGradient>
    </defs>
    <g id="Page-1" stroke="none" stroke-width="1" fill="none" fill-rule="evenodd" sketch:type="MSPage">
        <g id="Fill-1-+-Fill-2-+-Fill-3" sketch:type="MSLayerGroup" transform="translate(1.000000, 0.000000)" fill="url(#linearGradient-1)">
            <path d="M193.937462,161.901822 C198.464677,140.406789 191.528485,120.326449 190.355146,117.196507 C191.48695,120.316085 197.935118,140.505248 184.317128,164.814119 C182.629805,166.612281 180.63617,168.902735 178.216808,171.742484 C166.094046,188.495965 147.216805,198.113801 126.439377,198.113801 C112.738319,198.113801 99.44741,193.91118 88.0359192,185.951592 C59.356632,165.980074 60.877818,137.354577 60.8933933,137.07993 L61.0231873,135.26104 L-0.135757558,146.842862 L0.315925651,148.304192 C0.461294833,148.812031 16.1144543,198.885921 72.7254167,220.432775 C84.5418641,224.899678 96.7269275,227.076129 109.010635,227.076129 L109.026209,227.076129 C145.368537,227.076129 180.174103,206.057843 189.944998,178.043824 C193.465012,167.944061 194.155516,163.876173 193.937462,161.901822 L193.937462,161.901822 L193.937462,161.901822 Z M109.026209,222.966784 L109.010635,222.966784 C97.074776,222.966784 85.2116019,221.500271 73.7430019,217.152553 C23.8865207,198.19153 6.5512306,157.403826 3.50366689,149.029676 L16.0417696,146.661491 L23.7048091,147.604619 C23.7048091,147.604619 34.8826706,192.698587 83.8098266,213.742783 C107.520599,223.941004 129.777679,222.500403 148.052677,214.73255 C136.158353,219.945666 122.732458,222.966784 109.026209,222.966784 L109.026209,222.966784 L109.026209,222.966784 Z" id="Fill-1" sketch:type="MSShapeGroup"></path>
            <path d="M241.031926,113.335899 C225.908325,81.3317234 199.788577,65.1119903 176.217982,59.2200299 L199.892411,4.30094686 L198.391992,3.83456476 C197.955885,3.68946812 187.016844,0.35224511 170.205921,0.35224511 C152.21647,0.35224511 125.099902,4.34240306 97.9781424,23.3604286 C75.4614747,39.1759637 60.7116817,62.381064 56.5115469,88.7109245 C53.1628612,109.630753 57.3110782,130.296662 67.5648061,144.023841 C73.9922064,152.60009 76.998236,155.465749 78.7738182,156.388149 C94.0843223,172.172592 114.659271,177.681083 117.919696,178.463568 C114.659271,177.670719 94.3127584,171.685482 81.7798484,146.842862 C81.2243286,144.464313 80.4663323,141.541652 79.4435555,137.929782 C67.2221499,104.65601 84.2095915,68.387029 118.106601,55.3386943 C126.03961,52.2864827 134.066073,50.7370577 141.941974,50.7370577 C155.134239,50.7370577 165.076462,55.0899574 170.154004,57.9141599 C165.024544,56.9917598 160.076797,56.5461058 155.461321,56.5461058 C144.984346,56.5461058 135.203068,58.7070096 127.145456,62.7645339 C118.033916,67.3868986 114.373724,69.9779104 112.992716,71.7035241 C94.7488676,84.0626495 85.8086549,103.427871 84.5003309,106.438626 C85.8242289,103.448599 95.184975,84.4046631 121.906969,76.2896147 C124.622259,76.144518 127.799617,75.8335966 131.127536,75.5019471 C134.96944,74.8127379 138.878836,74.4499964 142.72593,74.4499964 C173.284635,74.4499964 199.892411,96.831155 205.997922,127.674558 C212.814705,161.886276 191.834799,181.469142 191.621936,181.666059 L190.27727,182.894199 L242.392166,216.851998 L243.124206,215.473579 C243.337068,215.002014 266.907663,168.058065 241.031926,113.335899 L241.031926,113.335899 L241.031926,113.335899 Z M97.3966653,36.3051228 C58.9360994,60.9093694 53.2147787,102.163457 63.8475054,131.944545 C58.5415254,119.771972 56.8178609,104.547188 59.2787555,89.1513966 C63.375055,63.5832935 77.6835484,41.0363101 99.587589,25.661247 C126.112295,7.05778326 152.611044,3.15571972 170.205921,3.15571972 C183.050339,3.15571972 192.52011,5.19743691 196.0557,6.08874491 L191.004117,17.8467558 L185.962917,23.6195298 C185.962917,23.6195298 142.237904,7.62262381 97.3966653,36.3051228 L97.3966653,36.3051228 L97.3966653,36.3051228 Z M241.270747,212.768563 L230.570527,205.798741 L225.711039,199.823869 C225.711039,199.823869 248.985704,159.590639 228.358837,110.553153 C210.639357,68.4958516 170.82374,55.8258047 139.590107,61.2254728 C144.548239,60.0128794 149.895752,59.3547625 155.461321,59.3547625 C183.813528,59.3547625 220.477744,76.4139832 238.498346,114.538129 C261.253836,162.720581 244.873829,204.627604 241.270747,212.768563 L241.270747,212.768563 L241.270747,212.768563 Z" id="Fill-2" sketch:type="MSShapeGroup"></path>
            <path d="M175.475559,131.535165 C175.475559,121.005294 170.782207,111.491099 163.752562,104.692284 C158.192186,109.413108 148.462827,112.54305 137.575704,112.54305 C126.693772,112.54305 117.052672,109.413108 111.492296,104.692284 C104.447077,111.491099 100.169066,121.005294 100.169066,131.535165 C100.169066,143.806196 103.01415,154.709173 115.386116,161.507988 L115.386116,138.852182 C115.386116,134.701381 121.533162,131.327884 125.691762,131.327884 C129.845172,131.327884 136.0026,134.701381 136.0026,138.852182 L136.0026,168.177252 C136.0026,168.63327 137.778183,168.882007 140.259844,168.882007 C142.632479,168.882007 144.226349,168.648816 144.226349,168.213526 L144.226349,138.852182 C144.226349,134.701381 148.322648,131.327884 152.491634,131.327884 C156.634658,131.327884 160.730959,134.701381 160.730959,138.852182 L160.730959,161.704905 C168.970282,154.926818 175.475559,143.930565 175.475559,131.535165" id="Fill-3" sketch:type="MSShapeGroup"></path>
        </g>
    </g>
</svg>