<?xml version="1.0" encoding="UTF-8" standalone="no"?>
<svg width="250px" height="211px" viewBox="0 0 250 211" version="1.1" xmlns="http://www.w3.org/2000/svg" xmlns:xlink="http://www.w3.org/1999/xlink" xmlns:sketch="http://www.bohemiancoding.com/sketch/ns">
    <!-- Generator: Sketch 3.0.3 (7891) - http://www.bohemiancoding.com/sketch -->

    <title>mopcon_svg</title>
    <desc>Created with Sketch.</desc>
    <defs>
        
        
    </defs>
    <g id="Page-1" stroke="none" stroke-width="1" fill="none" fill-rule="evenodd" sketch:type="MSPage">
        <g id="mopcon_svg" sketch:type="MSArtboardGroup">
            <g id="Imported-Layers" class="all" sketch:type="MSLayerGroup" transform="translate(0.000000, 4.000000)">
                <g class="outer">
                    <path  d="M162.428161,90.4754366 C164.933908,78.5572394 161.094828,67.4234366 160.445402,65.688 C161.071839,67.4176901 164.640805,78.611831 157.103448,92.0901972 C156.16954,93.0872113 155.066092,94.3571831 153.727011,95.9317183 C147.017241,105.220901 136.568966,110.553634 125.068966,110.553634 C117.485632,110.553634 110.12931,108.223437 103.813218,103.810141 C87.9396552,92.7366761 88.7816092,76.8649014 88.7902299,76.7126197 L88.862069,75.7041127 L55.0114943,82.1258028 L55.2614943,82.9360563 C55.341954,83.2176338 64.0057471,110.981746 95.3390805,122.928676 C101.87931,125.405408 108.623563,126.612169 115.422414,126.612169 L115.431034,126.612169 C135.545977,126.612169 154.810345,114.95831 160.218391,99.4255775 C162.166667,93.8256338 162.548851,91.5701408 162.428161,90.4754366 L162.428161,90.4754366 Z M115.431034,124.33369 L115.422414,124.33369 C108.816092,124.33369 102.25,123.520563 95.9022989,121.109915 C68.3074713,110.596732 58.7126437,87.9814648 57.0258621,83.3383099 L63.9655172,82.0252394 L68.2068966,82.548169 C68.2068966,82.548169 74.3936782,107.551099 101.474138,119.219324 C114.597701,124.873859 126.916667,124.075099 137.031609,119.768113 C130.448276,122.658592 123.017241,124.33369 115.431034,124.33369 L115.431034,124.33369 Z" id="Fill-1" sketch:type="MSShapeGroup"></path>
                    <path d="M188.494253,63.5474366 C180.123563,45.8023099 165.666667,36.8090704 152.62069,33.5421972 L165.724138,3.09160563 L164.893678,2.83301408 C164.652299,2.75256338 158.597701,0.902197183 149.293103,0.902197183 C139.336207,0.902197183 124.327586,3.11459155 109.316092,13.6593803 C96.8534483,22.428507 88.6896552,35.2948732 86.3649425,49.8938028 C84.5114943,61.4930704 86.8074713,72.9515493 92.4827586,80.5627606 C96.0402299,85.3179718 97.704023,86.9068732 98.6867816,87.4183099 C107.16092,96.1701972 118.548851,99.2244507 120.353448,99.6583099 C118.548851,99.2187042 107.287356,95.9001127 100.350575,82.1258028 C100.043103,80.8069859 99.6235632,79.1864789 99.0574713,77.183831 C92.2931034,58.7347606 101.695402,38.6249577 120.456897,31.3901408 C124.847701,29.6978028 129.29023,28.8387042 133.649425,28.8387042 C140.951149,28.8387042 146.454023,31.2522254 149.264368,32.8181408 C146.425287,32.3067042 143.686782,32.0596056 141.132184,32.0596056 C135.333333,32.0596056 129.91954,33.2577465 125.45977,35.507493 C120.416667,38.0704225 118.390805,39.5070423 117.626437,40.463831 C107.528736,47.316507 102.58046,58.0538028 101.856322,59.7231549 C102.58908,58.0652958 107.770115,47.5061408 122.560345,43.0066479 C124.063218,42.9261972 125.821839,42.7538028 127.663793,42.5699155 C129.79023,42.1877746 131.954023,41.9866479 134.083333,41.9866479 C150.997126,41.9866479 165.724138,54.396169 169.103448,71.4976901 C172.876437,90.4668169 161.264368,101.324789 161.146552,101.433972 L160.402299,102.11493 L189.247126,120.943268 L189.652299,120.178986 C189.770115,119.917521 202.816092,93.8888451 188.494253,63.5474366 L188.494253,63.5474366 Z M108.994253,20.8367324 C87.7068966,34.4788732 84.5402299,57.3527324 90.4252874,73.8652394 C87.4885057,67.116 86.5344828,58.6744225 87.8965517,50.1380282 C90.1637931,35.9614648 98.0833333,23.46 110.206897,14.9350986 C124.887931,4.62016901 139.554598,2.45661972 149.293103,2.45661972 C156.402299,2.45661972 161.643678,3.58867606 163.600575,4.08287324 L160.804598,10.6022535 L158.014368,13.8030423 C158.014368,13.8030423 133.813218,4.93335211 108.994253,20.8367324 L108.994253,20.8367324 Z M188.626437,118.679155 L182.704023,114.814648 L180.014368,111.501803 C180.014368,111.501803 192.896552,89.1939718 181.479885,62.004507 C171.672414,38.6852958 149.635057,31.6602254 132.347701,34.6541408 C135.091954,33.9818028 138.051724,33.6169014 141.132184,33.6169014 C156.824713,33.6169014 177.117816,43.0756056 187.091954,64.2140282 C199.686782,90.9294085 190.62069,114.165296 188.626437,118.679155 L188.626437,118.679155 Z" id="Fill-2" sketch:type="MSShapeGroup"></path>
                </g>
                <path class="m" d="M152.20977,73.6382535 C152.20977,67.799831 149.612069,62.5245634 145.721264,58.7548732 C142.643678,61.3723944 137.258621,63.107831 131.232759,63.107831 C125.20977,63.107831 119.873563,61.3723944 116.795977,58.7548732 C112.896552,62.5245634 110.528736,67.799831 110.528736,73.6382535 C110.528736,80.4420845 112.103448,86.4873803 118.951149,90.2570704 L118.951149,77.6952676 C118.951149,75.3938028 122.353448,73.5233239 124.655172,73.5233239 C126.954023,73.5233239 130.362069,75.3938028 130.362069,77.6952676 L130.362069,93.9549296 C130.362069,94.2077746 131.344828,94.3456901 132.718391,94.3456901 C134.031609,94.3456901 134.913793,94.2163944 134.913793,93.9750423 L134.913793,77.6952676 C134.913793,75.3938028 137.181034,73.5233239 139.488506,73.5233239 C141.781609,73.5233239 144.048851,75.3938028 144.048851,77.6952676 L144.048851,90.3662535 C148.609195,86.6080563 152.20977,80.5110423 152.20977,73.6382535" id="Fill-3" sketch:type="MSShapeGroup"></path>
                <g class="text">
                    <path  d="M1.3362069,171.084169 L14.9454023,171.084169 L25.4022989,192.920789 L35.0689655,171.084169 L48.2844828,171.084169 L48.2844828,171.664563 L47.4022989,171.664563 L43.2701149,174.782028 L43.2701149,199.695887 L47.3706897,202.807606 L48.2844828,202.807606 L48.2844828,203.39662 L29.816092,203.39662 L29.816092,202.807606 L30.7356322,202.807606 L34.8275862,199.695887 L34.8275862,173.374141 L34.7586207,173.374141 L21.4712644,203.39662 L20.8218391,203.39662 L7.43390805,175.158423 L7.36494253,175.158423 L7.36494253,195.153296 L11.4971264,202.807606 L12.5977011,202.807606 L12.5977011,203.39662 L1.36781609,203.39662 L1.36781609,202.807606 L2.5316092,202.807606 L6.67528736,195.153296 L6.67528736,174.32231 L2.5316092,171.664563 L1.3362069,171.664563 L1.3362069,171.084169" id="Fill-4" sketch:type="MSShapeGroup"></path>
                <path d="M70.8850575,170.397465 C73.9310345,170.397465 76.7586207,170.972113 79.3362069,172.135775 C81.9224138,173.308056 84.0977011,174.991775 85.862069,177.189803 C87.0373563,178.612056 87.9281609,180.166479 88.5402299,181.850197 C89.1724138,183.533915 89.4827586,185.249239 89.4827586,186.990423 C89.4827586,190.033183 88.6609195,192.828845 87.0172414,195.400394 C85.362069,197.971944 83.137931,200.000451 80.3103448,201.511775 C77.5,203.008732 74.4454023,203.761521 71.1637931,203.761521 C67.9454023,203.761521 64.9367816,203.008732 62.1206897,201.511775 C59.3247126,200.000451 57.0977011,197.980563 55.433908,195.434873 C53.7873563,192.889183 52.954023,190.162479 52.954023,187.249014 C52.954023,185.059606 53.4367816,182.942028 54.3908046,180.907775 C55.341954,178.862028 56.6637931,177.043268 58.3477011,175.454366 C60.0344828,173.865465 61.9511494,172.627099 64.1149425,171.733521 C66.2816092,170.842817 68.5373563,170.397465 70.8850575,170.397465 L70.8850575,170.397465 Z M71.4942529,171.434704 C69.6206897,171.434704 68.0977011,171.753634 66.9425287,172.377127 C65.7902299,173.009239 64.887931,174.00338 64.2241379,175.365296 C63.7643678,176.382423 63.4137931,177.508732 63.1925287,178.767211 C63.0229885,179.815944 62.8821839,181.223831 62.7701149,182.985127 C62.6695402,184.749296 62.6149425,186.614028 62.6149425,188.567831 C62.6149425,189.63093 62.6522989,190.831944 62.7442529,192.188113 C62.8103448,193.541408 62.9224138,194.667718 63.0833333,195.575662 C63.4942529,197.79093 64.2672414,199.480394 65.4195402,200.632563 C66.7327586,202.05769 68.7356322,202.764507 71.4252874,202.764507 C73.1091954,202.764507 74.5229885,202.434085 75.6666667,201.773239 C76.8074713,201.109521 77.7126437,200.098141 78.3735632,198.744845 C78.7931034,197.905859 79.137931,196.808282 79.3936782,195.434873 C79.5574713,194.512563 79.6867816,193.193746 79.7873563,191.487042 C79.887931,189.771718 79.9396552,187.964451 79.9396552,186.048 C79.9396552,182.421972 79.6666667,179.554479 79.137931,177.419662 C78.5833333,175.287718 77.7011494,173.770648 76.4798851,172.831099 C75.2758621,171.894423 73.612069,171.434704 71.4942529,171.434704 L71.4942529,171.434704 Z" id="Fill-5" sketch:type="MSShapeGroup"></path>
                <path d="M93.3247126,171.084169 L113.436782,171.084169 C114.568966,171.084169 115.752874,171.184732 116.997126,171.388732 C118.238506,171.589859 119.353448,171.880056 120.364943,172.250704 C121.367816,172.638592 122.201149,173.066704 122.862069,173.558028 C124.005747,174.351042 124.896552,175.339437 125.548851,176.528958 C126.192529,177.729972 126.511494,179.02293 126.511494,180.427944 C126.511494,182.321408 125.962644,183.936169 124.867816,185.266479 C123.764368,186.582423 122.16092,187.593803 120.045977,188.266141 C117.91954,188.949972 115.341954,189.280394 112.333333,189.280394 L106.850575,189.280394 L106.850575,199.647042 L110.942529,202.807606 L111.933908,202.807606 L111.933908,203.39662 L93.3534483,203.39662 L93.3534483,202.807606 L94.2356322,202.807606 L98.3247126,199.695887 L98.3247126,174.782028 L94.1264368,171.664563 L93.3247126,171.664563 L93.3247126,171.084169 L93.3247126,171.084169 Z M106.850575,171.946141 L106.850575,188.427042 L110.637931,188.427042 C112.002874,188.427042 113.149425,188.266141 114.057471,187.947211 C114.971264,187.625408 115.701149,187.125465 116.247126,186.441634 C117.336207,185.022254 117.890805,182.812732 117.890805,179.804451 C117.890805,178.060394 117.649425,176.606535 117.189655,175.451493 C116.718391,174.287831 116.014368,173.405746 115.08908,172.822479 C114.158046,172.236338 113.008621,171.946141 111.632184,171.946141 L106.850575,171.946141 L106.850575,171.946141 Z" id="Fill-6" sketch:type="MSShapeGroup"></path>
                <path d="M163.600575,191.363493 L164.252874,191.639324 C163.798851,193.058704 163.367816,194.202254 162.968391,195.055606 C162.568966,195.911831 162.014368,196.788169 161.336207,197.701859 C158.287356,201.741634 154.155172,203.761521 148.933908,203.761521 C146.074713,203.761521 143.298851,203.120789 140.586207,201.842197 C137.882184,200.557859 135.614943,198.79369 133.79023,196.523831 C131.663793,193.900563 130.614943,190.831944 130.614943,187.343831 C130.614943,182.87307 132.436782,178.862028 136.086207,175.313577 C139.356322,172.135775 143.247126,170.532507 147.767241,170.532507 C149.229885,170.532507 150.554598,170.719268 151.738506,171.084169 C152.931034,171.460563 154.215517,172.092676 155.58908,172.98338 C156.5,173.615493 157.195402,173.931549 157.666667,173.931549 C158.106322,173.931549 158.675287,173.716056 159.350575,173.287944 C160.022989,172.874197 160.882184,172.187493 161.956897,171.227831 C162.143678,171.043944 162.255747,170.931887 162.287356,170.903155 L162.678161,170.578479 L163.097701,170.578479 L163.560345,182.551268 L163.12069,182.551268 C162.097701,180.893408 161.123563,179.453915 160.192529,178.255775 C158.658046,176.310592 156.801724,174.733183 154.646552,173.500563 C152.479885,172.279437 150.436782,171.664563 148.528736,171.664563 C147.557471,171.664563 146.614943,171.891549 145.712644,172.328282 C144.79023,172.782254 144.017241,173.417239 143.364943,174.261972 C141.272989,176.934085 140.227011,181.071549 140.227011,186.674366 C140.227011,187.89262 140.307471,189.185577 140.479885,190.547493 C140.649425,191.915155 140.87931,193.159268 141.16954,194.271211 C141.451149,195.406141 141.801724,196.368676 142.175287,197.150197 C142.764368,198.368451 143.477011,199.376958 144.287356,200.187211 C145.091954,201.000338 146.014368,201.612338 147.045977,202.037577 C148.08046,202.462817 149.192529,202.66969 150.402299,202.66969 C151.649425,202.66969 152.902299,202.454197 154.163793,202.020338 C155.416667,201.595099 156.62069,200.951493 157.755747,200.083775 C158.896552,199.224676 159.87069,198.242028 160.712644,197.150197 C161.385057,196.268113 161.925287,195.434873 162.318966,194.633239 C162.718391,193.840225 163.137931,192.754141 163.600575,191.363493" id="Fill-7" sketch:type="MSShapeGroup"></path>
                <path d="M186.272989,170.397465 C189.327586,170.397465 192.146552,170.972113 194.724138,172.135775 C197.313218,173.308056 199.482759,174.991775 201.261494,177.189803 C202.413793,178.612056 203.307471,180.166479 203.936782,181.850197 C204.557471,183.533915 204.87069,185.249239 204.87069,186.990423 C204.87069,190.033183 204.045977,192.828845 202.393678,195.400394 C200.75,197.971944 198.522989,200.000451 195.695402,201.511775 C192.890805,203.008732 189.83046,203.761521 186.551724,203.761521 C183.321839,203.761521 180.321839,203.008732 177.517241,201.511775 C174.70977,200.000451 172.482759,197.980563 170.821839,195.434873 C169.178161,192.889183 168.350575,190.162479 168.350575,187.249014 C168.350575,185.059606 168.824713,182.942028 169.778736,180.907775 C170.732759,178.862028 172.054598,177.043268 173.735632,175.454366 C175.422414,173.865465 177.347701,172.627099 179.511494,171.733521 C181.66954,170.842817 183.925287,170.397465 186.272989,170.397465 L186.272989,170.397465 Z M186.885057,171.434704 C184.997126,171.434704 183.482759,171.753634 182.333333,172.377127 C181.175287,173.009239 180.275862,174.00338 179.612069,175.365296 C179.140805,176.382423 178.801724,177.508732 178.58046,178.767211 C178.408046,179.815944 178.270115,181.223831 178.166667,182.985127 C178.048851,184.749296 178,186.614028 178,188.567831 C178,189.63093 178.048851,190.831944 178.117816,192.188113 C178.198276,193.541408 178.318966,194.667718 178.471264,195.575662 C178.882184,197.79093 179.655172,199.480394 180.804598,200.632563 C182.117816,202.05769 184.126437,202.764507 186.810345,202.764507 C188.494253,202.764507 189.908046,202.434085 191.054598,201.773239 C192.195402,201.109521 193.097701,200.098141 193.758621,198.744845 C194.181034,197.905859 194.522989,196.808282 194.793103,195.434873 C194.942529,194.512563 195.071839,193.193746 195.172414,191.487042 C195.275862,189.771718 195.324713,187.964451 195.324713,186.048 C195.324713,182.421972 195.063218,179.554479 194.511494,177.419662 C193.971264,175.287718 193.08908,173.770648 191.876437,172.831099 C190.66092,171.894423 189,171.434704 186.885057,171.434704 L186.885057,171.434704 Z" id="Fill-8" sketch:type="MSShapeGroup"></path>
                <path d="M208.890805,171.084169 L222.91092,171.084169 L225.304598,173.4 L232.933908,180.804338 L240.583333,188.266141 L243.002874,190.596338 L243.002874,178.974085 L238.810345,171.638704 L237.686782,171.638704 L237.686782,171.084169 L248.87931,171.084169 L248.856322,171.638704 L247.715517,171.638704 L243.732759,178.882141 L243.732759,203.39662 L242.79023,203.39662 L239.522989,200.198704 L229.287356,190.231437 L219.037356,180.315887 L215.761494,177.143831 L215.761494,195.090085 L219.95977,202.833465 L221.135057,202.833465 L221.135057,203.39662 L209.844828,203.39662 L209.864943,202.807606 L210.977011,202.807606 L215.028736,195.273972 L215.028736,176.471493 L210.043103,171.638704 L208.890805,171.638704 L208.890805,171.084169" id="Fill-9" sketch:type="MSShapeGroup"></path>
                </g>
            </g>
        </g>
    </g>
</svg>