<?xml version="1.0" encoding="UTF-8" standalone="no"?>
<svg width="430px" height="305px" viewBox="0 0 430 305" version="1.1" xmlns="http://www.w3.org/2000/svg" xmlns:xlink="http://www.w3.org/1999/xlink" xmlns:sketch="http://www.bohemiancoding.com/sketch/ns">
    <!-- Generator: Sketch 3.0.4 (8053) - http://www.bohemiancoding.com/sketch -->
    <title>Rectangle 41 + Imported Layers</title>
    <desc>Created with Sketch.</desc>
    <defs>
        <rect id="path-1" x="0" y="0" width="437" height="341"></rect>
    </defs>
    <g id="Page-1" stroke="none" stroke-width="1" fill="none" fill-rule="evenodd" sketch:type="MSPage">
        <g id="Rectangle-41-+-Imported-Layers" sketch:type="MSLayerGroup">
            <mask id="mask-2" sketch:name="Rectangle 41" fill="white">
                <use xlink:href="#path-1"></use>
            </mask>
            <use id="Rectangle-41" sketch:type="MSShapeGroup" xlink:href="#path-1"></use>
            <g id="Imported-Layers" mask="url(#mask-2)" sketch:type="MSShapeGroup">
                <g transform="translate(-17.836170, -371.861488)">
                    <path d="M427.529801,523.793547 C427.369261,523.310337 426.7271,522.347096 426.24389,521.704935 C425.762269,521.061184 425.441189,520.740104 425.762269,520.097943 C426.08335,519.455782 427.04818,518.489361 427.529801,517.68666 C428.011422,516.883959 428.011422,516.240208 428.334092,515.919128 C428.655172,515.598047 429.297333,515.598047 429.297333,515.116427 C429.297333,514.634806 428.655172,513.669975 428.334092,513.027814 C428.011422,512.384063 428.011422,512.062983 427.690341,511.902443 C427.369261,511.740313 426.7271,511.740313 426.08335,511.902443 C425.441189,512.062983 424.799028,512.384063 424.156867,512.384063 C423.513116,512.384063 422.869366,512.062983 422.227205,512.223523 C421.585044,512.384063 420.941293,513.027814 420.129055,513.04212 C419.313638,513.054836 418.326553,512.441286 417.682803,512.120205 C417.040642,511.797535 416.743404,511.770514 416.592401,512.075699 C416.441398,512.384063 416.441398,513.027814 416.764068,513.669975 C417.083559,514.312136 417.727309,514.955886 418.36947,515.276967 C419.013221,515.598047 419.656971,515.598047 419.656971,516.402338 C419.656971,517.205039 419.013221,518.810442 418.85268,519.776862 C418.69214,520.740104 419.013221,521.061184 419.815922,520.902234 C420.620213,520.740104 421.906124,520.097943 422.387745,520.097943 C422.869366,520.097943 422.548285,520.740104 422.710415,521.383854 C422.869366,522.026015 423.513116,522.668176 424.315817,523.151386 C425.118519,523.633007 426.08335,523.954088 426.7271,524.114628 C427.369261,524.275168 427.690341,524.275168 427.529801,523.793547" id="Fill-1" stroke="#FF6F4D" stroke-width="1" fill="none"></path>
                    <path d="M24.1843549,392.344466 C23.7027341,392.183926 23.3816536,392.183926 23.2195239,392.023385 C23.0589836,391.862845 23.0589836,391.540175 22.8984434,391.379635 C22.7379031,391.220684 22.4168226,391.220684 22.2562824,391.540175 C22.0957422,391.862845 22.0957422,392.505006 21.9352019,392.665546 C21.7746617,392.827676 21.4535812,392.505006 21.2930409,392.665546 C21.1309112,392.827676 21.1309112,393.469837 21.1309112,393.953047 C21.1309112,394.433078 21.1309112,394.755748 21.2930409,395.076829 C21.4535812,395.397909 21.7746617,395.71899 21.9352019,395.71899 C22.0957422,395.71899 22.0957422,395.397909 22.0957422,395.076829 C22.0957422,394.755748 22.0957422,394.433078 22.2562824,394.274128 C22.4168226,394.111998 22.7379031,394.111998 22.8984434,393.953047 C23.0589836,393.790917 23.0589836,393.469837 23.2195239,393.309297 C23.3816536,393.148757 23.7027341,393.148757 24.0238146,393.309297 C24.3448951,393.469837 24.6675651,393.790917 24.9886456,393.953047 C25.3097261,394.111998 25.6308066,394.111998 25.7913468,393.953047 C25.9518871,393.790917 25.9518871,393.469837 25.6308066,393.148757 C25.3097261,392.827676 24.6675651,392.505006 24.1843549,392.344466" id="Fill-4" stroke="none" fill="#FF6F4D" fill-rule="evenodd"></path>
                    <path d="M18.4001375,389.453152 C18.2395972,388.969942 18.2395972,388.648861 18.2395972,388.327781 C18.2395972,388.005111 18.2395972,387.68403 17.9185167,387.68403 C17.5958467,387.68403 16.9536858,388.005111 16.6326053,388.005111 C16.3099353,388.005111 16.3099353,387.68403 15.9888548,387.525079 C15.6677743,387.36295 15.0256133,387.36295 14.8650731,387.68403 C14.7045328,388.005111 15.0256133,388.648861 15.1861536,389.774232 C15.3466938,390.898014 15.3466938,392.505006 15.1861536,393.309297 C15.0256133,394.111998 14.7045328,394.111998 14.2213226,394.595208 C13.7397018,395.076829 13.0959513,396.04007 13.0959513,396.523281 C13.0959513,397.004901 13.7397018,397.004901 14.2213226,396.844361 C14.7045328,396.683821 15.0256133,396.361151 15.507234,396.04007 C15.9888548,395.71899 16.6326053,395.397909 16.9536858,395.397909 C17.2747663,395.397909 17.2747663,395.71899 17.4353065,396.04007 C17.5958467,396.361151 17.9185167,396.683821 18.2395972,396.683821 C18.5606777,396.683821 18.8817582,396.361151 18.8817582,396.04007 C18.8817582,395.71899 18.5606777,395.397909 18.4001375,394.916289 C18.2395972,394.433078 18.2395972,393.790917 18.4001375,393.469837 C18.5606777,393.148757 18.8817582,393.148757 19.0422985,392.827676 C19.2028387,392.505006 19.2028387,391.862845 19.0422985,391.220684 C18.8817582,390.578523 18.5606777,389.934773 18.4001375,389.453152" id="Fill-5" stroke="none" fill="#FF6F4D" fill-rule="evenodd"></path>
                    <path d="M445.365664,644.637436 C444.723503,644.475306 444.081342,644.154226 443.599721,643.672605 C443.116511,643.190984 442.79543,642.547234 442.47435,642.388283 C442.153269,642.226153 441.832189,642.547234 441.190028,642.388283 C440.546277,642.226153 439.583036,641.583992 439.261955,641.100782 C438.939285,640.619161 439.261955,640.298081 439.261955,639.977 C439.261955,639.65592 438.939285,639.334839 438.778745,639.012169 C438.616615,638.691089 438.616615,638.368419 438.939285,638.047338 C439.261955,637.726258 439.904116,637.405177 440.385737,637.405177 C440.867358,637.405177 441.190028,637.726258 441.350568,637.726258 C441.511108,637.726258 441.511108,637.405177 441.511108,637.084097 C441.511108,636.761427 441.511108,636.440346 441.350568,636.281396 C441.190028,636.119266 440.867358,636.119266 440.546277,635.798185 C440.225197,635.477105 439.904116,634.834944 439.904116,634.351734 C439.904116,633.870113 440.225197,633.549032 440.385737,633.227952 C440.546277,632.905282 440.546277,632.584201 440.546277,632.263121 C440.546277,631.940451 440.546277,631.62096 440.385737,631.46042 C440.225197,631.29829 439.904116,631.29829 439.583036,631.46042 C439.261955,631.62096 438.939285,631.940451 438.457664,632.102581 C437.974454,632.263121 437.332293,632.263121 436.688543,632.102581 C436.046382,631.940451 435.404221,631.62096 434.60152,631.46042 C433.797229,631.29829 432.833987,631.29829 431.867567,631.46042 C430.905915,631.62096 429.939494,631.940451 429.297333,631.940451 C428.655172,631.940451 428.334092,631.62096 428.171962,631.29829 C428.011422,630.977209 428.011422,630.656129 427.852471,630.495589 C427.690341,630.335048 427.369261,630.335048 427.04818,630.495589 C426.7271,630.656129 426.40602,630.977209 426.24389,631.29829 C426.08335,631.62096 426.08335,631.940451 426.24389,632.102581 C426.40602,632.263121 426.7271,632.263121 426.886051,632.423661 C427.04818,632.584201 427.04818,632.905282 427.21031,633.227952 C427.369261,633.549032 427.690341,633.870113 427.852471,634.674404 C428.011422,635.477105 428.011422,636.761427 427.852471,637.726258 C427.690341,638.691089 427.369261,639.334839 427.369261,639.65592 C427.369261,639.977 427.690341,639.977 428.171962,639.977 C428.655172,639.977 429.297333,639.977 429.780544,640.13754 C430.263754,640.298081 430.583245,640.619161 430.905915,641.262912 C431.225406,641.905073 431.548076,642.868314 432.029697,643.512065 C432.511317,644.154226 433.155068,644.475306 434.27885,644.475306 C435.404221,644.475306 437.012802,644.154226 437.813914,644.154226 C438.616615,644.154226 438.616615,644.475306 438.616615,644.958516 C438.616615,645.438548 438.616615,646.083888 439.099825,646.563919 C439.583036,647.047129 440.546277,647.36821 440.867358,647.84983 C441.190028,648.333041 440.867358,648.975202 440.867358,649.456822 C440.867358,649.940033 441.190028,650.261113 441.671648,650.421653 C442.153269,650.582193 442.79543,650.582193 443.27864,650.742734 C443.761851,650.903274 444.081342,651.224354 444.402422,651.224354 C444.723503,651.224354 445.044583,650.903274 445.365664,650.261113 C445.689923,649.617363 446.011004,648.654121 446.011004,648.01196 C446.011004,647.36821 445.689923,647.047129 445.689923,646.726049 C445.689923,646.403379 446.011004,646.083888 446.332084,645.761218 C446.653165,645.438548 446.974245,645.117467 446.815294,644.958516 C446.653165,644.796387 446.011004,644.796387 445.365664,644.637436" id="Fill-10" stroke="#FF6F4D" stroke-width="1" fill="none"></path>
                    <path d="M498.717479,51.1884958 C497.433157,50.2252543 495.503495,49.5815038 493.898093,49.2604234 C492.291101,48.9393429 491.0036,48.9393429 490.040358,47.6534314 C489.075527,46.3675199 488.433366,43.7972865 487.149044,41.546544 C485.863133,39.2973911 483.93506,37.3693186 481.684318,36.4044876 C479.435165,35.4396566 476.863342,35.4396566 474.614189,35.1185762 C472.365036,34.7974957 470.435374,34.1537452 468.507302,33.5115842 C466.76997,32.9298245 466.089661,32.6977564 465.428426,32.4672778 C464.371403,32.0905646 463.678378,31.8362434 463.044165,31.5835117 C461.437173,30.9413507 460.151261,30.2991898 458.221599,29.9765198 C456.293527,29.6554393 453.723293,29.6554393 451.472551,29.3343588 C449.223398,29.0116888 447.295326,28.3695278 446.011004,27.4062863 C444.920602,26.3937701 444.686944,26.1235539 444.44057,25.8342635 C443.308841,24.529278 443.011603,24.219324 442.677807,23.896654 C440.546277,21.9415599 437.654963,20.0134875 435.725301,16.1573426 C426.08335,14.2292701 426.08335,13.2644391 425.441189,11.1758264 C424.799028,9.08562421 423.513116,5.87164028 421.906124,3.62248733 C420.299132,1.37333438 418.36947,0.0874229062 415.799237,-0.235247093 C413.229003,-0.556327585 410.015019,0.0874229062 406.479955,2.01549536 C402.943301,3.94356782 399.087156,7.15755175 395.552092,9.7293747 C392.017027,12.2996081 388.803043,14.2292701 386.874971,16.4784231 C384.946898,18.727576 384.303148,21.299399 383.660987,23.2274714 C383.017236,25.1555439 382.375075,26.4414553 381.731325,27.4062863 C381.089164,28.3695278 380.447003,29.0116888 378.19785,30.2991898 C375.947108,31.5835117 372.090963,33.5115842 368.875389,34.7974957 C368.497086,34.9484989 368.128321,35.089965 367.762734,35.2250731 C367.166669,35.4396566 366.923474,35.5270796 366.68028,35.6097339 C366.03335,35.8211384 365.817177,35.8926663 365.596235,35.9594256 C364.917516,36.164472 364.704522,36.2248733 364.489938,36.2852746 C363.77466,36.4823735 363.560077,36.5380062 363.342314,36.5952285 C362.572992,36.7891484 362.344103,36.8431917 362.116804,36.8972349 C361.301387,37.0911548 361.058192,37.1467876 360.821355,37.1992413 C359.707111,37.448794 359.165089,37.568007 358.592866,37.6903991 C354.092971,38.6536406 347.665003,39.9395521 344.128349,41.2254635 C340.593284,42.511375 339.951123,43.7972865 336.737139,46.3675199 C333.523155,48.9393429 327.738938,52.7954878 324.203874,55.0446407 C320.66722,57.2953832 319.382898,57.9375442 317.454825,59.2234556 C315.525163,60.5077776 312.95493,62.4374396 310.383107,65.007673 C308.281778,67.1090018 306.180449,69.6538031 304.08071,72.4370305 C303.608627,73.0632964 303.139722,73.6832043 302.670817,74.3285443 C300.098994,77.8636087 297.527171,81.7213432 294.634268,84.9353271 C292.869915,86.8967792 290.987938,88.6182157 289.422273,90.4668128 C288.444726,91.705039 288.357303,91.8290206 288.26988,91.9530022 C287.314586,93.4630342 287.104771,93.850874 286.921978,94.2546089 C285.314986,97.7912628 285.314986,102.289569 284.993906,105.824633 C284.671236,109.359698 284.029075,111.931521 283.707994,114.180673 C283.59355,114.975427 283.518843,115.70978 283.442546,116.410752 C283.169151,118.3881 283.022916,119.085893 282.743163,119.64381 C282.102592,120.929722 280.815091,121.573472 279.208099,123.822625 C277.601107,126.071778 275.673034,129.929513 273.744962,132.178666 C271.816889,134.427819 269.888817,135.071569 267.959155,135.39265 C266.031082,135.71373 264.10301,135.71373 262.496018,136.678561 C260.889026,137.643392 259.603115,139.571464 257.032881,142.462778 C254.461058,145.355682 250.604913,149.211827 248.676841,153.069561 C242.891034,164.639585 239.034889,171.388634 235.178744,177.977142 C234.735272,178.733747 234.291799,179.487174 233.851505,180.237421 C233.468434,180.889119 233.090131,181.536049 232.711829,182.17821 C231.891643,183.573797 231.575331,184.11423 231.262198,184.651483 C230.502413,185.9517 230.217892,186.441269 229.936549,186.927658 C229.214912,188.177011 228.960591,188.623662 228.70627,189.068724 C227.998939,190.311719 227.766871,190.731349 227.533214,191.150979 C226.875158,192.336752 226.646268,192.76274 226.418969,193.187138 C225.786345,194.369732 225.487518,194.946723 225.215712,195.493513 C222.964969,199.991819 222.322808,202.563642 221.036897,206.098706 C219.750985,209.633771 217.822913,214.133666 215.57376,217.668731 C213.323018,221.203795 210.751195,223.775618 208.180961,228.273924 C205.610728,232.773819 203.038905,239.201787 201.109243,243.380602 C199.18276,247.557828 197.896848,249.4859 196.289856,251.736643 C194.682864,253.985795 192.754792,256.557618 190.82672,259.127852 C188.897058,261.699675 186.968985,264.269908 184.719832,267.804973 C182.46909,271.341627 179.898856,275.841522 178.129735,280.981989 C176.363792,286.125635 175.398961,291.909852 169.614744,297.695659 C168.475067,299.130984 168.222335,299.452065 167.97914,299.762019 C167.176439,300.79043 166.945961,301.087668 166.725019,301.373779 C165.989077,302.337021 165.776083,302.618363 165.571037,302.88858 C164.885959,303.804136 164.693629,304.061636 164.512425,304.30801 C163.863906,305.194955 163.690649,305.433381 163.525341,305.66227 C162.927686,306.50153 162.771914,306.722471 162.62409,306.935465 C161.644953,308.354896 161.511435,308.556763 161.374737,308.76022 C160.513224,310.073153 160.39878,310.249588 160.289104,310.421255 C159.499119,311.684914 159.384674,311.877244 159.26705,312.071164 C158.567667,313.252168 158.483423,313.395223 158.402358,313.5351 C157.728407,314.73041 157.617142,314.935456 157.505876,315.142092 C156.614163,316.806306 156.444085,317.133745 156.275598,317.461183 C153.544824,322.76378 150.973001,328.547997 149.366009,333.691643 C147.759017,338.8337 147.116856,343.333595 146.795775,347.51082 C146.473105,351.689635 146.473105,355.54578 146.795775,358.759764 C146.884788,359.661015 147.002411,360.505043 147.129572,361.320461 C147.453832,363.409073 147.849619,365.265618 148.080097,367.115805 C148.402767,369.686038 148.402767,372.257861 148.402767,375.792925 C148.402767,379.32799 148.402767,383.829475 148.080097,387.68403 C147.759017,391.540175 147.116856,394.755748 146.473105,398.932974 C146.372967,399.587851 146.271238,400.271339 146.171099,400.970722 C145.989895,402.216896 145.862735,403.103841 145.730806,404.028935 C145.608413,404.890448 145.478074,405.777393 145.346145,406.678643 C145.125203,408.179138 144.978969,409.134432 144.824786,410.105621 C144.580002,411.637906 144.409925,412.669497 144.223953,413.716982 C143.259122,419.181708 141.9748,424.964336 141.009969,428.50099 C140.045138,432.037644 139.402977,433.321966 139.402977,434.286797 C139.402977,435.250039 140.045138,435.8922 140.688888,436.53595 C141.331049,437.178111 141.9748,437.820272 142.29588,440.714765 C142.616961,443.606079 142.616961,448.748135 143.259122,451.963709 C143.543643,453.375191 143.968042,454.417908 144.676962,455.482878 C145.36204,456.414329 145.474895,456.557385 145.597287,456.70203 C146.303028,457.498373 146.430189,457.644608 146.574834,457.79879 C147.496748,458.752495 147.630267,458.89555 147.789218,459.056091 C148.219974,459.491616 148.688879,459.96211 149.205469,460.4787 C153.223743,464.496974 159.972792,471.246023 167.685082,480.887975 C173.5297,492.577212 178.310938,502.13333 181.345308,507.563088 C183.880572,512.101131 185.196684,513.755808 186.306161,515.199081 C188.254897,517.8472 189.540808,520.097943 190.182969,521.704935 C190.82672,523.310337 190.82672,524.275168 190.66459,524.758378 C190.50405,525.23841 190.182969,525.23841 189.219728,525.56108 C188.254897,525.88375 186.647905,526.525911 186.166284,527.811822 C185.683074,529.096144 186.326824,531.024217 188.254897,533.91712 C190.182969,536.810023 193.396953,540.666168 195.646106,543.237991 C197.896848,545.809814 199.18276,547.094136 200.467082,548.380048 C201.752993,549.665959 203.038905,550.950281 204.083211,551.994587 C205.127517,553.040483 205.931808,553.844774 206.252889,554.486935 C205.931808,556.092338 205.610728,556.092338 204.645897,555.531241 C203.681066,554.968556 202.074074,553.844774 201.271373,553.442629 C200.467082,554.165855 200.467082,554.647475 201.431913,555.450177 C202.396744,556.254467 204.324816,557.378249 205.931808,557.942524 C206.308521,558.074453 206.664571,558.169824 207.006315,558.250889 C208.207983,558.478188 208.400313,558.508389 208.592644,558.537 C209.333354,558.649855 209.57178,558.689593 209.787953,558.743636 C210.751195,558.98683 211.394945,559.468451 212.680857,560.350628 C213.965179,561.235983 215.894841,562.520305 218.143993,563.806217 C221.149752,565.464073 223.251081,566.521095 224.893042,567.342871 C226.821114,568.306112 228.107026,568.948273 229.071857,568.948273 C230.035098,568.948273 230.678849,568.306112 231.32101,567.342871 C231.96476,566.37804 232.606921,565.093718 233.249082,564.769458 C233.892833,564.449967 234.534994,565.093718 235.178744,566.056959 C235.820905,567.020201 236.463066,568.306112 237.105227,569.270943 C237.748978,570.234185 238.392728,570.877935 239.35597,571.521686 C240.319211,572.163847 241.605122,572.806008 243.212114,573.608709 C244.820696,574.413 246.747179,575.376241 248.676841,577.304314 C258.318793,586.947855 266.031082,593.696903 270.530978,597.392508 C275.029284,601.088113 276.315195,601.730274 276.958946,602.374024 C277.601107,603.016185 277.601107,603.658346 279.049148,606.390709 C280.49401,609.123072 283.385324,613.944048 291.100793,625.514073 C293.028865,629.370217 293.028865,630.335048 292.706195,631.7815 C292.385115,633.227952 291.742954,635.156024 291.100793,637.405177 C290.457042,639.65592 289.814881,642.226153 289.492211,643.833145 C289.17272,645.438548 289.17272,646.083888 289.814881,647.36821 C290.457042,648.654121 291.742954,650.582193 293.829977,653.152427 C295.921769,655.72425 298.813083,658.939823 300.582204,661.993267 C302.348147,665.046711 302.990308,667.938025 303.956729,669.384476 C304.91997,670.829339 306.205882,670.829339 306.848043,670.026637 C307.490204,669.222347 307.490204,667.616944 307.652333,665.847822 C307.811284,664.08029 308.133954,662.152218 308.615575,661.188976 C309.097196,660.224145 309.739356,660.224145 310.543647,660.705766 C311.347938,661.188976 312.311179,662.152218 316.168914,666.008363 C321.953131,667.938025 321.953131,669.866097 322.113671,671.4715 C322.274212,673.080081 322.595292,674.365992 323.237453,675.008153 C323.881204,675.650314 324.846035,675.650314 325.327655,675.329234 C325.810866,675.008153 325.810866,674.365992 326.131946,672.43792 C326.453027,670.508258 327.095188,667.294274 327.095188,664.722451 C327.095188,662.152218 326.453027,660.224145 326.613567,656.849621 C326.774107,653.475097 327.738938,648.654121 327.738938,644.796387 C327.738938,642.868314 330.630252,639.977 332.076704,638.209468 C333.523155,636.440346 333.523155,635.798185 332.880995,635.156024 C332.238834,634.512274 330.951333,633.870113 329.988091,632.584201 C329.02326,631.29829 328.381099,629.370217 328.541639,624.549242 C328.602041,622.745151 328.775297,620.535735 328.865899,617.97027 C328.900868,616.517461 328.919942,615.924574 328.923121,615.291951 C328.900868,613.498986 328.902458,612.963322 328.883383,612.38951 C328.767349,610.35653 328.748275,609.830403 328.70218,609.270897 C328.465343,607.082145 328.419247,606.532175 328.338182,605.950416 C327.955111,603.648809 327.877225,603.081355 327.759602,602.4837 L328.699001,578.281861 C329.667011,575.376241 331.593494,573.448169 333.202075,570.555265 C334.809067,567.663951 336.093389,563.806217 336.416059,560.914903 C336.737139,558.02041 336.093389,556.092338 336.737139,552.879943 C337.3793,549.665959 339.308962,545.166064 340.272204,541.630999 C341.237035,538.095935 341.237035,535.524112 342.842437,531.987458 C344.449429,528.453983 347.665003,523.954088 354.092971,516.240208 C360.520938,508.527919 370.161301,497.600055 375.303357,491.493168 C380.447003,485.386281 381.089164,484.100369 381.089164,482.816047 C381.089164,481.530136 380.447003,480.245814 380.125923,478.637232 C379.803253,477.03024 379.803253,475.102168 381.089164,474.138926 C382.375075,473.174095 384.946898,473.174095 386.874971,473.174095 C388.803043,473.174095 390.088955,473.174095 391.053786,472.531934 C392.017027,471.888184 392.659188,470.602272 395.552092,465.461805 C398.444995,460.319749 403.585462,451.318369 408.085357,444.249829 C412.585253,437.178111 416.441398,432.037644 417.727309,428.50099 C419.013221,424.964336 417.727309,423.037853 417.083559,421.109781 C416.441398,419.181708 416.441398,417.252046 416.120317,415.002894 C415.799237,412.753741 415.155486,410.183507 415.478156,408.253845 C415.799237,406.325773 417.083559,405.038272 419.335891,399.255644 C421.585044,393.469837 424.799028,383.184135 426.40602,377.078837 C428.011422,370.973539 428.011422,369.043877 427.690341,367.115805 C427.369261,365.187732 426.7271,363.25807 426.7271,361.973748 C426.7271,360.991433 427.102224,360.384241 427.56477,359.723006 C428.655172,358.117603 429.297333,356.831692 429.620003,355.54578 C429.939494,354.259869 429.939494,352.973957 428.976253,350.885345 C428.011422,348.795142 426.08335,345.903829 426.08335,343.975756 C426.08335,340.118022 428.011422,339.15478 428.976253,337.708328 C429.939494,336.261877 429.939494,334.333804 430.905915,328.226917 C431.867567,322.12003 433.797229,311.837506 435.08314,303.158796 C436.369052,294.481675 437.012802,287.409957 437.654963,282.2679 C438.297124,277.125844 438.939285,273.91186 439.583036,270.376796 C440.225197,266.841731 440.867358,262.985586 442.153269,259.450522 C443.439181,255.913868 445.365664,252.699884 446.332084,250.771812 C447.295326,248.843739 447.295326,248.199989 446.974245,246.915667 C446.653165,245.629755 446.011004,243.701683 445.689923,241.772021 C445.365664,239.845538 445.365664,237.917465 445.689923,235.987803 C446.011004,234.059731 446.653165,232.131658 447.616406,229.559835 C448.581237,226.989602 449.867149,223.775618 450.509309,221.845956 C451.15147,219.917884 451.15147,219.275723 450.509309,217.668731 C449.867149,216.061739 448.581237,213.491505 448.260157,212.205594 C447.939076,210.919682 448.581237,210.919682 451.793631,208.670529 C455.009205,206.419787 460.795012,201.921481 463.686326,199.349658 C466.579229,196.777835 466.579229,196.135674 466.258149,194.528682 C465.937068,192.92169 465.294907,190.349867 465.294907,188.421795 C465.294907,186.493722 465.937068,185.2094 466.90031,182.958658 C467.865141,180.707916 469.149463,177.495521 471.077535,174.281537 C473.007197,171.067553 475.57743,167.853569 476.863342,164.960666 C478.147664,162.067762 478.147664,159.497529 478.791414,157.569457 C479.435165,155.641384 480.721076,154.353883 481.363237,152.10473 C482.005398,149.855577 482.005398,146.641593 482.970229,143.74869 C483.93506,140.855786 485.863133,138.285553 486.826374,136.678561 C487.791205,135.071569 487.791205,134.427819 487.470125,134.106738 C487.149044,133.785658 486.505294,133.785658 484.577221,131.857585 C482.649149,129.929513 479.435165,126.071778 477.505503,123.822625 C475.57743,121.573472 474.935269,120.929722 474.614189,120.287561 C474.293108,119.64381 474.293108,119.001649 473.970438,117.073577 C473.649358,115.145504 473.007197,111.931521 472.686117,108.717537 C472.365036,105.503553 472.365036,102.289569 472.042366,100.361496 C471.722875,98.4334238 471.077535,97.7912628 471.398616,96.1826813 C471.722875,94.5756894 473.007197,92.0054559 473.970438,89.7547135 C474.935269,87.5055605 475.57743,85.5774881 476.542261,83.0056651 C477.505503,80.4354317 478.791414,77.2214478 481.042157,73.6847938 C483.292899,70.1497294 486.505294,66.2935845 488.754447,63.723351 C489.207456,63.2067611 489.609602,62.7553411 489.992673,62.3373006 C491.005189,61.2612041 491.083075,61.1880868 491.165729,61.1054324 C492.133739,60.2041817 492.194141,60.1596755 492.257721,60.1072217 C492.311764,60.064305 493.524558,59.2520668 493.524558,59.2520668 C494.861334,58.5797052 496.147246,58.5797052 497.433157,58.2586247 C498.717479,57.9375442 500.00339,57.2953832 500.647141,56.6516327 C501.289302,56.0094717 501.289302,55.3657212 500.968221,54.4024797 C500.647141,53.4376488 500.00339,52.1517373 498.717479,51.1884958 Z" id="Fill-12" stroke="#FF6F4D" stroke-width="1" fill="none"></path>
                </g>
            </g>
        </g>
    </g>
</svg>