<svg width="16" height="16" viewBox="0 0 16 16" fill="none" xmlns="http://www.w3.org/2000/svg">
<g clip-path="url(#clip0_1189_955)">
<path d="M6.33594 1.33327C6.75908 1.33321 7.16641 1.49409 7.4753 1.7833C7.78419 2.0725 7.97151 2.46837 7.99927 2.89061L8.0026 2.99994V6.06994L11.6306 6.47327C12.2596 6.54318 12.8432 6.83451 13.2772 7.2952C13.7111 7.75588 13.9671 8.35588 13.9993 8.98794L14.0026 9.12327V9.33327C14.0026 10.7189 13.4633 12.0501 12.499 13.0451C11.5346 14.04 10.2209 14.6206 8.83594 14.6639L8.66927 14.6666H8.21994C7.26159 14.6666 6.32094 14.4083 5.49693 13.919C4.67291 13.4297 3.99596 12.7274 3.53727 11.8859L3.44994 11.7186L1.55527 7.92927C1.31527 7.44927 1.49327 6.80727 2.05327 6.57727C2.7486 6.29261 3.40927 6.23927 4.08994 6.58527C4.23794 6.66061 4.38327 6.75327 4.52594 6.86127L4.66927 6.97461V2.99994C4.66927 2.55791 4.84487 2.13399 5.15743 1.82143C5.46999 1.50887 5.89391 1.33327 6.33594 1.33327ZM6.33594 2.66661C6.25792 2.66658 6.18237 2.69392 6.12243 2.74387C6.0625 2.79381 6.02198 2.8632 6.00794 2.93994L6.0026 2.99994V8.66661C6.0025 8.80463 5.95955 8.93921 5.8797 9.05179C5.79985 9.16436 5.68703 9.24938 5.5568 9.2951C5.42658 9.34083 5.28537 9.34501 5.15266 9.30707C5.01996 9.26912 4.90231 9.19093 4.81594 9.08327L4.5946 8.81194L4.3926 8.57594C4.00594 8.13794 3.72527 7.89594 3.48594 7.77394C3.34451 7.69738 3.18318 7.66553 3.02327 7.68261L2.92927 7.69594L4.6426 11.1226C4.96255 11.7623 5.44816 12.3044 6.04884 12.6927C6.64952 13.0809 7.34331 13.301 8.05794 13.3299L8.21994 13.3333H8.66927C9.70419 13.3333 10.6988 12.9322 11.4443 12.2143C12.1897 11.4964 12.6278 10.5175 12.6666 9.48327L12.6693 9.33327V9.12327C12.6693 8.81347 12.5615 8.51332 12.3643 8.27438C12.1671 8.03545 11.8928 7.87265 11.5886 7.81394L11.4833 7.79794L7.85527 7.39527C7.54725 7.36108 7.26076 7.22064 7.04504 6.99812C6.82933 6.7756 6.69788 6.48488 6.67327 6.17594L6.66927 6.06994V2.99994C6.66927 2.91153 6.63415 2.82675 6.57164 2.76424C6.50913 2.70172 6.42434 2.66661 6.33594 2.66661ZM2.66927 3.99994C2.84608 3.99994 3.01565 4.07018 3.14068 4.1952C3.2657 4.32023 3.33594 4.48979 3.33594 4.66661C3.33594 4.84342 3.2657 5.01299 3.14068 5.13801C3.01565 5.26303 2.84608 5.33327 2.66927 5.33327H2.0026C1.82579 5.33327 1.65622 5.26303 1.5312 5.13801C1.40618 5.01299 1.33594 4.84342 1.33594 4.66661C1.33594 4.48979 1.40618 4.32023 1.5312 4.1952C1.65622 4.07018 1.82579 3.99994 2.0026 3.99994H2.66927ZM10.6693 3.33327C10.8392 3.33346 11.0026 3.39852 11.1262 3.51517C11.2497 3.63182 11.3241 3.79124 11.3341 3.96087C11.344 4.1305 11.2888 4.29753 11.1798 4.42783C11.0707 4.55813 10.916 4.64187 10.7473 4.66194L10.6693 4.66661H10.0026C9.83268 4.66642 9.66925 4.60135 9.54569 4.48471C9.42213 4.36806 9.34778 4.20864 9.33782 4.03901C9.32786 3.86938 9.38305 3.70235 9.49211 3.57205C9.60117 3.44175 9.75587 3.35801 9.9246 3.33794L10.0026 3.33327H10.6693ZM3.1406 0.861939L3.80727 1.52861C3.92871 1.65434 3.99591 1.82274 3.99439 1.99754C3.99287 2.17234 3.92276 2.33955 3.79915 2.46315C3.67554 2.58676 3.50834 2.65687 3.33354 2.65839C3.15874 2.65991 2.99034 2.59271 2.8646 2.47127L2.19794 1.80461C2.0765 1.67887 2.0093 1.51047 2.01082 1.33567C2.01234 1.16087 2.08245 0.993665 2.20606 0.87006C2.32966 0.746455 2.49687 0.676342 2.67167 0.674823C2.84647 0.673304 3.01487 0.7405 3.1406 0.861939ZM10.4739 0.861939C10.5989 0.986957 10.6691 1.1565 10.6691 1.33327C10.6691 1.51005 10.5989 1.67959 10.4739 1.80461L9.80727 2.47127C9.74577 2.53495 9.67221 2.58573 9.59087 2.62067C9.50954 2.65561 9.42206 2.674 9.33354 2.67477C9.24502 2.67554 9.15723 2.65867 9.0753 2.62515C8.99337 2.59163 8.91894 2.54213 8.85634 2.47954C8.79375 2.41694 8.74424 2.34251 8.71072 2.26058C8.6772 2.17864 8.66033 2.09086 8.6611 2.00234C8.66187 1.91382 8.68026 1.82634 8.7152 1.745C8.75014 1.66367 8.80093 1.5901 8.8646 1.52861L9.53127 0.861939C9.65629 0.736958 9.82583 0.666748 10.0026 0.666748C10.1794 0.666748 10.3489 0.736958 10.4739 0.861939Z" fill="#F47C57"/>
</g>
<defs>
<clipPath id="clip0_1189_955">
<rect width="16" height="16" fill="white"/>
</clipPath>
</defs>
</svg>
