<svg width="16" height="16" viewBox="0 0 16 16" fill="none" xmlns="http://www.w3.org/2000/svg">
<path d="M12.9981 5.32602L8.00008 10.198L3.00208 5.32602C2.91278 5.2388 2.7929 5.18996 2.66808 5.18996C2.54325 5.18996 2.42337 5.2388 2.33408 5.32602C2.29084 5.36838 2.25649 5.41895 2.23304 5.47475C2.20959 5.53056 2.19751 5.59048 2.19751 5.65102C2.19751 5.71155 2.20959 5.77147 2.23304 5.82728C2.25649 5.88309 2.29084 5.93365 2.33408 5.97602L7.65108 11.16C7.74445 11.251 7.86968 11.302 8.00008 11.302C8.13047 11.302 8.2557 11.251 8.34908 11.16L13.6661 5.97702C13.7096 5.93462 13.7442 5.88393 13.7679 5.82794C13.7915 5.77195 13.8037 5.71179 13.8037 5.65102C13.8037 5.59024 13.7915 5.53009 13.7679 5.47409C13.7442 5.4181 13.7096 5.36741 13.6661 5.32502C13.5768 5.2378 13.4569 5.18896 13.3321 5.18896C13.2072 5.18896 13.0874 5.2378 12.9981 5.32502V5.32602Z" fill="white"/>
</svg>
