<svg width="24" height="24" viewBox="0 0 24 24" fill="none" xmlns="http://www.w3.org/2000/svg">
<path d="M22.68 0H1.32C0.969914 0 0.634167 0.139071 0.386619 0.386619C0.139071 0.634167 0 0.969914 0 1.32V22.68C0 23.0301 0.139071 23.3658 0.386619 23.6134C0.634167 23.8609 0.969914 24 1.32 24H12.816V14.7H9.696V11.1H12.816V8.4C12.7514 7.76611 12.8262 7.12575 13.0353 6.52385C13.2443 5.92194 13.5825 5.37305 14.0262 4.91569C14.4698 4.45833 15.0081 4.10357 15.6034 3.87629C16.1987 3.649 16.8364 3.5547 17.472 3.6C18.406 3.59425 19.3395 3.64233 20.268 3.744V6.984H18.36C16.848 6.984 16.56 7.704 16.56 8.748V11.064H20.16L19.692 14.664H16.56V24H22.68C22.8533 24 23.025 23.9659 23.1851 23.8995C23.3453 23.8332 23.4908 23.736 23.6134 23.6134C23.736 23.4908 23.8332 23.3453 23.8995 23.1851C23.9659 23.025 24 22.8533 24 22.68V1.32C24 1.14666 23.9659 0.975008 23.8995 0.814858C23.8332 0.654708 23.736 0.509193 23.6134 0.386619C23.4908 0.264046 23.3453 0.166815 23.1851 0.100479C23.025 0.0341429 22.8533 0 22.68 0Z" fill="white"/>
</svg>
