<svg width="20" height="20" viewBox="0 0 20 20" fill="none" xmlns="http://www.w3.org/2000/svg">
<path d="M11.445 18.18C13.6238 16.2625 17.5 12.345 17.5 8.75C17.5 6.76088 16.7098 4.85322 15.3033 3.4467C13.8968 2.04018 11.9891 1.25 10 1.25C8.01088 1.25 6.10322 2.04018 4.6967 3.4467C3.29018 4.85322 2.5 6.76088 2.5 8.75C2.5 12.345 6.375 16.2625 8.555 18.18C8.95264 18.5349 9.467 18.7311 10 18.7311C10.533 18.7311 11.0474 18.5349 11.445 18.18ZM7.5 8.75C7.5 8.08696 7.76339 7.45107 8.23223 6.98223C8.70107 6.51339 9.33696 6.25 10 6.25C10.663 6.25 11.2989 6.51339 11.7678 6.98223C12.2366 7.45107 12.5 8.08696 12.5 8.75C12.5 9.41304 12.2366 10.0489 11.7678 10.5178C11.2989 10.9866 10.663 11.25 10 11.25C9.33696 11.25 8.70107 10.9866 8.23223 10.5178C7.76339 10.0489 7.5 9.41304 7.5 8.75Z" fill="#DBDAE1"/>
</svg>
