<svg width="32" height="32" viewBox="0 0 32 32" fill="none" xmlns="http://www.w3.org/2000/svg">
<g clip-path="url(#clip0_181_7196)">
<path d="M26.6667 24C27.0065 24.0004 27.3334 24.1305 27.5805 24.3638C27.8276 24.5971 27.9763 24.916 27.9962 25.2552C28.0161 25.5945 27.9058 25.9285 27.6876 26.1892C27.4695 26.4498 27.1601 26.6172 26.8227 26.6574L26.6667 26.6667H5.33333C4.99349 26.6663 4.66662 26.5362 4.41951 26.3029C4.17239 26.0696 4.02369 25.7508 4.00377 25.4115C3.98385 25.0723 4.09423 24.7382 4.31235 24.4776C4.53047 24.217 4.83987 24.0495 5.17733 24.0094L5.33333 24H26.6667ZM26.6667 14.6667C27.0203 14.6667 27.3594 14.8072 27.6095 15.0572C27.8595 15.3073 28 15.6464 28 16C28 16.3537 27.8595 16.6928 27.6095 16.9429C27.3594 17.1929 27.0203 17.3334 26.6667 17.3334H5.33333C4.97971 17.3334 4.64057 17.1929 4.39052 16.9429C4.14048 16.6928 4 16.3537 4 16C4 15.6464 4.14048 15.3073 4.39052 15.0572C4.64057 14.8072 4.97971 14.6667 5.33333 14.6667H26.6667ZM26.6667 5.33337C27.0203 5.33337 27.3594 5.47385 27.6095 5.7239C27.8595 5.97395 28 6.31309 28 6.66671C28 7.02033 27.8595 7.35947 27.6095 7.60952C27.3594 7.85956 27.0203 8.00004 26.6667 8.00004H5.33333C4.97971 8.00004 4.64057 7.85956 4.39052 7.60952C4.14048 7.35947 4 7.02033 4 6.66671C4 6.31309 4.14048 5.97395 4.39052 5.7239C4.64057 5.47385 4.97971 5.33337 5.33333 5.33337H26.6667Z" fill="#EF7B4A"/>
</g>
<defs>
<clipPath id="clip0_181_7196">
<rect width="32" height="32" fill="white"/>
</clipPath>
</defs>
</svg>
