<svg width="32" height="32" viewBox="0 0 32 32" fill="none" xmlns="http://www.w3.org/2000/svg">
<path d="M28.4875 18.0299C28.175 17.7893 27.8111 17.6243 27.4242 17.5478C27.0374 17.4712 26.6381 17.4852 26.2575 17.5887L24.7638 17.9324C27.9075 15.2349 29.5 12.5724 29.5 9.99993C29.5 6.96743 27.0625 4.49993 24.0675 4.49993C23.1641 4.49271 22.2731 4.71118 21.4755 5.13553C20.6779 5.55987 19.9988 6.17666 19.5 6.92993C19.0012 6.17666 18.3221 5.55987 17.5245 5.13553C16.7269 4.71118 15.8359 4.49271 14.9325 4.49993C11.9375 4.49993 9.5 6.96743 9.5 9.99993C9.5 11.4812 10.0138 12.9299 11.1012 14.4999C10.2221 14.5327 9.3881 14.8976 8.7675 15.5212L5.7925 18.4999H2C1.60218 18.4999 1.22064 18.658 0.93934 18.9393C0.658035 19.2206 0.5 19.6021 0.5 19.9999V24.9999C0.5 25.3978 0.658035 25.7793 0.93934 26.0606C1.22064 26.3419 1.60218 26.4999 2 26.4999H15C15.0421 26.5002 15.0841 26.4952 15.125 26.4849L23.125 24.4849C23.1505 24.4783 23.1756 24.4699 23.2 24.4599L28.0525 22.3924L28.08 22.3799C28.471 22.1845 28.8058 21.8928 29.0528 21.5322C29.2999 21.1717 29.4511 20.7542 29.4923 20.319C29.5334 19.8839 29.4631 19.4454 29.288 19.0449C29.1128 18.6445 28.8387 18.2952 28.4912 18.0299H28.4875ZM14.9325 5.49993C15.8067 5.48901 16.6643 5.73915 17.3956 6.21835C18.1269 6.69755 18.6985 7.38401 19.0375 8.18993C19.0752 8.28163 19.1393 8.36007 19.2216 8.41527C19.304 8.47047 19.4009 8.49995 19.5 8.49995C19.5991 8.49995 19.696 8.47047 19.7784 8.41527C19.8607 8.36007 19.9248 8.28163 19.9625 8.18993C20.3015 7.38401 20.8731 6.69755 21.6044 6.21835C22.3357 5.73915 23.1933 5.48901 24.0675 5.49993C26.47 5.49993 28.5 7.56118 28.5 9.99993C28.5 12.6587 26.4837 15.4999 22.5075 18.4512L20.0938 18.9999C20.3599 18.5448 20.5001 18.0271 20.5 17.4999C20.5 16.7043 20.1839 15.9412 19.6213 15.3786C19.0587 14.816 18.2956 14.4999 17.5 14.4999H12.3363C11.0863 12.8749 10.5 11.4374 10.5 9.99993C10.5 7.56118 12.53 5.49993 14.9325 5.49993ZM1.5 24.9999V19.9999C1.5 19.8673 1.55268 19.7401 1.64645 19.6464C1.74021 19.5526 1.86739 19.4999 2 19.4999H5.5V25.4999H2C1.86739 25.4999 1.74021 25.4473 1.64645 25.3535C1.55268 25.2597 1.5 25.1325 1.5 24.9999ZM27.6413 21.4787L22.84 23.5249L14.9388 25.4999H6.5V19.2074L9.475 16.2324C9.70652 15.9995 9.98195 15.8148 10.2853 15.6891C10.5887 15.5633 10.9141 15.499 11.2425 15.4999H17.5C18.0304 15.4999 18.5391 15.7106 18.9142 16.0857C19.2893 16.4608 19.5 16.9695 19.5 17.4999C19.5 18.0304 19.2893 18.5391 18.9142 18.9141C18.5391 19.2892 18.0304 19.4999 17.5 19.4999H14C13.8674 19.4999 13.7402 19.5526 13.6464 19.6464C13.5527 19.7401 13.5 19.8673 13.5 19.9999C13.5 20.1325 13.5527 20.2597 13.6464 20.3535C13.7402 20.4473 13.8674 20.4999 14 20.4999H18C18.0379 20.5001 18.0756 20.4959 18.1125 20.4874L26.4875 18.5612H26.5075C26.8828 18.4617 27.2816 18.5043 27.6274 18.6808C27.9732 18.8574 28.2415 19.1554 28.381 19.5178C28.5205 19.8801 28.5212 20.2812 28.3831 20.644C28.2449 21.0068 27.9776 21.3059 27.6325 21.4837L27.6413 21.4787Z" fill="#FBC427"/>
</svg>
