<svg width="14" height="16" viewBox="0 0 14 16" fill="none" xmlns="http://www.w3.org/2000/svg">
<path d="M11.6667 16C11.0185 16 10.4676 15.7667 10.0139 15.3C9.56019 14.8333 9.33333 14.2667 9.33333 13.6C9.33333 13.5067 9.33982 13.4099 9.35278 13.3096C9.36574 13.2093 9.38519 13.1195 9.41111 13.04L3.92778 9.76C3.70741 9.96 3.46111 10.1168 3.18889 10.2304C2.91667 10.344 2.63148 10.4005 2.33333 10.4C1.68519 10.4 1.13426 10.1667 0.680556 9.7C0.226852 9.23333 0 8.66667 0 8C0 7.33333 0.226852 6.76667 0.680556 6.3C1.13426 5.83333 1.68519 5.6 2.33333 5.6C2.63148 5.6 2.91667 5.6568 3.18889 5.7704C3.46111 5.884 3.70741 6.04053 3.92778 6.24L9.41111 2.96C9.38519 2.88 9.36574 2.79013 9.35278 2.6904C9.33982 2.59067 9.33333 2.49387 9.33333 2.4C9.33333 1.73333 9.56019 1.16667 10.0139 0.7C10.4676 0.233333 11.0185 0 11.6667 0C12.3148 0 12.8657 0.233333 13.3194 0.7C13.7731 1.16667 14 1.73333 14 2.4C14 3.06667 13.7731 3.63333 13.3194 4.1C12.8657 4.56667 12.3148 4.8 11.6667 4.8C11.3685 4.8 11.0833 4.74347 10.8111 4.6304C10.5389 4.51733 10.2926 4.36053 10.0722 4.16L4.58889 7.44C4.61481 7.52 4.63426 7.61013 4.64722 7.7104C4.66019 7.81067 4.66667 7.9072 4.66667 8C4.66667 8.09333 4.66019 8.19013 4.64722 8.2904C4.63426 8.39067 4.61481 8.48053 4.58889 8.56L10.0722 11.84C10.2926 11.64 10.5389 11.4835 10.8111 11.3704C11.0833 11.2573 11.3685 11.2005 11.6667 11.2C12.3148 11.2 12.8657 11.4333 13.3194 11.9C13.7731 12.3667 14 12.9333 14 13.6C14 14.2667 13.7731 14.8333 13.3194 15.3C12.8657 15.7667 12.3148 16 11.6667 16Z" fill="#2B383C"/>
</svg>
