<svg width="16" height="16" viewBox="0 0 16 16" fill="none" xmlns="http://www.w3.org/2000/svg">
<path fill-rule="evenodd" clip-rule="evenodd" d="M0 8C-1.56548e-08 9.05058 0.206926 10.0909 0.608964 11.0615C1.011 12.0321 1.60028 12.914 2.34315 13.6569C3.08601 14.3997 3.96793 14.989 4.93853 15.391C5.90914 15.7931 6.94943 16 8 16C9.05058 16 10.0909 15.7931 11.0615 15.391C12.0321 14.989 12.914 14.3997 13.6569 13.6569C14.3997 12.914 14.989 12.0321 15.391 11.0615C15.7931 10.0909 16 9.05058 16 8C16 5.87827 15.1571 3.84344 13.6569 2.34315C12.1566 0.842855 10.1217 0 8 0C5.87827 0 3.84344 0.842855 2.34315 2.34315C0.842855 3.84344 3.16163e-08 5.87827 0 8ZM15.0588 8C15.0588 9.87212 14.3151 11.6676 12.9913 12.9913C11.6676 14.3151 9.87212 15.0588 8 15.0588C6.12788 15.0588 4.33244 14.3151 3.00866 12.9913C1.68487 11.6676 0.941176 9.87212 0.941176 8C0.941176 6.12788 1.68487 4.33244 3.00866 3.00866C4.33244 1.68487 6.12788 0.941176 8 0.941176C9.87212 0.941176 11.6676 1.68487 12.9913 3.00866C14.3151 4.33244 15.0588 6.12788 15.0588 8Z" fill="#F47C57"/>
<path fill-rule="evenodd" clip-rule="evenodd" d="M4.70605 8.00011C4.70605 12.1375 6.06323 15.5295 8.00017 15.5295C9.93711 15.5295 11.2943 12.1375 11.2943 8.00011C11.2943 3.8627 9.93711 0.470703 8.00017 0.470703C6.06323 0.470703 4.70605 3.8627 4.70605 8.00011ZM10.3531 8.00011C10.3531 11.6603 9.18135 14.5884 8.00017 14.5884C6.819 14.5884 5.64723 11.6603 5.64723 8.00011C5.64723 4.33988 6.819 1.41188 8.00017 1.41188C9.18135 1.41188 10.3531 4.33988 10.3531 8.00011Z" fill="#F47C57"/>
<path d="M2.10364 3.588L2.73423 2.88965C2.83494 2.98 2.94223 3.06847 3.05706 3.15412C4.29753 4.084 6.25517 4.65059 8.38882 4.65059C10.2081 4.65059 11.906 4.2393 13.1465 3.53059C13.4323 3.36888 13.7023 3.18076 13.9531 2.96871L14.5648 3.684C14.2844 3.924 13.9662 4.14518 13.6142 4.34659C12.2241 5.14188 10.3653 5.59177 8.38882 5.59177C6.06412 5.59177 3.90694 4.96777 2.49235 3.90706C2.35794 3.80642 2.22823 3.70058 2.10364 3.588ZM2.10364 12.4238L2.73423 13.1202C2.83494 13.0299 2.94223 12.9414 3.05706 12.8567C4.29753 11.9268 6.25517 11.3602 8.38882 11.3602C10.2081 11.3602 11.906 11.7706 13.1465 12.4802C13.4486 12.6534 13.7187 12.8416 13.9531 13.0412L14.5648 12.3259C14.2694 12.0758 13.9511 11.854 13.6142 11.6633C12.2241 10.8689 10.3653 10.4191 8.38882 10.4191C6.06412 10.4191 3.90694 11.0431 2.49235 12.1028C2.35494 12.2064 2.22506 12.3136 2.10364 12.4238ZM0.470703 8.47082V7.52965H15.5295V8.47082H0.470703Z" fill="#F47C57"/>
</svg>
