<svg width="16" height="16" viewBox="0 0 16 16" fill="none" xmlns="http://www.w3.org/2000/svg">
<path d="M9.57203 9.48634C9.12638 9.84565 8.57116 10.0416 7.9987 10.0416C7.42624 10.0416 6.87102 9.84565 6.42537 9.48634C6.28922 9.37318 6.1137 9.31874 5.93742 9.33499C5.76113 9.35125 5.59853 9.43686 5.48537 9.57301C5.37221 9.70915 5.31777 9.88467 5.33402 10.061C5.35027 10.2372 5.43589 10.3998 5.57203 10.513C6.25293 11.0814 7.11174 11.3928 7.9987 11.3928C8.88566 11.3928 9.74448 11.0814 10.4254 10.513C10.5615 10.3998 10.6471 10.2372 10.6634 10.061C10.6796 9.88467 10.6252 9.70915 10.512 9.57301C10.456 9.5056 10.3872 9.44988 10.3097 9.40904C10.2321 9.3682 10.1473 9.34304 10.06 9.33499C9.8837 9.31874 9.70818 9.37318 9.57203 9.48634ZM5.9987 7.33301C6.13056 7.33301 6.25945 7.29391 6.36908 7.22065C6.47871 7.1474 6.56416 7.04328 6.61462 6.92146C6.66508 6.79965 6.67828 6.6656 6.65256 6.53628C6.62683 6.40696 6.56334 6.28817 6.47011 6.19494C6.37687 6.1017 6.25808 6.03821 6.12876 6.01248C5.99944 5.98676 5.8654 5.99996 5.74358 6.05042C5.62176 6.10088 5.51764 6.18633 5.44439 6.29596C5.37113 6.40559 5.33203 6.53449 5.33203 6.66634C5.33203 6.84315 5.40227 7.01272 5.5273 7.13775C5.65232 7.26277 5.82189 7.33301 5.9987 7.33301ZM9.9987 5.99967C9.86685 5.99967 9.73795 6.03877 9.62832 6.11203C9.51869 6.18528 9.43324 6.2894 9.38278 6.41122C9.33232 6.53304 9.31912 6.66708 9.34484 6.7964C9.37057 6.92572 9.43406 7.04451 9.5273 7.13775C9.62053 7.23098 9.73932 7.29447 9.86864 7.3202C9.99796 7.34592 10.132 7.33272 10.2538 7.28226C10.3756 7.2318 10.4798 7.14635 10.553 7.03672C10.6263 6.92709 10.6654 6.7982 10.6654 6.66634C10.6654 6.48953 10.5951 6.31996 10.4701 6.19494C10.3451 6.06991 10.1755 5.99967 9.9987 5.99967ZM7.9987 1.33301C6.68016 1.33301 5.39123 1.724 4.2949 2.45654C3.19857 3.18909 2.34409 4.23028 1.8395 5.44845C1.33492 6.66663 1.2029 8.00707 1.46013 9.30028C1.71737 10.5935 2.35231 11.7814 3.28466 12.7137C4.21701 13.6461 5.40489 14.281 6.6981 14.5382C7.99131 14.7955 9.33175 14.6635 10.5499 14.1589C11.7681 13.6543 12.8093 12.7998 13.5418 11.7035C14.2744 10.6071 14.6654 9.31822 14.6654 7.99967C14.6654 7.1242 14.4929 6.25729 14.1579 5.44845C13.8229 4.63961 13.3318 3.90469 12.7127 3.28563C12.0937 2.66657 11.3588 2.17551 10.5499 1.84048C9.74109 1.50545 8.87418 1.33301 7.9987 1.33301ZM7.9987 13.333C6.94387 13.333 5.91272 13.0202 5.03566 12.4342C4.1586 11.8481 3.47501 11.0152 3.07134 10.0407C2.66768 9.06611 2.56206 7.99376 2.76785 6.95919C2.97363 5.92463 3.48158 4.97432 4.22746 4.22844C4.97334 3.48256 5.92365 2.97461 6.95822 2.76882C7.99278 2.56303 9.06514 2.66865 10.0397 3.07232C11.0142 3.47598 11.8472 4.15957 12.4332 5.03663C13.0192 5.9137 13.332 6.94484 13.332 7.99967C13.332 9.41416 12.7701 10.7707 11.7699 11.7709C10.7697 12.7711 9.41319 13.333 7.9987 13.333Z" fill="#2B383C"/>
</svg>
