<svg width="32" height="32" viewBox="0 0 32 32" fill="none" xmlns="http://www.w3.org/2000/svg">
<path fill-rule="evenodd" clip-rule="evenodd" d="M16.0001 2.6665C10.9721 2.6665 8.45741 2.6665 6.89608 4.22917C5.47741 5.6465 5.34675 7.84784 5.33341 11.9998H4.00008C3.64646 11.9998 3.30732 12.1403 3.05727 12.3904C2.80722 12.6404 2.66675 12.9795 2.66675 13.3332V14.6665C2.66675 14.8735 2.71494 15.0776 2.80751 15.2628C2.90008 15.4479 3.03449 15.609 3.20008 15.7332L5.33341 17.3332C5.34675 21.4852 5.47741 23.6865 6.89608 25.1038C7.21875 25.4278 7.58141 25.6838 8.00008 25.8865V27.9998C8.00008 28.3535 8.14056 28.6926 8.39061 28.9426C8.64065 29.1927 8.97979 29.3332 9.33342 29.3332H11.3334C11.687 29.3332 12.0262 29.1927 12.2762 28.9426C12.5263 28.6926 12.6667 28.3535 12.6667 27.9998V26.6425C13.6361 26.6665 14.7387 26.6665 16.0001 26.6665C17.2614 26.6665 18.3641 26.6665 19.3334 26.6425V27.9998C19.3334 28.3535 19.4739 28.6926 19.7239 28.9426C19.974 29.1927 20.3131 29.3332 20.6667 29.3332H22.6667C23.0204 29.3332 23.3595 29.1927 23.6096 28.9426C23.8596 28.6926 24.0001 28.3535 24.0001 27.9998V25.8865C24.4096 25.6898 24.7829 25.4251 25.1041 25.1038C26.5227 23.6865 26.6547 21.4852 26.6667 17.3332L28.8001 15.7332C28.9657 15.609 29.1001 15.4479 29.1926 15.2628C29.2852 15.0776 29.3334 14.8735 29.3334 14.6665V13.3332C29.3334 12.9795 29.1929 12.6404 28.9429 12.3904C28.6928 12.1403 28.3537 11.9998 28.0001 11.9998H26.6667C26.6534 7.84784 26.5227 5.6465 25.1041 4.22917C23.5427 2.6665 21.0281 2.6665 16.0001 2.6665ZM7.33342 12.6665C7.33342 14.5518 7.33342 15.4945 7.92008 16.0798C8.50541 16.6665 9.44808 16.6665 11.3334 16.6665H20.6667C22.5521 16.6665 23.4947 16.6665 24.0801 16.0798C24.6667 15.4945 24.6667 14.5518 24.6667 12.6665V9.33317C24.6667 7.44784 24.6667 6.50517 24.0801 5.91984C23.4961 5.33317 22.5534 5.33317 20.6667 5.33317H11.3334C9.44808 5.33317 8.50541 5.33317 7.92008 5.91984C7.33342 6.50384 7.33342 7.4465 7.33342 9.33317V12.6665ZM8.33342 21.3332C8.33342 21.068 8.43877 20.8136 8.62631 20.6261C8.81384 20.4385 9.0682 20.3332 9.33342 20.3332H11.3334C11.5986 20.3332 11.853 20.4385 12.0405 20.6261C12.2281 20.8136 12.3334 21.068 12.3334 21.3332C12.3334 21.5984 12.2281 21.8527 12.0405 22.0403C11.853 22.2278 11.5986 22.3332 11.3334 22.3332H9.33342C9.0682 22.3332 8.81384 22.2278 8.62631 22.0403C8.43877 21.8527 8.33342 21.5984 8.33342 21.3332ZM23.6667 21.3332C23.6667 21.068 23.5614 20.8136 23.3739 20.6261C23.1863 20.4385 22.932 20.3332 22.6667 20.3332H20.6667C20.4015 20.3332 20.1472 20.4385 19.9596 20.6261C19.7721 20.8136 19.6667 21.068 19.6667 21.3332C19.6667 21.5984 19.7721 21.8527 19.9596 22.0403C20.1472 22.2278 20.4015 22.3332 20.6667 22.3332H22.6667C22.932 22.3332 23.1863 22.2278 23.3739 22.0403C23.5614 21.8527 23.6667 21.5984 23.6667 21.3332Z" fill="white"/>
</svg>
