<svg width="32" height="32" viewBox="0 0 32 32" fill="none" xmlns="http://www.w3.org/2000/svg">
<path fill-rule="evenodd" clip-rule="evenodd" d="M19.1865 16.4447C19.0026 15.9247 18.6621 15.4745 18.2117 15.1561C17.7614 14.8377 17.2234 14.6667 16.6719 14.6667V14H15.3385V14.6667C14.6313 14.6667 13.953 14.9476 13.4529 15.4477C12.9528 15.9478 12.6719 16.6261 12.6719 17.3333C12.6719 18.0406 12.9528 18.7189 13.4529 19.219C13.953 19.719 14.6313 20 15.3385 20V22.6667C14.7585 22.6667 14.2645 22.2967 14.0805 21.778C14.0532 21.6931 14.0092 21.6146 13.951 21.5471C13.8929 21.4795 13.8217 21.4244 13.7418 21.3848C13.662 21.3452 13.575 21.3221 13.486 21.3167C13.397 21.3113 13.3079 21.3239 13.2238 21.3536C13.1398 21.3833 13.0625 21.4295 12.9967 21.4896C12.9308 21.5497 12.8777 21.6223 12.8404 21.7033C12.8031 21.7843 12.7824 21.8719 12.7796 21.961C12.7767 22.0501 12.7918 22.1388 12.8239 22.222C13.0078 22.742 13.3483 23.1922 13.7987 23.5106C14.249 23.829 14.787 24 15.3385 24V24.6667H16.6719V24C17.3791 24 18.0574 23.719 18.5575 23.219C19.0576 22.7189 19.3385 22.0406 19.3385 21.3333C19.3385 20.6261 19.0576 19.9478 18.5575 19.4477C18.0574 18.9476 17.3791 18.6667 16.6719 18.6667V16C16.9476 15.9999 17.2166 16.0854 17.4418 16.2445C17.667 16.4037 17.8372 16.6287 17.9292 16.8887C17.9881 17.0554 18.1108 17.1919 18.2703 17.2682C18.3493 17.3059 18.435 17.3278 18.5224 17.3324C18.6098 17.3371 18.6973 17.3245 18.7799 17.2953C18.8624 17.2662 18.9384 17.2211 19.0036 17.1625C19.0687 17.104 19.1216 17.0332 19.1594 16.9542C19.1971 16.8752 19.219 16.7896 19.2236 16.7021C19.2283 16.6147 19.2157 16.5272 19.1865 16.4447ZM15.3385 16C14.9849 16 14.6458 16.1405 14.3957 16.3905C14.1457 16.6406 14.0052 16.9797 14.0052 17.3333C14.0052 17.687 14.1457 18.0261 14.3957 18.2761C14.6458 18.5262 14.9849 18.6667 15.3385 18.6667V16ZM16.6719 22.6667C17.0255 22.6667 17.3646 22.5262 17.6147 22.2761C17.8647 22.0261 18.0052 21.687 18.0052 21.3333C18.0052 20.9797 17.8647 20.6406 17.6147 20.3905C17.3646 20.1405 17.0255 20 16.6719 20V22.6667Z" fill="#F47C57"/>
<path fill-rule="evenodd" clip-rule="evenodd" d="M8.77386 5.74733C10.4099 4.94667 13.0939 4 16.0312 4C18.9072 4 21.5205 4.90733 23.1479 5.69733L23.2399 5.742C23.7305 5.98467 24.1265 6.214 24.4052 6.4L21.9425 10C27.6199 15.804 32.0052 27.998 16.0312 27.998C0.0571947 27.998 4.32453 16.0253 10.0512 10L7.60453 6.4C7.7932 6.27667 8.03253 6.13333 8.31786 5.98133C8.4592 5.90533 8.6112 5.82667 8.77386 5.74733ZM20.3599 9.952L22.3312 7.07C20.4979 7.202 18.3165 7.63267 16.2165 8.24067C14.7165 8.674 13.0499 8.608 11.5065 8.32333C11.1176 8.25123 10.7314 8.1654 10.3485 8.066L11.6285 9.95067C14.3719 10.9273 17.6159 10.9273 20.3599 9.952ZM10.8585 11.0867C14.0685 12.3267 17.9265 12.3267 21.1365 11.0853C22.4764 12.4978 23.5973 14.1029 24.4619 15.8473C25.3632 17.686 25.8539 19.524 25.7739 21.108C25.6965 22.6367 25.0952 23.9427 23.7219 24.9133C22.2905 25.9247 19.8832 26.6647 16.0305 26.6647C12.1739 26.6647 9.7552 25.9373 8.31053 24.9373C6.9272 23.9787 6.31986 22.6907 6.23386 21.1827C6.14386 19.616 6.62386 17.7873 7.52186 15.936C8.37853 14.1707 9.57386 12.4713 10.8585 11.0867ZM10.0919 6.61067C10.6252 6.76933 11.1825 6.90733 11.7479 7.012C13.1812 7.276 14.6185 7.31467 15.8452 6.95933C17.2747 6.5429 18.7286 6.21538 20.1985 5.97867C18.9719 5.60933 17.5372 5.33333 16.0305 5.33333C13.7339 5.33333 11.5919 5.974 10.0919 6.61067Z" fill="#F47C57"/>
</svg>
