<svg width="16" height="22" viewBox="0 0 16 22" fill="none" xmlns="http://www.w3.org/2000/svg">
<path id="Vector" d="M2.86102e-06 1.06919L2.86102e-06 20.3035C0.000613213 20.4982 0.0543232 20.6891 0.15535 20.8556C0.256376 21.0221 0.400893 21.1579 0.573347 21.2483C0.745802 21.3388 0.939662 21.3805 1.13406 21.369C1.32846 21.3574 1.51603 21.2931 1.67659 21.1829L15.568 11.5658C16.144 11.1672 16.144 10.2076 15.568 9.80797L1.67659 0.190819C1.51637 0.0795002 1.3287 0.0142204 1.13398 0.00207188C0.939255 -0.0100767 0.744927 0.0313707 0.572108 0.121911C0.399289 0.212451 0.254586 0.348621 0.153723 0.515626C0.0528603 0.682632 -0.000305176 0.874085 2.86102e-06 1.06919Z" fill="#FBC427"/>
</svg>
