<svg width="16" height="22" viewBox="0 0 16 22" fill="none" xmlns="http://www.w3.org/2000/svg">
<path id="Vector" d="M16 20.9308L16 1.69652C15.9994 1.50178 15.9457 1.3109 15.8447 1.14441C15.7436 0.977928 15.5991 0.84215 15.4267 0.751692C15.2542 0.661232 15.0603 0.619518 14.8659 0.631042C14.6715 0.642565 14.484 0.706886 14.3234 0.817083L0.43197 10.4342C-0.14399 10.8328 -0.14399 11.7924 0.43197 12.192L14.3234 21.8092C14.4836 21.9205 14.6713 21.9858 14.866 21.9979C15.0607 22.0101 15.2551 21.9686 15.4279 21.8781C15.6007 21.7875 15.7454 21.6514 15.8463 21.4844C15.9471 21.3174 16.0003 21.1259 16 20.9308Z" fill="#FBC427"/>
</svg>
