<svg width="27" height="24" viewBox="0 0 27 24" fill="none" xmlns="http://www.w3.org/2000/svg">
<path d="M24.741 0.00245734C24.411 0.0264645 24.0871 0.103878 23.7819 0.231677H23.7778C23.4849 0.347829 22.0921 0.933726 19.9746 1.82182L12.3867 5.01754C6.942 7.30973 1.58977 9.56698 1.58977 9.56698L1.6535 9.54231C1.6535 9.54231 1.28448 9.66361 0.899025 9.92777C0.660891 10.0793 0.455977 10.2776 0.296681 10.5106C0.107549 10.7881 -0.0445792 11.2126 0.0119548 11.6515C0.104465 12.3937 0.585518 12.8388 0.930889 13.0844C1.28037 13.3332 1.61341 13.4493 1.61341 13.4493H1.62163L6.64083 15.1402C6.86593 15.8628 8.17033 20.1512 8.48383 21.139C8.66885 21.729 8.84873 22.098 9.07384 22.3796C9.1828 22.5236 9.31026 22.6438 9.46341 22.7404C9.54303 22.7867 9.62793 22.8233 9.71628 22.8494L9.66488 22.8371C9.6803 22.8412 9.69263 22.8535 9.70394 22.8576C9.74506 22.8689 9.77281 22.873 9.82523 22.8813C10.6198 23.1218 11.2581 22.6284 11.2581 22.6284L11.2941 22.5996L14.2575 19.9014L19.2243 23.7118L19.3373 23.7601C20.3724 24.2144 21.4209 23.9616 21.9749 23.5155C22.533 23.0663 22.7499 22.4917 22.7499 22.4917L22.7859 22.3992L26.6241 2.73665C26.733 2.25148 26.7608 1.79716 26.6405 1.35619C26.5165 0.909906 26.2301 0.526072 25.8377 0.279988C25.5082 0.0796672 25.1261 -0.0170227 24.741 0.00245734ZM24.6371 2.10963C24.633 2.17439 24.6454 2.1672 24.6166 2.29157V2.30288L20.8144 21.7609C20.798 21.7886 20.7702 21.8493 20.6942 21.9099C20.614 21.9736 20.5502 22.0137 20.2162 21.8811L14.1413 17.2237L10.4718 20.5685L11.2427 15.6449L21.168 6.39388C21.5771 6.01356 21.4404 5.93339 21.4404 5.93339C21.4692 5.46673 20.8226 5.79668 20.8226 5.79668L8.30704 13.5501L8.30292 13.5295L2.30415 11.5097V11.5056L2.28873 11.5025C2.29925 11.499 2.30955 11.4949 2.31957 11.4902L2.35246 11.4737L2.38433 11.4624C2.38433 11.4624 7.74067 9.20517 13.1854 6.91297C15.9114 5.76481 18.6579 4.60844 20.7702 3.71623C22.023 3.18892 23.277 2.6647 24.5323 2.14355C24.6166 2.11066 24.5765 2.10963 24.6371 2.10963Z" fill="white"/>
</svg>
