<svg width="30" height="24" viewBox="0 0 30 24" fill="none" xmlns="http://www.w3.org/2000/svg">
<path d="M30 2.82353C28.8958 3.31765 27.7055 3.64235 26.4723 3.79765C27.7342 3.04941 28.7094 1.86353 29.1683 0.437647C27.978 1.14353 26.6587 1.63765 25.2677 1.92C24.1348 0.705883 22.543 0 20.7361 0C17.3662 0 14.6128 2.71059 14.6128 6.05647C14.6128 6.53647 14.6702 7.00235 14.7706 7.44C9.66539 7.18588 5.1195 4.77176 2.09369 1.11529C1.5631 2.00471 1.26195 3.04941 1.26195 4.15059C1.26195 6.25412 2.33748 8.11765 4.00096 9.17647C2.98279 9.17647 2.03633 8.89412 1.20459 8.47059V8.51294C1.20459 11.4494 3.32696 13.9059 6.13767 14.4565C5.23527 14.6996 4.2879 14.7334 3.36998 14.5553C3.75947 15.7588 4.52228 16.8119 5.55117 17.5665C6.58006 18.3211 7.8233 18.7393 9.10612 18.7624C6.93159 20.4571 4.23613 21.3732 1.46272 21.36C0.975143 21.36 0.487572 21.3318 0 21.2753C2.72467 22.9976 5.96558 24 9.43595 24C20.7361 24 26.9455 14.7671 26.9455 6.76235C26.9455 6.49412 26.9455 6.24 26.9312 5.97176C28.1358 5.12471 29.1683 4.05176 30 2.82353Z" fill="white"/>
</svg>
