<svg width="729" height="164" viewBox="0 0 729 164" version="1.1" xmlns="http://www.w3.org/2000/svg" xmlns:xlink="http://www.w3.org/1999/xlink">
<title>title-deco-dot</title>
<desc>Created using Figma</desc>
<g id="Canvas" transform="translate(1447 1174)">
<g id="title-deco-dot">
<g id="Group">
<g id="Group">
<g id="&#239;&#188;&#173;&#239;&#188;&#165;&#239;&#188;&#173;&#239;&#188;&#162;ER">
<use xlink:href="#path0_fill" transform="translate(-1279 -1183.14)" fill="#F1E28C"/>
</g>
</g>
<g id="Canvas">
<g id="Group" opacity="0.6">
<g id="Vector">
<g id="Vector" opacity="0.25">
<use xlink:href="#path1_fill" transform="translate(-1446.9 -1083.43)" fill="#E3E1D9"/>
</g>
</g>
<g id="Vector">
<g id="Vector" opacity="0.25">
<use xlink:href="#path2_fill" transform="translate(-1416.23 -1113.5)" fill="#E3E1D9"/>
</g>
</g>
<g id="Vector">
<g id="Vector" opacity="0.25">
<use xlink:href="#path3_fill" transform="translate(-1385.49 -1143.76)" fill="#E3E1D9"/>
</g>
</g>
<g id="Vector">
<g id="Vector" opacity="0.25">
<use xlink:href="#path4_fill" transform="translate(-1354.74 -1174)" fill="#E3E1D9"/>
</g>
</g>
<g id="Vector">
<g id="Vector" opacity="0.25">
<use xlink:href="#path5_fill" transform="translate(-1446.87 -1053.16)" fill="#E3E1D9"/>
</g>
</g>
<g id="Vector">
<g id="Vector" opacity="0.25">
<use xlink:href="#path6_fill" transform="translate(-1415.99 -1083.51)" fill="#E3E1D9"/>
</g>
</g>
<g id="Vector">
<g id="Vector" opacity="0.25">
<use xlink:href="#path7_fill" transform="translate(-1385.4 -1113.68)" fill="#E3E1D9"/>
</g>
</g>
<g id="Vector">
<g id="Vector" opacity="0.25">
<use xlink:href="#path8_fill" transform="translate(-1354.65 -1143.78)" fill="#E3E1D9"/>
</g>
</g>
<g id="Vector">
<g id="Vector" opacity="0.25">
<use xlink:href="#path9_fill" transform="translate(-1323.9 -1174)" fill="#E3E1D9"/>
</g>
</g>
<g id="Vector">
<g id="Vector" opacity="0.25">
<use xlink:href="#path10_fill" transform="translate(-1416.16 -1053.24)" fill="#E3E1D9"/>
</g>
</g>
<g id="Vector">
<g id="Vector" opacity="0.25">
<use xlink:href="#path11_fill" transform="translate(-1385.4 -1083.46)" fill="#E3E1D9"/>
</g>
</g>
<g id="Vector">
<g id="Vector" opacity="0.25">
<use xlink:href="#path12_fill" transform="translate(-1354.63 -1113.58)" fill="#E3E1D9"/>
</g>
</g>
<g id="Vector">
<g id="Vector" opacity="0.25">
<use xlink:href="#path13_fill" transform="translate(-1323.88 -1143.8)" fill="#E3E1D9"/>
</g>
</g>
<g id="Vector">
<g id="Vector" opacity="0.25">
<use xlink:href="#path14_fill" transform="translate(-1446.91 -1143.74)" fill="#E3E1D9"/>
</g>
</g>
<g id="Vector">
<g id="Vector" opacity="0.25">
<use xlink:href="#path15_fill" transform="translate(-1416.16 -1173.96)" fill="#E3E1D9"/>
</g>
</g>
<g id="Vector">
<g id="Vector" opacity="0.25">
<use xlink:href="#path16_fill" transform="translate(-1447 -1113.54)" fill="#E3E1D9"/>
</g>
</g>
<g id="Vector">
<g id="Vector" opacity="0.25">
<use xlink:href="#path17_fill" transform="translate(-1416.14 -1143.87)" fill="#E3E1D9"/>
</g>
</g>
<g id="Vector">
<g id="Vector" opacity="0.25">
<use xlink:href="#path18_fill" transform="translate(-1385.53 -1173.98)" fill="#E3E1D9"/>
</g>
</g>
<g id="Vector">
<g id="Vector" opacity="0.25">
<use xlink:href="#path19_fill" transform="translate(-1354.65 -1022.9)" fill="#E3E1D9"/>
</g>
</g>
<g id="Vector">
<g id="Vector" opacity="0.25">
<use xlink:href="#path20_fill" transform="translate(-1323.9 -1053.12)" fill="#E3E1D9"/>
</g>
</g>
<g id="Vector">
<g id="Vector" opacity="0.25">
<use xlink:href="#path21_fill" transform="translate(-1293.27 -1083.34)" fill="#E3E1D9"/>
</g>
</g>
<g id="Vector">
<g id="Vector" opacity="0.25">
<use xlink:href="#path22_fill" transform="translate(-1323.88 -1022.98)" fill="#E3E1D9"/>
</g>
</g>
<g id="Vector">
<g id="Vector" opacity="0.25">
<use xlink:href="#path23_fill" transform="translate(-1293.14 -1053.12)" fill="#E3E1D9"/>
</g>
</g>
<g id="Vector">
<g id="Vector" opacity="0.25">
<use xlink:href="#path24_fill" transform="translate(-1416.25 -1022.94)" fill="#E3E1D9"/>
</g>
</g>
<g id="Vector">
<g id="Vector" opacity="0.25">
<use xlink:href="#path25_fill" transform="translate(-1385.53 -1053.12)" fill="#E3E1D9"/>
</g>
</g>
<g id="Vector">
<g id="Vector" opacity="0.25">
<use xlink:href="#path26_fill" transform="translate(-1354.78 -1083.34)" fill="#E3E1D9"/>
</g>
</g>
<g id="Vector">
<g id="Vector" opacity="0.25">
<use xlink:href="#path27_fill" transform="translate(-1323.92 -1113.52)" fill="#E3E1D9"/>
</g>
</g>
<g id="Vector">
<g id="Vector" opacity="0.25">
<use xlink:href="#path28_fill" transform="translate(-1293.23 -1143.76)" fill="#E3E1D9"/>
</g>
</g>
<g id="Vector">
<g id="Vector" opacity="0.25">
<use xlink:href="#path29_fill" transform="translate(-1385.38 -1022.98)" fill="#E3E1D9"/>
</g>
</g>
<g id="Vector">
<g id="Vector" opacity="0.25">
<use xlink:href="#path30_fill" transform="translate(-1354.72 -1053.12)" fill="#E3E1D9"/>
</g>
</g>
<g id="Vector">
<g id="Vector" opacity="0.25">
<use xlink:href="#path31_fill" transform="translate(-1324.03 -1083.34)" fill="#E3E1D9"/>
</g>
</g>
<g id="Vector">
<g id="Vector" opacity="0.25">
<use xlink:href="#path32_fill" transform="translate(-1293.12 -1113.58)" fill="#E3E1D9"/>
</g>
</g>
</g>
<g id="Group" opacity="0.6">
<g id="Vector">
<g id="Vector" opacity="0.25">
<use xlink:href="#path1_fill" transform="translate(-884.903 -1083.43)" fill="#E3E1D9"/>
</g>
</g>
<g id="Vector">
<g id="Vector" opacity="0.25">
<use xlink:href="#path2_fill" transform="translate(-854.227 -1113.5)" fill="#E3E1D9"/>
</g>
</g>
<g id="Vector">
<g id="Vector" opacity="0.25">
<use xlink:href="#path3_fill" transform="translate(-823.493 -1143.76)" fill="#E3E1D9"/>
</g>
</g>
<g id="Vector">
<g id="Vector" opacity="0.25">
<use xlink:href="#path4_fill" transform="translate(-792.739 -1174)" fill="#E3E1D9"/>
</g>
</g>
<g id="Vector">
<g id="Vector" opacity="0.25">
<use xlink:href="#path5_fill" transform="translate(-884.869 -1053.16)" fill="#E3E1D9"/>
</g>
</g>
<g id="Vector">
<g id="Vector" opacity="0.25">
<use xlink:href="#path6_fill" transform="translate(-853.986 -1083.51)" fill="#E3E1D9"/>
</g>
</g>
<g id="Vector">
<g id="Vector" opacity="0.25">
<use xlink:href="#path7_fill" transform="translate(-823.405 -1113.68)" fill="#E3E1D9"/>
</g>
</g>
<g id="Vector">
<g id="Vector" opacity="0.25">
<use xlink:href="#path8_fill" transform="translate(-792.651 -1143.78)" fill="#E3E1D9"/>
</g>
</g>
<g id="Vector">
<g id="Vector" opacity="0.25">
<use xlink:href="#path9_fill" transform="translate(-761.897 -1174)" fill="#E3E1D9"/>
</g>
</g>
<g id="Vector">
<g id="Vector" opacity="0.25">
<use xlink:href="#path10_fill" transform="translate(-854.158 -1053.24)" fill="#E3E1D9"/>
</g>
</g>
<g id="Vector">
<g id="Vector" opacity="0.25">
<use xlink:href="#path11_fill" transform="translate(-823.405 -1083.46)" fill="#E3E1D9"/>
</g>
</g>
<g id="Vector">
<g id="Vector" opacity="0.25">
<use xlink:href="#path12_fill" transform="translate(-792.63 -1113.58)" fill="#E3E1D9"/>
</g>
</g>
<g id="Vector">
<g id="Vector" opacity="0.25">
<use xlink:href="#path13_fill" transform="translate(-761.876 -1143.8)" fill="#E3E1D9"/>
</g>
</g>
<g id="Vector">
<g id="Vector" opacity="0.25">
<use xlink:href="#path14_fill" transform="translate(-884.912 -1143.74)" fill="#E3E1D9"/>
</g>
</g>
<g id="Vector">
<g id="Vector" opacity="0.25">
<use xlink:href="#path15_fill" transform="translate(-854.158 -1173.96)" fill="#E3E1D9"/>
</g>
</g>
<g id="Vector">
<g id="Vector" opacity="0.25">
<use xlink:href="#path16_fill" transform="translate(-885 -1113.54)" fill="#E3E1D9"/>
</g>
</g>
<g id="Vector">
<g id="Vector" opacity="0.25">
<use xlink:href="#path17_fill" transform="translate(-854.137 -1143.87)" fill="#E3E1D9"/>
</g>
</g>
<g id="Vector">
<g id="Vector" opacity="0.25">
<use xlink:href="#path18_fill" transform="translate(-823.533 -1173.98)" fill="#E3E1D9"/>
</g>
</g>
<g id="Vector">
<g id="Vector" opacity="0.25">
<use xlink:href="#path19_fill" transform="translate(-792.651 -1022.9)" fill="#E3E1D9"/>
</g>
</g>
<g id="Vector">
<g id="Vector" opacity="0.25">
<use xlink:href="#path20_fill" transform="translate(-761.897 -1053.12)" fill="#E3E1D9"/>
</g>
</g>
<g id="Vector">
<g id="Vector" opacity="0.25">
<use xlink:href="#path21_fill" transform="translate(-731.272 -1083.34)" fill="#E3E1D9"/>
</g>
</g>
<g id="Vector">
<g id="Vector" opacity="0.25">
<use xlink:href="#path22_fill" transform="translate(-761.876 -1022.98)" fill="#E3E1D9"/>
</g>
</g>
<g id="Vector">
<g id="Vector" opacity="0.25">
<use xlink:href="#path23_fill" transform="translate(-731.143 -1053.12)" fill="#E3E1D9"/>
</g>
</g>
<g id="Vector">
<g id="Vector" opacity="0.25">
<use xlink:href="#path24_fill" transform="translate(-854.246 -1022.94)" fill="#E3E1D9"/>
</g>
</g>
<g id="Vector">
<g id="Vector" opacity="0.25">
<use xlink:href="#path25_fill" transform="translate(-823.533 -1053.12)" fill="#E3E1D9"/>
</g>
</g>
<g id="Vector">
<g id="Vector" opacity="0.25">
<use xlink:href="#path26_fill" transform="translate(-792.78 -1083.34)" fill="#E3E1D9"/>
</g>
</g>
<g id="Vector">
<g id="Vector" opacity="0.25">
<use xlink:href="#path27_fill" transform="translate(-761.919 -1113.52)" fill="#E3E1D9"/>
</g>
</g>
<g id="Vector">
<g id="Vector" opacity="0.25">
<use xlink:href="#path28_fill" transform="translate(-731.232 -1143.76)" fill="#E3E1D9"/>
</g>
</g>
<g id="Vector">
<g id="Vector" opacity="0.25">
<use xlink:href="#path29_fill" transform="translate(-823.384 -1022.98)" fill="#E3E1D9"/>
</g>
</g>
<g id="Vector">
<g id="Vector" opacity="0.25">
<use xlink:href="#path30_fill" transform="translate(-792.72 -1053.12)" fill="#E3E1D9"/>
</g>
</g>
<g id="Vector">
<g id="Vector" opacity="0.25">
<use xlink:href="#path31_fill" transform="translate(-762.026 -1083.34)" fill="#E3E1D9"/>
</g>
</g>
<g id="Vector">
<g id="Vector" opacity="0.25">
<use xlink:href="#path32_fill" transform="translate(-731.123 -1113.58)" fill="#E3E1D9"/>
</g>
</g>
</g>
</g>
</g>
</g>
</g>
<defs>
<path id="path0_fill" d="M 38.1136 111L 44.0986 111L 44.0986 90.252C 44.0986 86.433 43.6996 80.961 43.3576 77.142L 43.6426 77.142L 47.6326 86.946L 56.4106 106.953L 60.5146 106.953L 69.2356 86.946L 73.2826 77.142L 73.5676 77.142C 73.1686 80.961 72.7126 86.433 72.7126 90.252L 72.7126 111L 78.8686 111L 78.8686 68.934L 71.1736 68.934L 62.1106 90.252C 60.9706 92.988 59.8876 95.895 58.7476 98.745L 58.4626 98.745C 57.3226 95.895 56.1826 92.988 55.0996 90.252L 45.8086 68.934L 38.1136 68.934L 38.1136 111ZM 108.167 111L 136.952 111L 136.952 105.357L 114.779 105.357L 114.779 91.905L 131.708 91.905L 131.708 86.262L 114.779 86.262L 114.779 74.52L 136.268 74.52L 136.268 68.934L 108.167 68.934L 108.167 111ZM 163.514 111L 169.499 111L 169.499 90.252C 169.499 86.433 169.1 80.961 168.758 77.142L 169.043 77.142L 173.033 86.946L 181.811 106.953L 185.915 106.953L 194.636 86.946L 198.683 77.142L 198.968 77.142C 198.569 80.961 198.113 86.433 198.113 90.252L 198.113 111L 204.269 111L 204.269 68.934L 196.574 68.934L 187.511 90.252C 186.371 92.988 185.288 95.895 184.148 98.745L 183.863 98.745C 182.723 95.895 181.583 92.988 180.5 90.252L 171.209 68.934L 163.514 68.934L 163.514 111ZM 231.344 111L 247.361 111C 258.761 111 264.974 107.238 264.974 98.688C 264.974 93.102 261.44 89.682 255.854 88.713L 255.854 88.428C 260.243 87.06 262.409 83.298 262.409 79.308C 262.409 71.67 256.139 68.934 246.107 68.934L 231.344 68.934L 231.344 111ZM 237.956 86.547L 237.956 74.064L 245.936 74.064C 252.548 74.064 255.74 75.717 255.74 80.277C 255.74 84.552 252.491 86.547 245.594 86.547L 237.956 86.547ZM 237.956 105.813L 237.956 91.563L 246.791 91.563C 254.771 91.563 258.362 93.615 258.362 98.346C 258.362 103.875 254.543 105.813 246.905 105.813L 237.956 105.813ZM 286.349 111L 311.771 111L 311.771 105.414L 292.961 105.414L 292.961 91.848L 308.351 91.848L 308.351 86.262L 292.961 86.262L 292.961 74.577L 311.144 74.577L 311.144 69.048L 286.349 69.048L 286.349 111ZM 332.838 74.349L 339.165 74.349C 345.264 74.349 348.57 76.116 348.57 81.189C 348.57 86.262 345.264 88.77 339.165 88.77L 332.838 88.77L 332.838 74.349ZM 356.607 111L 346.347 93.216C 351.648 91.563 355.125 87.687 355.125 81.189C 355.125 72.126 348.627 69.048 339.963 69.048L 326.226 69.048L 326.226 111L 332.838 111L 332.838 94.071L 339.621 94.071L 349.14 111L 356.607 111Z"/>
<path id="path1_fill" d="M 10.8583 11.278C 13.6073 8.74552 13.9509 4.86239 11.3738 2.16107C 8.79664 -0.540245 4.84505 -0.709108 2.26793 1.65454C -0.481005 4.18701 -0.8246 8.07021 1.75253 10.7715C 4.15786 13.4728 8.10941 13.6416 10.8583 11.278Z"/>
<path id="path2_fill" d="M 10.936 11.1267C 13.6849 8.59423 13.8567 4.71111 11.2796 2.0098C 8.70248 -0.52268 4.75086 -0.691531 2.17374 1.67212C -0.575196 4.20458 -0.746972 8.08771 1.83015 10.789C 4.40728 13.3215 8.35883 13.4904 10.936 11.1267Z"/>
<path id="path3_fill" d="M 11.1267 10.9957C 13.8757 8.46323 13.8757 4.41125 11.1267 1.87879C 8.54961 -0.653695 4.42619 -0.653733 1.84908 2.04758C -0.728042 4.58007 -0.556227 8.46323 2.0209 10.9957C 4.59802 13.5282 8.54961 13.5282 11.1267 10.9957Z"/>
<path id="path4_fill" d="M 11.1267 11.0163C 13.8757 8.48386 13.8757 4.43184 11.1267 1.89936C 8.54958 -0.63312 4.59803 -0.63312 2.0209 1.89936C -0.556225 4.43184 -0.728044 8.315 1.84908 10.8475C 4.59803 13.5488 8.54958 13.5488 11.1267 11.0163Z"/>
<path id="path5_fill" d="M 2.0617 1.77274C -0.687233 4.30523 -0.687233 8.35721 2.0617 10.8897C 4.63883 13.4222 8.59046 13.4222 11.1676 10.8897C 13.9165 8.35721 13.9165 4.30523 11.1676 1.77274C 8.59046 -0.590912 4.63883 -0.590912 2.0617 1.77274Z"/>
<path id="path6_fill" d="M 11.0387 11.0163C 13.6158 8.48381 13.6158 4.43183 11.0387 1.89936C 8.46158 -0.633121 4.50995 -0.633121 1.93284 1.89936C -0.644281 4.43183 -0.644281 8.48381 1.93284 11.0163C 4.50995 13.7176 8.46158 13.7176 11.0387 11.0163Z"/>
<path id="path7_fill" d="M 11.0387 11.1429C 13.7876 8.61044 13.7876 4.72731 11.2105 2.02598C 8.63337 -0.675328 4.50996 -0.675328 1.93284 2.02598C -0.64428 4.55846 -0.64428 8.44159 1.93284 10.9741C 4.50996 13.5065 8.28972 13.6754 11.0387 11.1429Z"/>
<path id="path8_fill" d="M 11.2105 10.8474C 13.7876 8.31496 13.7876 4.43184 11.2105 1.89936C 8.63335 -0.633121 4.50997 -0.633121 1.93284 1.89936C -0.644281 4.43184 -0.644281 8.31496 1.93284 10.8474C 4.50997 13.5487 8.63335 13.5487 11.2105 10.8474Z"/>
<path id="path9_fill" d="M 11.2105 10.8475C 13.7876 8.315 13.7876 4.43184 11.2105 1.89936C 8.63335 -0.63312 4.50998 -0.63312 1.93284 1.89936C -0.644281 4.43184 -0.644281 8.315 1.93284 10.8475C 4.50998 13.5488 8.46153 13.5488 11.2105 10.8475Z"/>
<path id="path10_fill" d="M 11.2105 10.9741C 13.7876 8.44165 13.7876 4.55848 11.2105 2.02599C 8.63336 -0.675329 4.50999 -0.675329 1.93284 2.02599C -0.644281 4.55848 -0.644281 8.44165 1.93284 10.9741C 4.50999 13.6754 8.46154 13.6754 11.2105 10.9741Z"/>
<path id="path11_fill" d="M 11.2105 10.9741C 13.7876 8.4416 13.7876 4.55847 11.2105 2.02598C 8.63337 -0.675328 4.50996 -0.675328 1.93284 2.02598C -0.64428 4.55847 -0.64428 8.4416 1.93284 10.9741C 4.50996 13.6754 8.46154 13.6754 11.2105 10.9741Z"/>
<path id="path12_fill" d="M 11.0177 11.038C 13.7666 8.50547 13.7667 4.62235 11.1895 1.92101C 8.6124 -0.611465 4.66081 -0.611476 2.0837 1.75218C -0.665232 4.28467 -0.665243 8.16776 1.91188 10.8691C 4.48902 13.5704 8.44057 13.5704 11.0177 11.038Z"/>
<path id="path13_fill" d="M 2.0837 1.75217C -0.665233 4.28466 -0.665241 8.16779 1.91188 10.8691C 4.48899 13.4016 8.44062 13.5704 11.0177 11.0379C 13.7667 8.50546 13.7666 4.62233 11.1895 1.92102C 8.61241 -0.611464 4.66082 -0.611476 2.0837 1.75217Z"/>
<path id="path14_fill" d="M 11.2105 10.9741C 13.7877 8.44162 13.7877 4.55845 11.2105 2.02599C 8.6334 -0.675329 4.50995 -0.675329 1.93284 2.02599C -0.64428 4.55845 -0.64428 8.44162 1.93284 10.9741C 4.50995 13.5066 8.46161 13.5066 11.2105 10.9741Z"/>
<path id="path15_fill" d="M 11.2105 10.9741C 13.7876 8.44165 13.7876 4.55848 11.2105 2.02599C 8.63336 -0.675329 4.50999 -0.675329 1.93284 2.02599C -0.644281 4.55848 -0.644281 8.44165 1.93284 10.9741C 4.50999 13.5066 8.46154 13.5066 11.2105 10.9741Z"/>
<path id="path16_fill" d="M 11.2986 10.8268C 13.8757 8.29436 13.7039 4.41124 11.1267 1.87876C 8.54961 -0.653717 4.42623 -0.65371 1.8491 2.04761C -0.728018 4.58009 -0.556254 8.46322 2.02087 10.9957C 4.76981 13.5282 8.72144 13.5281 11.2986 10.8268Z"/>
<path id="path17_fill" d="M 11.0177 11.1028C 13.7667 8.57034 13.7667 4.68721 11.1895 1.98589C 8.61244 -0.546589 4.66081 -0.715433 2.08367 1.81705C -0.665259 4.34954 -0.665216 8.23266 1.91191 10.934C 4.48902 13.6353 8.44061 13.6353 11.0177 11.1028Z"/>
<path id="path18_fill" d="M 11.1675 10.9957C 13.7447 8.46325 13.9164 4.58008 11.3394 2.04761C 8.76222 -0.65371 4.81063 -0.653717 2.0617 1.87876C -0.687233 4.41123 -0.687233 8.46325 2.0617 10.9957C 4.63881 13.5282 8.5904 13.5282 11.1675 10.9957Z"/>
<path id="path19_fill" d="M 1.93284 1.89936C -0.644281 4.43184 -0.644281 8.315 1.93284 10.8475C 4.50997 13.5488 8.63335 13.5488 11.2105 10.8475C 13.7876 8.315 13.7876 4.43184 11.2105 1.89936C 8.63335 -0.63312 4.50997 -0.63312 1.93284 1.89936Z"/>
<path id="path20_fill" d="M 11.0387 11.0163C 13.6158 8.48381 13.6158 4.43183 11.0387 1.89936C 8.46161 -0.633121 4.50998 -0.633121 1.93284 1.89936C -0.644281 4.43183 -0.644281 8.48381 1.93284 11.0163C 4.50998 13.5488 8.46161 13.5488 11.0387 11.0163Z"/>
<path id="path21_fill" d="M 11.1676 11.0163C 13.9165 8.4838 13.9165 4.43186 11.1676 1.89936C 8.59043 -0.63312 4.63884 -0.63312 2.0617 1.89936C -0.687232 4.43186 -0.687232 8.4838 2.0617 11.0163C 4.63884 13.5488 8.59043 13.5488 11.1676 11.0163Z"/>
<path id="path22_fill" d="M 11.0177 11.1028C 13.7667 8.57035 13.7666 4.68718 11.1895 1.98587C 8.61241 -0.546617 4.66082 -0.715407 2.0837 1.81707C -0.665233 4.34955 -0.665241 8.23268 1.91188 10.934C 4.48899 13.4665 8.44062 13.6353 11.0177 11.1028Z"/>
<path id="path23_fill" d="M 11.2105 10.8475C 13.7877 8.315 13.7877 4.43183 11.2105 1.89936C 8.6334 -0.633121 4.50995 -0.633121 1.93284 1.89936C -0.64428 4.43183 -0.64428 8.315 1.93284 10.8475C 4.50995 13.5488 8.46161 13.5488 11.2105 10.8475Z"/>
<path id="path24_fill" d="M 1.84908 2.11238C -0.728045 4.64488 -0.556226 8.52805 2.0209 11.0605C 4.59801 13.593 8.72142 13.593 11.2986 10.8917C 13.8756 8.35919 13.7039 4.47603 11.1267 1.94354C 8.5496 -0.757771 4.59801 -0.588931 1.84908 2.11238Z"/>
<path id="path25_fill" d="M 11.1675 11.0163C 13.9164 8.48381 13.9164 4.43183 11.1675 1.89936C 8.5904 -0.633121 4.63881 -0.633121 2.0617 1.89936C -0.687233 4.43183 -0.687233 8.48381 2.0617 11.0163C 4.63881 13.5488 8.5904 13.5488 11.1675 11.0163Z"/>
<path id="path26_fill" d="M 11.1675 11.0163C 13.9165 8.4838 13.9165 4.43186 11.1675 1.89936C 8.59041 -0.63312 4.63882 -0.63312 2.0617 1.89936C -0.687233 4.43186 -0.687233 8.4838 2.0617 11.0163C 4.63882 13.5488 8.59041 13.5488 11.1675 11.0163Z"/>
<path id="path27_fill" d="M 11.0607 10.9741C 13.6379 8.44158 13.6378 4.55845 11.2325 2.02599C 8.65539 -0.675329 4.53202 -0.675329 1.95488 2.02599C -0.622243 4.55845 -0.622255 8.44158 1.78306 10.9741C 4.53198 13.5065 8.48364 13.5065 11.0607 10.9741Z"/>
<path id="path28_fill" d="M 11.1267 10.9957C 13.8757 8.46323 13.7039 4.41125 11.1267 1.87879C 8.54961 -0.653695 4.42623 -0.653733 1.8491 2.04758C -0.728018 4.58007 -0.556254 8.46323 2.02087 10.9957C 4.59798 13.5282 8.54961 13.5282 11.1267 10.9957Z"/>
<path id="path29_fill" d="M 11.0177 11.1028C 13.7666 8.57035 13.7666 4.68718 11.1895 1.98587C 8.61239 -0.546617 4.66084 -0.715407 2.0837 1.81707C -0.665232 4.34955 -0.665243 8.23268 1.91188 10.934C 4.48901 13.4665 8.44056 13.6353 11.0177 11.1028Z"/>
<path id="path30_fill" d="M 1.83013 10.8496C 4.40724 13.5509 8.35887 13.5509 10.936 11.1872C 13.6849 8.65477 13.8567 4.77164 11.2796 2.07032C 8.70244 -0.630998 4.75089 -0.631017 2.17377 1.73263C -0.575167 4.26512 -0.746998 8.14828 1.83013 10.8496Z"/>
<path id="path31_fill" d="M 11.1676 11.0163C 13.9165 8.4838 13.9165 4.43186 11.1676 1.89936C 8.59046 -0.63312 4.63883 -0.63312 2.0617 1.89936C -0.687233 4.43186 -0.687233 8.4838 2.0617 11.0163C 4.63883 13.5488 8.59046 13.5488 11.1676 11.0163Z"/>
<path id="path32_fill" d="M 2.0837 1.75218C -0.665232 4.28467 -0.665243 8.16776 1.91188 10.8691C 4.489 13.4016 8.44063 13.5704 11.0178 11.038C 13.7667 8.50547 13.7667 4.62235 11.1896 1.92101C 8.61245 -0.611465 4.66083 -0.611476 2.0837 1.75218Z"/>
</defs>
</svg>
