<svg width="729" height="164" viewBox="0 0 729 164" version="1.1" xmlns="http://www.w3.org/2000/svg" xmlns:xlink="http://www.w3.org/1999/xlink">
<title>title-deco-dot</title>
<desc>Created using Figma</desc>
<g id="Canvas" transform="translate(-1115 1171)">
<g id="title-deco-dot">
<g id="Group">
<g id="Canvas">
<g id="Group" opacity="0.6">
<g id="Vector">
<g id="Vector" opacity="0.25">
<use xlink:href="#path0_fill" transform="translate(1115.1 -1080.43)" fill="#E3E1D9"/>
</g>
</g>
<g id="Vector">
<g id="Vector" opacity="0.25">
<use xlink:href="#path1_fill" transform="translate(1145.77 -1110.5)" fill="#E3E1D9"/>
</g>
</g>
<g id="Vector">
<g id="Vector" opacity="0.25">
<use xlink:href="#path2_fill" transform="translate(1176.51 -1140.76)" fill="#E3E1D9"/>
</g>
</g>
<g id="Vector">
<g id="Vector" opacity="0.25">
<use xlink:href="#path3_fill" transform="translate(1207.26 -1171)" fill="#E3E1D9"/>
</g>
</g>
<g id="Vector">
<g id="Vector" opacity="0.25">
<use xlink:href="#path4_fill" transform="translate(1115.13 -1050.16)" fill="#E3E1D9"/>
</g>
</g>
<g id="Vector">
<g id="Vector" opacity="0.25">
<use xlink:href="#path5_fill" transform="translate(1146.01 -1080.51)" fill="#E3E1D9"/>
</g>
</g>
<g id="Vector">
<g id="Vector" opacity="0.25">
<use xlink:href="#path6_fill" transform="translate(1176.6 -1110.68)" fill="#E3E1D9"/>
</g>
</g>
<g id="Vector">
<g id="Vector" opacity="0.25">
<use xlink:href="#path7_fill" transform="translate(1207.35 -1140.78)" fill="#E3E1D9"/>
</g>
</g>
<g id="Vector">
<g id="Vector" opacity="0.25">
<use xlink:href="#path8_fill" transform="translate(1238.1 -1171)" fill="#E3E1D9"/>
</g>
</g>
<g id="Vector">
<g id="Vector" opacity="0.25">
<use xlink:href="#path9_fill" transform="translate(1145.84 -1050.24)" fill="#E3E1D9"/>
</g>
</g>
<g id="Vector">
<g id="Vector" opacity="0.25">
<use xlink:href="#path10_fill" transform="translate(1176.6 -1080.46)" fill="#E3E1D9"/>
</g>
</g>
<g id="Vector">
<g id="Vector" opacity="0.25">
<use xlink:href="#path11_fill" transform="translate(1207.37 -1110.58)" fill="#E3E1D9"/>
</g>
</g>
<g id="Vector">
<g id="Vector" opacity="0.25">
<use xlink:href="#path12_fill" transform="translate(1238.12 -1140.8)" fill="#E3E1D9"/>
</g>
</g>
<g id="Vector">
<g id="Vector" opacity="0.25">
<use xlink:href="#path13_fill" transform="translate(1115.09 -1140.74)" fill="#E3E1D9"/>
</g>
</g>
<g id="Vector">
<g id="Vector" opacity="0.25">
<use xlink:href="#path14_fill" transform="translate(1145.84 -1170.96)" fill="#E3E1D9"/>
</g>
</g>
<g id="Vector">
<g id="Vector" opacity="0.25">
<use xlink:href="#path15_fill" transform="translate(1115 -1110.54)" fill="#E3E1D9"/>
</g>
</g>
<g id="Vector">
<g id="Vector" opacity="0.25">
<use xlink:href="#path16_fill" transform="translate(1145.86 -1140.87)" fill="#E3E1D9"/>
</g>
</g>
<g id="Vector">
<g id="Vector" opacity="0.25">
<use xlink:href="#path17_fill" transform="translate(1176.47 -1170.98)" fill="#E3E1D9"/>
</g>
</g>
<g id="Vector">
<g id="Vector" opacity="0.25">
<use xlink:href="#path18_fill" transform="translate(1207.35 -1019.9)" fill="#E3E1D9"/>
</g>
</g>
<g id="Vector">
<g id="Vector" opacity="0.25">
<use xlink:href="#path19_fill" transform="translate(1238.1 -1050.12)" fill="#E3E1D9"/>
</g>
</g>
<g id="Vector">
<g id="Vector" opacity="0.25">
<use xlink:href="#path20_fill" transform="translate(1268.73 -1080.34)" fill="#E3E1D9"/>
</g>
</g>
<g id="Vector">
<g id="Vector" opacity="0.25">
<use xlink:href="#path21_fill" transform="translate(1238.12 -1019.98)" fill="#E3E1D9"/>
</g>
</g>
<g id="Vector">
<g id="Vector" opacity="0.25">
<use xlink:href="#path22_fill" transform="translate(1268.86 -1050.12)" fill="#E3E1D9"/>
</g>
</g>
<g id="Vector">
<g id="Vector" opacity="0.25">
<use xlink:href="#path23_fill" transform="translate(1145.75 -1019.94)" fill="#E3E1D9"/>
</g>
</g>
<g id="Vector">
<g id="Vector" opacity="0.25">
<use xlink:href="#path24_fill" transform="translate(1176.47 -1050.12)" fill="#E3E1D9"/>
</g>
</g>
<g id="Vector">
<g id="Vector" opacity="0.25">
<use xlink:href="#path25_fill" transform="translate(1207.22 -1080.34)" fill="#E3E1D9"/>
</g>
</g>
<g id="Vector">
<g id="Vector" opacity="0.25">
<use xlink:href="#path26_fill" transform="translate(1238.08 -1110.52)" fill="#E3E1D9"/>
</g>
</g>
<g id="Vector">
<g id="Vector" opacity="0.25">
<use xlink:href="#path27_fill" transform="translate(1268.77 -1140.76)" fill="#E3E1D9"/>
</g>
</g>
<g id="Vector">
<g id="Vector" opacity="0.25">
<use xlink:href="#path28_fill" transform="translate(1176.62 -1019.98)" fill="#E3E1D9"/>
</g>
</g>
<g id="Vector">
<g id="Vector" opacity="0.25">
<use xlink:href="#path29_fill" transform="translate(1207.28 -1050.12)" fill="#E3E1D9"/>
</g>
</g>
<g id="Vector">
<g id="Vector" opacity="0.25">
<use xlink:href="#path30_fill" transform="translate(1237.97 -1080.34)" fill="#E3E1D9"/>
</g>
</g>
<g id="Vector">
<g id="Vector" opacity="0.25">
<use xlink:href="#path31_fill" transform="translate(1268.88 -1110.58)" fill="#E3E1D9"/>
</g>
</g>
</g>
<g id="Group" opacity="0.6">
<g id="Vector">
<g id="Vector" opacity="0.25">
<use xlink:href="#path0_fill" transform="translate(1677.1 -1080.43)" fill="#E3E1D9"/>
</g>
</g>
<g id="Vector">
<g id="Vector" opacity="0.25">
<use xlink:href="#path1_fill" transform="translate(1707.77 -1110.5)" fill="#E3E1D9"/>
</g>
</g>
<g id="Vector">
<g id="Vector" opacity="0.25">
<use xlink:href="#path2_fill" transform="translate(1738.51 -1140.76)" fill="#E3E1D9"/>
</g>
</g>
<g id="Vector">
<g id="Vector" opacity="0.25">
<use xlink:href="#path3_fill" transform="translate(1769.26 -1171)" fill="#E3E1D9"/>
</g>
</g>
<g id="Vector">
<g id="Vector" opacity="0.25">
<use xlink:href="#path4_fill" transform="translate(1677.13 -1050.16)" fill="#E3E1D9"/>
</g>
</g>
<g id="Vector">
<g id="Vector" opacity="0.25">
<use xlink:href="#path5_fill" transform="translate(1708.01 -1080.51)" fill="#E3E1D9"/>
</g>
</g>
<g id="Vector">
<g id="Vector" opacity="0.25">
<use xlink:href="#path6_fill" transform="translate(1738.6 -1110.68)" fill="#E3E1D9"/>
</g>
</g>
<g id="Vector">
<g id="Vector" opacity="0.25">
<use xlink:href="#path7_fill" transform="translate(1769.35 -1140.78)" fill="#E3E1D9"/>
</g>
</g>
<g id="Vector">
<g id="Vector" opacity="0.25">
<use xlink:href="#path8_fill" transform="translate(1800.1 -1171)" fill="#E3E1D9"/>
</g>
</g>
<g id="Vector">
<g id="Vector" opacity="0.25">
<use xlink:href="#path9_fill" transform="translate(1707.84 -1050.24)" fill="#E3E1D9"/>
</g>
</g>
<g id="Vector">
<g id="Vector" opacity="0.25">
<use xlink:href="#path10_fill" transform="translate(1738.6 -1080.46)" fill="#E3E1D9"/>
</g>
</g>
<g id="Vector">
<g id="Vector" opacity="0.25">
<use xlink:href="#path11_fill" transform="translate(1769.37 -1110.58)" fill="#E3E1D9"/>
</g>
</g>
<g id="Vector">
<g id="Vector" opacity="0.25">
<use xlink:href="#path12_fill" transform="translate(1800.12 -1140.8)" fill="#E3E1D9"/>
</g>
</g>
<g id="Vector">
<g id="Vector" opacity="0.25">
<use xlink:href="#path13_fill" transform="translate(1677.09 -1140.74)" fill="#E3E1D9"/>
</g>
</g>
<g id="Vector">
<g id="Vector" opacity="0.25">
<use xlink:href="#path14_fill" transform="translate(1707.84 -1170.96)" fill="#E3E1D9"/>
</g>
</g>
<g id="Vector">
<g id="Vector" opacity="0.25">
<use xlink:href="#path15_fill" transform="translate(1677 -1110.54)" fill="#E3E1D9"/>
</g>
</g>
<g id="Vector">
<g id="Vector" opacity="0.25">
<use xlink:href="#path16_fill" transform="translate(1707.86 -1140.87)" fill="#E3E1D9"/>
</g>
</g>
<g id="Vector">
<g id="Vector" opacity="0.25">
<use xlink:href="#path17_fill" transform="translate(1738.47 -1170.98)" fill="#E3E1D9"/>
</g>
</g>
<g id="Vector">
<g id="Vector" opacity="0.25">
<use xlink:href="#path18_fill" transform="translate(1769.35 -1019.9)" fill="#E3E1D9"/>
</g>
</g>
<g id="Vector">
<g id="Vector" opacity="0.25">
<use xlink:href="#path19_fill" transform="translate(1800.1 -1050.12)" fill="#E3E1D9"/>
</g>
</g>
<g id="Vector">
<g id="Vector" opacity="0.25">
<use xlink:href="#path20_fill" transform="translate(1830.73 -1080.34)" fill="#E3E1D9"/>
</g>
</g>
<g id="Vector">
<g id="Vector" opacity="0.25">
<use xlink:href="#path21_fill" transform="translate(1800.12 -1019.98)" fill="#E3E1D9"/>
</g>
</g>
<g id="Vector">
<g id="Vector" opacity="0.25">
<use xlink:href="#path22_fill" transform="translate(1830.86 -1050.12)" fill="#E3E1D9"/>
</g>
</g>
<g id="Vector">
<g id="Vector" opacity="0.25">
<use xlink:href="#path23_fill" transform="translate(1707.75 -1019.94)" fill="#E3E1D9"/>
</g>
</g>
<g id="Vector">
<g id="Vector" opacity="0.25">
<use xlink:href="#path24_fill" transform="translate(1738.47 -1050.12)" fill="#E3E1D9"/>
</g>
</g>
<g id="Vector">
<g id="Vector" opacity="0.25">
<use xlink:href="#path25_fill" transform="translate(1769.22 -1080.34)" fill="#E3E1D9"/>
</g>
</g>
<g id="Vector">
<g id="Vector" opacity="0.25">
<use xlink:href="#path26_fill" transform="translate(1800.08 -1110.52)" fill="#E3E1D9"/>
</g>
</g>
<g id="Vector">
<g id="Vector" opacity="0.25">
<use xlink:href="#path27_fill" transform="translate(1830.77 -1140.76)" fill="#E3E1D9"/>
</g>
</g>
<g id="Vector">
<g id="Vector" opacity="0.25">
<use xlink:href="#path28_fill" transform="translate(1738.62 -1019.98)" fill="#E3E1D9"/>
</g>
</g>
<g id="Vector">
<g id="Vector" opacity="0.25">
<use xlink:href="#path29_fill" transform="translate(1769.28 -1050.12)" fill="#E3E1D9"/>
</g>
</g>
<g id="Vector">
<g id="Vector" opacity="0.25">
<use xlink:href="#path30_fill" transform="translate(1799.97 -1080.34)" fill="#E3E1D9"/>
</g>
</g>
<g id="Vector">
<g id="Vector" opacity="0.25">
<use xlink:href="#path31_fill" transform="translate(1830.88 -1110.58)" fill="#E3E1D9"/>
</g>
</g>
</g>
</g>
</g>
<g id="Unconference">
<use xlink:href="#path32_fill" transform="translate(1287 -1180.14)" fill="#F1E28C"/>
</g>
</g>
</g>
<defs>
<path id="path0_fill" d="M 10.8583 11.278C 13.6073 8.74552 13.9509 4.86239 11.3738 2.16107C 8.79664 -0.540245 4.84505 -0.709108 2.26793 1.65454C -0.481005 4.18701 -0.8246 8.07022 1.75253 10.7715C 4.15786 13.4728 8.10941 13.6416 10.8583 11.278Z"/>
<path id="path1_fill" d="M 10.936 11.1267C 13.6849 8.59423 13.8567 4.71111 11.2796 2.0098C 8.70248 -0.52268 4.75086 -0.691531 2.17374 1.67212C -0.575196 4.20458 -0.746972 8.08771 1.83015 10.789C 4.40728 13.3215 8.35883 13.4904 10.936 11.1267Z"/>
<path id="path2_fill" d="M 11.1267 10.9957C 13.8757 8.46323 13.8757 4.41125 11.1267 1.87879C 8.54961 -0.653695 4.42619 -0.653733 1.84908 2.04758C -0.728042 4.58007 -0.556227 8.46323 2.0209 10.9957C 4.59802 13.5282 8.54961 13.5282 11.1267 10.9957Z"/>
<path id="path3_fill" d="M 11.1267 11.0163C 13.8757 8.48386 13.8757 4.43184 11.1267 1.89936C 8.54958 -0.63312 4.59803 -0.63312 2.0209 1.89936C -0.556225 4.43184 -0.728044 8.315 1.84908 10.8475C 4.59803 13.5488 8.54958 13.5488 11.1267 11.0163Z"/>
<path id="path4_fill" d="M 2.0617 1.77274C -0.687233 4.30523 -0.687233 8.35721 2.0617 10.8897C 4.63883 13.4222 8.59046 13.4222 11.1676 10.8897C 13.9165 8.35721 13.9165 4.30523 11.1676 1.77274C 8.59046 -0.590912 4.63883 -0.590912 2.0617 1.77274Z"/>
<path id="path5_fill" d="M 11.0387 11.0163C 13.6158 8.48381 13.6158 4.43183 11.0387 1.89936C 8.46158 -0.633121 4.50995 -0.633121 1.93284 1.89936C -0.644281 4.43183 -0.644281 8.48381 1.93284 11.0163C 4.50995 13.7176 8.46158 13.7176 11.0387 11.0163Z"/>
<path id="path6_fill" d="M 11.0387 11.1429C 13.7876 8.61044 13.7876 4.72731 11.2105 2.02598C 8.63337 -0.675328 4.50996 -0.675328 1.93284 2.02598C -0.64428 4.55846 -0.64428 8.44159 1.93284 10.9741C 4.50996 13.5065 8.28972 13.6754 11.0387 11.1429Z"/>
<path id="path7_fill" d="M 11.2105 10.8474C 13.7876 8.31497 13.7876 4.43184 11.2105 1.89936C 8.63334 -0.633121 4.50997 -0.633121 1.93284 1.89936C -0.64428 4.43184 -0.64428 8.31497 1.93284 10.8474C 4.50997 13.5487 8.63334 13.5487 11.2105 10.8474Z"/>
<path id="path8_fill" d="M 11.2105 10.8475C 13.7876 8.315 13.7876 4.43184 11.2105 1.89936C 8.63336 -0.63312 4.50998 -0.63312 1.93284 1.89936C -0.644281 4.43184 -0.644281 8.315 1.93284 10.8475C 4.50998 13.5488 8.46153 13.5488 11.2105 10.8475Z"/>
<path id="path9_fill" d="M 11.2105 10.9741C 13.7876 8.44165 13.7876 4.55848 11.2105 2.02599C 8.63336 -0.675329 4.50999 -0.675329 1.93284 2.02599C -0.644281 4.55848 -0.644281 8.44165 1.93284 10.9741C 4.50999 13.6754 8.46154 13.6754 11.2105 10.9741Z"/>
<path id="path10_fill" d="M 11.2105 10.9741C 13.7876 8.4416 13.7876 4.55847 11.2105 2.02598C 8.63337 -0.675328 4.50996 -0.675328 1.93284 2.02598C -0.64428 4.55847 -0.64428 8.4416 1.93284 10.9741C 4.50996 13.6754 8.46154 13.6754 11.2105 10.9741Z"/>
<path id="path11_fill" d="M 11.0177 11.038C 13.7666 8.50547 13.7667 4.62234 11.1895 1.92101C 8.6124 -0.611465 4.66081 -0.611476 2.0837 1.75218C -0.665232 4.28467 -0.665243 8.16776 1.91188 10.8691C 4.48902 13.5704 8.44057 13.5704 11.0177 11.038Z"/>
<path id="path12_fill" d="M 2.0837 1.75217C -0.665233 4.28466 -0.665241 8.16779 1.91188 10.8691C 4.48899 13.4016 8.44062 13.5704 11.0177 11.0379C 13.7667 8.50546 13.7666 4.62233 11.1895 1.92102C 8.61241 -0.611464 4.66082 -0.611476 2.0837 1.75217Z"/>
<path id="path13_fill" d="M 11.2105 10.9741C 13.7877 8.44162 13.7877 4.55845 11.2105 2.02599C 8.6334 -0.675329 4.50995 -0.675329 1.93284 2.02599C -0.64428 4.55845 -0.64428 8.44162 1.93284 10.9741C 4.50995 13.5066 8.46161 13.5066 11.2105 10.9741Z"/>
<path id="path14_fill" d="M 11.2105 10.9741C 13.7876 8.44165 13.7876 4.55848 11.2105 2.02599C 8.63336 -0.675329 4.50999 -0.675329 1.93284 2.02599C -0.644281 4.55848 -0.644281 8.44165 1.93284 10.9741C 4.50999 13.5066 8.46154 13.5066 11.2105 10.9741Z"/>
<path id="path15_fill" d="M 11.2986 10.8268C 13.8757 8.29436 13.7039 4.41124 11.1267 1.87876C 8.54961 -0.653717 4.42623 -0.65371 1.8491 2.04761C -0.728018 4.58009 -0.556254 8.46322 2.02087 10.9957C 4.76981 13.5282 8.72144 13.5281 11.2986 10.8268Z"/>
<path id="path16_fill" d="M 11.0177 11.1028C 13.7667 8.57034 13.7667 4.68721 11.1895 1.98589C 8.61244 -0.546589 4.66081 -0.715433 2.08367 1.81705C -0.665259 4.34954 -0.665216 8.23267 1.91191 10.934C 4.48902 13.6353 8.44061 13.6353 11.0177 11.1028Z"/>
<path id="path17_fill" d="M 11.1675 10.9957C 13.7447 8.46325 13.9164 4.58008 11.3394 2.04761C 8.76222 -0.65371 4.81063 -0.653717 2.0617 1.87876C -0.687233 4.41123 -0.687233 8.46325 2.0617 10.9957C 4.63881 13.5282 8.5904 13.5282 11.1675 10.9957Z"/>
<path id="path18_fill" d="M 1.93284 1.89936C -0.64428 4.43184 -0.64428 8.315 1.93284 10.8475C 4.50997 13.5488 8.63334 13.5488 11.2105 10.8475C 13.7876 8.315 13.7876 4.43184 11.2105 1.89936C 8.63334 -0.63312 4.50997 -0.63312 1.93284 1.89936Z"/>
<path id="path19_fill" d="M 11.0387 11.0163C 13.6158 8.48381 13.6158 4.43183 11.0387 1.89936C 8.46161 -0.633121 4.50998 -0.633121 1.93284 1.89936C -0.644281 4.43183 -0.644281 8.48381 1.93284 11.0163C 4.50998 13.5488 8.46161 13.5488 11.0387 11.0163Z"/>
<path id="path20_fill" d="M 11.1676 11.0163C 13.9165 8.4838 13.9165 4.43186 11.1676 1.89936C 8.59043 -0.63312 4.63884 -0.63312 2.0617 1.89936C -0.687232 4.43186 -0.687232 8.4838 2.0617 11.0163C 4.63884 13.5488 8.59043 13.5488 11.1676 11.0163Z"/>
<path id="path21_fill" d="M 11.0177 11.1028C 13.7667 8.57035 13.7666 4.68718 11.1895 1.98587C 8.61241 -0.546618 4.66082 -0.715407 2.0837 1.81707C -0.665233 4.34955 -0.665241 8.23268 1.91188 10.934C 4.48899 13.4665 8.44062 13.6353 11.0177 11.1028Z"/>
<path id="path22_fill" d="M 11.2105 10.8475C 13.7877 8.315 13.7877 4.43183 11.2105 1.89936C 8.6334 -0.633121 4.50995 -0.633121 1.93284 1.89936C -0.64428 4.43183 -0.64428 8.315 1.93284 10.8475C 4.50995 13.5488 8.46161 13.5488 11.2105 10.8475Z"/>
<path id="path23_fill" d="M 1.84908 2.11238C -0.728045 4.64488 -0.556226 8.52805 2.0209 11.0605C 4.59801 13.593 8.72142 13.593 11.2986 10.8917C 13.8756 8.35919 13.7039 4.47603 11.1267 1.94354C 8.5496 -0.757771 4.59801 -0.588931 1.84908 2.11238Z"/>
<path id="path24_fill" d="M 11.1675 11.0163C 13.9164 8.48381 13.9164 4.43183 11.1675 1.89936C 8.5904 -0.633121 4.63881 -0.633121 2.0617 1.89936C -0.687233 4.43183 -0.687233 8.48381 2.0617 11.0163C 4.63881 13.5488 8.5904 13.5488 11.1675 11.0163Z"/>
<path id="path25_fill" d="M 11.1675 11.0163C 13.9165 8.4838 13.9165 4.43186 11.1675 1.89936C 8.59041 -0.63312 4.63882 -0.63312 2.0617 1.89936C -0.687233 4.43186 -0.687233 8.4838 2.0617 11.0163C 4.63882 13.5488 8.59041 13.5488 11.1675 11.0163Z"/>
<path id="path26_fill" d="M 11.0607 10.9741C 13.6379 8.44158 13.6378 4.55845 11.2325 2.02599C 8.65539 -0.675329 4.53202 -0.675329 1.95488 2.02599C -0.622243 4.55845 -0.622255 8.44158 1.78306 10.9741C 4.53198 13.5065 8.48364 13.5065 11.0607 10.9741Z"/>
<path id="path27_fill" d="M 11.1267 10.9957C 13.8757 8.46323 13.7039 4.41125 11.1267 1.87879C 8.54961 -0.653695 4.42623 -0.653733 1.8491 2.04758C -0.728018 4.58007 -0.556254 8.46323 2.02087 10.9957C 4.59798 13.5282 8.54961 13.5282 11.1267 10.9957Z"/>
<path id="path28_fill" d="M 11.0177 11.1028C 13.7666 8.57035 13.7666 4.68718 11.1895 1.98587C 8.61239 -0.546618 4.66084 -0.715407 2.0837 1.81707C -0.665232 4.34955 -0.665243 8.23268 1.91188 10.934C 4.48901 13.4665 8.44056 13.6353 11.0177 11.1028Z"/>
<path id="path29_fill" d="M 1.83013 10.8496C 4.40724 13.5509 8.35887 13.5509 10.936 11.1873C 13.6849 8.65477 13.8567 4.77164 11.2796 2.07032C 8.70244 -0.630998 4.75089 -0.631017 2.17377 1.73263C -0.575167 4.26512 -0.746998 8.14828 1.83013 10.8496Z"/>
<path id="path30_fill" d="M 11.1676 11.0163C 13.9165 8.4838 13.9165 4.43186 11.1676 1.89936C 8.59046 -0.63312 4.63883 -0.63312 2.0617 1.89936C -0.687233 4.43186 -0.687233 8.4838 2.0617 11.0163C 4.63883 13.5488 8.59046 13.5488 11.1676 11.0163Z"/>
<path id="path31_fill" d="M 2.0837 1.75218C -0.665232 4.28467 -0.665243 8.16776 1.91188 10.8691C 4.489 13.4016 8.44063 13.5704 11.0178 11.038C 13.7667 8.50547 13.7667 4.62234 11.1896 1.92101C 8.61246 -0.611465 4.66083 -0.611476 2.0837 1.75218Z"/>
<path id="path32_fill" d="M 26.606 107.624C 34.43 107.624 39.71 103.352 39.71 91.832L 39.71 71.672L 34.334 71.672L 34.334 92.216C 34.334 100.184 31.07 102.776 26.606 102.776C 22.19 102.776 19.022 100.184 19.022 92.216L 19.022 71.672L 13.454 71.672L 13.454 91.832C 13.454 103.352 18.782 107.624 26.606 107.624ZM 53.1691 107L 58.6411 107L 58.6411 88.28C 60.9931 85.928 62.6731 84.68 65.1211 84.68C 68.2411 84.68 69.5851 86.504 69.5851 91.064L 69.5851 107L 75.1051 107L 75.1051 90.392C 75.1051 83.672 72.6091 79.928 66.9931 79.928C 63.3931 79.928 60.7051 81.896 58.2571 84.248L 58.1131 84.248L 57.6811 80.6L 53.1691 80.6L 53.1691 107ZM 98.6742 107.624C 101.698 107.624 104.818 106.52 107.218 104.36L 104.962 100.712C 103.378 102.056 101.41 103.112 99.2022 103.112C 94.7862 103.112 91.7622 99.416 91.7622 93.848C 91.7622 88.232 94.9302 84.488 99.3462 84.488C 101.17 84.488 102.658 85.256 104.098 86.552L 106.834 82.952C 104.914 81.272 102.466 79.928 99.1062 79.928C 92.1462 79.928 86.0502 85.016 86.0502 93.848C 86.0502 102.584 91.5222 107.624 98.6742 107.624ZM 126.813 107.624C 133.341 107.624 139.245 102.584 139.245 93.848C 139.245 85.016 133.341 79.928 126.813 79.928C 120.285 79.928 114.381 85.016 114.381 93.848C 114.381 102.584 120.285 107.624 126.813 107.624ZM 126.813 103.112C 122.685 103.112 120.093 99.416 120.093 93.848C 120.093 88.232 122.685 84.488 126.813 84.488C 130.989 84.488 133.581 88.232 133.581 93.848C 133.581 99.416 130.989 103.112 126.813 103.112ZM 150.538 107L 156.01 107L 156.01 88.28C 158.362 85.928 160.042 84.68 162.49 84.68C 165.61 84.68 166.954 86.504 166.954 91.064L 166.954 107L 172.474 107L 172.474 90.392C 172.474 83.672 169.978 79.928 164.362 79.928C 160.762 79.928 158.074 81.896 155.626 84.248L 155.482 84.248L 155.05 80.6L 150.538 80.6L 150.538 107ZM 199.211 69.032C 198.011 68.504 196.331 68.12 194.555 68.12C 188.651 68.12 186.203 71.864 186.203 77.288L 186.203 80.6L 182.603 80.888L 182.603 85.016L 186.203 85.016L 186.203 107L 191.723 107L 191.723 85.016L 197.051 85.016L 197.051 80.6L 191.723 80.6L 191.723 77.24C 191.723 74.024 192.875 72.488 195.227 72.488C 196.139 72.488 197.147 72.728 198.107 73.16L 199.211 69.032ZM 217.114 107.624C 220.57 107.624 223.594 106.472 226.042 104.84L 224.122 101.336C 222.202 102.584 220.186 103.304 217.834 103.304C 213.274 103.304 210.106 100.28 209.674 95.24L 226.81 95.24C 226.954 94.616 227.05 93.512 227.05 92.456C 227.05 84.968 223.306 79.928 216.298 79.928C 210.106 79.928 204.25 85.256 204.25 93.848C 204.25 102.536 209.962 107.624 217.114 107.624ZM 209.626 91.448C 210.154 86.792 213.082 84.248 216.394 84.248C 220.234 84.248 222.298 86.888 222.298 91.448L 209.626 91.448ZM 238.063 107L 243.535 107L 243.535 90.536C 245.215 86.36 247.807 84.872 249.967 84.872C 251.023 84.872 251.695 85.016 252.607 85.304L 253.615 80.504C 252.799 80.12 251.935 79.928 250.639 79.928C 247.807 79.928 245.023 81.944 243.151 85.352L 243.007 85.352L 242.575 80.6L 238.063 80.6L 238.063 107ZM 272.98 107.624C 276.436 107.624 279.46 106.472 281.908 104.84L 279.988 101.336C 278.068 102.584 276.052 103.304 273.7 103.304C 269.14 103.304 265.972 100.28 265.54 95.24L 282.676 95.24C 282.82 94.616 282.916 93.512 282.916 92.456C 282.916 84.968 279.172 79.928 272.164 79.928C 265.972 79.928 260.116 85.256 260.116 93.848C 260.116 102.536 265.828 107.624 272.98 107.624ZM 265.492 91.448C 266.02 86.792 268.948 84.248 272.26 84.248C 276.1 84.248 278.164 86.888 278.164 91.448L 265.492 91.448ZM 293.928 107L 299.4 107L 299.4 88.28C 301.752 85.928 303.432 84.68 305.88 84.68C 309 84.68 310.344 86.504 310.344 91.064L 310.344 107L 315.864 107L 315.864 90.392C 315.864 83.672 313.368 79.928 307.752 79.928C 304.152 79.928 301.464 81.896 299.016 84.248L 298.872 84.248L 298.44 80.6L 293.928 80.6L 293.928 107ZM 339.434 107.624C 342.458 107.624 345.578 106.52 347.978 104.36L 345.722 100.712C 344.138 102.056 342.17 103.112 339.962 103.112C 335.546 103.112 332.522 99.416 332.522 93.848C 332.522 88.232 335.69 84.488 340.106 84.488C 341.93 84.488 343.418 85.256 344.858 86.552L 347.594 82.952C 345.674 81.272 343.226 79.928 339.866 79.928C 332.906 79.928 326.81 85.016 326.81 93.848C 326.81 102.584 332.282 107.624 339.434 107.624ZM 368.005 107.624C 371.461 107.624 374.485 106.472 376.933 104.84L 375.013 101.336C 373.093 102.584 371.077 103.304 368.725 103.304C 364.165 103.304 360.997 100.28 360.565 95.24L 377.701 95.24C 377.845 94.616 377.941 93.512 377.941 92.456C 377.941 84.968 374.197 79.928 367.189 79.928C 360.997 79.928 355.141 85.256 355.141 93.848C 355.141 102.536 360.853 107.624 368.005 107.624ZM 360.517 91.448C 361.045 86.792 363.973 84.248 367.285 84.248C 371.125 84.248 373.189 86.888 373.189 91.448L 360.517 91.448Z"/>
</defs>
</svg>
