<svg width="126" height="120" viewBox="0 0 126 120" version="1.1" xmlns="http://www.w3.org/2000/svg" xmlns:xlink="http://www.w3.org/1999/xlink">
<title>linkedin-logo</title>
<desc>Created using Figma</desc>
<g id="Canvas" transform="translate(-2097 2035)">
<g id="linkedin-logo">
<g id="Group">
<g id="LinkedIn">
<use xlink:href="#path0_fill" transform="translate(2097 -2035)" fill="#FFFFFF"/>
</g>
</g>
</g>
</g>
<defs>
<path id="path0_fill" d="M 126 73.5719L 126 120L 98.9941 120L 98.9941 76.6814C 98.9941 65.7994 95.088 58.3729 85.3128 58.3729C 77.8506 58.3729 73.4099 63.3778 71.4563 68.2192C 70.7438 69.95 70.5604 72.3591 70.5604 74.7818L 70.5604 120L 43.5455 120C 43.5455 120 43.9093 46.6325 43.5455 39.0311L 70.5578 39.0311L 70.5578 50.5081C 70.503 50.5939 70.4318 50.6865 70.3803 50.7697L 70.5578 50.7697L 70.5578 50.5081C 74.1466 44.9989 80.556 37.1289 94.902 37.1289C 112.676 37.1286 126 48.7014 126 73.5719ZM 15.2867 -1.13605e-07C 6.04489 -1.13605e-07 0 6.04172 0 13.9868C 0 21.7587 5.87 27.9838 14.9281 27.9838L 15.1086 27.9838C 24.5293 27.9838 30.3882 21.7599 30.3882 13.9868C 30.2107 6.04172 24.5293 -1.13605e-07 15.2867 -1.13605e-07ZM 1.60445 120L 28.6092 120L 28.6092 39.0311L 1.60445 39.0311L 1.60445 120Z"/>
</defs>
</svg>
