<svg width="112" height="112" viewBox="0 0 112 112" version="1.1" xmlns="http://www.w3.org/2000/svg" xmlns:xlink="http://www.w3.org/1999/xlink">
<title>blogger-letter-logotype</title>
<desc>Created using Figma</desc>
<g id="Canvas" transform="translate(-928 2635)">
<g id="blogger-letter-logotype">
<g id="Group">
<g id="Blogger">
<use xlink:href="#path0_fill" transform="translate(928 -2635)" fill="#FFFFFF"/>
</g>
</g>
</g>
</g>
<defs>
<path id="path0_fill" d="M 75.7197 111.286C 95.1047 111.286 110.85 95.4792 110.96 76.1829L 111.178 47.7699L 110.85 46.2242L 109.919 44.2796L 108.344 43.0607C 106.298 41.4539 95.9331 43.1693 93.1428 40.6317C 91.162 38.8216 90.8531 35.5509 90.2548 31.1181C 89.1412 22.5333 88.4381 22.0852 87.094 19.1744C 82.2159 8.83987 68.9738 1.07348 59.8767 0L 35.2349 0C 15.8492 0 0 15.8295 0 35.1639L 0 76.1829C 0 95.4792 15.8492 111.286 35.2347 111.286L 75.7197 111.286ZM 35.6837 28.7276L 55.2201 28.7276C 58.9503 28.7276 61.971 31.7584 61.971 35.442C 61.971 39.1106 58.9501 42.1662 55.2201 42.1662L 35.6837 42.1662C 31.953 42.1662 28.9383 39.1093 28.9383 35.442C 28.9383 31.7587 31.953 28.7276 35.6837 28.7276ZM 28.9383 75.6636C 28.9383 71.9808 31.953 68.9728 35.6837 68.9728L 75.3808 68.9728C 79.0867 68.9728 82.0955 71.9808 82.0955 75.6636C 82.0955 79.297 79.0867 82.3532 75.3808 82.3532L 35.6837 82.3532C 31.953 82.3532 28.9383 79.297 28.9383 75.6636Z"/>
</defs>
</svg>
