<svg width="135" height="135" viewBox="0 0 135 135" version="1.1" xmlns="http://www.w3.org/2000/svg" xmlns:xlink="http://www.w3.org/1999/xlink">
<title>link</title>
<desc>Created using Figma</desc>
<g id="Canvas" transform="translate(-917 2986)">
<g id="link">
<g id="Group">
<g id="Group">
<g id="Vector">
<use xlink:href="#path0_fill" transform="translate(917 -2942.7)" fill="#FFFFFF"/>
</g>
</g>
</g>
<g id="Group">
<g id="Group">
<g id="Vector">
<use xlink:href="#path1_fill" transform="translate(966.8 -2986)" fill="#FFFFFF"/>
</g>
</g>
</g>
</g>
</g>
<defs>
<path id="path0_fill" d="M 82.1183 9.20396C 80.5239 7.59873 78.756 6.17581 76.8474 4.96123C 71.7922 1.72156 65.9154 5.38715e-05 59.9127 5.38715e-05C 51.5811 -0.0154671 43.5881 3.29759 37.707 9.20396L 9.17614 37.7806C 3.3051 43.6678 0.00526352 51.6442 6.50163e-06 59.9619C -0.0110332 77.319 14.0389 91.3986 31.3818 91.4096C 39.7005 91.4386 47.6862 88.1413 53.5651 82.2507L 77.1166 58.6799C 77.5445 58.2553 77.7834 57.6761 77.78 57.0731C 77.7729 55.8333 76.7628 54.8342 75.5239 54.8413L 74.6268 54.8413C 69.7063 54.8586 64.8296 53.9129 60.2717 52.0578C 59.4319 51.7118 58.4667 51.907 57.827 52.5515L 40.8923 69.5225C 35.6337 74.7854 27.1078 74.7854 21.8492 69.5225C 16.5906 64.2596 16.5906 55.7267 21.8492 50.4638L 50.4924 21.8198C 55.7468 16.5677 64.2587 16.5677 69.5131 21.8198C 73.0542 25.1553 78.5777 25.1553 82.1186 21.8198C 83.6421 20.2938 84.5658 18.2698 84.7206 16.1179C 84.8843 13.5464 83.9368 11.0281 82.1183 9.20396Z"/>
<path id="path1_fill" d="M 75.5853 9.20542C 63.3214 -3.06847 43.4378 -3.06847 31.174 9.20542L 7.64487 32.7312C 6.99878 33.381 6.81242 34.3583 7.17384 35.2006C 7.53106 36.0453 8.36587 36.5875 9.28217 36.5699L 10.112 36.5699C 15.0268 36.5609 19.8956 37.514 24.4447 39.376C 25.2845 39.7219 26.2497 39.5267 26.8895 38.8822L 43.7793 22.001C 49.0379 16.7381 57.5637 16.7381 62.8223 22.001C 68.0809 27.2639 68.0809 35.7967 62.8223 41.0596L 41.7829 62.0936L 41.6034 62.2957L 34.2465 69.6139C 28.9921 74.866 20.4802 74.866 15.2258 69.6139C 11.6846 66.2785 6.16108 66.2785 2.62021 69.6139C 1.087 71.1515 0.162554 73.1932 0.0182487 75.3606C -0.14577 77.9321 0.801808 80.4504 2.62021 82.2748C 5.21639 84.8841 8.2539 87.0121 11.5921 88.5602C 12.0631 88.7846 12.5342 88.9643 13.0052 89.1663C 13.4762 89.3684 13.9696 89.5254 14.4406 89.7051C 14.9117 89.8848 15.405 90.0418 15.8761 90.1765L 17.1995 90.5356C 18.0966 90.76 18.994 90.9396 19.9134 91.0967C 21.0211 91.2614 22.1366 91.3663 23.2556 91.4111L 24.8256 91.4111L 24.9602 91.4111L 26.306 91.254C 26.7994 91.2317 27.3153 91.1193 27.8986 91.1193L 28.6611 91.1193L 30.2088 90.8949L 30.9266 90.7602L 32.2275 90.4909L 32.4743 90.4909C 37.9839 89.1058 43.0149 86.2508 47.0313 82.2298L 75.5845 53.6531C 87.8491 41.3792 87.8491 21.4793 75.5853 9.20542Z"/>
</defs>
</svg>
