<?xml version="1.0" encoding="UTF-8" standalone="no"?>
<svg width="616px" height="284px" viewBox="0 0 616 284" version="1.1" xmlns="http://www.w3.org/2000/svg" xmlns:xlink="http://www.w3.org/1999/xlink">
    <!-- Generator: Sketch 41.2 (35397) - http://www.bohemiancoding.com/sketch -->
    <title>logo</title>
    <desc>Created with Sketch.</desc>
    <defs>
        <polygon id="path-1" points="0.273191944 27.7956906 30.8404728 27.7956906 30.8404728 0.19995743 0.273191944 0.19995743"></polygon>
        <polygon id="path-3" points="0.290738901 27.7956906 30.8436197 27.7956906 30.8436197 0.19995743 0.290738901 0.19995743 0.290738901 27.7956906"></polygon>
    </defs>
    <g id="Page-1" stroke="none" stroke-width="1" fill="none" fill-rule="evenodd">
        <g id="mopconweb-before2017" transform="translate(-227.000000, -210.000000)">
            <g id="logo" transform="translate(151.000000, 200.000000)">
                <g transform="translate(277.000000, 76.000000)" fill="#FFFFFF">
                    <path d="M6.28865877,56.8696806 L9.14191972,57.2176806 C9.14191972,57.2176806 13.306882,74.0646092 31.5455649,81.9230173 C40.507378,85.7874153 48.9198385,85.1793031 55.784527,82.1618235 C51.2814334,84.1930071 46.1642008,85.3701704 40.9440201,85.3701704 L40.9369203,85.3701704 C36.4835257,85.3701704 32.0638556,84.8197622 27.7861829,83.1951704 C9.21646837,76.1188745 2.75736007,60.8823337 1.61871814,57.756548 L6.28865877,56.8696806 L6.28865877,56.8696806 L6.28865877,56.8696806 Z M27.4116646,84.4184969 C31.8073727,86.0945786 36.357503,86.905099 40.9369203,86.905099 L40.9440201,86.905099 C54.4799256,86.905099 67.4451788,79.0475786 71.0936254,68.588048 C72.4044392,64.8168643 72.8952179,61.9929153 72.8375314,56.0351908 C72.7683077,48.9074051 71.2427227,45.8721704 71.2427227,45.8721704 C71.2427227,45.8721704 73.0132532,57.7831806 66.7263168,66.2346092 C61.9676278,72.6291092 55.1712756,76.0878031 47.429753,76.0878031 C42.3151829,76.0878031 37.3665723,74.5120378 33.1110867,71.5451602 C22.4266672,64.0862418 23.0487935,52.6146704 23.0487935,52.6146704 L0.263530126,56.9389255 L0.42771466,57.4902214 C0.481851182,57.6757622 6.3143958,76.3772112 27.4116646,84.4184969 L27.4116646,84.4184969 L27.4116646,84.4184969 Z" id="Fill-1"></path>
                    <path d="M89.1800161,44.8771745 C97.6634754,62.8666439 91.5637981,78.5213173 90.2112725,81.5574398 L86.2246945,78.9563173 L84.4204396,76.7227255 C84.4204396,76.7227255 93.0955954,61.6974704 85.4011094,43.3884092 C78.8026661,27.6849092 63.9648217,22.947848 52.3290194,24.9692663 C54.1749861,24.513848 56.171825,24.2723786 58.2414376,24.2723786 C68.7989469,24.2723786 82.4653125,30.6420214 89.1800161,44.8771745 M65.4620072,24.089501 C65.3723713,24.0690827 65.2853979,24.0486643 65.195762,24.0317969 C64.6996584,23.9146133 64.2017799,23.8196235 63.7101138,23.7290724 C61.8011358,23.3890622 59.9533942,23.2177255 58.2414376,23.2177255 C54.3356207,23.2177255 50.7288859,24.1125827 47.6848159,25.5445316 C44.2271783,27.1717867 42.1087541,28.2406439 37.799132,32.691848 C33.4886223,37.1448276 31.8006278,41.8508173 31.8006278,41.8508173 C31.8006278,41.8508173 34.9343337,35.838052 41.6197504,32.6243786 C47.3679841,29.8572459 50.307331,29.9442459 53.4933984,29.907848 C64.8815927,29.7791235 74.8001135,38.2651745 77.0738474,49.7829092 C79.6085016,62.5585929 71.7959802,69.8719194 71.7161067,69.9438276 L71.2173407,70.4027969 L90.6328274,83.0879296 L90.8990726,82.5632663 C90.9913709,82.3954806 99.7623749,64.8632051 90.1331739,44.4297459 C84.4932133,32.4761235 74.7530768,26.4180827 65.9758604,24.2155622 C65.8036885,24.17295 65.637729,24.1285622 65.4620072,24.089501" id="Fill-3"></path>
                    <path d="M21.8456314,33.1577418 C23.3641165,23.609048 28.7014451,15.1895786 36.8600852,9.45379286 C46.7404442,2.50977245 56.6243531,1.05119082 63.1757597,1.05119082 C67.9619607,1.05119082 71.492372,1.81110918 72.8138356,2.1449051 L70.9208323,6.53929286 L69.0473536,8.69209898 C69.0473536,8.69209898 52.753148,2.71484388 36.04005,13.4264969 C21.7160588,22.6112112 19.5852098,38.0208643 23.5460507,49.1399969 C21.5687364,44.5955786 20.9235356,38.9095071 21.8456314,33.1577418 M33.0811784,61.8988133 C38.917273,65.9585173 43.6945992,66.5124765 43.6945992,66.5124765 C43.6945992,66.5124765 34.5854638,63.6539051 29.3564082,51.3744765 C24.804503,38.9512316 31.1313762,25.4049765 43.7567231,20.5320888 C46.7191445,19.3922112 49.709078,18.8142827 52.6439875,18.8142827 C57.5615362,18.8142827 61.2641193,20.4379867 63.1517977,21.4926398 C64.0250819,22.0057622 65.0740879,22.7319459 65.0740879,22.7319459 L65.4175442,21.9791296 L74.2382474,1.47731327 L73.6817949,1.30242551 C73.5158354,1.24738469 69.442284,8.87755102e-05 63.1757597,8.87755102e-05 C56.4734808,8.87755102e-05 46.3588261,1.49329286 36.258371,8.59888469 C27.8654352,14.4971296 22.3798968,23.1589561 20.8090502,32.9899561 C19.5630227,40.8075276 21.1019199,48.5265582 24.9260883,53.6462418 C27.3196325,56.8519255 28.2869901,58.5626296 33.0811784,61.8988133" id="Fill-5"></path>
                    <path d="M66.2562166,51.2224041 C66.2562166,47.2923122 64.5069857,43.7430673 61.8862455,41.2014245 C59.8184079,42.9653939 56.1939234,44.1310163 52.1345717,44.1310163 C48.0832074,44.1310163 44.4853474,42.9653939 42.4157348,41.2014245 C39.7914447,43.7430673 38.1948611,47.2923122 38.1948611,51.2224041 C38.1948611,55.8085469 39.2554044,59.8771286 43.8658836,62.4134449 L43.8658836,53.9531388 C43.8658836,52.4004551 45.8458603,51.1602612 47.3936324,51.1602612 C48.9449543,51.1602612 50.9870549,52.4004551 50.9870549,53.9531388 L50.9870549,64.907149 C50.9870549,65.0767102 51.645568,65.164598 52.5747638,65.164598 C53.4622477,65.164598 54.0586369,65.0793735 54.0586369,64.9231286 L54.0586369,53.9531388 C54.0586369,52.4004551 55.5842219,51.1504959 57.1355439,51.1504959 C58.6815409,51.1504959 60.7653533,52.4004551 60.7653533,53.9531388 L60.7653533,62.4942306 C63.8378228,59.9561388 66.2562166,55.8529347 66.2562166,51.2224041" id="Fill-7"></path>
                </g>
                <g id="logo-word" transform="translate(484.000000, 10.000000)">
                    <polygon id="Fill-1" fill="#FEFEFE" points="28.2257093 0.860167592 20.1355253 18.9143699 11.380323 0.860167592 0.000392727377 0.860167592 0.000392727377 1.34406265 1.00446572 1.34406265 4.46701209 3.54229182 4.46701209 20.7671446 1.00446572 27.0953017 0.0331200088 27.0953017 0.0331200088 27.5791967 9.42715886 27.5791967 9.42715886 27.0953017 8.50032225 27.0953017 5.04301225 20.7671446 5.04301225 4.22802546 5.10453953 4.22802546 16.301197 27.5791967 16.8418517 27.5791967 27.9586547 2.75693272 28.0228002 2.75693272 28.0228002 24.5244474 24.5969083 27.0953017 23.8245445 27.0953017 23.8245445 27.5791967 39.2770577 27.5791967 39.2770577 27.0953017 38.5112393 27.0953017 35.0814202 24.5244474 35.0814202 3.91750457 38.5400393 1.34406265 39.2770577 1.34406265 39.2770577 0.860167592"></polygon>
                    <g id="Group-14" transform="translate(42.911241, 0.091439)">
                        <g id="Group-4">
                            <mask id="mask-2" fill="white">
                                <use xlink:href="#path-1"></use>
                            </mask>
                            <g id="Clip-3"></g>
                            <path d="M22.7306524,17.6395872 C22.6455615,19.0537511 22.5355978,20.141868 22.3981433,20.9026442 C22.1808341,22.039927 21.892834,22.953376 21.5380703,23.6391096 C20.9908702,24.763454 20.2329063,25.6044481 19.2746515,26.1478597 C18.320324,26.6964466 17.1382146,26.9642709 15.7270142,26.9642709 C13.4753773,26.9642709 11.7997405,26.3872195 10.7053402,25.2072401 C9.74446718,24.2549761 9.09515792,22.8641012 8.74824874,21.0229711 C8.62126688,20.2725456 8.52701231,19.3358076 8.46417593,18.2192262 C8.39086682,17.1078201 8.35813954,16.1076841 8.35813954,15.2291687 C8.35813954,13.6118724 8.40526683,12.0735001 8.48773958,10.6101704 C8.58199415,9.15201605 8.69981236,7.99144421 8.84250331,7.11551652 C9.02839426,6.08303454 9.31770343,5.14888419 9.70257626,4.30918393 C10.2602491,3.1874272 11.0155948,2.36584067 11.9856314,1.83666131 C12.9491226,1.32430184 14.2163229,1.05906524 15.7885415,1.05906524 C17.5545056,1.05906524 18.9486878,1.44592252 19.9645426,2.21446173 C20.9817065,2.98947013 21.7174158,4.24837359 22.1769068,6.00669816 C22.6219979,7.77407958 22.8576343,10.1482706 22.8576343,13.1422095 C22.8576343,14.7232784 22.8118161,16.2189541 22.7306524,17.6395872 M27.8112356,5.82038562 C26.3319625,3.99995688 24.5149438,2.6077882 22.3497069,1.64258575 C20.1936336,0.678677142 17.832033,0.19995743 15.2779959,0.19995743 C13.3156681,0.19995743 11.4279585,0.575170177 9.61748533,1.30360044 C7.80439394,2.0423814 6.19813897,3.06580652 4.78693859,4.38681416 C3.38097459,5.6974711 2.27348338,7.20090976 1.48279226,8.89324864 C0.680319325,10.5778245 0.273191944,12.3296799 0.273191944,14.1384641 C0.273191944,16.5501764 0.970937584,18.8027467 2.35202886,20.9026442 C3.7383565,23.0154802 5.60250245,24.6858238 7.94708489,25.9240259 C10.2982128,27.1712848 12.8195225,27.7962081 15.5123233,27.7962081 C18.2561785,27.7962081 20.8089065,27.1712848 23.1639616,25.9240259 C25.5255623,24.6858238 27.3910173,23.0064233 28.7694904,20.8819428 C30.1492726,18.7600501 30.8404728,16.4389064 30.8404728,13.924981 C30.8404728,12.487528 30.5838909,11.0707764 30.0523998,9.67343239 C29.5339997,8.28255755 28.7891268,6.99389583 27.8112356,5.82038562" id="Fill-2" fill="#FEFEFE" mask="url(#mask-2)"></path>
                        </g>
                        <path d="M53.2264569,13.4712323 C52.7735113,14.0314638 52.1634748,14.4441978 51.3950382,14.7107282 C50.6331471,14.9811402 49.6788196,15.1131115 48.5425284,15.1131115 L45.3627457,15.1131115 L45.3627457,1.48383194 L49.3738013,1.48383194 C50.5218744,1.48383194 51.4801292,1.72189796 52.2642748,2.20967454 C53.0366387,2.68839425 53.6257297,3.41423684 54.0145298,4.38073312 C54.404639,5.33687871 54.6036209,6.53885334 54.6036209,7.98795085 C54.6036209,10.472118 54.1415117,12.3016036 53.2264569,13.4712323 M58.7626038,2.81777795 C58.2127855,2.41151312 57.5150398,2.05053258 56.6772214,1.73483633 C55.8341667,1.42172777 54.8955482,1.18754326 53.8522025,1.02710746 C52.8154022,0.852439459 51.8257292,0.769633887 50.8779472,0.769633887 L34.04827,0.769633887 L34.04827,1.25352895 L34.7198338,1.25352895 L38.2412893,3.82697086 L38.2412893,24.4326199 L34.8101611,27.0034741 L34.0809973,27.0034741 L34.0809973,27.488663 L49.6212196,27.488663 L49.6212196,27.0034741 L48.7886375,27.0034741 L45.3627457,24.3873356 L45.3627457,15.8195466 L49.9589651,15.8195466 C52.4842021,15.8195466 54.6232573,15.5452531 56.4036214,14.9811402 C58.17744,14.4209087 59.5205676,13.5837961 60.4395497,12.4930915 C61.3598409,11.3972115 61.8180228,10.0580901 61.8180228,8.50031032 C61.8180228,7.33585697 61.5470409,6.26067837 61.0103135,5.2734807 C60.4696588,4.28628302 59.7208586,3.47245951 58.7626038,2.81777795" id="Fill-5" fill="#FEFEFE"></path>
                        <path d="M91.7781471,20.2500328 C91.4495652,20.9034205 90.9953105,21.5995049 90.4363286,22.3240536 C89.7359647,23.2284457 88.9046918,24.0396816 87.960837,24.751292 C87.0078186,25.46549 86.0076728,25.9998447 84.9499271,26.3543561 C83.901345,26.7153366 82.8501447,26.8964738 81.8041808,26.8964738 C80.7961806,26.8964738 79.8627985,26.7153366 78.9974892,26.3672944 C78.1374162,26.0166646 77.3650524,25.505599 76.6882522,24.8418606 C76.0075247,24.171653 75.4171246,23.3332465 74.9183608,22.3240536 C74.6067971,21.6771351 74.3240334,20.8814253 74.0831606,19.947275 C73.8396696,19.0273568 73.6433059,17.9909933 73.4993059,16.8705304 C73.3592331,15.738423 73.2950877,14.6684197 73.2950877,13.6605207 C73.2950877,9.02987783 74.1669424,5.61156032 75.9237429,3.39262976 C76.4643976,2.70301461 77.1189432,2.17124758 77.8847616,1.79991634 C78.6414164,1.43634812 79.4281802,1.25262326 80.2385077,1.25262326 C81.8369081,1.25262326 83.5413449,1.76110123 85.3544363,2.76641262 C87.1662186,3.7885439 88.7109463,5.09661317 89.997783,6.69708961 C90.7701468,7.68946264 91.5922561,8.88108657 92.4484018,10.2564354 L92.8070928,10.2564354 L92.4235291,0.352112668 L92.077929,0.352112668 L91.7519653,0.617349265 C91.7297107,0.647107518 91.6354562,0.732500764 91.4692016,0.881292026 C90.5750922,1.67829566 89.8524739,2.25017164 89.2869464,2.59045078 C88.7227281,2.9436683 88.2580007,3.12221781 87.8770552,3.12221781 C87.4895642,3.12221781 86.9083276,2.86215657 86.1464365,2.33944639 C84.9944362,1.60584078 83.9222905,1.07148607 82.926072,0.768728201 C81.9324718,0.467264166 80.8210533,0.312003719 79.6022893,0.312003719 C75.8163974,0.312003719 72.568542,1.63948054 69.8325413,4.26985129 C66.7758132,7.20039223 65.2454855,10.521672 65.2454855,14.2129891 C65.2454855,17.1073026 66.1356676,19.6380479 67.9016317,21.8091065 C69.4398139,23.6825825 71.3379962,25.1433246 73.5935605,26.2068586 C75.8622156,27.2665112 78.1819253,27.7956906 80.5762532,27.7956906 C84.9459998,27.7956906 88.4006917,26.1279346 90.9494923,22.7807781 C91.5202561,22.0277649 91.9797472,21.3006285 92.3174927,20.5928996 C92.6578564,19.8825831 93.0152383,18.9471389 93.3922566,17.7723349 L92.8398201,17.5446195 C92.4641109,18.6935468 92.1106563,19.5940574 91.7781471,20.2500328" id="Fill-7" fill="#FEFEFE"></path>
                        <g id="Group-11" transform="translate(96.532646, 0.000000)">
                            <mask id="mask-4" fill="white">
                                <use xlink:href="#path-3"></use>
                            </mask>
                            <g id="Clip-10"></g>
                            <path d="M22.7377267,17.6395872 C22.6500176,19.0537511 22.5400539,20.141868 22.4052175,20.9026442 C22.1905265,22.039927 21.8985992,22.953376 21.5490718,23.6391096 C20.9953262,24.763454 20.2399806,25.6044481 19.2817258,26.1478597 C18.3287073,26.6964466 17.147907,26.9642709 15.7340884,26.9642709 C13.4889969,26.9642709 11.8146692,26.3872195 10.7124144,25.2072401 C9.75154141,24.2549761 9.09830487,22.8641012 8.75139569,21.0229711 C8.63619566,20.2725456 8.52885017,19.3358076 8.46339561,18.2192262 C8.40448651,17.1078201 8.36521377,16.1076841 8.36521377,15.2291687 C8.36521377,13.6118724 8.41103196,12.0735001 8.50135926,10.6101704 C8.58906837,9.15201605 8.70295931,7.99144421 8.84826844,7.11551652 C9.03677758,6.08303454 9.32477766,5.14888419 9.70703231,4.30918393 C10.2673234,3.1874272 11.0331417,2.36584067 11.9861602,1.83666131 C12.9535786,1.32430184 14.2233971,1.05906524 15.799543,1.05906524 C17.5602708,1.05906524 18.9531438,1.44592252 19.9755441,2.21446173 C20.9861626,2.98947013 21.7257991,4.24837359 22.1774356,6.00669816 C22.6369266,7.77407958 22.8620903,10.1482706 22.8620903,13.1422095 C22.8620903,14.7232784 22.8175812,16.2189541 22.7377267,17.6395872 M27.8222371,5.82038562 C26.3364185,3.99995688 24.5220181,2.6077882 22.3593993,1.64258575 C20.1993987,0.678677142 17.8430345,0.19995743 15.2772156,0.19995743 C13.3214333,0.19995743 11.4311055,0.575170177 9.62455956,1.30360044 C7.81932271,2.0423814 6.20259501,3.06580652 4.796631,4.38681416 C3.38543063,5.6974711 2.28055761,7.20090976 1.48724831,8.89324864 C0.684775369,10.5778245 0.290738901,12.3296799 0.290738901,14.1384641 C0.290738901,16.5501764 0.97801181,18.8027467 2.3564849,20.9026442 C3.74543073,23.0154802 5.61612213,24.6858238 7.96070457,25.9240259 C10.3079052,27.1712848 12.8226695,27.7962081 15.5207066,27.7962081 C18.2593255,27.7962081 20.8133625,27.1712848 23.1671086,25.9240259 C25.5326365,24.6858238 27.3954734,23.0064233 28.7726374,20.8819428 C30.158965,18.7600501 30.8436197,16.4389064 30.8436197,13.924981 C30.8436197,12.487528 30.5870378,11.0707764 30.0634013,9.67343239 C29.5397648,8.28255755 28.7922737,6.99389583 27.8222371,5.82038562" id="Fill-9" fill="#FEFEFE" mask="url(#mask-4)"></path>
                        </g>
                        <polygon id="Fill-12" fill="#FEFEFE" points="154.833146 0.769116353 154.833146 1.22584083 155.774382 1.22584083 159.282747 7.29393665 159.282747 16.9097337 157.256274 14.9806226 150.861363 8.8038445 144.471688 2.68140753 142.46747 0.769116353 130.745867 0.769116353 130.745867 1.22584083 131.698885 1.22584083 135.877504 5.21991584 135.877504 20.7757188 132.481722 27.0029566 131.556194 27.0029566 131.539176 27.4881455 140.980342 27.4881455 140.980342 27.0288333 139.997214 27.0288333 136.483614 20.6204584 136.483614 5.7840288 139.22616 8.40146117 147.804635 16.6069758 156.367401 24.8435425 159.10471 27.4881455 159.892783 27.4881455 159.892783 7.2188941 163.22573 1.22584083 164.177439 1.22584083 164.197075 0.769116353"></polygon>
                    </g>
                </g>
                <text id="2017" font-family=".SFNSDisplay-Regular, .SF NS Display" font-size="300" font-weight="normal" fill="#FFFFFF">
                    <tspan x="61.8662109" y="290">20</tspan>
                    <tspan x="413.575195" y="290" font-size="250">17</tspan>
                </text>
            </g>
        </g>
    </g>
</svg>