<?xml version="1.0" encoding="UTF-8" standalone="no"?>
<svg width="655px" height="241px" viewBox="0 0 655 241" version="1.1" xmlns="http://www.w3.org/2000/svg" xmlns:xlink="http://www.w3.org/1999/xlink">
    <!-- Generator: Sketch 41.2 (35397) - http://www.bohemiancoding.com/sketch -->
    <title>logo</title>
    <desc>Created with Sketch.</desc>
    <defs>
        <polygon id="path-1" points="0.273191944 27.7956906 30.8404728 27.7956906 30.8404728 0.19995743 0.273191944 0.19995743"></polygon>
        <polygon id="path-3" points="0.290738901 27.7956906 30.8436197 27.7956906 30.8436197 0.19995743 0.290738901 0.19995743 0.290738901 27.7956906"></polygon>
    </defs>
    <g id="Page-1" stroke="none" stroke-width="1" fill="none" fill-rule="evenodd">
        <g id="mopconweb-before2017" transform="translate(-188.000000, -202.000000)">
            <g id="logo" transform="translate(188.000000, 202.000000)">
                <g transform="translate(240.000000, 74.000000)" fill="#FFFFFF">
                    <path d="M6.28865877,56.8696806 L9.14191972,57.2176806 C9.14191972,57.2176806 13.306882,74.0646092 31.5455649,81.9230173 C40.507378,85.7874153 48.9198385,85.1793031 55.784527,82.1618235 C51.2814334,84.1930071 46.1642008,85.3701704 40.9440201,85.3701704 L40.9369203,85.3701704 C36.4835257,85.3701704 32.0638556,84.8197622 27.7861829,83.1951704 C9.21646837,76.1188745 2.75736007,60.8823337 1.61871814,57.756548 L6.28865877,56.8696806 L6.28865877,56.8696806 L6.28865877,56.8696806 Z M27.4116646,84.4184969 C31.8073727,86.0945786 36.357503,86.905099 40.9369203,86.905099 L40.9440201,86.905099 C54.4799256,86.905099 67.4451788,79.0475786 71.0936254,68.588048 C72.4044392,64.8168643 72.8952179,61.9929153 72.8375314,56.0351908 C72.7683077,48.9074051 71.2427227,45.8721704 71.2427227,45.8721704 C71.2427227,45.8721704 73.0132532,57.7831806 66.7263168,66.2346092 C61.9676278,72.6291092 55.1712756,76.0878031 47.429753,76.0878031 C42.3151829,76.0878031 37.3665723,74.5120378 33.1110867,71.5451602 C22.4266672,64.0862418 23.0487935,52.6146704 23.0487935,52.6146704 L0.263530126,56.9389255 L0.42771466,57.4902214 C0.481851182,57.6757622 6.3143958,76.3772112 27.4116646,84.4184969 L27.4116646,84.4184969 L27.4116646,84.4184969 Z" id="Fill-1"></path>
                    <path d="M89.1800161,44.8771745 C97.6634754,62.8666439 91.5637981,78.5213173 90.2112725,81.5574398 L86.2246945,78.9563173 L84.4204396,76.7227255 C84.4204396,76.7227255 93.0955954,61.6974704 85.4011094,43.3884092 C78.8026661,27.6849092 63.9648217,22.947848 52.3290194,24.9692663 C54.1749861,24.513848 56.171825,24.2723786 58.2414376,24.2723786 C68.7989469,24.2723786 82.4653125,30.6420214 89.1800161,44.8771745 M65.4620072,24.089501 C65.3723713,24.0690827 65.2853979,24.0486643 65.195762,24.0317969 C64.6996584,23.9146133 64.2017799,23.8196235 63.7101138,23.7290724 C61.8011358,23.3890622 59.9533942,23.2177255 58.2414376,23.2177255 C54.3356207,23.2177255 50.7288859,24.1125827 47.6848159,25.5445316 C44.2271783,27.1717867 42.1087541,28.2406439 37.799132,32.691848 C33.4886223,37.1448276 31.8006278,41.8508173 31.8006278,41.8508173 C31.8006278,41.8508173 34.9343337,35.838052 41.6197504,32.6243786 C47.3679841,29.8572459 50.307331,29.9442459 53.4933984,29.907848 C64.8815927,29.7791235 74.8001135,38.2651745 77.0738474,49.7829092 C79.6085016,62.5585929 71.7959802,69.8719194 71.7161067,69.9438276 L71.2173407,70.4027969 L90.6328274,83.0879296 L90.8990726,82.5632663 C90.9913709,82.3954806 99.7623749,64.8632051 90.1331739,44.4297459 C84.4932133,32.4761235 74.7530768,26.4180827 65.9758604,24.2155622 C65.8036885,24.17295 65.637729,24.1285622 65.4620072,24.089501" id="Fill-3"></path>
                    <path d="M21.8456314,33.1577418 C23.3641165,23.609048 28.7014451,15.1895786 36.8600852,9.45379286 C46.7404442,2.50977245 56.6243531,1.05119082 63.1757597,1.05119082 C67.9619607,1.05119082 71.492372,1.81110918 72.8138356,2.1449051 L70.9208323,6.53929286 L69.0473536,8.69209898 C69.0473536,8.69209898 52.753148,2.71484388 36.04005,13.4264969 C21.7160588,22.6112112 19.5852098,38.0208643 23.5460507,49.1399969 C21.5687364,44.5955786 20.9235356,38.9095071 21.8456314,33.1577418 M33.0811784,61.8988133 C38.917273,65.9585173 43.6945992,66.5124765 43.6945992,66.5124765 C43.6945992,66.5124765 34.5854638,63.6539051 29.3564082,51.3744765 C24.804503,38.9512316 31.1313762,25.4049765 43.7567231,20.5320888 C46.7191445,19.3922112 49.709078,18.8142827 52.6439875,18.8142827 C57.5615362,18.8142827 61.2641193,20.4379867 63.1517977,21.4926398 C64.0250819,22.0057622 65.0740879,22.7319459 65.0740879,22.7319459 L65.4175442,21.9791296 L74.2382474,1.47731327 L73.6817949,1.30242551 C73.5158354,1.24738469 69.442284,8.87755102e-05 63.1757597,8.87755102e-05 C56.4734808,8.87755102e-05 46.3588261,1.49329286 36.258371,8.59888469 C27.8654352,14.4971296 22.3798968,23.1589561 20.8090502,32.9899561 C19.5630227,40.8075276 21.1019199,48.5265582 24.9260883,53.6462418 C27.3196325,56.8519255 28.2869901,58.5626296 33.0811784,61.8988133" id="Fill-5"></path>
                    <path d="M66.2562166,51.2224041 C66.2562166,47.2923122 64.5069857,43.7430673 61.8862455,41.2014245 C59.8184079,42.9653939 56.1939234,44.1310163 52.1345717,44.1310163 C48.0832074,44.1310163 44.4853474,42.9653939 42.4157348,41.2014245 C39.7914447,43.7430673 38.1948611,47.2923122 38.1948611,51.2224041 C38.1948611,55.8085469 39.2554044,59.8771286 43.8658836,62.4134449 L43.8658836,53.9531388 C43.8658836,52.4004551 45.8458603,51.1602612 47.3936324,51.1602612 C48.9449543,51.1602612 50.9870549,52.4004551 50.9870549,53.9531388 L50.9870549,64.907149 C50.9870549,65.0767102 51.645568,65.164598 52.5747638,65.164598 C53.4622477,65.164598 54.0586369,65.0793735 54.0586369,64.9231286 L54.0586369,53.9531388 C54.0586369,52.4004551 55.5842219,51.1504959 57.1355439,51.1504959 C58.6815409,51.1504959 60.7653533,52.4004551 60.7653533,53.9531388 L60.7653533,62.4942306 C63.8378228,59.9561388 66.2562166,55.8529347 66.2562166,51.2224041" id="Fill-7"></path>
                </g>
                <g id="logo-word" transform="translate(447.000000, 8.000000)">
                    <polygon id="Fill-1" fill="#FEFEFE" points="28.2257093 0.860167592 20.1355253 18.9143699 11.380323 0.860167592 0.000392727377 0.860167592 0.000392727377 1.34406265 1.00446572 1.34406265 4.46701209 3.54229182 4.46701209 20.7671446 1.00446572 27.0953017 0.0331200088 27.0953017 0.0331200088 27.5791967 9.42715886 27.5791967 9.42715886 27.0953017 8.50032225 27.0953017 5.04301225 20.7671446 5.04301225 4.22802546 5.10453953 4.22802546 16.301197 27.5791967 16.8418517 27.5791967 27.9586547 2.75693272 28.0228002 2.75693272 28.0228002 24.5244474 24.5969083 27.0953017 23.8245445 27.0953017 23.8245445 27.5791967 39.2770577 27.5791967 39.2770577 27.0953017 38.5112393 27.0953017 35.0814202 24.5244474 35.0814202 3.91750457 38.5400393 1.34406265 39.2770577 1.34406265 39.2770577 0.860167592"></polygon>
                    <g id="Group-14" transform="translate(42.911241, 0.091439)">
                        <g id="Group-4">
                            <mask id="mask-2" fill="white">
                                <use xlink:href="#path-1"></use>
                            </mask>
                            <g id="Clip-3"></g>
                            <path d="M22.7306524,17.6395872 C22.6455615,19.0537511 22.5355978,20.141868 22.3981433,20.9026442 C22.1808341,22.039927 21.892834,22.953376 21.5380703,23.6391096 C20.9908702,24.763454 20.2329063,25.6044481 19.2746515,26.1478597 C18.320324,26.6964466 17.1382146,26.9642709 15.7270142,26.9642709 C13.4753773,26.9642709 11.7997405,26.3872195 10.7053402,25.2072401 C9.74446718,24.2549761 9.09515792,22.8641012 8.74824874,21.0229711 C8.62126688,20.2725456 8.52701231,19.3358076 8.46417593,18.2192262 C8.39086682,17.1078201 8.35813954,16.1076841 8.35813954,15.2291687 C8.35813954,13.6118724 8.40526683,12.0735001 8.48773958,10.6101704 C8.58199415,9.15201605 8.69981236,7.99144421 8.84250331,7.11551652 C9.02839426,6.08303454 9.31770343,5.14888419 9.70257626,4.30918393 C10.2602491,3.1874272 11.0155948,2.36584067 11.9856314,1.83666131 C12.9491226,1.32430184 14.2163229,1.05906524 15.7885415,1.05906524 C17.5545056,1.05906524 18.9486878,1.44592252 19.9645426,2.21446173 C20.9817065,2.98947013 21.7174158,4.24837359 22.1769068,6.00669816 C22.6219979,7.77407958 22.8576343,10.1482706 22.8576343,13.1422095 C22.8576343,14.7232784 22.8118161,16.2189541 22.7306524,17.6395872 M27.8112356,5.82038562 C26.3319625,3.99995688 24.5149438,2.6077882 22.3497069,1.64258575 C20.1936336,0.678677142 17.832033,0.19995743 15.2779959,0.19995743 C13.3156681,0.19995743 11.4279585,0.575170177 9.61748533,1.30360044 C7.80439394,2.0423814 6.19813897,3.06580652 4.78693859,4.38681416 C3.38097459,5.6974711 2.27348338,7.20090976 1.48279226,8.89324864 C0.680319325,10.5778245 0.273191944,12.3296799 0.273191944,14.1384641 C0.273191944,16.5501764 0.970937584,18.8027467 2.35202886,20.9026442 C3.7383565,23.0154802 5.60250245,24.6858238 7.94708489,25.9240259 C10.2982128,27.1712848 12.8195225,27.7962081 15.5123233,27.7962081 C18.2561785,27.7962081 20.8089065,27.1712848 23.1639616,25.9240259 C25.5255623,24.6858238 27.3910173,23.0064233 28.7694904,20.8819428 C30.1492726,18.7600501 30.8404728,16.4389064 30.8404728,13.924981 C30.8404728,12.487528 30.5838909,11.0707764 30.0523998,9.67343239 C29.5339997,8.28255755 28.7891268,6.99389583 27.8112356,5.82038562" id="Fill-2" fill="#FEFEFE" mask="url(#mask-2)"></path>
                        </g>
                        <path d="M53.2264569,13.4712323 C52.7735113,14.0314638 52.1634748,14.4441978 51.3950382,14.7107282 C50.6331471,14.9811402 49.6788196,15.1131115 48.5425284,15.1131115 L45.3627457,15.1131115 L45.3627457,1.48383194 L49.3738013,1.48383194 C50.5218744,1.48383194 51.4801292,1.72189796 52.2642748,2.20967454 C53.0366387,2.68839425 53.6257297,3.41423684 54.0145298,4.38073312 C54.404639,5.33687871 54.6036209,6.53885334 54.6036209,7.98795085 C54.6036209,10.472118 54.1415117,12.3016036 53.2264569,13.4712323 M58.7626038,2.81777795 C58.2127855,2.41151312 57.5150398,2.05053258 56.6772214,1.73483633 C55.8341667,1.42172777 54.8955482,1.18754326 53.8522025,1.02710746 C52.8154022,0.852439459 51.8257292,0.769633887 50.8779472,0.769633887 L34.04827,0.769633887 L34.04827,1.25352895 L34.7198338,1.25352895 L38.2412893,3.82697086 L38.2412893,24.4326199 L34.8101611,27.0034741 L34.0809973,27.0034741 L34.0809973,27.488663 L49.6212196,27.488663 L49.6212196,27.0034741 L48.7886375,27.0034741 L45.3627457,24.3873356 L45.3627457,15.8195466 L49.9589651,15.8195466 C52.4842021,15.8195466 54.6232573,15.5452531 56.4036214,14.9811402 C58.17744,14.4209087 59.5205676,13.5837961 60.4395497,12.4930915 C61.3598409,11.3972115 61.8180228,10.0580901 61.8180228,8.50031032 C61.8180228,7.33585697 61.5470409,6.26067837 61.0103135,5.2734807 C60.4696588,4.28628302 59.7208586,3.47245951 58.7626038,2.81777795" id="Fill-5" fill="#FEFEFE"></path>
                        <path d="M91.7781471,20.2500328 C91.4495652,20.9034205 90.9953105,21.5995049 90.4363286,22.3240536 C89.7359647,23.2284457 88.9046918,24.0396816 87.960837,24.751292 C87.0078186,25.46549 86.0076728,25.9998447 84.9499271,26.3543561 C83.901345,26.7153366 82.8501447,26.8964738 81.8041808,26.8964738 C80.7961806,26.8964738 79.8627985,26.7153366 78.9974892,26.3672944 C78.1374162,26.0166646 77.3650524,25.505599 76.6882522,24.8418606 C76.0075247,24.171653 75.4171246,23.3332465 74.9183608,22.3240536 C74.6067971,21.6771351 74.3240334,20.8814253 74.0831606,19.947275 C73.8396696,19.0273568 73.6433059,17.9909933 73.4993059,16.8705304 C73.3592331,15.738423 73.2950877,14.6684197 73.2950877,13.6605207 C73.2950877,9.02987783 74.1669424,5.61156032 75.9237429,3.39262976 C76.4643976,2.70301461 77.1189432,2.17124758 77.8847616,1.79991634 C78.6414164,1.43634812 79.4281802,1.25262326 80.2385077,1.25262326 C81.8369081,1.25262326 83.5413449,1.76110123 85.3544363,2.76641262 C87.1662186,3.7885439 88.7109463,5.09661317 89.997783,6.69708961 C90.7701468,7.68946264 91.5922561,8.88108657 92.4484018,10.2564354 L92.8070928,10.2564354 L92.4235291,0.352112668 L92.077929,0.352112668 L91.7519653,0.617349265 C91.7297107,0.647107518 91.6354562,0.732500764 91.4692016,0.881292026 C90.5750922,1.67829566 89.8524739,2.25017164 89.2869464,2.59045078 C88.7227281,2.9436683 88.2580007,3.12221781 87.8770552,3.12221781 C87.4895642,3.12221781 86.9083276,2.86215657 86.1464365,2.33944639 C84.9944362,1.60584078 83.9222905,1.07148607 82.926072,0.768728201 C81.9324718,0.467264166 80.8210533,0.312003719 79.6022893,0.312003719 C75.8163974,0.312003719 72.568542,1.63948054 69.8325413,4.26985129 C66.7758132,7.20039223 65.2454855,10.521672 65.2454855,14.2129891 C65.2454855,17.1073026 66.1356676,19.6380479 67.9016317,21.8091065 C69.4398139,23.6825825 71.3379962,25.1433246 73.5935605,26.2068586 C75.8622156,27.2665112 78.1819253,27.7956906 80.5762532,27.7956906 C84.9459998,27.7956906 88.4006917,26.1279346 90.9494923,22.7807781 C91.5202561,22.0277649 91.9797472,21.3006285 92.3174927,20.5928996 C92.6578564,19.8825831 93.0152383,18.9471389 93.3922566,17.7723349 L92.8398201,17.5446195 C92.4641109,18.6935468 92.1106563,19.5940574 91.7781471,20.2500328" id="Fill-7" fill="#FEFEFE"></path>
                        <g id="Group-11" transform="translate(96.532646, 0.000000)">
                            <mask id="mask-4" fill="white">
                                <use xlink:href="#path-3"></use>
                            </mask>
                            <g id="Clip-10"></g>
                            <path d="M22.7377267,17.6395872 C22.6500176,19.0537511 22.5400539,20.141868 22.4052175,20.9026442 C22.1905265,22.039927 21.8985992,22.953376 21.5490718,23.6391096 C20.9953262,24.763454 20.2399806,25.6044481 19.2817258,26.1478597 C18.3287073,26.6964466 17.147907,26.9642709 15.7340884,26.9642709 C13.4889969,26.9642709 11.8146692,26.3872195 10.7124144,25.2072401 C9.75154141,24.2549761 9.09830487,22.8641012 8.75139569,21.0229711 C8.63619566,20.2725456 8.52885017,19.3358076 8.46339561,18.2192262 C8.40448651,17.1078201 8.36521377,16.1076841 8.36521377,15.2291687 C8.36521377,13.6118724 8.41103196,12.0735001 8.50135926,10.6101704 C8.58906837,9.15201605 8.70295931,7.99144421 8.84826844,7.11551652 C9.03677758,6.08303454 9.32477766,5.14888419 9.70703231,4.30918393 C10.2673234,3.1874272 11.0331417,2.36584067 11.9861602,1.83666131 C12.9535786,1.32430184 14.2233971,1.05906524 15.799543,1.05906524 C17.5602708,1.05906524 18.9531438,1.44592252 19.9755441,2.21446173 C20.9861626,2.98947013 21.7257991,4.24837359 22.1774356,6.00669816 C22.6369266,7.77407958 22.8620903,10.1482706 22.8620903,13.1422095 C22.8620903,14.7232784 22.8175812,16.2189541 22.7377267,17.6395872 M27.8222371,5.82038562 C26.3364185,3.99995688 24.5220181,2.6077882 22.3593993,1.64258575 C20.1993987,0.678677142 17.8430345,0.19995743 15.2772156,0.19995743 C13.3214333,0.19995743 11.4311055,0.575170177 9.62455956,1.30360044 C7.81932271,2.0423814 6.20259501,3.06580652 4.796631,4.38681416 C3.38543063,5.6974711 2.28055761,7.20090976 1.48724831,8.89324864 C0.684775369,10.5778245 0.290738901,12.3296799 0.290738901,14.1384641 C0.290738901,16.5501764 0.97801181,18.8027467 2.3564849,20.9026442 C3.74543073,23.0154802 5.61612213,24.6858238 7.96070457,25.9240259 C10.3079052,27.1712848 12.8226695,27.7962081 15.5207066,27.7962081 C18.2593255,27.7962081 20.8133625,27.1712848 23.1671086,25.9240259 C25.5326365,24.6858238 27.3954734,23.0064233 28.7726374,20.8819428 C30.158965,18.7600501 30.8436197,16.4389064 30.8436197,13.924981 C30.8436197,12.487528 30.5870378,11.0707764 30.0634013,9.67343239 C29.5397648,8.28255755 28.7922737,6.99389583 27.8222371,5.82038562" id="Fill-9" fill="#FEFEFE" mask="url(#mask-4)"></path>
                        </g>
                        <polygon id="Fill-12" fill="#FEFEFE" points="154.833146 0.769116353 154.833146 1.22584083 155.774382 1.22584083 159.282747 7.29393665 159.282747 16.9097337 157.256274 14.9806226 150.861363 8.8038445 144.471688 2.68140753 142.46747 0.769116353 130.745867 0.769116353 130.745867 1.22584083 131.698885 1.22584083 135.877504 5.21991584 135.877504 20.7757188 132.481722 27.0029566 131.556194 27.0029566 131.539176 27.4881455 140.980342 27.4881455 140.980342 27.0288333 139.997214 27.0288333 136.483614 20.6204584 136.483614 5.7840288 139.22616 8.40146117 147.804635 16.6069758 156.367401 24.8435425 159.10471 27.4881455 159.892783 27.4881455 159.892783 7.2188941 163.22573 1.22584083 164.177439 1.22584083 164.197075 0.769116353"></polygon>
                    </g>
                </g>
                <path d="M1.47753906,74.7714844 C1.5751958,64.5175269 3.55271509,54.9228962 7.41015625,45.9873047 C11.2675974,37.0517131 16.6142236,29.2148774 23.4501953,22.4765625 C30.286167,15.7382476 38.1474165,10.4160352 47.0341797,6.50976562 C55.9209429,2.60349609 65.442332,0.552735352 75.5986328,0.357421875 C85.9502471,0.357421875 95.7401882,2.18845825 104.96875,5.85058594 C114.197312,9.51271362 122.327113,14.566374 129.358398,21.0117188 C136.389684,27.4570635 142.004862,35.1230024 146.204102,44.0097656 C150.403341,52.8965288 152.551757,62.417918 152.649414,72.5742188 C152.649414,80.7773848 152.063482,87.7597368 150.891602,93.5214844 C149.719721,99.2832319 147.424822,105.093721 144.006836,110.953125 L109.290039,171.011719 L152.649414,171.011719 L152.649414,173.941406 L105.041992,173.941406 L141.956055,109.488281 C145.178727,103.82419 147.424798,98.2578398 148.694336,92.7890625 C149.963874,87.3202852 150.598633,80.8750371 150.598633,73.453125 C150.305663,60.5624355 146.741245,48.6484922 139.905273,37.7109375 C133.069302,26.7733828 124.036189,18.1553049 112.805664,11.8564453 C101.575139,5.55758569 89.36823,2.40820312 76.1845703,2.40820312 C63.2938809,2.50585986 51.2822822,5.82613916 40.1494141,12.3691406 C29.0165459,18.9121421 20.1787437,27.7255305 13.6357422,38.8095703 C7.09274072,49.8936101 3.77246143,61.8807949 3.67480469,74.7714844 C3.67480469,85.4160688 5.92087598,95.4501482 10.4130859,104.874023 C14.9052959,114.297899 20.935509,122.403286 28.5039062,129.19043 C36.0723035,135.977573 44.202105,140.835923 52.8935547,143.765625 L55.8232422,138.345703 C47.7177329,135.611314 40.2715183,131.241241 33.484375,125.235352 C26.6972317,119.229462 21.2041226,111.954144 17.0048828,103.40918 C12.8056431,94.8642151 10.6572271,85.7090332 10.5595703,75.9433594 C10.5595703,64.0292373 13.5136423,52.9453638 19.421875,42.6914062 C25.3301077,32.4374487 33.3866677,24.2588196 43.5917969,18.1552734 C53.796926,12.0517273 64.8563857,9 76.7705078,9 C88.5869731,9 99.6464329,11.9296582 109.949219,17.7890625 C120.252005,23.6484668 128.455048,31.6317854 134.558594,41.7392578 C140.66214,51.8467302 143.713867,62.9550176 143.713867,75.0644531 C143.713867,81.6074546 143.103522,87.3691157 141.882812,92.3496094 C140.662103,97.330103 138.586929,102.35935 135.657227,107.4375 L93.0302734,180.533203 L152.649414,180.240234 L152.649414,183.609375 L87.6103516,183.609375 L132.581055,105.972656 C135.608414,100.894506 137.683588,95.8896731 138.806641,90.9580078 C139.929693,86.0263425 140.491211,80.2890952 140.491211,73.7460938 C140.393554,65.1523008 138.660173,57.1201545 135.291016,49.6494141 C131.921858,42.1786736 127.258819,35.5869426 121.301758,29.8740234 C115.344697,24.1611042 108.557655,19.7422031 100.94043,16.6171875 C93.3232041,13.4921719 85.266644,11.9296875 76.7705078,11.9296875 C65.5399829,11.9296875 55.042041,14.7861042 45.2763672,20.4990234 C35.5106934,26.2119426 27.7715129,33.9267092 22.0585938,43.6435547 C16.3456746,53.3604001 13.4892578,64.0292388 13.4892578,75.6503906 C13.5869146,89.5176475 17.8593328,101.895453 26.3066406,112.78418 C34.7539485,123.672906 45.3739595,131.070293 58.1669922,134.976562 L60.3642578,130.435547 C52.454062,127.994128 45.4472961,124.185573 39.34375,119.009766 C33.2402039,113.833958 28.4062678,107.51078 24.8417969,100.040039 C21.2773259,92.5692986 19.4951172,84.4394971 19.4951172,75.6503906 C19.4951172,67.7401948 20.9843601,60.2695664 23.9628906,53.2382812 C26.9414211,46.2069961 31.0917703,40.0303 36.4140625,34.7080078 C41.7363547,29.3857156 47.8642231,25.2109526 54.7978516,22.1835938 C61.73148,19.1562349 69.1532808,17.6425781 77.0634766,17.6425781 C84.9736724,17.6425781 92.4687146,19.1562349 99.5488281,22.1835938 C106.628942,25.2109526 112.781224,29.3368879 118.005859,34.5615234 C123.230495,39.7861589 127.380844,45.9384412 130.457031,53.0185547 C133.533219,60.0986682 135.071289,67.6425381 135.071289,75.6503906 C135.071289,81.2168247 134.607427,85.9531055 133.679688,89.859375 C132.751948,93.7656445 130.920912,98.1113042 128.186523,102.896484 L77.6494141,189.322266 L152.649414,189.322266 L152.649414,193.130859 L70.4716797,193.130859 L125.110352,99.9667969 C127.356457,96.2558408 128.870113,92.4472852 129.651367,88.5410156 C130.432621,84.6347461 130.823242,79.8984653 130.823242,74.3320312 C130.725585,64.8593276 128.235376,56.0947668 123.352539,48.0380859 C118.469702,39.981405 111.902385,33.5605708 103.650391,28.7753906 C95.3983962,23.9902104 86.5361802,21.5976562 77.0634766,21.5976562 C67.4931162,21.5976562 58.5576587,24.0146243 50.2568359,28.8486328 C41.9560132,33.6826414 35.3642822,40.2499585 30.4814453,48.5507812 C25.5986084,56.851604 23.1572266,65.7870615 23.1572266,75.3574219 C23.1572266,87.7598276 26.9169546,98.6483906 34.4365234,108.023438 C41.9560923,117.398484 51.2821709,123.599594 62.4150391,126.626953 L64.7587891,122.085938 C58.2157876,120.425773 52.1367468,117.325218 46.5214844,112.78418 C40.9062219,108.243141 36.4140793,102.603549 33.0449219,95.8652344 C29.6757644,89.1269194 27.9912109,82.0957397 27.9912109,74.7714844 C28.0888677,68.2284829 29.4560415,62.027373 32.0927734,56.1679688 C34.7295054,50.3085645 38.3671643,45.1572488 43.0058594,40.7138672 C47.6445544,36.2704856 52.8935254,32.8769648 58.7529297,30.5332031 C64.612334,28.1894414 70.8134438,27.0175781 77.3564453,27.0175781 C86.047895,27.0175781 94.1776965,29.1415803 101.746094,33.3896484 C109.314491,37.6377166 115.344704,43.497033 119.836914,50.9677734 C124.329124,58.4385139 126.575195,66.4706602 126.575195,75.0644531 C126.575195,79.94729 126.086919,84.122053 125.110352,87.5888672 C124.133784,91.0556814 122.522472,94.742168 120.276367,98.6484375 L62.4150391,197.964844 L152.649414,197.964844 L152.649414,202.212891 L55.2373047,202.212891 L117.34668,94.8398438 C119.104501,91.7148281 120.227537,88.8339976 120.71582,86.1972656 C121.204104,83.5605337 121.448242,79.8496333 121.448242,75.0644531 C121.350585,67.2519141 119.324239,60.00101 115.369141,53.3115234 C111.414043,46.6220369 106.09183,41.2998245 99.4023438,37.3447266 C92.7128572,33.3896287 85.4619531,31.3632817 77.6494141,31.265625 C69.6415615,31.265625 62.1953469,33.1699028 55.3105469,36.9785156 C48.4257468,40.7871284 42.9082239,46.0360994 38.7578125,52.7255859 C34.6074011,59.4150725 32.4833989,66.7636318 32.3857422,74.7714844 C32.3857422,85.0254419 35.7548491,94.3026929 42.4931641,102.603516 C49.231479,110.904338 57.2880391,116.226551 66.6630859,118.570313 L68.7138672,114.615234 C60.1200742,112.759756 52.6738596,108.121131 46.375,100.699219 C40.0761404,93.2773066 36.9267578,84.8301255 36.9267578,75.3574219 C36.9267578,68.1308232 38.7577942,61.4658508 42.4199219,55.3623047 C46.0820496,49.2587585 51.0380547,44.4004087 57.2880859,40.7871094 C63.5381172,37.1738101 70.1298481,35.3671875 77.0634766,35.3671875 C88.1963447,35.3671875 97.7665615,39.2489846 105.774414,47.0126953 C113.782267,54.776406 117.83496,64.1268984 117.932617,75.0644531 C117.932617,82.2910518 116.516616,88.3456787 113.68457,93.2285156 L47.1806641,206.753906 L152.649414,206.753906 L152.649414,212.027344 L37.8056641,212.466797 L108.850586,91.7636719 C110.315437,89.2245967 111.243162,86.758801 111.633789,84.3662109 C112.024416,81.9736208 112.219727,78.7754106 112.219727,74.7714844 C112.12207,68.4237964 110.46193,62.5888938 107.239258,57.2666016 C104.016585,51.9443093 99.7929949,47.7695464 94.5683594,44.7421875 C89.3437239,41.7148286 83.5088213,40.2011719 77.0634766,40.2011719 C70.8134453,40.2011719 65.0273704,41.8124839 59.7050781,45.0351562 C54.3827859,48.2578286 50.1591953,52.6279021 47.0341797,58.1455078 C43.9091641,63.6631135 42.3466797,69.4980161 42.3466797,75.6503906 C42.3466797,84.1465269 45.1786826,91.6659829 50.8427734,98.2089844 C56.5068643,104.751986 63.4892163,108.609369 71.7900391,109.78125 L73.8408203,106.558594 C66.5165649,105.679683 60.0224893,102.139679 54.3583984,95.9384766 C48.6943076,89.7372737 45.8623047,82.7793354 45.8623047,75.0644531 C45.9599614,69.4003623 47.4736182,64.200219 50.4033203,59.4638672 C53.3330225,54.7275154 57.1415781,50.9922012 61.8291016,48.2578125 C66.516625,45.5234238 71.6923545,44.15625 77.3564453,44.15625 C82.8252227,44.15625 87.9521245,45.49901 92.7373047,48.1845703 C97.5224849,50.8701306 101.379868,54.6054448 104.30957,59.390625 C107.239272,64.1758052 108.752929,69.302707 108.850586,74.7714844 C108.850586,80.6308887 107.678723,85.6113076 105.334961,89.7128906 L32.0927734,215.396484 L152.649414,215.689453 L152.649414,222.28125 L20.3740234,222.28125 L99.6220703,86.0507812 C101.379892,83.0234224 102.258789,79.4590049 102.258789,75.3574219 C102.258789,68.5214502 99.7685796,62.7109614 94.7880859,57.9257812 C89.8075923,53.1406011 83.8994482,50.7480469 77.0634766,50.7480469 C70.3251616,50.7480469 64.490259,53.1161873 59.5585938,57.8525391 C54.6269285,62.5888909 52.1611328,68.4237935 52.1611328,75.3574219 C52.1611328,79.8496318 53.3574099,83.999981 55.75,87.8085938 C58.1425901,91.6172065 61.3163865,94.5956924 65.2714844,96.7441406 C69.2265823,98.8925889 73.4990005,99.9667969 78.0888672,99.9667969 L79.2607422,96.5976562 C72.7177407,96.5976562 67.175804,94.4492402 62.6347656,90.1523438 C58.0937273,85.8554473 55.8232422,80.8262007 55.8232422,75.0644531 C55.8232422,69.4003623 57.8740029,64.468771 61.9755859,60.2695312 C66.0771689,56.0702915 71.1064155,53.9707031 77.0634766,53.9707031 C80.9697461,53.9707031 84.5585774,54.8984282 87.8300781,56.7539062 C91.1015789,58.6093843 93.6894436,61.0995937 95.59375,64.2246094 C97.4980564,67.349625 98.5478506,70.8652148 98.7431641,74.7714844 C98.7431641,78.6777539 98.0595771,81.753895 96.6923828,84 L14.3681641,225.943359 L152.649414,225.943359 L152.649414,234 L0.598632812,234 L51.2822266,146.109375 C44.3485981,143.5703 37.9033501,140.05471 31.9462891,135.5625 C25.989228,131.07029 20.7402571,125.69925 16.1992188,119.449219 C11.6581804,113.199188 8.06934912,106.216835 5.43261719,98.5019531 C2.79588525,90.7870708 1.47753906,82.8769937 1.47753906,74.7714844 Z M78.0888672,88.5410156 C81.7021665,88.4433589 84.6562385,87.0517712 86.9511719,84.3662109 C89.2461052,81.6806506 90.3935547,78.5800957 90.3935547,75.0644531 C90.3935547,71.5488105 89.1728638,68.4970833 86.7314453,65.9091797 C84.2900269,63.3212761 81.2627134,62.0273438 77.6494141,62.0273438 C74.1337715,62.0273438 71.0576304,63.2236208 68.4208984,65.6162109 C65.7841665,68.008801 64.368165,71.0605283 64.1728516,74.7714844 C64.1728516,78.4824404 65.5400254,81.7050645 68.2744141,84.4394531 C71.0088027,87.1738418 74.2802544,88.5410156 78.0888672,88.5410156 Z M169.788086,120.035156 C169.885743,103.824138 172.986298,88.5410874 179.089844,74.1855469 C185.19339,59.8300063 193.738226,47.1592346 204.724609,36.1728516 C215.710992,25.1864685 228.381764,16.5928044 242.737305,10.3916016 C257.092845,4.19039868 272.375896,1.04101611 288.586914,0.943359375 C305.18856,0.943359375 320.837817,3.99508667 335.535156,10.0986328 C350.232495,16.202179 363.171819,24.7226016 374.353516,35.6601562 C385.535212,46.5977109 394.299773,59.2440688 400.647461,73.5996094 C406.995149,87.9551499 410.168945,103.140545 410.168945,119.15625 C410.168945,140.933703 404.822319,161.075103 394.128906,179.581055 C383.435493,198.087007 368.909271,212.808539 350.549805,223.746094 C332.190338,234.683648 312.463973,240.201171 291.370117,240.298828 C269.690321,240.298828 249.548921,234.903374 230.945312,224.112305 C212.341704,213.321235 197.498102,198.64853 186.414062,180.09375 C175.330023,161.53897 169.788086,141.519639 169.788086,120.035156 Z M229.84668,120.035156 C229.944336,109.292915 232.629856,99.4053186 237.90332,90.3720703 C243.176784,81.338822 250.354447,74.087918 259.436523,68.6191406 C268.5186,63.1503633 278.332955,60.367188 288.879883,60.2695312 C299.817437,60.2695312 309.973586,62.9306375 319.348633,68.2529297 C328.72368,73.5752219 336.169894,80.7772983 341.6875,89.859375 C347.205106,98.9414517 350.012695,108.90229 350.110352,119.742188 C350.110352,130.484429 347.424832,140.542922 342.053711,149.917969 C336.68259,159.293016 329.480514,166.714816 320.447266,172.183594 C311.414017,177.652371 301.477593,180.435546 290.637695,180.533203 C282.532186,180.533203 274.817419,178.970719 267.493164,175.845703 C260.168909,172.720687 253.601592,168.252959 247.791016,162.442383 C241.98044,156.631807 237.537125,150.113317 234.460938,142.886719 C231.38475,135.66012 229.84668,128.043009 229.84668,120.035156 Z M290.637695,177.896484 C298.645548,177.701171 306.091762,176.065445 312.976562,172.989258 C319.861363,169.913071 325.940403,165.68948 331.213867,160.318359 C336.487331,154.947239 340.564439,148.770543 343.445312,141.788086 C346.326186,134.805629 347.766602,127.45707 347.766602,119.742188 C347.766602,112.027305 346.228531,104.70316 343.152344,97.7695312 C340.076156,90.8359028 335.852566,84.7324482 330.481445,79.4589844 C325.110325,74.1855205 318.835973,70.083999 311.658203,67.1542969 C304.480433,64.2245947 296.985391,62.7597656 289.172852,62.7597656 C279.016551,62.8574224 269.568403,65.4941147 260.828125,70.6699219 C252.087847,75.845729 245.154323,82.8036672 240.027344,91.5439453 C234.900365,100.284223 232.288086,109.781199 232.19043,120.035156 C232.19043,130.582084 234.851536,140.27437 240.173828,149.112305 C245.49612,157.95024 252.624955,164.957005 261.560547,170.132812 C270.496138,175.30862 280.188424,177.896484 290.637695,177.896484 Z M220.178711,120.328125 C220.178711,107.925719 223.279266,96.4268108 229.480469,85.8310547 C235.681672,75.2352986 244.055611,66.8125313 254.602539,60.5625 C265.149467,54.3124687 276.575134,51.1386724 288.879883,51.0410156 C301.379945,51.0410156 313.074164,54.0927429 323.962891,60.1962891 C334.851617,66.2998352 343.494109,74.6249473 349.890625,85.171875 C356.287141,95.7188027 359.534179,107.242125 359.631836,119.742188 C359.631836,132.24225 356.751005,143.789986 350.989258,154.385742 C345.22751,164.981498 337.073295,173.453093 326.526367,179.800781 C315.979439,186.148469 304.016668,189.517576 290.637695,189.908203 C281.262648,189.908203 272.302777,188.150408 263.757812,184.634766 C255.212848,181.119123 247.644564,176.089876 241.052734,169.546875 C234.460905,163.003874 229.334003,155.484417 225.671875,146.988281 C222.009747,138.492145 220.178711,129.605515 220.178711,120.328125 Z M290.930664,204.263672 C303.137756,203.677731 314.368113,201.114281 324.62207,196.573242 C334.876028,192.032204 343.71383,185.904335 351.135742,178.189453 C358.557654,170.474571 364.246074,161.636769 368.201172,151.675781 C372.15627,141.714794 374.133789,130.972714 374.133789,119.449219 C374.036132,104.703051 370.129921,90.9336577 362.415039,78.140625 C354.700157,65.3475923 344.324284,55.2646853 331.287109,47.8916016 C318.249935,40.5185178 304.114334,36.8320312 288.879883,36.8320312 C273.938402,36.8320312 260.120181,40.5673455 247.424805,48.0380859 C234.729429,55.5088264 224.646522,65.6161472 217.175781,78.3603516 C209.705041,91.1045559 205.920899,104.996019 205.823242,120.035156 C205.823242,134.781324 209.58297,148.6972 217.102539,161.783203 C224.622108,174.869206 234.875912,185.220665 247.864258,192.837891 C260.852604,200.455116 275.207929,204.263672 290.930664,204.263672 Z M290.930664,232.535156 C310.950295,232.4375 329.529211,227.237356 346.667969,216.93457 C363.806726,206.631784 377.356396,192.886805 387.317383,175.699219 C397.27837,158.511633 402.258789,139.957131 402.258789,120.035156 C402.258789,105.093675 399.231476,90.7627639 393.176758,77.0419922 C387.12204,63.3212205 378.894583,51.4072771 368.494141,41.2998047 C358.093698,31.1923323 345.96003,23.2822551 332.092773,17.5693359 C318.225517,11.8564167 303.723708,9 288.586914,9 C268.567283,9.09765674 250.012781,14.175731 232.922852,24.234375 C215.832922,34.293019 202.307667,47.8426882 192.34668,64.8837891 C182.385692,81.9248899 177.356446,100.40615 177.258789,120.328125 C177.258789,140.445413 182.385691,159.121984 192.639648,176.358398 C202.893606,193.594813 216.785069,207.266551 234.314453,217.374023 C251.843838,227.481496 270.715719,232.535156 290.930664,232.535156 Z M290.930664,213.052734 C308.020593,212.662107 323.572196,208.243206 337.585938,199.795898 C351.599679,191.348591 362.634725,180.020579 370.691406,165.811523 C378.748087,151.602468 382.776367,136.148521 382.776367,119.449219 C382.67871,107.046813 380.066432,95.1816973 374.939453,83.8535156 C369.812474,72.525334 363.025433,62.7598066 354.578125,54.5566406 C346.130817,46.3534746 336.218807,39.8593989 324.841797,35.0742188 C313.464787,30.2890386 301.379947,27.8964844 288.586914,27.8964844 C276.086852,27.9941411 264.270563,30.4843506 253.137695,35.3671875 C242.004827,40.2500244 232.214886,46.9394106 223.767578,55.4355469 C215.32027,63.9316831 208.728539,73.7216243 203.992188,84.8056641 C199.255836,95.8897039 196.838868,107.63275 196.741211,120.035156 C196.741211,136.636802 200.915974,152.090749 209.265625,166.397461 C217.615276,180.704173 229.016529,192.056599 243.469727,200.455078 C257.922924,208.853558 273.743078,213.052734 290.930664,213.052734 Z M291.370117,221.988281 C304.944404,221.890625 317.859314,219.131863 330.115234,213.711914 C342.371155,208.291965 353.162063,200.821337 362.488281,191.299805 C371.8145,181.778273 379.04099,170.840882 384.167969,158.487305 C389.294948,146.133727 391.858398,133.121162 391.858398,119.449219 C391.760742,105.581962 389.00198,92.5449829 383.582031,80.3378906 C378.162082,68.1307983 370.66704,57.3887183 361.09668,48.1113281 C351.526319,38.833938 340.564515,31.6074478 328.210938,26.4316406 C315.85736,21.2558335 302.74714,18.6679688 288.879883,18.6679688 C275.305596,18.7656255 262.341859,21.4755593 249.988281,26.7978516 C237.634704,32.1201438 226.819382,39.4198755 217.541992,48.6972656 C208.264602,57.9746558 200.989284,68.7899773 195.71582,81.1435547 C190.442356,93.4971321 187.805664,106.46087 187.805664,120.035156 C187.805664,133.609443 190.442356,146.57318 195.71582,158.926758 C200.989284,171.280335 208.411085,182.217726 217.981445,191.739258 C227.551806,201.26079 238.708921,208.682591 251.453125,214.004883 C264.197329,219.327175 277.50286,221.988281 291.370117,221.988281 Z M181.799805,120.035156 C181.897461,100.699122 186.755811,82.828207 196.375,66.421875 C205.994189,50.015543 218.98234,37.0029778 235.339844,27.3837891 C251.697347,17.7646003 269.446193,12.9550781 288.586914,12.9550781 C303.235425,12.9550781 317.224543,15.6894258 330.554688,21.1582031 C343.884832,26.6269805 355.530224,34.1708503 365.491211,43.7900391 C375.452198,53.4092278 383.362275,64.7860671 389.22168,77.9208984 C395.081084,91.0557297 398.05957,104.898365 398.157227,119.449219 C398.157227,138.687596 393.396532,156.631753 383.875,173.282227 C374.353468,189.9327 361.365317,203.238231 344.910156,213.199219 C328.454996,223.160206 310.608495,228.189453 291.370117,228.287109 C276.62395,228.287109 262.586004,225.455106 249.255859,219.791016 C235.925715,214.126925 224.182668,206.265675 214.026367,196.207031 C203.870066,186.148387 195.959989,174.551823 190.295898,161.416992 C184.631808,148.282161 181.799805,134.488354 181.799805,120.035156 Z M201.575195,120.328125 C201.575195,108.51166 203.796853,97.3301309 208.240234,86.7832031 C212.683616,76.2362754 218.957967,66.8369553 227.063477,58.5849609 C235.168986,50.3329666 244.543892,43.96096 255.188477,39.46875 C265.833061,34.97654 277.063417,32.7304688 288.879883,32.7304688 C304.797931,32.7304688 319.617119,36.5390244 333.337891,44.15625 C347.058662,51.7734756 357.947225,62.2225898 366.003906,75.5039062 C374.060587,88.7852227 378.137695,103.433514 378.235352,119.449219 C378.235352,135.464924 374.500037,150.21087 367.029297,163.6875 C359.558556,177.16413 349.182684,187.90621 335.901367,195.914062 C322.620051,203.921915 307.629966,208.218747 290.930664,208.804688 C274.914959,208.804688 259.998116,204.800821 246.179688,196.792969 C232.361259,188.785116 221.472696,177.969795 213.513672,164.34668 C205.554648,150.723565 201.575195,136.05086 201.575195,120.328125 Z M191.760742,120.035156 C191.858399,106.949153 194.42185,94.5469336 199.451172,82.828125 C204.480494,71.1093164 211.438432,60.8066851 220.325195,51.9199219 C229.211958,43.0331587 239.587831,36.0263928 251.453125,30.8994141 C263.318419,25.7724353 275.696225,23.1601567 288.586914,23.0625 C306.165127,23.0625 322.571213,27.359332 337.805664,35.953125 C353.040115,44.546918 365.173783,56.241137 374.207031,71.0361328 C383.24028,85.8311287 387.805664,101.968663 387.90332,119.449219 C387.90332,132.730535 385.559594,145.328065 380.87207,157.242188 C376.184547,169.15631 369.446333,179.654251 360.657227,188.736328 C351.86812,197.818405 341.541075,204.898412 329.675781,209.976562 C317.810488,215.054713 304.895578,217.740233 290.930664,218.033203 C273.254794,218.033203 256.799881,213.638716 241.56543,204.849609 C226.330979,196.060503 214.221725,184.122146 205.237305,169.03418 C196.252885,153.946214 191.760742,137.613369 191.760742,120.035156 Z M210.657227,120.035156 C210.657227,109.390572 212.65916,99.3809063 216.663086,90.0058594 C220.667012,80.6308125 226.379846,72.1836313 233.801758,64.6640625 C241.22367,57.1444937 249.622023,51.3584187 258.99707,47.3056641 C268.372117,43.2529094 278.332955,41.1777349 288.879883,41.0800781 C299.622124,41.0800781 309.851514,43.106425 319.568359,47.1591797 C329.285205,51.2119343 337.878869,56.8515264 345.349609,64.078125 C352.82035,71.3047236 358.679666,79.7030771 362.927734,89.2734375 C367.175802,98.8437979 369.299805,108.999946 369.299805,119.742188 C369.299805,134.097728 365.979525,147.28119 359.338867,159.292969 C352.698209,171.304748 343.420958,180.899378 331.506836,188.077148 C319.592714,195.254919 306.067458,199.039061 290.930664,199.429688 C276.477467,199.429688 263.074281,195.840856 250.720703,188.663086 C238.367126,181.485316 228.601598,171.79303 221.423828,159.585938 C214.246058,147.378845 210.657227,134.195383 210.657227,120.035156 Z M290.930664,196.207031 C301.868219,195.914061 311.902298,193.741231 321.033203,189.688477 C330.164108,185.635722 338.049771,180.044958 344.69043,172.916016 C351.331088,165.787074 356.433576,157.754927 359.998047,148.819336 C363.562518,139.883744 365.344727,130.289114 365.344727,120.035156 C365.24707,106.265556 361.73148,93.6680259 354.797852,82.2421875 C347.864223,70.8163491 338.513731,61.7588225 326.746094,55.0693359 C314.978457,48.3798494 302.258857,45.0351562 288.586914,45.0351562 C278.52827,45.132813 269.031295,47.1347461 260.095703,51.0410156 C251.160112,54.9472852 243.274448,60.3183252 236.438477,67.1542969 C229.602505,73.9902686 224.231465,81.9003457 220.325195,90.8847656 C216.418926,99.8691855 214.368165,109.585885 214.172852,120.035156 C214.172852,133.7071 217.639614,146.402285 224.573242,158.121094 C231.506871,169.839902 240.857363,179.117153 252.625,185.953125 C264.392637,192.789097 277.161064,196.207031 290.930664,196.207031 Z M290.930664,186.832031 C303.62604,186.441404 314.978466,183.21878 324.988281,177.164062 C334.998097,171.109345 342.786105,163.077198 348.352539,153.067383 C353.918973,143.057567 356.702148,132.046935 356.702148,120.035156 C356.702148,111.24605 354.895526,102.750041 351.282227,94.546875 C347.668927,86.343709 342.786164,79.214874 336.633789,73.1601562 C330.481415,67.1054385 323.279338,62.3447439 315.027344,58.8779297 C306.775349,55.4111155 298.157271,53.6777344 289.172852,53.6777344 C280.188432,53.8730479 271.790078,55.6796704 263.977539,59.0976562 C256.165,62.5156421 249.182648,67.3495781 243.030273,73.5996094 C236.877899,79.8496406 232.092791,86.9784756 228.674805,94.9863281 C225.256819,102.994181 223.547852,111.343707 223.547852,120.035156 C223.547852,131.851622 226.526337,142.911081 232.483398,153.213867 C238.440459,163.516653 246.570261,171.695282 256.873047,177.75 C267.175833,183.804718 278.528258,186.832031 290.930664,186.832031 Z M423.523438,93.7412109 L448.303711,93.4970703 L448.303711,234 L446.106445,234 L446.106445,95.6943359 L422.546875,95.6943359 L423.523438,93.7412109 Z M427.307617,85.4404297 L456.604492,85.4404297 L456.604492,234 L454.041016,234 L454.041016,88.2480469 L426.086914,88.2480469 L427.307617,85.4404297 Z M431.091797,77.75 L464.783203,77.75 L464.783203,234 L461.243164,234 L461.243164,80.8017578 L429.749023,80.8017578 L431.091797,77.75 Z M438.538086,61.7587891 L480.530273,61.7587891 L480.530273,234 L475.769531,234 L475.769531,66.2753906 L436.584961,66.2753906 L438.538086,61.7587891 Z M442.322266,53.2138672 L488.831055,53.2138672 L488.831055,234 L483.09375,234 L483.09375,58.9511719 L440.00293,58.9511719 L442.322266,53.2138672 Z M447.083008,43.6923828 L498.84082,43.6923828 L498.59668,234 L492.004883,234 L492.004883,50.2841797 L443.787109,50.2841797 L447.083008,43.6923828 Z M434.753906,70.0595703 L472.107422,70.0595703 L472.107422,234 L468.567383,234 L468.567383,73.7216797 L432.800781,73.7216797 L434.753906,70.0595703 Z M573.303711,234 L640.808594,50.2841797 L516.418945,50.2841797 L516.418945,43.6923828 L650.574219,43.6923828 L580.87207,234 L573.303711,234 Z M525.085938,234 L576.111328,95.4501953 L516.418945,95.4501953 L516.418945,93.2529297 L578.918945,93.2529297 L527.649414,234 L525.085938,234 Z M533.142578,234.244141 L586.609375,88.0039062 L516.418945,88.2480469 L516.418945,85.4404297 L590.637695,85.1962891 L536.316406,234.244141 L533.142578,234.244141 Z M541.077148,234 L597.351562,80.8017578 L516.418945,80.8017578 L516.418945,77.5058594 L602.112305,77.5058594 L544.617188,234 L541.077148,234 Z M548.889648,234 L607.605469,73.4775391 L516.418945,73.4775391 L516.418945,70.0595703 L613.342773,70.0595703 L552.917969,234 L548.889648,234 Z M556.580078,234 L618.347656,66.2753906 L516.418945,66.2753906 L516.418945,61.7587891 L624.573242,61.5146484 L561.584961,234 L556.580078,234 Z M564.880859,234 L629.089844,58.7070312 L516.418945,58.7070312 L516.418945,53.2138672 L636.902344,53.2138672 L570.374023,234 L564.880859,234 Z" id="2017" fill="#FFFFFF"></path>
            </g>
        </g>
    </g>
</svg>