<svg width="52" height="48" viewBox="0 0 52 48" version="1.1" xmlns="http://www.w3.org/2000/svg" xmlns:xlink="http://www.w3.org/1999/xlink">
<title>LOGO</title>
<desc>Created using Figma</desc>
<g id="Canvas" transform="translate(973 1308)">
<g id="LOGO">
<g id="Vector">
<use xlink:href="#path0_fill" transform="translate(-973 -1282.7)" fill="#FFFFFF"/>
<mask id="mask0_outline_ins">
<use xlink:href="#path0_fill" fill="white" transform="translate(-973 -1282.7)"/>
</mask>
<g mask="url(#mask0_outline_ins)">
<use xlink:href="#path1_stroke_2x" transform="translate(-973 -1282.7)" fill="#FFFFFF"/>
</g>
</g>
<g id="Vector">
<use xlink:href="#path2_fill" transform="translate(-955.657 -1284.91)" fill="#FFFFFF"/>
<mask id="mask1_outline_ins">
<use xlink:href="#path2_fill" fill="white" transform="translate(-955.657 -1284.91)"/>
</mask>
<g mask="url(#mask1_outline_ins)">
<use xlink:href="#path3_stroke_2x" transform="translate(-955.657 -1284.91)" fill="#FFFFFF"/>
</g>
</g>
<g id="Vector">
<use xlink:href="#path4_fill" transform="translate(-955.657 -1295.16)" fill="#FFFFFF"/>
<mask id="mask2_outline_ins">
<use xlink:href="#path4_fill" fill="white" transform="translate(-955.657 -1295.16)"/>
</mask>
<g mask="url(#mask2_outline_ins)">
<use xlink:href="#path5_stroke_2x" transform="translate(-955.657 -1295.16)" fill="#FFFFFF"/>
</g>
</g>
<g id="Vector">
<use xlink:href="#path6_fill" transform="translate(-948.775 -1270.08)" fill="#FFFFFF"/>
<mask id="mask3_outline_ins">
<use xlink:href="#path6_fill" fill="white" transform="translate(-948.775 -1270.08)"/>
</mask>
<g mask="url(#mask3_outline_ins)">
<use xlink:href="#path7_stroke_2x" transform="translate(-948.775 -1270.08)" fill="#FFFFFF"/>
</g>
</g>
<g id="Vector">
<use xlink:href="#path8_fill" transform="translate(-961.881 -1308)" fill="#FFFFFF"/>
<mask id="mask4_outline_ins">
<use xlink:href="#path8_fill" fill="white" transform="translate(-961.881 -1308)"/>
</mask>
<g mask="url(#mask4_outline_ins)">
<use xlink:href="#path9_stroke_2x" transform="translate(-961.881 -1308)" fill="#FFFFFF"/>
</g>
</g>
<g id="Vector">
<use xlink:href="#path10_fill" transform="translate(-952.134 -1285.24)" fill="#FFFFFF"/>
<mask id="mask5_outline_ins">
<use xlink:href="#path10_fill" fill="white" transform="translate(-952.134 -1285.24)"/>
</mask>
<g mask="url(#mask5_outline_ins)">
<use xlink:href="#path11_stroke_2x" transform="translate(-952.134 -1285.24)" fill="#FFFFFF"/>
</g>
</g>
</g>
</g>
<defs>
<path id="path0_fill" d="M 39.09 8.40898e-07C 39.09 8.40898e-07 40.0811 6.55799 36.6125 11.2423C 33.9698 14.7692 30.226 16.6981 25.9866 16.6981C 23.1787 16.6981 20.4259 15.8163 18.1136 14.2182C 12.2225 10.085 12.5529 3.80253 12.5529 3.80253L 1.68019e-06 6.11711L 0.110113 6.44777C 0.165169 6.55798 3.35844 16.8634 14.9753 21.3272C 17.3978 22.2641 19.9304 22.705 22.408 22.705C 29.8956 22.705 36.9979 18.3513 39.035 12.62C 39.7507 10.5258 40.026 8.98279 39.9709 5.67624C 39.9709 1.70838 39.09 8.40898e-07 39.09 8.40898e-07ZM 22.408 21.7681C 19.9304 21.7681 17.5079 21.4926 15.1405 20.5557C 4.90002 16.643 1.32136 8.26637 0.715737 6.50288L 3.30339 6.00689L 4.90002 6.22733C 4.90002 6.22733 7.21239 15.5408 17.2327 19.8393C 22.5181 22.0988 27.4731 21.6028 31.3822 19.6188C 28.6844 20.9966 25.6012 21.7681 22.408 21.7681Z"/>
<path id="path1_stroke_2x" d="M 39.09 8.40898e-07L 39.9788 -0.458293L 38.1013 0.14942L 39.09 8.40898e-07ZM 36.6125 11.2423L 37.4128 11.8419L 37.4162 11.8373L 36.6125 11.2423ZM 18.1136 14.2182L 17.5392 15.0368L 17.545 15.0408L 18.1136 14.2182ZM 12.5529 3.80253L 13.5515 3.85504L 13.618 2.58927L 12.3715 2.81911L 12.5529 3.80253ZM 1.68019e-06 6.11711L -0.181329 5.13369L -1.31205 5.34218L -0.948774 6.43306L 1.68019e-06 6.11711ZM 0.110113 6.44777L -0.838662 6.76372L -0.816223 6.8311L -0.784485 6.89464L 0.110113 6.44777ZM 14.9753 21.3272L 15.336 20.3945L 15.334 20.3938L 14.9753 21.3272ZM 39.035 12.62L 39.9773 12.9549L 39.9812 12.9434L 39.035 12.62ZM 39.9709 5.67624L 38.9709 5.67624L 38.9709 5.68456L 38.9711 5.69289L 39.9709 5.67624ZM 15.1405 20.5557L 15.5085 19.6258L 15.4974 19.6216L 15.1405 20.5557ZM 0.715737 6.50288L 0.52749 5.52075L -0.604367 5.7377L -0.230046 6.82768L 0.715737 6.50288ZM 3.30339 6.00689L 3.44015 5.01629L 3.27695 4.99376L 3.11514 5.02477L 3.30339 6.00689ZM 4.90002 6.22733L 5.87055 5.98636L 5.70742 5.32932L 5.03678 5.23673L 4.90002 6.22733ZM 17.2327 19.8393L 16.8384 20.7583L 16.8396 20.7588L 17.2327 19.8393ZM 31.3822 19.6188L 31.837 20.5094L 30.9296 18.7271L 31.3822 19.6188ZM 39.09 8.40898e-07C 38.1013 0.14942 38.1012 0.149144 38.1012 0.148893C 38.1012 0.148843 38.1012 0.148616 38.1011 0.148514C 38.1011 0.148516 38.1011 0.148192 38.1011 0.148199C 38.101 0.147808 38.1011 0.148559 38.1013 0.149327C 38.1016 0.151675 38.1019 0.153926 38.1026 0.158538C 38.1041 0.169399 38.106 0.182951 38.1087 0.204081C 38.1147 0.249692 38.1223 0.311392 38.1316 0.398152C 38.1511 0.578664 38.1741 0.827624 38.1923 1.15406C 38.2301 1.82199 38.2455 2.71837 38.1555 3.78131C 37.9774 5.94001 37.4366 8.48585 35.8088 10.6472L 37.4162 11.8373C 39.2569 9.31439 39.9549 6.23911 40.1485 3.94775C 40.2443 2.78565 40.2288 1.74977 40.1891 1.0417C 40.1686 0.680129 40.1412 0.38015 40.1201 0.183725C 40.1091 0.0820154 40.0988 -0.00175328 40.0919 -0.0544933C 40.0883 -0.0825394 40.085 -0.106384 40.083 -0.120625C 40.0819 -0.128565 40.0808 -0.135791 40.0802 -0.139784C 40.0799 -0.142185 40.0795 -0.144601 40.0794 -0.145803C 40.0792 -0.146606 40.0791 -0.147512 40.079 -0.147913C 40.079 -0.148214 40.0789 -0.148591 40.0789 -0.148741C 40.0789 -0.149092 40.0788 -0.149419 39.09 8.40898e-07ZM 35.8122 10.6426C 33.3486 13.9307 29.8951 15.6981 25.9866 15.6981L 25.9866 17.6981C 30.5569 17.6981 34.591 15.6078 37.4128 11.8419L 35.8122 10.6426ZM 25.9866 15.6981C 23.3331 15.71 20.8675 14.9191 18.6821 13.3955L 17.545 15.0408C 19.9843 16.7135 23.0244 17.6861 25.9866 17.6981L 25.9866 15.6981ZM 18.6879 13.3995C 15.9167 11.4887 14.7001 9.16103 14.0784 7.16149C 13.771 6.18954 13.6467 5.37857 13.589 4.75569C 13.5606 4.4561 13.5523 4.23422 13.5501 4.0668C 13.5489 3.98858 13.5495 3.93638 13.5504 3.89496C 13.5507 3.87688 13.5511 3.86707 13.5514 3.85772C 13.5515 3.85433 13.5516 3.8537 13.5516 3.85196C 13.5516 3.85173 13.5516 3.85226 13.5516 3.85238C 13.5516 3.85213 13.5516 3.85355 13.5516 3.85343C 13.5516 3.85365 13.5515 3.85405 13.5515 3.85416C 13.5515 3.85459 13.5515 3.85504 12.5529 3.80253C 11.5542 3.75002 11.5542 3.75052 11.5542 3.75104C 11.5542 3.75124 11.5542 3.75179 11.5541 3.7522C 11.5541 3.75271 11.554 3.75395 11.554 3.75497C 11.5539 3.75637 11.5538 3.75944 11.5537 3.76224C 11.5535 3.76657 11.5531 3.77501 11.5528 3.78364C 11.5522 3.79831 11.5514 3.82429 11.5508 3.85323C 11.5497 3.90585 11.5489 3.99266 11.5503 4.0943C 11.553 4.28659 11.5649 4.58782 11.5976 4.94179C 11.6621 5.62603 11.8233 6.64399 12.1698 7.75931C 12.8556 9.93428 14.4193 12.8145 17.5392 15.0368L 18.6879 13.3995ZM 12.3715 2.81911L -0.181329 5.13369L 0.181332 7.10053L 12.7342 4.78595L 12.3715 2.81911ZM -0.948774 6.43306L -0.838662 6.76372L 1.05889 6.13181L 0.948777 5.80116L -0.948774 6.43306ZM -0.784485 6.89464C -0.788713 6.88617 2.56295 17.629 14.6167 22.2607L 15.334 20.3938C 4.15393 16.0978 1.11905 6.22979 1.00471 6.0009L -0.784485 6.89464ZM 14.6146 22.2599C 17.1304 23.2277 19.8443 23.7012 22.408 23.705L 22.408 21.705C 20.0165 21.7087 17.6652 21.3005 15.336 20.3945L 14.6146 22.2599ZM 22.408 23.705C 30.2025 23.705 37.7631 19.1845 39.9772 12.9549L 38.0927 12.2851C 36.2327 17.5182 29.5887 21.705 22.408 21.705L 22.408 23.705ZM 39.9812 12.9434C 40.7189 10.7761 41.0228 9.06265 40.9708 5.65959L 38.9711 5.69289C 39.0292 8.90293 38.7825 10.2756 38.0887 12.2966L 39.9812 12.9434ZM 40.9709 5.67624C 40.968 3.61541 40.7319 2.08039 40.5032 1.11811C 40.3829 0.617315 40.2545 0.221739 40.165 -0.0195055C 40.1165 -0.149447 40.0706 -0.259641 40.0424 -0.323313C 40.0263 -0.359672 40.0106 -0.393555 40.002 -0.411535C 39.9966 -0.422751 39.9908 -0.434477 39.9881 -0.44005C 39.9861 -0.443941 39.9838 -0.448511 39.9828 -0.45045C 39.9821 -0.451969 39.9811 -0.453932 39.9807 -0.454691C 39.9804 -0.455344 39.9799 -0.456245 39.9797 -0.456572C 39.9796 -0.456872 39.9794 -0.457302 39.9793 -0.457452C 39.9791 -0.457876 39.9788 -0.458293 39.09 8.40898e-07C 38.2012 0.458295 38.201 0.457891 38.2008 0.457493C 38.2008 0.457369 38.2006 0.456978 38.2004 0.45673C 38.2006 0.456952 38.1995 0.454874 38.1997 0.455318C 38.1999 0.455659 38.1982 0.452276 38.1985 0.452958C 38.1987 0.453225 38.1968 0.449558 38.1971 0.450096C 38.1965 0.448962 38.1968 0.44958 38.1979 0.451846C 38.2022 0.460829 38.2054 0.467523 38.2133 0.485629C 38.2334 0.530883 38.2563 0.585155 38.2904 0.677372C 38.3661 0.880445 38.4579 1.15996 38.5578 1.58224C 38.7695 2.46612 38.9739 3.76922 38.9709 5.67624L 40.9709 5.67624ZM 22.408 20.7681C 19.987 20.7697 17.7505 20.5224 15.5085 19.6259L 14.7725 21.4855C 17.2653 22.4627 19.8738 22.7665 22.408 22.7681L 22.408 20.7681ZM 15.4974 19.6216C 5.64767 15.8581 2.21908 7.80162 1.66152 6.17808L -0.230046 6.82768C 0.423636 8.73112 4.15237 17.4278 14.7836 21.4898L 15.4974 19.6216ZM 0.903983 7.485L 3.49163 6.98902L 3.11514 5.02477L 0.52749 5.52075L 0.903983 7.485ZM 3.16662 6.9975L 4.76325 7.21793L 5.03678 5.23673L 3.44015 5.01629L 3.16662 6.9975ZM 4.90002 6.22733C 3.92948 6.4683 3.9296 6.46876 3.92972 6.46926C 3.92978 6.46948 3.92991 6.47002 3.93002 6.47044C 3.93016 6.47102 3.93049 6.4723 3.93077 6.47345C 3.9312 6.47515 3.93207 6.47859 3.93295 6.482C 3.9344 6.48766 3.93705 6.4979 3.94001 6.50914C 3.94532 6.52928 3.95439 6.56296 3.96543 6.60246C 3.98623 6.67673 4.02048 6.79426 4.06508 6.93615C 4.15139 7.21014 4.29285 7.62522 4.48848 8.11875C 4.87257 9.08505 5.51649 10.4691 6.46601 11.9597C 8.34467 14.8941 11.6415 18.5039 16.8384 20.7583L 17.6269 18.9203C 12.8035 16.8761 9.93406 13.68 8.15146 10.883C 7.27036 9.50792 6.70991 8.29499 6.34731 7.38069C 6.16958 6.93392 6.0521 6.58781 5.97281 6.33568C 5.93461 6.21451 5.90941 6.12775 5.89144 6.06349C 5.8831 6.03372 5.87796 6.01458 5.87391 5.99922C 5.87219 5.9927 5.87137 5.98952 5.87052 5.9862C 5.87024 5.98512 5.86998 5.98406 5.87011 5.98461C 5.87011 5.9846 5.87023 5.98507 5.87023 5.98507C 5.87027 5.98521 5.87035 5.98554 5.87036 5.98561C 5.87045 5.98597 5.87055 5.98636 4.90002 6.22733ZM 16.8396 20.7588C 22.4034 23.1373 27.668 22.6253 31.8347 20.5106L 30.9296 18.7271C 27.2783 20.5802 22.6328 21.0603 17.6257 18.9198L 16.8396 20.7588ZM 30.9273 18.7283C 28.3333 20.0602 25.4789 20.7756 22.408 20.7681L 22.408 22.7681C 25.7235 22.7606 29.0354 21.9329 31.837 20.5094L 30.9273 18.7283Z"/>
<path id="path2_fill" d="M 0.055434 8.45904e-07C 0.055434 0.055438 1.69182e-06 0.110873 1.69182e-06 0.110873C 1.69182e-06 0.110873 -3.38281e-06 0.055438 0.055434 8.45904e-07Z"/>
<path id="path3_stroke_2x" d="M 0.055434 8.45904e-07L 1.05543 8.45904e-07L 1.05543 -2.4142L -0.651671 -0.707108L 0.055434 8.45904e-07ZM 1.69182e-06 0.110873L -0.999998 0.110965L -0.999777 2.52496L 0.707128 0.81796L 1.69182e-06 0.110873ZM -0.944566 8.45904e-07C -0.944566 -0.27284 -0.823698 -0.449424 -0.804349 -0.478449C -0.783835 -0.509223 -0.764782 -0.532891 -0.750613 -0.549423C -0.757593 -0.541443 -0.725749 -0.577098 -0.728691 -0.573914C -0.732127 -0.570261 -0.716381 -0.586841 -0.717998 -0.585164C -0.719759 -0.58335 -0.71174 -0.59157 -0.7126 -0.590695C -0.713498 -0.589783 -0.70943 -0.593902 -0.709874 -0.593453C -0.710329 -0.592996 -0.708276 -0.59506 -0.708503 -0.594833C -0.708731 -0.594604 -0.7077 -0.595637 -0.707815 -0.595523C -0.7077 -0.595638 -0.707527 -0.595811 -0.70747 -0.595868C -0.707298 -0.596041 -0.707125 -0.596214 1.69182e-06 0.110873C 0.707128 0.81796 0.707301 0.817787 0.707475 0.817614C 0.707533 0.817556 0.707707 0.817382 0.707823 0.817265C 0.70794 0.817147 0.708291 0.816796 0.708526 0.81656C 0.708766 0.816319 0.709477 0.815604 0.709958 0.81512C 0.710456 0.814617 0.711918 0.813138 0.712921 0.81212C 0.713991 0.811032 0.717079 0.807872 0.719246 0.805638C 0.721675 0.803122 0.728508 0.795958 0.733459 0.79068C 0.739432 0.784248 0.755762 0.766158 0.767939 0.752114C 0.784052 0.733094 0.828025 0.676848 0.859785 0.630901C 0.90685 0.560299 1.05543 0.328278 1.05543 8.45904e-07L -0.944566 8.45904e-07ZM 1.69182e-06 0.110873C 1 0.110782 1 0.111271 1 0.111759C 1 0.111922 1 0.112411 1 0.112737C 1 0.112411 0.999992 0.115346 0.999994 0.114694C 0.999997 0.114043 0.999962 0.119922 0.999972 0.118616C 0.999983 0.117317 0.999841 0.129114 0.999879 0.126494C 0.999923 0.1239 0.999343 0.147667 0.999498 0.142391C 0.99968 0.137212 0.997253 0.185546 0.9979 0.17482C 0.998665 0.164428 0.987963 0.265072 0.990827 0.242695C 0.984189 0.289183 0.973202 0.339676 0.955627 0.392409C 0.91932 0.501348 0.856993 0.612656 0.762539 0.707109L -0.651671 -0.707108C -0.783534 -0.55698 -0.910037 -0.327211 -0.941769 -0.239957C -0.963049 -0.169993 -0.983923 -0.0734839 -0.989093 -0.0400041C -0.992822 -0.011564 -0.9967 0.028307 -0.997681 0.0419468C -0.998436 0.0542977 -0.999258 0.0720645 -0.999468 0.0780834C -0.999636 0.0837782 -0.999824 0.0921238 -0.999872 0.0949312C -0.999912 0.0976574 -0.999956 0.101697 -0.999968 0.10305C -0.999977 0.104383 -0.999988 0.106369 -0.999991 0.107033C -0.999993 0.107692 -0.999996 0.108677 -0.999997 0.109005C -0.999997 0.109333 -0.999998 0.109823 -0.999998 0.109987C -0.999998 0.110476 -0.999998 0.110965 1.69182e-06 0.110873Z"/>
<path id="path4_fill" d="M 32.1529 11.6831C 29.0698 5.07004 23.6743 1.76349 18.8293 0.551091C 18.7192 0.551091 18.6641 0.495983 18.554 0.495983L 18.554 0.551091C 18.554 0.551091 18.499 0.495983 18.4439 0.440874C 18.1686 0.385764 17.8933 0.330655 17.6181 0.275546C 16.572 0.110218 15.5259 0 14.5899 0C 12.4427 0 10.4607 0.495983 8.75397 1.26751C 6.82699 2.14926 5.67081 2.75546 3.30338 5.23537C 0.935959 7.71528 0 10.3054 0 10.3054C 0 10.3054 1.70675 6.99886 5.39553 5.23537C 8.5888 3.69231 10.1854 3.74742 11.9472 3.74742C 18.2237 3.69231 23.6743 8.37659 24.9406 14.7141C 26.317 21.7681 22.0226 25.7911 21.9675 25.8462L 21.6922 26.1217L 32.3732 33.1206L 32.5383 32.845C 32.6484 32.6246 37.4934 22.9254 32.1529 11.6831ZM 32.208 32.1286L 30.0057 30.6958L 29.0147 29.4834C 29.0147 29.4834 33.8046 21.217 29.5653 11.0769C 25.9316 2.4248 17.7832 -0.165327 11.3416 0.936855C 12.3877 0.66131 13.4338 0.551091 14.5899 0.551091C 20.4259 0.551091 27.9136 4.07808 31.6574 11.9036C 36.3372 21.8232 32.9788 30.4753 32.208 32.1286Z"/>
<path id="path5_stroke_2x" d="M 32.1529 11.6831L 31.2466 12.1057L 31.2497 12.1122L 32.1529 11.6831ZM 18.8293 0.551091L 19.072 -0.418997L 18.9525 -0.448909L 18.8293 -0.448909L 18.8293 0.551091ZM 18.554 0.495983L 18.554 -0.504017L 17.554 -0.504017L 17.554 0.495983L 18.554 0.495983ZM 18.554 0.551091L 17.8466 1.25786L 19.554 2.96695L 19.554 0.551091L 18.554 0.551091ZM 18.4439 0.440874L 19.1513 -0.265895L 18.9372 -0.480206L 18.6402 -0.539671L 18.4439 0.440874ZM 17.6181 0.275546L 17.8143 -0.704999L 17.7943 -0.709007L 17.7742 -0.712194L 17.6181 0.275546ZM 8.75397 1.26751L 8.34205 0.356278L 8.33788 0.358186L 8.75397 1.26751ZM 0 10.3054L -0.94048 9.96556L 0.888605 10.7641L 0 10.3054ZM 5.39553 5.23537L 5.82685 6.13758L 5.83062 6.13576L 5.39553 5.23537ZM 11.9472 3.74742L 11.9472 4.74746L 11.956 4.74738L 11.9472 3.74742ZM 24.9406 14.7141L 25.9221 14.5226L 25.9212 14.5182L 24.9406 14.7141ZM 21.9675 25.8462L 21.2601 25.1394L 21.2601 25.1394L 21.9675 25.8462ZM 21.6922 26.1217L 20.9848 25.415L 20.1161 26.2845L 21.1441 26.9581L 21.6922 26.1217ZM 32.3732 33.1206L 31.8251 33.957L 32.6957 34.5275L 33.2309 33.6347L 32.3732 33.1206ZM 32.5383 32.845L 33.3961 33.3591L 33.4158 33.3262L 33.4329 33.2919L 32.5383 32.845ZM 32.208 32.1286L 31.6626 32.9668L 32.6278 33.5948L 33.1143 32.5512L 32.208 32.1286ZM 30.0057 30.6958L 29.2315 31.3287L 29.33 31.4491L 29.4604 31.534L 30.0057 30.6958ZM 29.0147 29.4834L 28.1495 28.982L 27.8026 29.5806L 28.2405 30.1163L 29.0147 29.4834ZM 29.5653 11.0769L 30.4879 10.6912L 30.4873 10.6897L 29.5653 11.0769ZM 11.3416 0.936855L 11.0869 -0.0301591L 11.5103 1.92253L 11.3416 0.936855ZM 31.6574 11.9036L 32.5619 11.4769L 32.5595 11.472L 31.6574 11.9036ZM 33.0593 11.2606C 29.829 4.33183 24.1607 0.854391 19.072 -0.418997L 18.5865 1.52118C 23.1878 2.67259 28.3106 5.80825 31.2466 12.1057L 33.0593 11.2606ZM 18.8293 -0.448909C 18.9528 -0.448909 19.0491 -0.411407 19.0081 -0.425057C 18.9665 -0.438961 18.7876 -0.504017 18.554 -0.504017L 18.554 1.49598C 18.4305 1.49598 18.3342 1.45848 18.3752 1.47213C 18.4168 1.48604 18.5957 1.55109 18.8293 1.55109L 18.8293 -0.448909ZM 17.554 0.495983L 17.554 0.551091L 19.554 0.551091L 19.554 0.495983L 17.554 0.495983ZM 18.554 0.551091C 19.2615 -0.155675 19.2615 -0.155675 19.2615 -0.155676C 19.2615 -0.155676 19.2615 -0.155677 19.2615 -0.155678C 19.2615 -0.155679 19.2614 -0.155682 19.2614 -0.155685C 19.2614 -0.155692 19.2614 -0.155702 19.2614 -0.155715C 19.2614 -0.155742 19.2613 -0.155782 19.2613 -0.155835C 19.2612 -0.155941 19.261 -0.156099 19.2608 -0.156307C 19.2604 -0.156724 19.2598 -0.157343 19.259 -0.158151C 19.2574 -0.159765 19.255 -0.162133 19.252 -0.165147C 19.246 -0.171175 19.2374 -0.179786 19.227 -0.190119C 19.2064 -0.210785 19.1789 -0.23834 19.1513 -0.265895L 17.7365 1.14764C 17.764 1.1752 17.7915 1.20275 17.8122 1.22342C 17.8225 1.23375 17.8311 1.24236 17.8371 1.24839C 17.8401 1.2514 17.8425 1.25377 17.8441 1.25538C 17.8449 1.25619 17.8455 1.25681 17.8459 1.25723C 17.8461 1.25743 17.8463 1.25759 17.8464 1.2577C 17.8465 1.25775 17.8465 1.25779 17.8465 1.25782C 17.8465 1.25783 17.8465 1.25784 17.8466 1.25785C 17.8466 1.25785 17.8466 1.25785 17.8466 1.25785C 17.8466 1.25786 17.8466 1.25786 17.8466 1.25786C 17.8466 1.25786 17.8466 1.25786 18.554 0.551091ZM 18.6402 -0.539671C 18.3649 -0.59478 18.0896 -0.64989 17.8143 -0.704999L 17.4218 1.25609C 17.697 1.3112 17.9723 1.36631 18.2476 1.42142L 18.6402 -0.539671ZM 17.7742 -0.712194C 16.7025 -0.881231 15.5784 -0.998623 14.5899 -1L 14.5899 1C 15.4734 0.998623 16.4415 1.10167 17.4619 1.26329L 17.7742 -0.712194ZM 14.5899 -1C 12.3205 -0.992494 10.1321 -0.448468 8.34205 0.356288L 9.16588 2.17873C 10.7894 1.44043 12.565 0.992494 14.5899 1L 14.5899 -1ZM 8.33788 0.358186C 6.31254 1.28494 5.04714 1.96056 2.58006 4.54485L 4.02671 5.92588C 6.29448 3.55035 7.34144 3.01357 9.17005 2.17683L 8.33788 0.358186ZM 2.58006 4.54485C 1.33574 5.85447 0.436872 7.22744 -0.111039 8.21613C -0.390416 8.72192 -0.600737 9.16295 -0.731066 9.45691C -0.798463 9.60925 -0.85141 9.73723 -0.883849 9.81841C -0.901068 9.86158 -0.915359 9.89855 -0.923786 9.92074C -0.928471 9.93308 -0.932676 9.94434 -0.934989 9.95058C -0.936375 9.95432 -0.937755 9.95808 -0.938443 9.95996C -0.938899 9.96121 -0.93941 9.96261 -0.939638 9.96323C -0.939807 9.9637 -0.940018 9.96428 -0.940103 9.96452C -0.940173 9.96471 -0.940268 9.96497 -0.940303 9.96507C -0.940393 9.96532 -0.94048 9.96556 0 10.3054C 0.94048 10.6453 0.9404 10.6455 0.940324 10.6457C 0.940303 10.6457 0.94023 10.6459 0.940189 10.6461C 0.940216 10.646 0.939926 10.6468 0.939981 10.6466C 0.939979 10.6466 0.939815 10.6471 0.939817 10.6471C 0.940048 10.6465 0.940046 10.6465 0.940503 10.6452C 0.941877 10.6415 0.943216 10.6379 0.945964 10.6307C 0.952404 10.6137 0.960533 10.5926 0.973531 10.5601C 1.00152 10.49 1.0402 10.3962 1.09754 10.267C 1.21668 9.99781 1.38831 9.63631 1.63885 9.18457C 2.15078 8.25823 2.9036 7.09617 4.02671 5.92588L 2.58006 4.54485ZM 0 10.3054C 0.888605 10.7641 0.888462 10.7644 0.888327 10.7646C 0.88829 10.7647 0.88816 10.7649 0.888086 10.7651C 0.888134 10.765 0.887624 10.766 0.88772 10.7658C 0.887713 10.7658 0.887434 10.7663 0.887445 10.7663C 0.88787 10.7655 0.887884 10.7655 0.888724 10.7639C 0.891222 10.7592 0.893658 10.7546 0.898613 10.7455C 0.910214 10.7241 0.924739 10.6979 0.947825 10.6577C 0.997598 10.5709 1.06536 10.457 1.16476 10.3031C 1.37166 9.98187 1.6621 9.56638 2.07721 9.0784C 2.92718 8.07345 4.11589 6.94238 5.82684 6.13757L 4.96422 4.33316C 2.98639 5.29185 1.47733 6.69579 0.551733 7.78499C 0.0790616 8.34409 -0.287736 8.86545 -0.516121 9.2193C -0.634369 9.40297 -0.728768 9.56113 -0.786742 9.66207C -0.81753 9.71577 -0.843276 9.76224 -0.858477 9.79018C -0.866923 9.80573 -0.87452 9.81994 -0.878707 9.82784C -0.881209 9.83257 -0.883699 9.83731 -0.884943 9.83969C -0.885766 9.84126 -0.886685 9.84303 -0.887095 9.84382C -0.8874 9.8444 -0.887778 9.84513 -0.88793 9.84543C -0.888056 9.84567 -0.888225 9.846 -0.888287 9.84612C -0.888449 9.84643 -0.888605 9.84673 0 10.3054ZM 5.83062 6.13576C 8.83243 4.68522 10.2586 4.74742 11.9472 4.74742L 11.9472 2.74742C 10.1123 2.74742 8.34518 2.6994 4.96044 4.33498L 5.83062 6.13576ZM 11.956 4.74738C 17.7161 4.69681 22.7804 9.00673 23.9599 14.9101L 25.9212 14.5182C 24.5681 7.74645 18.7312 2.68782 11.9385 2.74746L 11.956 4.74738ZM 23.9591 14.9057C 25.2345 21.442 21.2635 25.1359 21.2601 25.1394L 22.6749 26.5529C 22.6725 26.5555 22.9976 26.2458 23.4353 25.6931C 23.8438 25.1721 24.4025 24.3521 24.8925 23.3371C 25.8783 21.2814 26.6579 18.2937 25.922 14.5226L 23.9591 14.9057ZM 21.2601 25.1394L 20.9848 25.415L 22.3997 26.8285L 22.6749 26.5529L 21.2601 25.1394ZM 21.1441 26.9581L 31.8251 33.957L 32.9213 32.2842L 22.2403 25.2853L 21.1441 26.9581ZM 33.2309 33.6347L 33.3961 33.3591L 31.6806 32.3309L 31.5154 32.6065L 33.2309 33.6347ZM 33.4329 33.2919C 33.58 32.9974 38.6018 22.9281 33.0562 11.2541L 31.2497 12.1122C 36.3851 22.9227 31.7168 32.2518 31.6437 32.3982L 33.4329 33.2919ZM 32.7534 31.2904L 30.5511 29.8576L 29.4604 31.534L 31.6626 32.9668L 32.7534 31.2904ZM 30.78 30.0629L 29.789 28.8505L 28.2405 30.1163L 29.2315 31.3287L 30.78 30.0629ZM 29.0147 29.4834C 29.88 29.9847 29.8802 29.9843 29.8805 29.9839C 29.8806 29.9837 29.8809 29.9832 29.8811 29.9828C 29.8814 29.9823 29.882 29.9811 29.8826 29.9801C 29.8835 29.9786 29.8853 29.9755 29.887 29.9724C 29.8899 29.9674 29.8951 29.9582 29.9008 29.948C 29.911 29.9299 29.9278 29.8994 29.9473 29.8634C 29.9838 29.7957 30.0407 29.6876 30.107 29.5549C 30.2348 29.2987 30.4208 28.9027 30.6221 28.4128C 31.0153 27.453 31.5111 26.0117 31.8603 24.279C 32.5409 20.8621 32.6683 15.9649 30.4879 10.6912L 28.6427 11.4627C 30.7017 16.329 30.5538 20.6351 29.8992 23.8864C 29.5809 25.4878 29.1441 26.7468 28.7717 27.6539C 28.5902 28.0973 28.4351 28.4264 28.3175 28.6618C 28.2611 28.775 28.2192 28.8544 28.1877 28.9127C 28.1731 28.9398 28.1636 28.9569 28.1559 28.9707C 28.1526 28.9765 28.151 28.9793 28.1493 28.9823C 28.1488 28.9832 28.1483 28.9841 28.1486 28.9836C 28.1485 28.9836 28.1488 28.9832 28.1488 28.9832C 28.1489 28.9831 28.1491 28.9828 28.1491 28.9827C 28.1493 28.9824 28.1495 28.982 29.0147 29.4834ZM 30.4873 10.6897C 26.6402 1.52959 17.9827 -1.21399 11.173 -0.04882L 11.5103 1.92253C 17.5837 0.88334 25.2229 3.32002 28.6433 11.4642L 30.4873 10.6897ZM 11.5963 1.90387C 12.568 1.64493 13.4862 1.54971 14.5899 1.55109L 14.5899 -0.448909C 13.3813 -0.447532 12.2074 -0.322306 11.0869 -0.0301591L 11.5963 1.90387ZM 14.5899 1.55109C 20.0688 1.55109 27.1894 4.88152 30.7554 12.3351L 32.5595 11.472C 28.6378 3.27464 20.783 -0.448909 14.5899 -0.448909L 14.5899 1.55109ZM 30.753 12.3302C 35.2504 21.8632 32.0151 30.1759 31.3017 31.7061L 33.1143 32.5512C 33.9425 30.7748 37.4241 21.7832 32.5618 11.4769L 30.753 12.3302Z"/>
<path id="path6_fill" d="M 1.69395e-06 3.05176e-06C 0.0555091 3.05176e-06 0.111015 3.05176e-06 0.111015 3.05176e-06C 0.111015 3.05176e-06 0.0555091 3.05176e-06 1.69395e-06 3.05176e-06Z"/>
<path id="path7_stroke_2x" d="M 1.69395e-06 1C 0.0277554 1 0.0555087 1 0.0763235 1C 0.086731 1 0.0954038 1 0.101475 1C 0.10451 1 0.106895 1 0.108521 1C 0.109334 1 0.109958 1 0.110378 1C 0.110588 1 0.110747 1 0.110854 1C 0.110907 1 0.110948 1 0.110974 1C 0.110988 1 0.110998 1 0.111005 1C 0.111008 1 0.111011 1 0.111012 1C 0.111013 1 0.111014 1 0.111014 1C 0.111015 1 0.111015 1 0.111015 3.05176e-06C 0.111015 -0.999997 0.111015 -0.999997 0.111014 -0.999997C 0.111014 -0.999997 0.111013 -0.999997 0.111012 -0.999997C 0.111011 -0.999997 0.111008 -0.999997 0.111005 -0.999997C 0.110998 -0.999997 0.110988 -0.999997 0.110974 -0.999997C 0.110948 -0.999997 0.110907 -0.999997 0.110854 -0.999997C 0.110747 -0.999997 0.110588 -0.999997 0.110378 -0.999997C 0.109958 -0.999997 0.109334 -0.999997 0.108521 -0.999997C 0.106895 -0.999997 0.10451 -0.999997 0.101475 -0.999997C 0.0954038 -0.999997 0.086731 -0.999997 0.0763235 -0.999997C 0.0555087 -0.999997 0.0277554 -0.999997 1.69395e-06 -0.999997L 1.69395e-06 1ZM 0.111015 3.05176e-06C 0.111015 -0.999997 0.111015 -0.999997 0.111014 -0.999997C 0.111014 -0.999997 0.111013 -0.999997 0.111012 -0.999997C 0.111011 -0.999997 0.111008 -0.999997 0.111005 -0.999997C 0.110998 -0.999997 0.110988 -0.999997 0.110974 -0.999997C 0.110948 -0.999997 0.110907 -0.999997 0.110854 -0.999997C 0.110747 -0.999997 0.110588 -0.999997 0.110378 -0.999997C 0.109958 -0.999997 0.109334 -0.999997 0.108521 -0.999997C 0.106895 -0.999997 0.10451 -0.999997 0.101475 -0.999997C 0.0954038 -0.999997 0.086731 -0.999997 0.0763235 -0.999997C 0.0555087 -0.999997 0.0277554 -0.999997 1.69395e-06 -0.999997L 1.69395e-06 1C 0.0277554 1 0.0555087 1 0.0763235 1C 0.086731 1 0.0954038 1 0.101475 1C 0.10451 1 0.106895 1 0.108521 1C 0.109334 1 0.109958 1 0.110378 1C 0.110588 1 0.110747 1 0.110854 1C 0.110907 1 0.110948 1 0.110974 1C 0.110988 1 0.110998 1 0.111005 1C 0.111008 1 0.111011 1 0.111012 1C 0.111013 1 0.111014 1 0.111014 1C 0.111015 1 0.111015 1 0.111015 3.05176e-06Z"/>
<path id="path8_fill" d="M 29.3475 0.716419C 29.2374 0.661309 27.0352 0 23.5666 0C 19.8778 0 14.3171 0.826637 8.75644 4.73938C 4.13171 7.99082 1.1036 12.7853 0.222701 18.186C -0.437976 22.4845 0.387873 26.7279 2.48002 29.5936C 3.80137 31.3571 4.35193 32.2939 6.99464 34.1677C 10.1879 36.4271 12.8306 36.7027 12.8306 36.7027C 12.8306 36.7027 7.82048 35.1045 4.90249 28.3261C 2.3699 21.4926 5.89352 13.9977 12.8306 11.2974C 14.4823 10.6912 16.134 10.3605 17.7306 10.3605C 20.4284 10.3605 22.4655 11.2423 23.5116 11.8485C 24.0071 12.124 24.5576 12.5098 24.5576 12.5098L 24.7228 12.0689L 29.5678 0.771528L 29.3475 0.716419ZM 27.806 3.58209L 26.7599 4.79449C 26.7599 4.79449 17.7857 1.48795 8.59128 7.38462C 0.718215 12.4547 -0.493026 20.9415 1.70923 27.0586C 0.608102 24.5787 0.277757 21.4374 0.773265 18.2411C 1.59911 12.9506 4.57216 8.32148 9.03172 5.18026C 14.4823 1.32262 19.9329 0.551091 23.5116 0.551091C 26.1543 0.551091 28.0812 0.991964 28.797 1.15729L 27.806 3.58209Z"/>
<path id="path9_stroke_2x" d="M 29.3475 0.716419L 28.9 1.61067L 28.9982 1.65984L 29.1048 1.68651L 29.3475 0.716419ZM 8.75644 4.73938L 9.33158 5.55744L 9.3319 5.55721L 8.75644 4.73938ZM 0.222701 18.186L -0.764298 18.025L -0.765693 18.0341L 0.222701 18.186ZM 2.48002 29.5936L 1.67229 30.1833L 1.67974 30.1932L 2.48002 29.5936ZM 6.99464 34.1677L 6.41625 34.9834L 6.41704 34.984L 6.99464 34.1677ZM 12.8306 36.7027L 12.7269 37.6973L 13.1345 35.75L 12.8306 36.7027ZM 4.90249 28.3261L 3.96482 28.6736L 3.97379 28.6978L 3.98399 28.7215L 4.90249 28.3261ZM 12.8306 11.2974L 12.4861 10.3586L 12.4769 10.362L 12.4679 10.3655L 12.8306 11.2974ZM 23.5116 11.8485L 23.0102 12.7137L 23.0178 12.7181L 23.0256 12.7224L 23.5116 11.8485ZM 24.5576 12.5098L 23.9838 13.3287L 25.0412 14.0696L 25.4941 12.8606L 24.5576 12.5098ZM 24.7228 12.0689L 23.8038 11.6748L 23.7945 11.6962L 23.7864 11.7181L 24.7228 12.0689ZM 29.5678 0.771528L 30.4868 1.16567L 30.9496 0.0864939L 29.8105 -0.198559L 29.5678 0.771528ZM 27.806 3.58209L 28.5631 4.23535L 28.6698 4.11165L 28.7316 3.96042L 27.806 3.58209ZM 26.7599 4.79449L 26.4142 5.73283L 27.0644 5.97239L 27.517 5.44775L 26.7599 4.79449ZM 8.59128 7.38462L 8.05143 6.54286L 8.04986 6.54387L 8.59128 7.38462ZM 1.70923 27.0586L 0.795275 27.4644L 2.65011 26.7198L 1.70923 27.0586ZM 0.773265 18.2411L -0.21477 18.0869L -0.214931 18.0879L 0.773265 18.2411ZM 9.03172 5.18026L 9.60759 5.99781L 9.60942 5.99651L 9.03172 5.18026ZM 28.797 1.15729L 29.7227 1.53561L 30.1674 0.447505L 29.022 0.182947L 28.797 1.15729ZM 29.7951 -0.177837C 29.6883 -0.231269 29.55 -0.272096 29.4982 -0.287681C 29.4111 -0.313887 29.2807 -0.350297 29.1305 -0.388323C 28.8407 -0.461411 28.4093 -0.557374 27.8866 -0.64789C 26.8616 -0.824395 25.3589 -0.998316 23.5666 -1L 23.5666 1C 25.2429 0.998316 26.5756 1.15505 27.5464 1.32298C 28.0216 1.40468 28.3782 1.48437 28.6407 1.55078C 28.7666 1.5825 28.8534 1.6068 28.9213 1.62731C 29.0247 1.65843 28.9792 1.65033 28.9 1.61067L 29.7951 -0.177837ZM 23.5666 -1C 19.8041 -0.997279 13.9459 -0.10189 8.18098 3.92155L 9.3319 5.55721C 14.6884 1.75516 19.9516 0.997279 23.5666 1L 23.5666 -1ZM 8.18131 3.92133C 3.34254 7.32324 0.161125 12.3516 -0.764257 18.025L 1.20966 18.347C 2.04608 13.219 4.92087 8.65841 9.33158 5.55744L 8.18131 3.92133ZM -0.765693 18.0341C -1.45625 22.527 -0.611548 27.0549 1.67236 30.1832L 3.28768 29.0039C 1.38729 26.4009 0.580301 22.442 1.21109 18.3379L -0.765693 18.0341ZM 1.67974 30.1932C 3.0108 31.9697 3.63871 33.0141 6.41625 34.9834L 7.57303 33.3519C 5.06515 31.5738 4.59194 30.7445 3.28029 28.994L 1.67974 30.1932ZM 6.41704 34.984C 8.10067 36.1688 9.69338 36.8653 10.7955 37.2317C 11.3638 37.4192 11.8509 37.5388 12.1666 37.6039C 12.3325 37.6378 12.4736 37.6618 12.5604 37.675C 12.6076 37.6822 12.6495 37.6879 12.6736 37.691C 12.6875 37.6927 12.7009 37.6944 12.7079 37.6952C 12.7124 37.6957 12.7171 37.6962 12.7194 37.6965C 12.7209 37.6966 12.7228 37.6968 12.7236 37.6969C 12.7243 37.697 12.7251 37.6971 12.7254 37.6971C 12.7257 37.6971 12.7261 37.6972 12.7262 37.6972C 12.7266 37.6972 12.7269 37.6973 12.8306 36.7027C 12.9343 35.7081 12.9347 35.7081 12.935 35.7081C 12.9351 35.7081 12.9354 35.7082 12.9356 35.7082C 12.9355 35.7082 12.937 35.7083 12.9367 35.7083C 12.9365 35.7083 12.9383 35.7085 12.938 35.7085C 12.9384 35.7085 12.9386 35.7085 12.938 35.7085C 12.9348 35.7081 12.933 35.7079 12.9268 35.7071C 12.9106 35.705 12.8925 35.7026 12.8613 35.6978C 12.791 35.6871 12.7007 35.672 12.569 35.6448C 12.2894 35.5875 11.9162 35.497 11.4248 35.3333C 10.4072 34.997 9.08188 34.426 7.57224 33.3513L 6.41704 34.984ZM 12.8306 36.7027C 13.1345 35.75 13.135 35.7501 13.1355 35.7503C 13.1356 35.7503 13.136 35.7504 13.1363 35.7505C 13.1361 35.7505 13.1379 35.7511 13.1376 35.7509C 13.1375 35.7509 13.1389 35.7514 13.1388 35.7514C 13.1399 35.7517 13.1381 35.7511 13.1361 35.7504C 13.1292 35.7481 13.1232 35.7461 13.11 35.7413C 13.0782 35.73 13.0401 35.7159 12.9803 35.692C 12.8495 35.6399 12.6795 35.5672 12.4468 35.4513C 11.9582 35.2093 11.3248 34.8481 10.5714 34.2643C 9.01399 33.0675 7.19674 31.1654 5.821 27.9307L 3.98399 28.7215C 5.52624 32.2652 7.67306 34.5514 9.35024 35.8483C 10.2141 36.5113 11.0156 36.9733 11.5576 37.2428C 11.8402 37.3826 12.0844 37.4877 12.239 37.5495C 12.3219 37.5825 12.3943 37.6094 12.4373 37.6248C 12.4615 37.6334 12.484 37.6412 12.4963 37.6453C 12.5037 37.6479 12.5114 37.6504 12.5151 37.6516C 12.5177 37.6525 12.5206 37.6534 12.5219 37.6538C 12.5228 37.6541 12.524 37.6545 12.5245 37.6547C 12.5249 37.6548 12.5255 37.655 12.5257 37.655C 12.5262 37.6552 12.5267 37.6554 12.8306 36.7027ZM 5.84017 27.9786C 3.50668 21.6823 6.73947 14.7415 13.1934 12.2293L 12.4679 10.3655C 5.04756 13.2539 1.23312 21.3028 3.96482 28.6736L 5.84017 27.9786ZM 13.1752 12.2361C 14.7535 11.6537 16.2326 11.3556 17.7306 11.3605L 17.7306 9.36051C 16.0354 9.36539 14.2111 9.72865 12.4861 10.3586L 13.1752 12.2361ZM 17.7306 11.3605C 20.2111 11.3605 22.0764 12.1725 23.0102 12.7137L 24.013 10.9832C 22.8546 10.312 20.6457 9.36051 17.7306 9.36051L 17.7306 11.3605ZM 23.0256 12.7224C 23.2489 12.8462 23.4794 12.9923 23.672 13.1187C 23.7665 13.1806 23.8434 13.2324 23.9005 13.2714C 23.9283 13.2903 23.9489 13.3045 23.964 13.315C 23.9712 13.3199 23.9761 13.3234 23.9798 13.326C 23.9815 13.3271 23.9825 13.3278 23.9834 13.3284C 23.9837 13.3287 23.9838 13.3287 23.984 13.3289C 23.984 13.3289 23.984 13.3289 23.984 13.3289C 23.984 13.3289 23.9839 13.3288 23.9839 13.3288C 23.9839 13.3288 23.9839 13.3288 23.9839 13.3288C 23.9838 13.3288 23.9838 13.3287 24.5576 12.5098C 25.1315 11.6908 25.1314 11.6908 25.1314 11.6907C 25.1314 11.6907 25.1313 11.6907 25.1313 11.6907C 25.1313 11.6906 25.1312 11.6906 25.1311 11.6905C 25.131 11.6904 25.1307 11.6903 25.1305 11.6901C 25.1301 11.6899 25.1295 11.6894 25.1287 11.6889C 25.1275 11.688 25.1253 11.6865 25.1228 11.6848C 25.1183 11.6816 25.1109 11.6764 25.102 11.6703C 25.0851 11.6586 25.0588 11.6405 25.0272 11.619C 24.9657 11.577 24.8739 11.5152 24.7688 11.4462C 24.5622 11.3108 24.2697 11.1263 23.9976 10.9745L 23.0256 12.7224ZM 25.4941 12.8606L 25.6592 12.4197L 23.7864 11.7181L 23.6212 12.159L 25.4941 12.8606ZM 25.6418 12.463L 30.4868 1.16567L 28.6487 0.377386L 23.8038 11.6748L 25.6418 12.463ZM 29.8105 -0.198559L 29.5903 -0.253668L 29.1048 1.68651L 29.325 1.74161L 29.8105 -0.198559ZM 27.0488 2.92883L 26.0028 4.14123L 27.517 5.44775L 28.5631 4.23535L 27.0488 2.92883ZM 26.7599 4.79449C 27.1056 3.85616 27.1052 3.85599 27.1047 3.85581C 27.1045 3.85574 27.104 3.85555 27.1035 3.85539C 27.103 3.85519 27.1017 3.85473 27.1006 3.85433C 27.099 3.85373 27.0956 3.85252 27.0923 3.85132C 27.0868 3.84935 27.0769 3.84579 27.0659 3.84193C 27.0463 3.83503 27.0134 3.82364 26.9746 3.81062C 26.9017 3.78619 26.7854 3.74863 26.6433 3.706C 26.3689 3.62385 25.947 3.50825 25.43 3.39358C 24.4173 3.17001 22.9135 2.92747 21.1499 2.87865C 17.6731 2.79041 12.84 3.49896 8.05143 6.54286L 9.13113 8.22638C 13.537 5.37361 17.7882 4.78709 21.0971 4.87796C 22.7263 4.91869 24.0407 5.13424 24.9981 5.34638C 25.4661 5.44957 25.8171 5.54622 26.0693 5.62187C 26.1906 5.65813 26.2761 5.68585 26.3391 5.70698C 26.3683 5.71674 26.3869 5.72319 26.4018 5.72845C 26.4081 5.73067 26.4112 5.73176 26.4144 5.73291C 26.4154 5.73329 26.4164 5.73365 26.4159 5.73346C 26.4159 5.73346 26.4154 5.73329 26.4154 5.73329C 26.4153 5.73324 26.415 5.73312 26.4149 5.7331C 26.4145 5.73297 26.4142 5.73283 26.7599 4.79449ZM 8.04986 6.54387C -0.279693 11.9079 -1.56394 20.919 0.768348 27.3973L 2.65011 26.7198C 0.577887 20.9639 1.71612 13.0014 9.1327 8.22537L 8.04986 6.54387ZM 2.62319 26.6528C 1.61421 24.3804 1.28944 21.4391 1.76146 18.3943L -0.214931 18.0879C -0.733927 21.4358 -0.398004 24.7769 0.795275 27.4644L 2.62319 26.6528ZM 1.7613 18.3953C 2.5432 13.3864 5.35802 8.9911 9.60759 5.9978L 8.45586 4.36271C 3.78629 7.65185 0.655026 12.5149 -0.21477 18.0869L 1.7613 18.3953ZM 9.60942 5.99651C 14.8516 2.25193 20.0031 1.54862 23.5116 1.55109L 23.5116 -0.448909C 19.8626 -0.446438 14.113 0.39331 8.45403 4.36401L 9.60942 5.99651ZM 23.5116 1.55109C 26.042 1.54477 27.8572 1.96654 28.5719 2.13164L 29.022 0.182947C 28.3053 0.0173854 26.2665 -0.442592 23.5116 -0.448909L 23.5116 1.55109ZM 27.8713 0.778968L 26.8803 3.20377L 28.7316 3.96042L 29.7227 1.53561L 27.8713 0.778968Z"/>
<path id="path10_fill" d="M 15.4709 5.51091C 15.4709 3.36166 14.4798 1.37773 13.0484 0C 11.8922 0.991964 9.91016 1.59817 7.65285 1.59817C 5.39553 1.59817 3.4135 0.936855 2.31237 0C 0.880901 1.37773 0 3.36166 0 5.51091C 0 8.04593 0.605619 10.3054 3.13821 11.6831L 3.13821 6.99886C 3.13821 6.11711 4.23934 5.4558 5.06519 5.4558C 5.94609 5.4558 7.04722 6.11711 7.04722 6.99886L 7.04722 13.0609C 7.04722 13.1711 7.43262 13.2262 7.92813 13.2262C 8.42364 13.2262 8.75397 13.1711 8.75397 13.116L 8.75397 6.99886C 8.75397 6.11711 9.57981 5.4558 10.4607 5.4558C 11.2866 5.4558 12.4428 6.17222 12.4428 6.99886L 12.4428 11.6831C 14.1495 10.3054 15.4709 8.04593 15.4709 5.51091Z"/>
<path id="path11_stroke_2x" d="M 13.0484 0L 13.7418 -0.720502L 13.087 -1.35075L 12.3972 -0.758949L 13.0484 0ZM 2.31237 0L 2.96038 -0.761633L 2.27103 -1.34814L 1.61891 -0.720502L 2.31237 0ZM 3.13821 11.6831L 2.66035 12.5616L 4.13821 13.3655L 4.13821 11.6831L 3.13821 11.6831ZM 12.4428 11.6831L 11.4428 11.6831L 11.4428 13.7755L 13.0709 12.4613L 12.4428 11.6831ZM 16.4709 5.51091C 16.4709 3.05449 15.3422 0.819767 13.7418 -0.720502L 12.3549 0.720502C 13.6175 1.93569 14.4709 3.66882 14.4709 5.51091L 16.4709 5.51091ZM 12.3972 -0.758949C 11.4855 0.0232303 9.77041 0.598165 7.65285 0.598165L 7.65285 2.59817C 10.0499 2.59817 12.2988 1.9607 13.6995 0.758949L 12.3972 -0.758949ZM 7.65285 0.598165C 5.552 0.598165 3.82729 -0.0240518 2.96038 -0.761633L 1.66436 0.761633C 2.9997 1.89776 5.23907 2.59817 7.65285 2.59817L 7.65285 0.598165ZM 1.61891 -0.720502C -0.00789131 0.845232 -1 3.08907 -1 5.51091L 1 5.51091C 1 3.63424 1.76969 1.91022 3.00582 0.720502L 1.61891 -0.720502ZM -1 5.51091C -0.998027 6.8412 -0.811895 8.24547 -0.294572 9.43682C 0.242708 10.6203 1.24424 11.7727 2.66035 12.5616L 3.61608 10.8047C 2.4996 10.2158 1.93202 9.54966 1.53334 8.62519C 1.1147 7.70862 0.998027 6.71564 1 5.51091L -1 5.51091ZM 4.13821 11.6831L 4.13821 6.99886L 2.13821 6.99886L 2.13821 11.6831L 4.13821 11.6831ZM 4.13821 6.99886C 4.13821 6.99713 4.14592 6.87595 4.38055 6.70514C 4.609 6.53884 4.88826 6.4558 5.06519 6.4558L 5.06519 4.4558C 4.41627 4.4558 3.73204 4.70342 3.20347 5.08821C 2.68107 5.46849 2.13821 6.11884 2.13821 6.99886L 4.13821 6.99886ZM 5.06519 6.4558C 5.281 6.4558 5.57566 6.54622 5.80494 6.71015C 5.93251 6.79717 5.96258 6.82327 6.01494 6.91822C 6.04725 6.96958 6.04722 6.99417 6.04722 6.99886L 8.04722 6.99886C 8.04722 6.11663 7.50197 5.46487 6.96815 5.0832C 6.42664 4.69604 5.73028 4.4558 5.06519 4.4558L 5.06519 6.4558ZM 6.04722 6.99886L 6.04722 13.0609L 8.04722 13.0609L 8.04722 6.99886L 6.04722 6.99886ZM 6.04722 13.0609C 6.04722 13.7363 6.61765 14.0042 6.68905 14.0379C 6.81409 14.0925 7.00617 14.1474 7.13036 14.17C 7.343 14.2055 7.64914 14.2257 7.92813 14.2262L 7.92813 12.2262C 7.70607 12.2262 7.55053 12.2131 7.47336 12.1997C 7.42528 12.1913 7.46479 12.1925 7.54131 12.2285C 7.57911 12.2463 7.68248 12.2985 7.78814 12.4092C 7.90526 12.5319 8.04722 12.7544 8.04722 13.0609L 6.04722 13.0609ZM 7.92813 14.2262C 8.20919 14.2256 8.48649 14.207 8.66842 14.1817C 8.77386 14.166 8.91842 14.1343 9.01112 14.105C 9.07776 14.0815 9.21632 14.0164 9.30003 13.9642C 9.37151 13.9157 9.75397 13.6479 9.75397 13.116L 7.75397 13.116C 7.75397 12.8555 7.85463 12.6552 7.94648 12.5312C 8.03316 12.4141 8.12593 12.3439 8.17759 12.3089C 8.27795 12.2408 8.3624 12.2131 8.37811 12.2078C 8.42292 12.1929 8.43442 12.1948 8.38531 12.2018C 8.2782 12.2178 8.14257 12.2267 7.92813 12.2262L 7.92813 14.2262ZM 9.75397 13.116L 9.75397 6.99886L 7.75397 6.99886L 7.75397 13.116L 9.75397 13.116ZM 9.75397 6.99886C 9.75397 6.88776 9.80264 6.76491 9.93354 6.65097C 10.0701 6.53207 10.2643 6.4558 10.4607 6.4558L 10.4607 4.4558C 9.16238 4.4558 7.75397 5.439 7.75397 6.99886L 9.75397 6.99886ZM 10.4607 6.4558C 10.6231 6.4558 10.9186 6.54275 11.1771 6.72888C 11.4575 6.93078 11.4428 7.05501 11.4428 6.99886L 13.4428 6.99886C 13.4428 6.11607 12.8499 5.46877 12.3457 5.1058C 11.8197 4.72706 11.1242 4.4558 10.4607 4.4558L 10.4607 6.4558ZM 11.4428 6.99886L 11.4428 11.6831L 13.4428 11.6831L 13.4428 6.99886L 11.4428 6.99886ZM 13.0709 12.4613C 14.9767 10.9228 16.4709 8.39168 16.4709 5.51091L 14.4709 5.51091C 14.4709 7.70018 13.3223 9.68801 11.8146 10.905L 13.0709 12.4613Z"/>
</defs>
</svg>
