<svg width="93" height="93" viewBox="0 0 93 93" version="1.1" xmlns="http://www.w3.org/2000/svg" xmlns:xlink="http://www.w3.org/1999/xlink">
<title>Vector</title>
<desc>Created using Figma</desc>
<g id="Canvas" transform="translate(698 -498)">
<g id="Vector">
<use xlink:href="#path0_fill" transform="translate(-698 498)" fill="#E3E1D9"/>
</g>
</g>
<defs>
<path id="path0_fill" d="M 85.25 48.7188L 93 46.1695L 92.6219 40.3157L 84.5884 38.8051C 84.3049 37.2 83.8323 35.5949 83.2652 33.9899L 89.5031 28.6081L 86.8567 23.3208L 78.8232 25.0203C 77.7835 23.5096 76.6494 21.999 75.5152 20.6772L 79.1067 13.4071L 74.6646 9.53604L 67.9543 14.1624C 66.5366 13.2183 65.1189 12.4629 63.6067 11.7076L 64.1738 3.58782L 58.5976 1.69949L 54.1555 8.49746C 52.3598 8.1198 50.564 7.93096 48.7683 7.74213L 46.2165 2.88135e-06L 40.3567 0.377662L 38.8445 8.40304C 37.2378 8.68629 35.6311 9.15837 34.0244 9.72487L 28.6372 3.4934L 23.3445 6.13706L 25.0457 14.1624C 23.5335 15.201 22.0213 16.334 20.6982 17.467L 13.4207 13.8792L 9.54573 18.3167L 14.1768 25.0203C 13.2317 26.4366 12.4756 27.8528 11.7195 29.3634L 3.59146 28.797L 1.70122 34.3675L 8.5061 38.8995C 8.12805 40.6934 7.93902 42.4873 7.75 44.2812L 1.44214e-06 46.8305L 0.378052 52.6843L 8.41159 54.1949C 8.69513 55.8 9.16768 57.4051 9.73475 59.0102L 3.49695 64.3919L 6.14329 69.6792L 14.1768 67.9797C 15.2165 69.4904 16.3506 71.001 17.4848 72.3228L 13.8933 79.5929L 18.3354 83.464L 25.0457 78.8376C 26.4634 79.7817 27.8811 80.537 29.3933 81.2924L 28.8262 89.4122L 34.4024 91.3005L 38.939 84.5025C 40.7348 84.8802 42.5305 85.069 44.3262 85.2579L 46.878 93L 52.7378 92.6223L 54.25 84.5969C 55.8567 84.3137 57.4634 83.8416 59.0701 83.2751L 64.4573 89.5066L 69.75 86.8629L 68.0488 78.8376C 69.561 77.799 71.0732 76.666 72.3963 75.533L 79.6738 79.1208L 83.5488 74.6832L 78.9177 67.9797C 79.8628 66.5635 80.6189 65.1472 81.375 63.6365L 89.5031 64.203L 91.3933 58.6325L 84.5884 54.1005C 84.8719 52.401 85.1555 50.5127 85.25 48.7188ZM 46.4055 76.2883C 29.8659 76.2883 16.5396 62.8812 16.5396 46.4528C 16.5396 30.0244 29.9604 16.6173 46.4055 16.6173C 62.8506 16.6173 76.2713 30.0244 76.2713 46.4528C 76.2713 62.8812 62.9451 76.2883 46.4055 76.2883Z"/>
</defs>
</svg>
