<svg width="160" height="60" viewBox="0 0 160 60" fill="none" xmlns="http://www.w3.org/2000/svg">
<g clip-path="url(#clip0_1363_4353)">
<path fill-rule="evenodd" clip-rule="evenodd" d="M31.9995 22.9902C31.0107 22.9902 30.0441 23.2835 29.2219 23.8328C28.3998 24.3822 27.759 25.163 27.3806 26.0765C27.0022 26.9901 26.9032 27.9953 27.0961 28.9651C27.289 29.935 27.7651 30.8258 28.4643 31.525C29.1635 32.2242 30.0544 32.7003 31.0242 32.8933C31.994 33.0862 32.9992 32.9872 33.9128 32.6088C34.8263 32.2303 35.6072 31.5895 36.1565 30.7674C36.7059 29.9452 36.9991 28.9786 36.9991 27.9898C36.9991 26.6638 36.4724 25.3922 35.5348 24.4546C34.5972 23.517 33.3255 22.9902 31.9995 22.9902Z" fill="#006AA6"/>
<path fill-rule="evenodd" clip-rule="evenodd" d="M24.0022 6.33679e-07H0V60H24.0022C30.3665 60 36.4702 57.4718 40.9704 52.9715C45.4707 48.4713 47.9989 42.3676 47.9989 36.0033V23.9692C47.9931 17.6092 45.4621 11.5118 40.9623 7.01714C36.4625 2.52251 30.3622 -0.00146009 24.0022 6.33679e-07ZM41.9983 36.0033C41.9986 36.6206 41.9655 37.2375 41.8993 37.8513C41.2277 38.3343 40.4221 38.5958 39.5948 38.5993C39.2773 38.5961 38.9614 38.5536 38.6543 38.4728C36.9993 37.9453 35.4919 37.0352 34.2543 35.8163L30.0082 40.0623C32.6227 42.6558 36.0115 44.3261 39.6608 44.8199C38.0979 47.5999 35.8245 49.9147 33.0731 51.5277C30.3218 53.1406 27.1914 53.9936 24.0022 53.9995H6.00055V29.6012C11.9456 28.8028 17.6707 26.8225 22.8385 23.7771C28.0064 20.7318 32.5125 16.6829 36.0913 11.8691C37.5634 12.8561 38.8453 14.1008 39.8753 15.5431C41.2653 18.1344 41.9945 21.0286 41.9983 23.9692V36.0033Z" fill="#006AA6"/>
<path fill-rule="evenodd" clip-rule="evenodd" d="M61.9755 39.9854C61.9755 37.5104 63.499 35.9869 67.9706 35.9869C70.9516 35.9869 73.9491 35.9869 77.9642 37.9889C77.9642 37.9889 77.9972 31.9883 77.9642 31.9883C74.6916 29.9918 69.9671 29.9863 65.9576 29.9863C58.9615 29.9863 55.9805 33.9849 55.9805 38.9844C55.9805 44.9795 55.9805 44.985 55.9805 44.985C55.9805 44.985 55.9805 44.985 55.9805 50.9855C55.9805 55.9851 58.9615 59.9891 65.9576 59.9891C69.9671 59.9891 74.6916 59.9891 77.9642 57.9871C77.9972 57.9871 77.9642 51.9865 77.9642 51.9865C73.9491 53.9885 70.9516 53.9885 67.9706 53.9885C63.499 53.9885 61.9755 52.465 61.9755 49.9845V39.9854Z" fill="#006AA6"/>
<path fill-rule="evenodd" clip-rule="evenodd" d="M98.0015 29.9863C93.9865 29.9863 89.2675 29.9863 85.9839 31.9883C85.9564 31.9883 85.9839 37.9889 85.9839 37.9889C90.0045 35.9869 93.002 35.9869 95.9885 35.9869C100.46 35.9869 102.006 37.5104 102.006 39.9854V41.9874C92.452 41.9874 84.0039 43.9894 84.0039 50.9855C84.0039 57.9816 88.0024 59.9891 94.003 59.9891H108.001V44.985V38.9844C108.001 33.9849 105.003 29.9863 98.0015 29.9863ZM102.006 53.9885H94.003C94.003 53.9885 90.483 54.0765 90.505 50.9855C90.527 47.8945 94.058 46.9705 102.006 46.987V53.9885Z" fill="#006AA6"/>
<path fill-rule="evenodd" clip-rule="evenodd" d="M114.504 34.9694V39.9689V59.9726H120.504V39.9854V38.9844C120.504 35.6844 130.487 34.9859 130.487 34.9859C130.487 34.9859 130.542 29.9863 130.487 29.9863C117.501 29.9863 114.504 34.9694 114.504 34.9694Z" fill="#006AA6"/>
<path fill-rule="evenodd" clip-rule="evenodd" d="M153.999 13.9922H151.997C153.955 20.3392 153.994 30.5583 153.994 30.9708C151.39 30.2557 148.696 29.924 145.997 29.9863C142.664 29.9863 136.025 30.1403 135.992 39.9799C135.992 39.9799 135.992 43.0104 135.992 44.9794C135.992 45.5294 135.992 45.59 135.992 45.458C135.992 42.9169 135.992 45.0674 135.992 45.458C135.992 46.327 135.992 47.7405 135.992 49.9735C136.025 60.9736 145.997 59.9671 145.997 59.9671H159.994V13.9922H153.999ZM153.999 53.972H147.999C147.999 53.972 141.998 54.1755 141.998 47.977C141.998 41.7784 141.707 37.6094 144.352 35.7724C146.998 33.9354 153.999 35.9814 153.999 35.9814V53.972Z" fill="#006AA6"/>
</g>
<defs>
<clipPath id="clip0_1363_4353">
<rect width="160.002" height="60" fill="white"/>
</clipPath>
</defs>
</svg>
