<svg width="250" height="47" viewBox="0 0 250 47" fill="none" xmlns="http://www.w3.org/2000/svg">
<g clip-path="url(#clip0_1363_4281)">
<path d="M206.275 40.9035L203.353 33.5874H201.588L201.582 46.2818H203.556V39.0611L206.746 46.2818H208.159V33.5874H206.281L206.275 40.9035Z" fill="#231815"/>
<path d="M248.064 40.8916L245.142 33.5754H243.377L243.371 46.2758H245.345L245.351 39.0491L248.535 46.2758H249.948V33.5754H248.07L248.064 40.8916Z" fill="#231815"/>
<mask id="mask0_1363_4281" style="mask-type:luminance" maskUnits="userSpaceOnUse" x="-8" y="-7" width="268" height="63">
<path d="M259.195 -6.49927H-7.82812V55.0885H259.195V-6.49927Z" fill="white"/>
</mask>
<g mask="url(#mask0_1363_4281)">
<path d="M238.85 33.4084C236.757 33.4084 235.535 34.601 235.535 36.5627V42.9903C235.535 45.28 236.68 46.4665 238.773 46.4665C240.866 46.4665 242.028 45.274 242.028 43.044V36.6163C242.028 34.595 240.77 33.4084 238.85 33.4084ZM239.858 43.2706C239.858 44.0815 239.488 44.4631 238.773 44.4631C238.057 44.4631 237.688 44.0517 237.688 43.2706V36.7833C237.688 35.9724 238.057 35.5908 238.773 35.5908C239.488 35.5908 239.858 35.9843 239.858 36.7833V43.2706Z" fill="#231815"/>
<path d="M233.975 33.5635H231.793V46.2579H233.975V33.5635Z" fill="#040000"/>
<path d="M224.367 35.5966H226.555V46.2637H228.666V35.5966H230.872V33.5693H224.367V35.5966Z" fill="#231815"/>
<path d="M219.346 33.5635L217.062 46.2638H219.167L219.62 43.5091H221.731L222.161 46.2638H224.361L222.083 33.5635H219.346ZM219.942 41.4699L220.676 37.3497H220.813L221.505 41.4699H219.942Z" fill="#231815"/>
<path d="M212.582 33.5693H209.535V46.2637H212.683C215.068 46.2637 216.046 45.1487 216.046 42.7219V37.0575C216.046 34.6724 214.961 33.5693 212.582 33.5693ZM213.864 43.0678C213.864 43.9264 213.548 44.3974 212.743 44.3974H211.658V35.4535H212.153C213.345 35.4535 213.864 35.9186 213.864 36.9621V43.0678Z" fill="#231815"/>
<path d="M198.181 43.3361C198.201 43.4869 198.189 43.6405 198.145 43.7861C198.1 43.9317 198.025 44.0659 197.923 44.1794C197.821 44.2929 197.696 44.3829 197.557 44.4432C197.417 44.5035 197.266 44.5326 197.113 44.5286C196.958 44.5344 196.803 44.5069 196.66 44.4481C196.516 44.3893 196.386 44.3005 196.28 44.1876C196.173 44.0748 196.092 43.9404 196.041 43.7935C195.99 43.6467 195.972 43.4907 195.986 43.3361V33.5693H193.84V42.9485C193.84 45.2501 195.003 46.4486 197.095 46.4486C199.188 46.4486 200.333 45.256 200.333 43.0022V33.5693H198.181V43.3361Z" fill="#231815"/>
<path d="M189.577 33.3965C187.484 33.3965 186.262 34.589 186.262 36.5507V42.9904C186.262 45.28 187.407 46.4665 189.499 46.4665C191.592 46.4665 192.755 45.274 192.755 43.05V36.6044C192.789 36.1772 192.73 35.7477 192.582 35.3453C192.435 34.9428 192.202 34.5769 191.901 34.2725C191.599 33.968 191.235 33.7322 190.834 33.581C190.433 33.4298 190.004 33.3669 189.577 33.3965ZM190.585 43.2646C190.585 44.0696 190.215 44.4572 189.499 44.4572C188.784 44.4572 188.414 44.0457 188.414 43.2646V36.7714C188.414 35.9664 188.778 35.5788 189.499 35.5788C190.221 35.5788 190.585 35.9783 190.585 36.7714V43.2646Z" fill="#231815"/>
<path d="M179.594 46.2697H181.77V40.7125H184.221V38.6256H181.77V35.7636H185.252V33.5693H179.594V46.2697Z" fill="#231815"/>
<path d="M20.6511 22.3954C20.5069 22.483 20.3917 22.6112 20.3199 22.7639C20.2481 22.9166 20.2229 23.087 20.2474 23.254C20.2719 23.4209 20.345 23.577 20.4577 23.7026C20.5704 23.8282 20.7175 23.9178 20.8808 23.9603C21.0441 24.0027 21.2163 23.9961 21.3759 23.9413C21.5355 23.8865 21.6754 23.7858 21.7781 23.652C21.8808 23.5181 21.9418 23.3569 21.9535 23.1886C21.9651 23.0203 21.9269 22.8523 21.8436 22.7055C21.7875 22.605 21.7117 22.5168 21.6206 22.4464C21.5295 22.376 21.4251 22.3247 21.3136 22.2957C21.2022 22.2668 21.086 22.2607 20.9722 22.2778C20.8583 22.2949 20.7491 22.335 20.6511 22.3954Z" fill="#3D505E"/>
<path d="M11.5755 24.1724C10.2551 23.4102 8.73835 23.0567 7.21702 23.1564C5.69569 23.2561 4.23809 23.8047 3.02848 24.7327C1.81886 25.6608 0.91156 26.9266 0.421264 28.3702C-0.0690311 29.8138 -0.120304 31.3704 0.273928 32.8431C0.66816 34.3159 1.4902 35.6386 2.63611 36.6443C3.78203 37.6499 5.20038 38.2932 6.71185 38.4928C8.22332 38.6924 9.76004 38.4395 11.1278 37.7658C12.4955 37.0922 13.6327 36.0282 14.3958 34.7083C14.9028 33.8314 15.232 32.8632 15.3646 31.8591C15.4973 30.8549 15.4307 29.8344 15.1688 28.856C14.9069 27.8775 14.4547 26.9603 13.8382 26.1567C13.2216 25.353 12.4528 24.6788 11.5755 24.1724Z" fill="#3D505E"/>
<path d="M30.5798 22.1212C31.9002 22.8814 33.4162 23.2332 34.9364 23.1324C36.4567 23.0315 37.9129 22.4825 39.1214 21.5547C40.3298 20.6269 41.2362 19.3618 41.7262 17.9192C42.2162 16.4766 42.2678 14.9211 41.8745 13.4492C41.4811 11.9773 40.6605 10.6549 39.5162 9.64908C38.3719 8.64321 36.9552 7.99894 35.445 7.7976C33.9348 7.59627 32.3988 7.84689 31.031 8.51785C29.6631 9.1888 28.5247 10.25 27.7595 11.5674C27.2505 12.4453 26.9197 13.4149 26.786 14.4208C26.6523 15.4267 26.7183 16.4491 26.9803 17.4294C27.2423 18.4097 27.6951 19.3288 28.3127 20.1339C28.9304 20.939 29.7008 21.6143 30.5798 22.1212Z" fill="#3D505E"/>
<path d="M17.2171 31.8821C15.8949 32.6444 14.8286 33.7818 14.1529 35.1502C13.4772 36.5187 13.2225 38.0568 13.4211 39.57C13.6196 41.0832 14.2625 42.5036 15.2684 43.6514C16.2743 44.7992 17.598 45.6229 19.072 46.0183C20.5461 46.4137 22.1043 46.3631 23.5496 45.8728C24.9949 45.3826 26.2624 44.4747 27.1916 43.264C28.1209 42.0533 28.6702 40.5942 28.7701 39.0713C28.8701 37.5484 28.5161 36.0301 27.753 34.7084C27.2471 33.8306 26.5732 33.0612 25.7698 32.444C24.9664 31.8269 24.0493 31.3741 23.0708 31.1117C22.0923 30.8492 21.0717 30.7821 20.0672 30.9143C19.0628 31.0465 18.0943 31.3754 17.2171 31.8821Z" fill="#3D505E"/>
<path d="M24.9315 14.3698C26.2528 13.6052 27.3176 12.4659 27.9912 11.0959C28.6647 9.726 28.9167 8.18705 28.7154 6.67383C28.514 5.16061 27.8682 3.74114 26.8598 2.59504C25.8514 1.44895 24.5257 0.627736 23.0505 0.235334C21.5752 -0.157069 20.0167 -0.103026 18.5721 0.390624C17.1276 0.884273 15.862 1.79534 14.9354 3.00854C14.0088 4.22173 13.4629 5.68252 13.3669 7.20606C13.2708 8.72959 13.6288 10.2474 14.3956 11.5674C15.4235 13.3336 17.1096 14.6204 19.0845 15.1457C21.0594 15.671 23.162 15.392 24.9315 14.3698Z" fill="#3D505E"/>
<path d="M34.4344 23.1348C32.9084 23.1348 31.4166 23.5873 30.1478 24.4351C28.879 25.2829 27.89 26.4879 27.3061 27.8977C26.7221 29.3076 26.5693 30.8589 26.867 32.3556C27.1647 33.8523 27.8996 35.2271 28.9786 36.3061C30.0577 37.3852 31.4324 38.12 32.9291 38.4177C34.4258 38.7154 35.9772 38.5626 37.387 37.9787C38.7968 37.3947 40.0019 36.4058 40.8497 35.1369C41.6975 33.8681 42.15 32.3764 42.15 30.8504C42.1508 29.8369 41.9517 28.8333 41.5642 27.8968C41.1768 26.9604 40.6085 26.1095 39.8919 25.3929C39.1753 24.6763 38.3244 24.108 37.3879 23.7205C36.4515 23.333 35.4478 23.134 34.4344 23.1348Z" fill="#3D505E"/>
<path d="M7.71746 23.1348C9.24397 23.136 10.7365 22.6843 12.0063 21.837C13.276 20.9897 14.2659 19.7847 14.8506 18.3746C15.4353 16.9645 15.5886 15.4127 15.2911 13.9154C14.9935 12.4182 14.2586 11.0429 13.1792 9.96347C12.0998 8.88406 10.7244 8.1491 9.2272 7.85158C7.72996 7.55406 6.17812 7.70736 4.76803 8.29207C3.35795 8.87679 2.15299 9.86664 1.30564 11.1364C0.458296 12.4061 0.00663557 13.8987 0.0078148 15.4252C0.0078148 17.4699 0.820078 19.4309 2.26592 20.8767C3.71176 22.3226 5.67273 23.1348 7.71746 23.1348Z" fill="#3D505E"/>
<path d="M15.3392 27.9346C15.7795 28.1884 16.2851 28.3059 16.7921 28.2723C17.2992 28.2388 17.7849 28.0556 18.1879 27.7461C18.5909 27.4365 18.8931 27.0144 19.0562 26.5331C19.2194 26.0519 19.2362 25.533 19.1045 25.0422C18.9729 24.5514 18.6986 24.1107 18.3165 23.7757C17.9344 23.4407 17.4616 23.2265 16.9577 23.1602C16.4539 23.0938 15.9417 23.1784 15.486 23.4031C15.0302 23.6278 14.6513 23.9826 14.3971 24.4227C14.0576 25.0136 13.9661 25.715 14.1427 26.3733C14.3192 27.0315 14.7495 27.593 15.3392 27.9346Z" fill="#3D505E"/>
<path d="M24.2454 22.795C24.6857 23.0487 25.1913 23.1663 25.6984 23.1327C26.2054 23.0991 26.6912 22.916 27.0942 22.6064C27.4972 22.2969 27.7993 21.8748 27.9625 21.3935C28.1256 20.9122 28.1424 20.3934 28.0108 19.9026C27.8791 19.4118 27.6049 18.971 27.2228 18.636C26.8407 18.301 26.3678 18.0868 25.864 18.0205C25.3602 17.9542 24.848 18.0387 24.3922 18.2635C23.9364 18.4882 23.5575 18.843 23.3033 19.283C22.9638 19.874 22.8723 20.5754 23.0489 21.2336C23.2255 21.8919 23.6557 22.4533 24.2454 22.795Z" fill="#3D505E"/>
<path d="M22.3631 30.5047C22.8031 30.2505 23.1579 29.8716 23.3826 29.4158C23.6074 28.96 23.6919 28.4478 23.6256 27.944C23.5593 27.4402 23.3451 26.9673 23.0101 26.5852C22.6751 26.2031 22.2343 25.9289 21.7435 25.7972C21.2527 25.6656 20.7339 25.6824 20.2526 25.8455C19.7714 26.0087 19.3493 26.3108 19.0397 26.7138C18.7301 27.1168 18.547 27.6026 18.5134 28.1096C18.4799 28.6167 18.5974 29.1223 18.8511 29.5626C19.1928 30.1523 19.7542 30.5825 20.4125 30.7591C21.0708 30.9357 21.7722 30.8442 22.3631 30.5047Z" fill="#3D505E"/>
<path d="M19.7936 15.7711C19.3538 16.0258 18.9994 16.4053 18.7752 16.8614C18.551 17.3176 18.4671 17.8299 18.5342 18.3338C18.6012 18.8376 18.8161 19.3102 19.1517 19.6919C19.4873 20.0736 19.9286 20.3472 20.4197 20.4781C20.9108 20.609 21.4297 20.5914 21.9108 20.4274C22.3919 20.2634 22.8135 19.9604 23.1224 19.5568C23.4313 19.1532 23.6136 18.667 23.6462 18.1598C23.6788 17.6526 23.5603 17.1471 23.3056 16.7072C23.1365 16.4152 22.9115 16.1592 22.6435 15.9541C22.3754 15.749 22.0696 15.5987 21.7435 15.5118C21.4174 15.4248 21.0773 15.403 20.7428 15.4475C20.4082 15.492 20.0857 15.602 19.7936 15.7711Z" fill="#3D505E"/>
<path d="M25.5269 28.2806C26.0364 28.2818 26.5347 28.1318 26.959 27.8498C27.3832 27.5677 27.7143 27.1662 27.9104 26.696C28.1064 26.2258 28.1586 25.708 28.0604 25.2081C27.9621 24.7082 27.7179 24.2486 27.3585 23.8876C26.9991 23.5265 26.5407 23.2801 26.0412 23.1796C25.5418 23.079 25.0238 23.1288 24.5527 23.3227C24.0815 23.5166 23.6785 23.8458 23.3945 24.2687C23.1104 24.6917 22.9582 25.1893 22.957 25.6988C22.957 26.3809 23.2276 27.0352 23.7094 27.5181C24.1911 28.001 24.8448 28.273 25.5269 28.2746" fill="#3D505E"/>
<path d="M16.6207 17.9951C16.1124 17.9951 15.6155 18.1458 15.1929 18.4282C14.7703 18.7106 14.4409 19.112 14.2464 19.5815C14.0519 20.0511 14.001 20.5678 14.1002 21.0664C14.1993 21.5649 14.4441 22.0228 14.8035 22.3822C15.1629 22.7416 15.6208 22.9863 16.1193 23.0855C16.6178 23.1847 17.1345 23.1338 17.6041 22.9393C18.0737 22.7448 18.4751 22.4154 18.7574 21.9927C19.0398 21.5701 19.1905 21.0733 19.1905 20.565C19.1905 20.2275 19.1241 19.8933 18.9949 19.5815C18.8658 19.2698 18.6765 18.9865 18.4378 18.7478C18.1992 18.5092 17.9159 18.3199 17.6041 18.1907C17.2923 18.0616 16.9581 17.9951 16.6207 17.9951Z" fill="#3D505E"/>
<path d="M19.1667 23.2542C19.0225 23.3418 18.9073 23.4699 18.8355 23.6226C18.7637 23.7753 18.7385 23.9458 18.763 24.1127C18.7875 24.2797 18.8607 24.4357 18.9733 24.5613C19.086 24.6869 19.2332 24.7765 19.3965 24.819C19.5598 24.8615 19.732 24.8549 19.8915 24.8C20.0511 24.7452 20.191 24.6446 20.2937 24.5107C20.3964 24.3768 20.4574 24.2157 20.4691 24.0473C20.4807 23.879 20.4425 23.711 20.3593 23.5642C20.3026 23.4643 20.2264 23.3768 20.1352 23.3068C20.0441 23.2369 19.9398 23.1859 19.8286 23.157C19.7174 23.1281 19.6015 23.1218 19.4878 23.1385C19.3741 23.1552 19.265 23.1945 19.1667 23.2542Z" fill="#3D505E"/>
<path d="M23.3049 21.8529C23.2178 21.7084 23.0902 21.5928 22.9378 21.5205C22.7855 21.4482 22.6152 21.4223 22.4483 21.4461C22.2813 21.4699 22.1251 21.5424 21.9991 21.6544C21.873 21.7665 21.7828 21.9132 21.7396 22.0762C21.6964 22.2392 21.7021 22.4113 21.7562 22.5711C21.8102 22.7308 21.91 22.8711 22.0433 22.9745C22.1765 23.0779 22.3372 23.1397 22.5054 23.1523C22.6736 23.1649 22.8417 23.1277 22.9889 23.0454C23.0899 22.9898 23.1786 22.9143 23.2497 22.8234C23.3207 22.7325 23.3725 22.6282 23.4021 22.5167C23.4316 22.4053 23.4382 22.2889 23.4215 22.1748C23.4048 22.0607 23.3652 21.9512 23.3049 21.8529Z" fill="#3D505E"/>
<path d="M21.0794 23.9934C20.9094 23.9922 20.7428 24.0416 20.6008 24.1352C20.4588 24.2288 20.3478 24.3625 20.2819 24.5193C20.216 24.6761 20.1982 24.8489 20.2306 25.0159C20.2631 25.1828 20.3444 25.3364 20.4642 25.457C20.5841 25.5777 20.737 25.6601 20.9037 25.6937C21.0705 25.7273 21.2434 25.7107 21.4006 25.6459C21.5579 25.581 21.6923 25.471 21.7869 25.3297C21.8816 25.1884 21.9321 25.0221 21.9321 24.852C21.9329 24.7396 21.9114 24.6281 21.8689 24.5239C21.8264 24.4198 21.7637 24.3251 21.6845 24.2453C21.6052 24.1655 21.5109 24.1021 21.4071 24.0589C21.3033 24.0157 21.1919 23.9934 21.0794 23.9934Z" fill="#3D505E"/>
<path d="M21.0778 22.2821C21.2465 22.2774 21.4101 22.2231 21.5481 22.1259C21.6862 22.0288 21.7925 21.8931 21.8538 21.7359C21.9152 21.5786 21.9288 21.4068 21.893 21.2418C21.8573 21.0769 21.7737 20.9261 21.6527 20.8084C21.5317 20.6907 21.3787 20.6113 21.2129 20.58C21.047 20.5488 20.8756 20.5671 20.7201 20.6327C20.5646 20.6984 20.4319 20.8084 20.3385 20.949C20.2452 21.0897 20.1954 21.2547 20.1953 21.4235C20.1953 21.6512 20.2858 21.8696 20.4468 22.0306C20.6078 22.1916 20.8262 22.2821 21.0539 22.2821" fill="#3D505E"/>
<path d="M22.1341 24.7387C22.2329 24.7973 22.3423 24.8357 22.4561 24.8515C22.5699 24.8673 22.6856 24.8603 22.7966 24.8309C22.9077 24.8014 23.0117 24.7502 23.1027 24.6801C23.1937 24.61 23.2698 24.5225 23.3266 24.4227C23.409 24.2756 23.4462 24.1074 23.4336 23.9392C23.421 23.7711 23.3591 23.6103 23.2558 23.4771C23.1524 23.3438 23.0121 23.244 22.8523 23.19C22.6926 23.136 22.5204 23.1302 22.3574 23.1734C22.1944 23.2166 22.0477 23.3069 21.9357 23.4329C21.8236 23.5589 21.7512 23.7152 21.7274 23.8821C21.7035 24.0491 21.7294 24.2193 21.8017 24.3717C21.8741 24.524 21.9897 24.6517 22.1341 24.7387Z" fill="#3D505E"/>
<path d="M20.0246 21.525C19.8778 21.4417 19.7098 21.4035 19.5415 21.4151C19.3731 21.4268 19.212 21.4878 19.0781 21.5905C18.9442 21.6932 18.8436 21.8331 18.7888 21.9927C18.734 22.1523 18.7274 22.3245 18.7698 22.4878C18.8123 22.6511 18.9019 22.7982 19.0275 22.9109C19.1531 23.0236 19.3092 23.0967 19.4761 23.1212C19.643 23.1457 19.8135 23.1205 19.9662 23.0487C20.1189 22.9769 20.247 22.8617 20.3346 22.7175C20.3943 22.6193 20.4336 22.5101 20.4503 22.3964C20.467 22.2827 20.4607 22.1668 20.4318 22.0556C20.4029 21.9444 20.3519 21.8402 20.282 21.749C20.212 21.6579 20.1245 21.5817 20.0246 21.525Z" fill="#3D505E"/>
<path d="M169.28 38.7508H167.11V33.5693H164.957V46.2637H167.11L167.092 40.8676H169.268L169.28 46.2637H171.456V33.5693H169.28V38.7508Z" fill="#231815"/>
<path d="M160.915 33.4502C158.816 33.4502 157.594 34.6427 157.594 36.6104V42.9904C157.594 45.28 158.697 46.4666 160.831 46.4666C162.966 46.4666 164.099 45.274 164.099 43.044V41.7323H161.923V43.4376C161.923 44.3081 161.052 44.3916 160.843 44.3916C160.635 44.3916 159.746 44.3081 159.746 43.4376V36.4315C159.746 35.561 160.831 35.5669 160.831 35.5669C160.831 35.5669 161.923 35.5669 161.923 36.4315V37.8089H164.099V36.6163C164.126 36.1919 164.063 35.7665 163.912 35.3688C163.762 34.971 163.528 34.61 163.226 34.3101C162.924 34.0103 162.562 33.7784 162.164 33.63C161.765 33.4817 161.339 33.4204 160.915 33.4502Z" fill="#231815"/>
<path d="M156.957 37.2364C156.957 35.555 156.259 33.7125 153.54 33.5635H150.32V46.2638H152.461V41.136H153.415L154.906 46.2638H157.082L155.418 40.6769C156.527 40.0031 156.975 38.7509 156.957 37.2424M153.379 38.9716H152.449V35.7875H153.278C153.474 35.7811 153.669 35.817 153.85 35.8928C154.031 35.9687 154.194 36.0826 154.327 36.2269C154.46 36.3712 154.56 36.5425 154.621 36.729C154.681 36.9156 154.701 37.113 154.679 37.308C154.679 38.5005 154.083 38.9358 153.361 38.9656" fill="#231815"/>
<path d="M143.926 33.5635L141.648 46.2638H143.747L144.2 43.5151H146.365L146.794 46.2638H148.988L146.705 33.5635H143.926ZM144.522 41.4699L145.256 37.3497H145.411L146.103 41.4699H144.522Z" fill="#231815"/>
<path d="M134.906 46.2697H140.589V44.0695H137.089V40.7364H139.605V38.7329H137.089V35.7755H140.589V33.5693H134.906V46.2697Z" fill="#231815"/>
<path d="M132.007 39.2099C130.695 38.238 129.872 37.767 129.849 36.6877C129.842 36.5396 129.866 36.3917 129.917 36.2528C129.969 36.1139 130.048 35.9867 130.15 35.8789C130.252 35.7711 130.374 35.6847 130.51 35.6249C130.645 35.5652 130.791 35.5332 130.94 35.531C131.751 35.5727 132.132 36.3896 132.454 37.2601L134.309 36.7533C134.38 35.525 132.854 33.45 131.083 33.4143C129.067 33.3725 127.756 34.738 127.821 36.8845C127.875 38.6733 129.085 39.7406 130.343 40.8019C131.602 41.8633 132.216 42.0541 132.216 43.1035C132.22 43.274 132.189 43.4436 132.124 43.6015C132.06 43.7593 131.963 43.902 131.84 44.0203C131.717 44.1387 131.571 44.2301 131.411 44.2889C131.251 44.3477 131.08 44.3724 130.91 44.3616C130.01 44.3616 129.544 43.7653 129.419 42.3343L127.529 42.6623C127.486 43.1526 127.547 43.6465 127.709 44.1115C127.87 44.5764 128.129 45.0018 128.467 45.3596C128.805 45.7173 129.215 45.9994 129.67 46.1871C130.125 46.3748 130.615 46.4639 131.107 46.4485C131.936 46.4302 132.728 46.0994 133.324 45.5223C133.92 44.9452 134.276 44.1644 134.32 43.336C134.386 41.4518 133.414 40.2593 132.007 39.2099Z" fill="#231815"/>
<path d="M120.895 46.2637H126.577V44.0635H123.077V40.7364H125.593V38.727H123.077V35.7695H126.577V33.5693H120.895V46.2637Z" fill="#231815"/>
<path d="M120.117 37.2363C120.117 35.5549 119.413 33.7124 116.694 33.5693H113.48V46.2637H115.597V41.1359H116.557L118.048 46.2578H120.224L118.578 40.6768C119.688 40.003 120.135 38.7508 120.117 37.2363ZM116.539 38.9655H115.597V35.7934H116.432C116.628 35.7859 116.822 35.821 117.003 35.8962C117.184 35.9714 117.346 36.0849 117.479 36.2288C117.612 36.3728 117.711 36.5438 117.771 36.7301C117.832 36.9164 117.851 37.1135 117.827 37.3079C117.827 38.5004 117.267 38.9416 116.509 38.9655" fill="#231815"/>
<path d="M98.7734 46.2579H104.456V44.0577H100.956V40.7305H103.478V38.7271H100.956V35.7637H104.456V33.5635H98.7734V46.2579Z" fill="#231815"/>
<path d="M92.1602 46.2638H94.3305V40.7067H96.7812V38.6198H94.3305V35.7577H97.8127V33.5635H92.1602V46.2638Z" fill="#231815"/>
<path d="M84.171 33.5635H81.9648V46.2638H87.6174V44.2962H84.171V33.5635Z" fill="#231815"/>
<path d="M80.4323 33.5515H78.25V46.2459H80.4323V33.5515Z" fill="#040000"/>
<path d="M74.9518 38.745H72.7814V33.5635H70.6289V46.2579H72.7814L72.7635 40.8617H74.9399L74.9518 46.2579H77.1281V33.5635H74.9518V38.745Z" fill="#231815"/>
<path d="M66.4657 33.3906C64.3669 33.3906 63.1445 34.5831 63.1445 36.5508V42.9904C63.1445 45.2801 64.2476 46.4666 66.3822 46.4666C68.5168 46.4666 69.6497 45.2741 69.6497 43.0441V41.7323H67.4734V43.4078C67.4734 44.2783 66.6028 44.3618 66.3942 44.3618C66.1855 44.3618 65.297 44.2783 65.297 43.4078V36.4316C65.297 35.561 66.3822 35.567 66.3822 35.567C66.3822 35.567 67.4734 35.567 67.4734 36.4316V37.803H69.6497V36.6104C69.6834 36.1826 69.6244 35.7526 69.4766 35.3497C69.3289 34.9469 69.0959 34.5806 68.7936 34.2761C68.4913 33.9715 68.1268 33.7358 67.7251 33.5851C67.3233 33.4343 66.8937 33.372 66.4657 33.4025" fill="#231815"/>
<path d="M62.3278 37.2364C62.3278 35.555 61.6302 33.7125 58.9112 33.5635H55.6914V46.2638H57.832V41.136H58.786L60.2766 46.2638H62.459L60.7894 40.6769C61.8985 40.0031 62.3457 38.7509 62.3278 37.2424M58.7502 38.9716H57.8201V35.7875H58.6548C58.8507 35.781 59.0457 35.8169 59.2265 35.8927C59.4072 35.9686 59.5694 36.0827 59.7019 36.2271C59.8344 36.3715 59.9342 36.5429 59.9943 36.7294C60.0543 36.916 60.0734 37.1134 60.0501 37.308C60.0501 38.5005 59.4896 38.9358 58.7323 38.9656" fill="#231815"/>
<path d="M49.4126 33.5635L47.1289 46.2638H49.2337L49.6869 43.5091H51.8513L52.2806 46.2638H54.4808L52.2031 33.5635H49.4126ZM50.0088 41.4699L50.7422 37.3497H50.8794L51.571 41.4699H50.0088Z" fill="#231815"/>
<path d="M90.8425 33.5693H88.6602V46.2637H90.8425V33.5693Z" fill="#040000"/>
<path d="M58.6037 18.6213C58.6037 18.6213 57.8525 18.0906 57.7869 18.025C57.7213 17.9594 56.5943 17.1783 56.493 17.065C56.3916 16.9517 55.4555 16.2958 55.3422 16.1826C55.2081 16.0735 55.0667 15.9739 54.9189 15.8844C55.1574 15.6757 55.3124 15.5326 55.3422 15.5028C55.5151 15.3418 56.6659 14.0778 56.5824 14.1433C56.4989 14.2089 57.3933 13.1357 57.93 12.4559C58.1425 12.2418 58.3416 12.0148 58.5262 11.7762C58.5563 11.6467 58.5563 11.5121 58.5262 11.3827C58.3792 11.124 58.1943 10.8889 57.9777 10.685C57.8608 10.5871 57.7128 10.5342 57.5603 10.536C57.3695 10.536 54.6327 10.4644 54.5134 10.4883H54.0543C54.0543 9.89201 54.0543 8.9678 54.0543 8.81874C54.0097 8.53049 54.0363 8.23573 54.1318 7.96012C54.2501 7.82417 54.3939 7.71275 54.5551 7.63218C54.6446 7.5964 54.7936 7.47715 54.7936 7.36983C54.7936 7.2625 54.7102 7.18498 54.5551 7.14325C54.4001 7.10151 53.458 7.01207 53.4044 7.00611L52.1701 6.88686C52.0966 6.89175 52.0229 6.89175 51.9495 6.88686C51.9495 6.88686 51.3055 6.68413 51.3532 7.33405C51.3532 7.82895 51.3532 9.61773 51.3532 10.4883C51.1445 10.4883 51.0014 10.4883 50.9895 10.4883C50.9776 10.4883 47.8293 10.5181 47.7578 10.4883C47.6862 10.4585 47.3225 10.4227 47.2986 10.7804C47.2748 11.1382 47.2986 11.6212 47.2986 11.7345C47.2973 11.9735 47.3253 12.2118 47.3821 12.444C47.4537 12.5692 47.4835 12.7123 47.9784 12.6706C48.4733 12.6288 53.1122 12.5036 53.3447 12.5036H54.5849C54.4895 12.6765 54.4061 12.8256 54.3822 12.8614C54.3584 12.8972 53.1897 14.2924 52.9631 14.4653C52.7365 14.6382 51.9614 15.4015 51.7706 15.5744C51.5798 15.7473 49.7254 17.226 49.4631 17.3631C49.2007 17.5003 48.0499 18.1979 47.8293 18.3231C47.6087 18.4483 47.2867 18.6391 47.1496 18.7047C47.0124 18.7703 46.5533 18.9373 46.7322 19.1102C46.9111 19.2831 48.521 20.1775 48.7655 20.3027C49.0099 20.4279 48.998 20.5651 49.4511 20.3623C50.1081 19.9701 50.7431 19.5421 51.3532 19.0804H51.389V19.8853C51.389 20.0284 51.3174 26.5515 51.3055 26.7304C51.248 27.2296 51.248 27.7338 51.3055 28.233C51.375 28.3049 51.4642 28.3547 51.5619 28.3761C51.6633 28.3761 53.947 28.3761 54.0006 28.3761C54.0543 28.3761 54.0841 28.3761 54.1556 28.2866C54.2272 28.1972 54.251 28.1555 54.251 27.8394C54.251 27.5234 54.2093 25.037 54.2093 24.8581C54.2093 24.6793 54.2093 23.1051 54.2093 22.9501C54.2093 22.7951 54.2093 21.1613 54.2093 20.9705C54.2093 20.7797 54.2093 19.0446 54.2093 18.3351C54.4418 18.508 54.6982 18.6868 54.7698 18.7345C54.8413 18.7822 55.7119 19.6051 55.9086 19.7601C56.1054 19.9151 56.9819 20.5412 57.1012 20.6068C57.2204 20.6724 57.4231 20.4279 57.5484 20.3027C57.8633 19.9593 58.202 19.6386 58.562 19.3427C58.7238 19.2595 58.8537 19.1254 58.9317 18.9611C58.9794 18.8419 58.6813 18.663 58.6813 18.663" fill="#040000"/>
<path d="M73.861 11.3884C73.7456 11.3163 73.6071 11.2907 73.4735 11.3168C73.2648 11.3168 66.7536 11.3586 66.539 11.3705H66.2826C66.2826 11.2632 66.2826 11.1797 66.3183 11.1439C66.3541 11.1082 66.4913 8.5979 66.5151 8.44287C66.5151 8.44287 66.5151 7.87642 66.7655 7.76313C66.7655 7.76313 67.1293 7.55444 67.0219 7.38153C67.0219 7.38153 66.9385 7.19669 66.1872 7.0834C66.1872 7.0834 64.9946 6.89856 64.6965 6.86278C64.6965 6.86278 63.8856 6.73757 63.7842 6.86278C63.7139 6.88625 63.6526 6.93098 63.6088 6.9908C63.565 7.05062 63.5409 7.12256 63.5398 7.19669C63.5398 7.19669 63.5398 9.48633 63.5398 9.6175C63.5398 9.6175 63.4861 10.5119 63.4324 11.3586L59.8131 11.3109C59.8131 11.3109 59.0261 11.2632 59.0142 11.609C59.0142 12.1635 59.0142 12.7479 59.0142 12.8015C59.0142 12.8552 58.9545 13.4634 59.1871 13.523C59.5242 13.5755 59.8657 13.5955 60.2067 13.5826H63.188C62.8868 15.0528 62.4742 16.4979 61.9537 17.9055C61.2652 19.4543 60.3488 20.8913 59.2348 22.1688C58.2232 23.2663 57.0773 24.2319 55.8242 25.0428C55.8242 25.0428 55.4306 25.2932 55.5439 25.4124C55.7528 25.5826 56.0045 25.6919 56.2714 25.7285C56.6315 25.85 56.9758 26.0141 57.2969 26.2174C57.2969 26.2174 57.7322 26.6348 58.0244 26.5871C58.0244 26.5871 58.2211 26.5871 58.6922 26.2174C58.6922 26.2174 60.2842 24.9354 60.481 24.7029C60.481 24.7029 61.8047 23.3613 62.0312 23.0811L62.0909 22.9916C62.0909 24.6075 62.0909 27.5947 62.0909 27.5947C62.0909 28.2924 62.228 28.3222 62.2817 28.352C62.3353 28.3818 64.458 28.352 64.458 28.352C64.8635 28.352 64.8515 28.2804 64.9231 28.2089C64.9707 28.1146 64.9952 28.0104 64.9946 27.9048C64.9946 27.9048 64.9946 27.3503 64.9946 26.8196C66.1216 26.7063 69.723 26.7659 69.723 26.7659C69.8124 26.7659 70.0509 26.7659 70.2656 26.7659V27.559C70.2656 28.2566 70.3968 28.2268 70.3968 28.2268C70.4862 28.3759 72.5552 28.3222 72.5552 28.3222C72.9488 28.3222 72.9845 28.191 72.9845 28.191C73.0302 28.1374 73.0574 28.0705 73.0621 28.0002C73.071 27.901 73.071 27.8013 73.0621 27.7021C73.0621 27.1058 72.9905 25.3767 72.9905 25.3767C72.9905 25.2157 72.9905 20.7139 72.9607 19.0623C72.9965 18.8715 72.9607 17.4225 72.9607 17.4225C72.9607 17.0409 72.8116 17.0111 72.8116 17.0111C72.7162 16.8978 72.6626 16.9336 72.6626 16.9336C72.5254 16.88 67.7613 16.9932 67.7613 16.9932L65.1139 16.9277C65.1139 16.88 65.1139 16.8323 65.1556 16.7846C65.1974 16.7368 65.7519 14.6321 65.9367 13.7496C65.9367 13.7496 65.9367 13.6721 65.9666 13.5409H67.3141C67.4572 13.5409 73.5868 13.6721 73.7239 13.6005C73.861 13.529 73.8849 13.523 73.9326 13.3739C73.9761 13.0537 74 12.7311 74.0041 12.408C74.0041 12.2887 74.0995 11.5017 73.8909 11.4003M68.918 19.0205L70.2238 19.0802C70.2238 19.6287 70.2596 22.0018 70.2596 22.0018C70.2596 22.133 70.2596 23.3553 70.2596 24.6194C69.5143 24.6194 66.8252 24.6194 66.6821 24.6194C66.539 24.6194 65.6267 24.6194 64.8933 24.6194C64.8933 23.2242 64.8933 20.2846 64.8933 19.0384C65.3882 19.0384 68.9359 19.0026 68.9359 19.0026" fill="#040000"/>
<path d="M102.918 26.6587C102.924 26.5893 102.924 26.5194 102.918 26.45C102.918 26.3069 102.858 26.0684 102.673 26.0505C102.673 26.0505 100.789 26.1161 100.64 26.1399L98.4698 26.2174L95.9237 26.295H93.8428H91.9586C91.9586 25.1024 91.9586 22.8784 91.9586 20.6901H92.8291C93.0975 20.6901 99.549 20.9167 99.6682 20.875C99.6682 20.875 99.7815 20.8213 99.7994 20.7736C99.8041 20.732 99.8041 20.69 99.7994 20.6484C99.7994 20.6484 99.8471 19.0504 99.8412 19.0087C99.8447 18.9198 99.8326 18.831 99.8054 18.7463C99.7829 18.6909 99.7453 18.6431 99.6967 18.6082C99.6482 18.5734 99.5907 18.5531 99.5311 18.5495C99.3403 18.5495 97.0268 18.6449 96.8002 18.6509L93.0497 18.7225H91.9347V14.3698H93.9024L96.9672 14.4115C97.1043 14.4115 99.2866 14.4711 99.2866 14.4711H100.694C100.95 14.4711 100.974 14.2922 100.974 14.2922C100.987 14.0499 100.987 13.8071 100.974 13.5648C100.974 13.4992 100.974 12.5929 100.974 12.5929C100.968 12.5619 100.955 12.5327 100.936 12.507C100.918 12.4813 100.894 12.4598 100.867 12.4438C100.736 12.4104 100.602 12.3963 100.467 12.4021C100.259 12.4021 97.7602 12.4021 97.7602 12.4021H94.6537H91.9944V10.6491C91.9944 10.0528 92.0957 8.12095 92.0957 8.12095C92.1375 7.94207 92.7337 7.72145 92.7337 7.72145C92.7772 7.69835 92.8156 7.6668 92.8467 7.62867C92.8778 7.59054 92.9009 7.54658 92.9148 7.49938C92.9287 7.45217 92.933 7.40267 92.9275 7.35378C92.922 7.30488 92.9068 7.25757 92.8828 7.21463C92.6229 7.03255 92.3116 6.93852 91.9944 6.94631C91.8393 6.94631 91.732 6.94631 91.732 6.94631L89.7882 6.79725C89.2635 6.69588 89.192 6.79725 89.192 6.79725C89.1411 6.82318 89.0992 6.86372 89.0716 6.91366C89.0439 6.96359 89.0319 7.02065 89.0369 7.07749C88.9952 7.19674 89.0369 9.81433 89.0369 9.81433C89.0369 9.81433 89.0369 11.1142 89.0369 12.3425H86.0556L83.6706 12.3007C83.9926 11.7343 84.3444 11.0426 84.5411 10.6074C84.8214 10.0111 85.1016 10.0111 85.1016 10.0111C85.6502 9.89184 85.7456 9.7547 85.7456 9.7547C85.9125 9.55197 85.6084 9.22999 85.6084 9.22999C85.1875 9.01836 84.7459 8.85053 84.2907 8.72913C84.0045 8.67547 82.7762 8.23424 82.7762 8.23424C82.2455 8.0971 82.1799 8.8782 82.1799 8.8782C82.1288 9.08145 82.0631 9.28072 81.9832 9.47446C81.8997 9.70104 81.5121 10.4225 81.2975 10.8816C80.8691 11.6588 80.3765 12.3987 79.8247 13.0938C79.1241 13.8756 78.3689 14.6069 77.5649 15.282C77.1833 15.5921 76.3306 16.1526 76.3306 16.1526C76.2403 16.1685 76.1568 16.211 76.091 16.2748C76.0251 16.3386 75.9798 16.4206 75.9609 16.5103C75.9609 16.6832 76.1935 16.725 76.1935 16.725C76.4201 16.8323 77.0282 17.1603 77.0282 17.1603C77.3171 17.3155 77.5959 17.4887 77.863 17.679C78.0326 17.8178 78.2407 17.9011 78.4593 17.9175C78.8647 17.8281 79.8724 16.725 80.5343 16.1764C81.108 15.6528 81.6329 15.078 82.1024 14.4592C82.4005 14.4592 83.2949 14.4175 84.2609 14.4055L88.2916 14.3638H88.9713C88.9713 14.6083 88.9713 16.874 88.9713 18.6748H88.3155C88.0173 18.6748 85.0956 18.6271 84.8512 18.633C84.6067 18.639 80.9874 18.5197 80.8443 18.5197C80.7998 18.5155 80.755 18.5219 80.7135 18.5385C80.672 18.5551 80.6351 18.5814 80.6058 18.6151C80.5342 18.6748 80.4806 18.7344 80.4866 18.949C80.4925 19.1637 80.4865 20.0581 80.4448 20.1833C80.4448 20.1833 80.3733 20.6245 80.5104 20.7796C80.5104 20.7796 80.57 20.8928 81.1842 20.8928L85.7515 20.7676H88.8819H88.9773C88.9773 20.9107 88.9773 20.9942 88.9773 20.9942V23.3792C88.9773 23.5402 88.9773 25.2873 88.9773 26.3605H88.8163H87.8981L84.9168 26.3188C84.9168 26.3188 78.7157 26.2592 78.3042 26.1996C78.3042 26.1996 77.0342 26.1399 76.9209 26.1996C76.9209 26.1996 76.742 26.1996 76.7182 26.3307C76.6869 26.4879 76.669 26.6475 76.6645 26.8077C76.6645 26.8077 76.593 27.9347 76.6109 28.042C76.6117 28.1277 76.6343 28.2118 76.6764 28.2865C76.7215 28.3683 76.7896 28.435 76.8723 28.4785C76.955 28.522 77.0486 28.5402 77.1415 28.5309L82.9074 28.3282L89.7763 28.3819H95.9893L100.241 28.4713C100.241 28.4713 102.232 28.5071 102.298 28.4713C102.363 28.4355 102.894 28.5011 102.864 28.0659C102.864 28.0659 102.864 27.0284 102.864 26.766" fill="#040000"/>
<path d="M115.79 25.9312C116.16 25.8239 116.124 25.6152 116.124 25.6152C116.16 25.5079 116.034 22.1629 116.034 22.1629V18.8119V16.3135C116.034 16.3135 116.034 16.1466 116.034 16.0333C116.034 15.92 116.034 15.9737 116.034 15.9618C116.034 15.9498 116.07 15.1687 116.07 15.0733C116.064 14.8972 116.034 14.7227 115.981 14.5546C115.927 14.4473 115.557 14.4651 115.557 14.4651C115.557 14.4651 114.365 14.5009 114.007 14.5009C113.649 14.5009 112.475 14.5009 111.884 14.5009C111.926 14.3399 111.962 14.1849 111.998 14.0179C111.998 14.0179 112.594 11.0963 112.785 9.5937H114.15L116.195 9.59966C116.236 9.59788 116.274 9.58377 116.306 9.55924C116.338 9.53471 116.362 9.50095 116.374 9.46252C116.465 8.99126 116.499 8.51084 116.476 8.0315C116.511 7.68566 116.291 7.62008 116.291 7.62008C116.097 7.56679 115.894 7.5506 115.695 7.57238C115.605 7.57238 113.393 7.57238 113.393 7.57238H112.117C112.039 7.57238 109.07 7.57238 109.07 7.57238C108.927 7.57238 107.055 7.57238 107.055 7.57238C106.894 7.57238 106.894 7.75722 106.894 7.75722C106.894 7.85262 106.894 8.7649 106.894 8.8603C106.894 8.9557 106.894 9.40886 106.894 9.40886C106.959 9.71891 107.204 9.65929 107.204 9.65929C107.365 9.65929 109.303 9.60562 109.458 9.60562H110.149C110.066 10.6491 109.911 12.4438 109.827 12.6883C109.632 13.6827 109.311 14.6484 108.873 15.5623C108.873 15.5623 107.562 18.0069 107.389 18.2275C107.389 18.2275 105.636 20.3025 105.487 20.4277C105.442 20.458 105.412 20.5043 105.402 20.5568C105.392 20.6093 105.403 20.6636 105.433 20.708C105.433 20.708 107.293 21.5189 107.454 21.5547C107.516 21.5867 107.586 21.6009 107.655 21.5956C107.725 21.5904 107.791 21.5659 107.848 21.5249C107.848 21.5249 108.444 20.9644 108.641 20.7915L108.76 20.6841C108.76 21.8111 108.76 23.415 108.76 23.4985C108.76 23.582 108.605 26.2771 108.587 26.3546C108.569 26.4321 108.51 26.9508 108.51 26.9508C108.491 27.1073 108.491 27.2654 108.51 27.4219C108.528 27.4856 108.569 27.5404 108.625 27.5756C108.681 27.6109 108.748 27.6241 108.814 27.6127C108.814 27.6127 110.948 27.6127 111.008 27.6127C111.068 27.6127 111.187 27.6127 111.193 27.3444C111.193 27.3444 111.193 25.2575 111.193 25.0965V24.7864C111.789 24.7208 112.85 24.7208 112.85 24.7208C112.999 24.7208 113.375 24.7208 113.608 24.7208C113.608 24.8878 113.608 24.9891 113.608 24.9891C113.579 25.2597 113.591 25.5331 113.643 25.8001C113.786 26.0028 114.884 25.9491 114.884 25.9491C115.104 25.9491 115.832 25.9133 115.832 25.9133M113.667 22.6518C113.123 22.7342 112.571 22.7562 112.022 22.7174C111.95 22.7174 111.473 22.7174 111.157 22.6876C111.157 22.4252 111.157 22.2463 111.157 22.2165C111.157 22.1867 111.157 21.4593 111.157 21.3281C111.157 21.3281 111.157 20.0581 111.157 19.8553C111.157 19.8553 111.211 18.2574 111.211 18.1798C111.211 18.1023 111.264 16.6773 111.282 16.2718V16.1943C111.598 16.1943 112.779 16.1943 112.898 16.1943H113.53C113.53 17.035 113.59 21.2506 113.59 21.2506C113.59 21.2506 113.56 21.9303 113.542 22.6637" fill="#040000"/>
<path d="M120.523 19.1398C120.488 19.3604 120.309 20.4814 120.154 21.024C119.983 21.5861 119.784 22.1393 119.557 22.6816C119.366 23.1081 119.14 23.5189 118.884 23.9099C118.542 24.4208 118.157 24.9016 117.733 25.3468C117.435 25.6132 117.12 25.8602 116.791 26.0862C116.505 26.2472 116.075 26.5334 115.914 26.593C115.753 26.6527 115.562 26.7719 115.562 26.8315C115.562 26.8912 115.694 26.9925 115.95 27.1118C116.393 27.3538 116.818 27.6288 117.22 27.9346C117.32 28.0528 117.439 28.1536 117.572 28.2327C117.663 28.2881 117.769 28.3144 117.876 28.308C117.982 28.3016 118.084 28.2629 118.168 28.197C118.448 28.0062 119.063 27.6007 119.194 27.4695C119.325 27.3384 119.951 26.7481 120.166 26.4976C120.38 26.2472 120.863 25.6629 121.036 25.4005C121.209 25.1382 121.632 24.4405 121.746 24.1722C121.859 23.9039 122.288 23.1347 122.419 22.771C122.551 22.4073 122.801 21.5785 122.885 21.1909C122.968 20.8033 123.117 19.6168 123.147 19.4021C123.177 19.1875 123.284 17.7505 123.272 17.4822C123.272 17.3987 123.272 17.0886 123.272 16.6832H123.445H126.695H126.856C126.856 18.472 126.856 20.7497 126.82 20.857C126.82 20.857 126.599 27.7379 126.599 27.9167C126.599 27.9167 126.671 28.1791 126.844 28.2149C126.844 28.2149 129.294 28.2626 129.455 28.2149C129.455 28.2149 129.628 28.1672 129.676 27.8869C129.676 27.8869 129.569 21.9243 129.581 21.7574C129.581 21.7574 129.581 16.874 129.581 16.7488V16.7547H131.292C131.292 16.7547 132.8 16.7965 132.92 16.7547C132.965 16.7563 133.01 16.7489 133.052 16.7329C133.094 16.7169 133.133 16.6927 133.166 16.6616C133.198 16.6305 133.225 16.5932 133.243 16.5519C133.261 16.5105 133.271 16.466 133.271 16.4208C133.318 15.94 133.304 15.4552 133.23 14.9779C133.23 14.9779 133.23 14.6619 132.508 14.7036H129.742H129.604C129.604 12.6704 129.664 9.85004 129.652 9.77849V9.51614H130.052C130.052 9.51614 132.622 9.59365 132.723 9.51614C132.758 9.50571 132.79 9.4866 132.816 9.46056C132.842 9.43453 132.862 9.40239 132.872 9.36707C132.872 9.36707 132.932 7.8645 132.92 7.79891C132.908 7.73332 132.92 7.55444 132.574 7.55444L130.505 7.60214C130.505 7.60214 127.374 7.60214 127.261 7.60214C127.261 7.60214 121.102 7.60214 120.988 7.60214C120.988 7.60214 118.442 7.60214 118.347 7.60214C118.347 7.60214 117.876 7.53656 117.751 7.60214C117.751 7.60214 117.554 7.63792 117.548 7.92413C117.548 7.92413 117.5 9.26571 117.548 9.36707C117.547 9.4456 117.575 9.52176 117.626 9.58173C117.743 9.64339 117.877 9.66437 118.007 9.64135L120.589 9.57577C120.589 9.69502 120.643 9.81427 120.661 9.9216C120.726 10.333 120.714 12.0264 120.714 12.1755C120.714 12.3245 120.714 14.5605 120.714 14.7275C120.718 14.7451 120.718 14.7634 120.714 14.7811H119.754C119.754 14.7811 117.965 14.7811 117.727 14.7334C117.727 14.7334 117.095 14.6619 117.071 14.96C117.071 14.96 117.005 15.5026 117.011 15.6397C117.011 15.6397 117.011 16.4089 117.011 16.4745C117.011 16.5401 117.125 16.7309 117.357 16.707H120.678C120.678 17.0648 120.678 17.345 120.678 17.4285C120.678 17.6909 120.589 18.9549 120.547 19.1815M125.138 9.48036L126.832 9.51018C126.832 9.51018 126.832 14.316 126.832 14.4412C126.832 14.4412 126.832 14.5486 126.832 14.7275C125.252 14.7275 123.588 14.7275 123.517 14.7275H123.254V14.0895C123.254 13.8867 123.195 11.7998 123.195 11.5017C123.195 11.2036 123.195 10.011 123.159 9.51018L125.138 9.48036Z" fill="#040000"/>
<path d="M136.401 14.6382C136.401 14.6382 136.401 14.9124 136.801 14.9184H138.637C138.763 14.9323 138.889 14.916 139.007 14.8707C139.007 14.8707 139.192 14.823 139.156 14.3639C139.102 13.4518 139.116 12.537 139.198 11.6271C139.198 11.6271 139.198 11.4243 139.24 11.2991H142.913C142.99 11.2991 149.644 11.2574 149.781 11.2991H150.02C149.992 11.3944 149.992 11.496 150.02 11.5913C150.02 11.5913 149.925 14.8826 150.02 15.0257C150.095 15.2551 150.223 15.4638 150.393 15.6355C150.562 15.8072 150.769 15.9373 150.998 16.0155C150.998 16.0155 151.743 16.3017 154.575 16.2481C154.575 16.2481 157.282 16.3017 157.968 16.0334C158.332 15.8869 158.661 15.6655 158.934 15.3835L159.202 14.99C159.846 14.99 161.182 14.99 161.182 14.99C161.468 14.99 161.438 14.8528 161.438 14.8528C161.436 14.4163 161.408 13.9803 161.355 13.547C161.313 13.2727 161.355 11.9848 161.355 11.9848C161.355 11.478 161.462 10.035 161.462 10.035C161.462 9.76076 161.462 9.57592 161.313 9.43878C161.171 9.39425 161.021 9.37805 160.872 9.39108L155.965 9.47456C155.762 9.47456 150.598 9.43878 150.509 9.47456C150.48 9.06266 150.512 8.64872 150.604 8.24626C150.741 8.01968 151.302 7.78714 151.302 7.5069C151.302 7.5069 151.475 7.23858 150.706 7.11933C150.706 7.11933 148.195 6.7735 147.999 6.83909C147.999 6.83909 147.653 6.79138 147.629 7.04181C147.596 7.2208 147.578 7.40234 147.575 7.58441C147.575 7.58441 147.575 9.05717 147.575 9.29568C147.575 9.29568 147.575 9.38512 147.575 9.50437H144.815H139.204C139.204 9.50437 138.333 9.50437 137.326 9.41493C137.116 9.36363 136.897 9.36363 136.688 9.41493C136.629 9.43774 136.578 9.47575 136.539 9.52502C136.5 9.57429 136.475 9.63304 136.467 9.69517C136.467 9.69517 136.467 10.9533 136.467 11.0248C136.467 11.317 136.503 11.8357 136.497 11.9431C136.497 11.9431 136.383 14.5189 136.395 14.668M152.62 11.3349H153.717H158.696C158.696 11.8119 158.731 12.2233 158.731 12.2233C158.731 12.2233 158.731 12.8196 158.731 13.3801L158.427 13.231C158.427 13.231 157.926 12.7719 157.736 12.8255C157.736 12.8255 157.569 12.754 157.384 13.2966C157.384 13.2966 157.241 13.6365 157.151 13.7855C157.05 13.969 156.899 14.1199 156.716 14.2208C156.086 14.3464 155.444 14.4064 154.802 14.3997C154.426 14.3997 152.727 14.4414 152.614 13.9942C152.533 13.1016 152.533 12.2036 152.614 11.311" fill="#040000"/>
<path d="M145.203 11.639C145.136 11.645 145.072 11.6672 145.016 11.7035C144.96 11.7399 144.914 11.7894 144.881 11.8477C144.618 12.1978 144.337 12.5341 144.04 12.8554C143.644 13.2057 143.228 13.5322 142.794 13.8333C142.154 14.2905 141.469 14.6801 140.749 14.996L139.037 15.5505C139.037 15.5505 138.912 15.6101 138.942 15.6936C139.575 16.2679 140.257 16.7847 140.981 17.2379C141.033 17.2371 141.084 17.2249 141.13 17.2021C142.425 16.6765 143.66 16.0149 144.815 15.2285C146.008 14.2745 146.55 13.6425 146.807 13.4874C146.807 13.4874 146.956 13.3563 147.457 13.404C147.457 13.404 147.803 13.3503 147.838 13.1476C147.838 13.1476 147.958 12.8494 147.17 12.4857C147.17 12.4857 146.383 12.122 146.342 12.0922C146.169 11.9849 145.471 11.5734 145.221 11.6331" fill="#040000"/>
<path d="M153.066 20.0641C152.977 20.5173 152.852 21.1135 152.828 21.2566C152.804 21.3997 152.482 23.5582 152.452 23.7729C152.422 23.9875 152.255 25.6213 152.214 26.1579C152.173 26.5313 152.28 26.9056 152.512 27.2014C152.68 27.4135 152.881 27.5968 153.108 27.744C153.374 27.8746 153.654 27.9746 153.943 28.0421C154.549 28.1114 155.158 28.1492 155.767 28.1554C155.982 28.1554 157.717 28.1554 158.451 28.1911C159.005 28.1965 159.556 28.0953 160.072 27.893C160.489 27.6769 160.859 27.3788 161.158 27.0165C161.451 26.6226 161.712 26.2059 161.939 25.7703C162.051 25.5171 162.139 25.2535 162.201 24.9833C162.235 24.8187 162.247 24.6502 162.237 24.4824C162.237 24.3512 162.04 24.3155 161.921 24.2618C161.802 24.2081 161.396 24.0352 161.229 23.9815C160.909 23.7813 160.604 23.5581 160.317 23.3137C160.168 23.2064 160.156 23.2124 160.019 23.2601C159.882 23.3078 159.81 23.7371 159.756 24.0054C159.683 24.2727 159.59 24.5338 159.476 24.7865C159.38 25.0213 159.262 25.2469 159.124 25.4603C159.005 25.662 158.847 25.8383 158.659 25.979C158.423 26.079 158.17 26.1356 157.914 26.146C157.717 26.146 156.56 26.2056 156.346 26.2056C156.034 26.1969 155.723 26.165 155.416 26.1102C155.326 26.0966 155.241 26.0605 155.169 26.0052C155.097 25.9499 155.04 25.8773 155.004 25.7942C154.918 25.608 154.881 25.4026 154.897 25.1979C154.897 24.9833 155.034 23.5224 155.082 23.2422C155.129 22.9619 155.35 21.4534 155.433 21.0599C155.493 20.7975 155.606 20.1536 155.684 19.7183C155.744 19.4679 155.881 18.9372 155.899 18.8C155.899 18.8 156.066 18.3171 155.946 18.1263C155.946 18.1263 155.916 17.9891 155.666 17.9891C155.416 17.9891 152.041 18.1561 151.892 18.174L149.131 18.2992C149.149 17.8256 149.196 17.3536 149.274 16.8861C149.34 16.8145 149.328 16.7608 149.668 16.6953C149.668 16.6953 150.085 16.5223 150.085 16.3613C150.087 16.2637 150.05 16.1693 149.983 16.098C149.917 16.0268 149.825 15.9844 149.727 15.9797L147.342 15.6756C147.342 15.6756 146.442 15.5802 146.388 15.5862C146.335 15.5922 146.215 15.5862 146.221 15.8843C146.221 15.8843 146.191 17.1961 146.191 17.3571C146.191 17.3571 146.126 18.007 146.042 18.4363H145.893C145.774 18.4363 139.525 18.6271 139.036 18.6152C139.036 18.6152 138.333 18.5377 138.136 18.7106C138.136 18.7106 137.939 18.7583 137.939 19.1459C137.95 19.5833 137.99 20.0195 138.058 20.4517C138.085 20.4987 138.117 20.5427 138.154 20.5829C138.154 20.5829 138.1 20.6902 139.269 20.6485L144.862 20.3503H145.571C145.511 20.5538 145.437 20.753 145.351 20.9466C145.223 21.3093 145.053 21.6556 144.844 21.9781C144.362 22.622 143.808 23.2082 143.192 23.7252C142.588 24.2783 141.889 24.7186 141.129 25.025C139.963 25.5615 138.729 25.9385 137.462 26.146C137.167 26.1577 136.873 26.1997 136.586 26.2712C136.586 26.2712 136.407 26.3368 136.407 26.462C136.407 26.462 136.299 26.5514 136.854 26.9032C137.318 27.2567 137.731 27.672 138.082 28.1375C138.133 28.1996 138.2 28.2457 138.276 28.2701C138.353 28.2944 138.434 28.296 138.512 28.2746C138.816 28.215 140.223 27.7797 140.533 27.6784C140.843 27.577 143.747 26.2593 143.967 26.134C144.814 25.581 145.6 24.9394 146.311 24.2201C146.884 23.6139 147.382 22.9413 147.795 22.2166C148.147 21.6425 148.412 21.0197 148.582 20.3682C148.582 20.3086 148.618 20.2549 148.642 20.1953L150.544 20.1118C150.544 20.1118 151.814 20.1118 153.048 20.0641" fill="#040000"/>
<path d="M191.427 17.5957C191.427 17.5957 191.367 17.4228 191.081 17.4228C190.795 17.4228 188.583 17.4228 188.422 17.4228H184.844V16.2302C184.844 15.8188 184.844 15.3001 184.844 14.7754C184.844 14.4713 184.844 13.9168 184.844 13.5829C184.844 12.76 184.844 11.8716 184.844 11.6569L184.874 10.4286L188.118 10.4823C188.118 10.4823 190.133 10.5717 190.396 10.363C190.463 10.2512 190.5 10.1238 190.503 9.99336C190.548 9.6111 190.548 9.22484 190.503 8.84258C190.503 8.84258 190.443 8.67563 190.175 8.67563H187.718H184.934V7.96012C184.97 7.82894 185.339 7.52485 185.339 7.52485C185.584 7.39367 185.542 7.22672 185.542 7.22672C185.542 7.08958 185.494 7.06573 185.494 7.06573C185.369 6.84511 183.252 6.79145 182.883 6.79145C182.513 6.79145 182.513 6.79145 182.382 6.89281C182.294 6.98261 182.243 7.10156 182.239 7.22672C182.239 7.30423 182.203 8.02571 182.191 8.67563H181.827C181.744 8.67563 177.761 8.67563 177.653 8.67563H174.207V7.85875C174.243 7.73354 174.624 7.42348 174.624 7.42348C174.881 7.29827 174.839 7.12535 174.839 7.12535C174.839 6.99418 174.791 6.96436 174.791 6.96436C174.66 6.74971 172.448 6.69604 172.055 6.69604C171.661 6.69604 171.673 6.69605 171.536 6.79145C171.446 6.87999 171.393 6.99924 171.387 7.12535C171.387 7.21479 171.351 8.00782 171.333 8.67563H170.91C170.796 8.67563 167.153 8.67563 166.951 8.67563C166.622 8.63959 166.29 8.63959 165.961 8.67563C165.961 8.67563 165.74 8.67563 165.764 9.00954C165.764 9.00954 165.764 10.1126 165.764 10.1544C165.767 10.2267 165.795 10.2959 165.842 10.3511C165.842 10.3511 165.877 10.4763 166.885 10.4644C167.893 10.4525 170.969 10.4286 171.321 10.4227C171.321 10.7447 171.321 16.9815 171.321 17.4466H170.272C170.152 17.4466 166.217 17.4466 166.003 17.4466C165.646 17.4076 165.286 17.4076 164.929 17.4466C164.929 17.4466 164.697 17.4466 164.715 17.7984C164.715 17.7984 164.715 18.9492 164.715 18.9909C164.722 19.0671 164.751 19.1397 164.798 19.1996C164.798 19.1996 164.84 19.3308 165.931 19.3129L170.755 19.2771H172.257C171.815 19.8664 171.293 20.3921 170.707 20.8393C170.707 20.8393 169.842 21.7814 167.082 22.8487C166.454 23.0695 165.815 23.2566 165.168 23.4092C165.168 23.4092 164.673 23.5046 164.661 23.6716C164.661 23.6716 164.631 23.8087 164.941 23.9697C165.438 24.1967 165.9 24.4939 166.313 24.8522C166.313 24.8522 166.545 25.2338 166.635 25.2338C167.068 25.182 167.495 25.0881 167.911 24.9535C167.911 24.9535 169.98 24.0114 170.325 23.7968L171.154 23.2542C171.144 23.4819 171.172 23.7097 171.238 23.928C171.238 23.928 171.411 24.1367 172.4 24.077C173.39 24.0174 176.312 24.077 176.455 24.077H176.616C176.616 24.3752 176.616 24.5958 176.616 24.6733C176.616 24.7508 176.568 26.0924 176.568 26.1759C176.567 26.2783 176.579 26.3805 176.604 26.48H176.276C176.175 26.48 172.257 26.4203 172.102 26.4263H169.604L167.553 26.2951C167.553 26.2951 167.201 26.2176 167.052 26.3428C166.995 26.3732 166.948 26.419 166.917 26.4749C166.885 26.5309 166.87 26.5946 166.873 26.6588C166.873 26.6588 166.843 27.9825 166.873 28.0183C166.903 28.0541 166.873 28.1376 167.118 28.2509C167.118 28.2509 169.503 28.2509 169.819 28.2509L173.957 28.1733H179.001C179.001 28.1733 184.439 28.3045 184.648 28.2986C184.648 28.2986 188.428 28.4118 188.625 28.3641C188.693 28.3695 188.762 28.3605 188.826 28.338C188.891 28.3154 188.95 28.2796 189 28.233C189.073 28.0847 189.107 27.9209 189.102 27.756C189.102 27.756 189.215 26.7483 189.03 26.5277C189.03 26.5277 189.03 26.4024 188.738 26.3846C188.446 26.3667 188.052 26.3428 187.939 26.3488C187.826 26.3547 183.765 26.3488 183.67 26.3488C183.574 26.3488 179.77 26.3488 179.663 26.3786H179.442C179.442 26.3786 179.341 25.2576 179.359 24.8581C179.359 24.7389 179.359 24.4109 179.359 24.0114H182.161C182.161 24.0114 184.546 24.083 184.689 24.0114C184.759 24.0056 184.826 23.9785 184.88 23.9339C184.88 23.9339 184.94 23.8982 184.946 23.5165C184.946 23.5165 184.946 23.3317 184.976 23.0932C185.775 23.6179 186.556 24.1367 186.806 24.2857C187.578 24.6661 188.375 24.9948 189.191 25.2696C189.341 25.3098 189.5 25.3098 189.65 25.2696C189.913 25.1742 190.455 24.3632 190.455 24.3632L191.051 23.9041C191.379 23.6537 191.051 23.5344 191.051 23.5344C190.932 23.4748 190.258 23.2721 190.258 23.2721C189.136 22.892 188.041 22.4379 186.979 21.9126C185.854 21.3195 184.844 20.5299 183.998 19.5812C183.95 19.5097 183.866 19.3725 183.759 19.2175L188.833 19.301C188.833 19.301 191.004 19.3964 191.29 19.1758C191.365 19.0604 191.404 18.9257 191.403 18.7882C191.456 18.3925 191.456 17.9914 191.403 17.5957M174.165 11.5973V11.3886V10.3988H177.266H182.179C182.179 10.7029 182.179 11.2813 182.179 11.7225C182.047 11.7888 181.903 11.8274 181.756 11.8358H176.622L174.147 11.7344V11.6092M174.147 13.398C174.297 13.3396 174.453 13.3015 174.613 13.2847C174.821 13.2072 179.752 13.2847 179.752 13.2847C179.883 13.2847 182.06 13.3443 182.185 13.3443V13.4934C182.185 13.7737 182.185 14.2805 182.185 14.6025C182.026 14.7366 181.827 14.8141 181.619 14.8231H176.485L174.13 14.7277C174.13 14.2685 174.13 13.8035 174.13 13.3742M174.457 16.2541C174.666 16.1706 179.603 16.2541 179.603 16.2541L182.03 16.3078C182.081 16.3065 182.131 16.2964 182.179 16.2779C182.179 16.5463 182.179 16.8742 182.179 16.904C182.179 16.9338 182.179 17.1545 182.179 17.4287H182.072C181.982 17.4287 177.677 17.4287 177.582 17.4287H174.124C174.124 17.393 174.124 16.9338 174.124 16.2839C174.235 16.2531 174.349 16.2332 174.463 16.2243M182.722 22.1869H179.412C179.412 21.7457 179.412 21.4177 179.412 21.376C179.412 21.3342 179.412 20.7082 179.705 20.7022C179.705 20.7022 179.967 20.6485 179.967 20.4577C179.967 20.4577 179.967 20.249 179.83 20.2192C179.83 20.2192 177.278 19.9032 177.087 19.933C176.97 19.9421 176.858 19.9856 176.765 20.0582C176.733 20.0834 176.704 20.1136 176.682 20.1477C176.638 20.2159 176.608 20.2923 176.595 20.3722C176.582 20.4522 176.585 20.534 176.604 20.6128C176.604 20.6128 176.604 21.364 176.604 22.2167H176.175C176.175 22.2167 173.48 22.2167 173.325 22.1809L172.728 22.1332C173.122 21.8715 173.498 21.5847 173.855 21.2746C173.855 21.2746 175.28 19.8555 175.889 19.1996H177.081H180.659C180.855 19.4799 181.07 19.7959 181.07 19.7959C181.604 20.4931 182.203 21.1379 182.859 21.7218C182.918 21.7755 183.175 21.9484 183.527 22.1869H182.644" fill="#040000"/>
<path d="M221.268 15.6815C220.683 15.4856 220.085 15.3302 219.479 15.2164C218.157 14.8014 216.868 14.2892 215.621 13.684C213.995 12.7658 212.465 11.6871 211.054 10.4642C210.367 9.84517 209.765 9.13734 209.265 8.3594C209.283 8.34844 209.3 8.3343 209.313 8.31766C209.438 8.2163 209.641 8.12686 209.641 7.8645C209.641 7.60215 209.295 7.53656 209.295 7.53656C209.11 7.50079 206.91 6.80912 206.91 6.80912C206.314 6.56466 206.135 6.73757 206.135 6.73757C205.967 6.86948 205.832 7.03899 205.741 7.23247C205.425 8.06723 203.786 9.83216 203.786 9.83216C203.493 10.1959 201.001 12.2828 201.001 12.2828C200.548 12.6346 198.228 14.0239 197.632 14.3101C197.036 14.5963 193.56 15.8305 193.56 15.8305C193.435 15.9915 194.663 16.7607 194.663 16.7607C194.8 16.88 195.724 17.5299 195.724 17.5299C195.971 17.5005 196.21 17.4235 196.428 17.3033C197.334 16.9943 198.218 16.6259 199.075 16.2002C199.58 15.9597 200.071 15.693 200.548 15.4012C200.548 15.5086 200.548 15.6278 200.548 15.765C200.548 15.765 200.548 16.2121 200.613 16.3195C200.613 16.3195 200.655 16.4328 201.132 16.4328H206.01C206.01 17.029 206.01 18.6687 206.01 19.3544H205.783C205.783 19.3544 199.582 19.1875 199.278 19.1875C199.278 19.1875 198.61 19.1457 198.443 19.3127C198.443 19.3127 198.199 19.3783 198.276 20.5052C198.276 20.5052 198.246 20.9524 198.366 21.0657C198.366 21.0657 198.425 21.179 199.057 21.179H206.01V26.2949C205.282 26.2949 204.614 26.2949 204.477 26.2949C204.34 26.2949 203.338 26.2949 202.277 26.2949C202.499 26.226 202.713 26.1341 202.915 26.0206C202.915 26.0206 203.78 25.6867 203.899 25.484C203.899 25.484 204.09 25.3469 203.643 24.6015C203.643 24.6015 202.14 22.2582 201.663 22.2165C201.663 22.2165 201.478 22.0376 200.733 22.4371L199.987 22.8306C199.987 22.8306 199.475 23.0513 199.558 23.2778C199.686 23.5453 199.871 23.7814 200.101 23.9695C200.101 23.9695 201.144 25.478 201.234 25.6271C201.373 25.8756 201.548 26.1026 201.752 26.3009L199.32 26.2591C198.896 26.2591 196.261 26.1935 195.927 26.1458C195.679 26.13 195.431 26.1687 195.199 26.2591C195.148 26.2852 195.105 26.3253 195.075 26.375C195.046 26.4246 195.031 26.4816 195.033 26.5394V27.9942C195.03 28.0358 195.036 28.0773 195.05 28.1166C195.063 28.1559 195.085 28.1921 195.112 28.2231C195.14 28.2541 195.174 28.2794 195.211 28.2974C195.248 28.3154 195.289 28.3259 195.331 28.3282C195.659 28.3818 199.773 28.2328 199.934 28.2328H209.623C209.623 28.2328 215.258 28.3222 215.526 28.3401C215.526 28.3401 219.312 28.4891 219.658 28.3937C219.708 28.353 219.746 28.299 219.767 28.2379C219.788 28.1768 219.792 28.1109 219.777 28.0479C219.777 28.0479 219.897 26.5215 219.682 26.3903C219.682 26.3903 219.479 26.2234 218.418 26.277C217.553 26.3247 214.357 26.277 213.016 26.277C213.661 25.6021 214.259 24.8829 214.804 24.1245C214.939 23.983 215.118 23.8906 215.311 23.8622C215.908 23.6952 215.759 23.5283 215.759 23.5283C215.83 23.1944 215.162 23.0453 215.162 23.0453C214.632 22.8664 213.618 22.4073 213.618 22.4073C212.914 22.0018 212.688 22.5087 212.628 22.765C212.472 23.1378 212.259 23.4838 211.996 23.7906C211.704 24.1901 210.446 25.3707 210.446 25.3707C210.112 25.6867 210.804 25.8179 210.804 25.8179C211.141 25.9161 211.457 26.078 211.734 26.2949H208.854V21.185H210.404C210.571 21.185 213.821 21.3161 214.113 21.3161C214.113 21.3161 216.325 21.3817 216.534 21.3161C216.534 21.3161 216.736 21.3817 216.736 20.9822V19.6406C216.736 19.6406 216.784 19.3604 216.456 19.3604C216.456 19.3604 211.322 19.3604 211.149 19.3604H208.872V16.4328H209.665C209.79 16.4328 212.235 16.5639 212.449 16.5639C213.057 16.5969 213.666 16.5969 214.274 16.5639C214.274 16.5639 214.423 16.6295 214.423 16.23V15.5622C215.138 15.9796 215.615 16.2479 215.615 16.2479C216.779 16.8211 217.974 17.3306 219.193 17.7743C219.64 17.8757 219.658 17.6611 219.658 17.6611C219.837 17.3927 220.29 16.8203 220.29 16.8203C220.545 16.5193 220.829 16.2437 221.137 15.9975C221.435 15.8007 221.25 15.6815 221.25 15.6815M211.829 14.6142H210.189C210.189 14.6142 206.344 14.5784 206.183 14.6142L202.999 14.5009L202.134 14.4711L202.432 14.2982C202.677 14.1073 204.817 12.3126 204.817 12.3126C205.097 12.1039 206.898 10.2615 206.898 10.2615L207.453 9.80235C208.367 10.9966 209.426 12.0722 210.607 13.0043C211.321 13.5898 212.072 14.1295 212.855 14.6201H211.847" fill="#040000"/>
<path d="M243.197 28.0839C243.233 28.4238 243.478 28.4476 243.478 28.4476C244.11 28.5135 244.746 28.5254 245.38 28.4834C245.827 28.4834 245.881 28.2687 245.881 28.2687C245.926 27.3486 245.912 26.4264 245.839 25.5081C245.839 25.3411 245.881 22.9859 245.898 22.0736C245.909 21.8849 245.909 21.6958 245.898 21.5071C245.898 21.4117 245.899 20.9109 245.439 20.9109C244.98 20.9109 243.466 21.0003 243.341 21.0003C243.215 21.0003 239.495 21.048 239.405 21.0421H234.927C234.808 21.0421 230.104 20.9944 229.978 21.0003C229.853 21.0063 229.15 20.9646 229.066 20.9526C228.737 20.9189 228.405 20.9189 228.076 20.9526C228.015 20.9747 227.961 21.013 227.92 21.0635C227.879 21.1139 227.853 21.1745 227.844 21.2388C227.844 21.3283 227.844 22.2465 227.844 22.4731V22.5327C227.844 22.6341 227.766 26.0805 227.748 26.313C227.73 26.5455 227.659 28.0243 227.641 28.2628C227.623 28.5013 228.237 28.4834 228.237 28.4834C228.237 28.4834 229.43 28.4834 229.883 28.4834C230.103 28.4883 230.316 28.4094 230.479 28.2628C230.515 28.2151 230.479 28.1554 230.479 27.7858L232.029 27.75C232.262 27.75 236.984 27.7977 237.104 27.7858C237.223 27.7738 241.337 27.7858 243.162 27.7858C243.153 27.8865 243.165 27.988 243.197 28.0839ZM230.455 22.5983L231.874 22.5566H236.168H242.726H243.323C243.323 22.807 243.323 23.1528 243.323 23.5285C243.181 23.5625 243.038 23.5884 242.893 23.606H236.334C236.334 23.606 231.117 23.606 230.67 23.5702H230.443C230.443 23.451 230.443 23.3675 230.443 23.3496C230.443 23.3317 230.443 22.9739 230.443 22.5923M242.583 26.1699C242.172 26.2116 237.444 26.1699 237.3 26.1699C237.157 26.1699 232.477 26.1162 230.432 26.0864C230.432 25.8241 230.432 25.6452 230.432 25.6452C230.432 25.6452 230.432 25.5021 230.432 25.3173L230.592 25.2815C230.765 25.2397 231.648 25.2218 231.737 25.2218H237.849C237.932 25.2218 242.655 25.2576 243.007 25.2815C243.089 25.2904 243.171 25.3064 243.251 25.3292C243.251 25.4842 243.251 25.5856 243.251 25.6094C243.251 25.6333 243.251 25.8598 243.215 26.1341C242.971 26.1341 242.738 26.1341 242.619 26.1341" fill="#040000"/>
<path d="M249.86 11.6568C249.86 11.6568 248.34 11.3468 247.75 11.2096C247.75 11.2096 243.993 10.351 242.83 9.87998C241.668 9.40894 239.593 8.52647 239.104 8.0912C239.081 8.07059 239.055 8.05441 239.026 8.0435C239.259 7.85866 239.235 7.78115 239.235 7.78115C239.402 7.47705 238.961 7.29818 238.961 7.29818C238.865 7.23855 237.404 6.74962 237.404 6.74962C237.252 6.66077 237.071 6.63474 236.899 6.67702C236.728 6.71931 236.58 6.8266 236.486 6.9762C234.423 8.50262 232.909 9.02733 230.714 9.80843C228.52 10.5895 224.847 11.001 224.215 11.1739C223.583 11.3468 224.311 11.8298 224.311 11.8298C224.607 12.0417 224.872 12.2946 225.098 12.581C225.694 13.2369 225.962 13.1058 225.962 13.1058C226.618 13.0402 229.122 12.2591 229.122 12.2591L229.498 12.1577C229.495 12.1694 229.495 12.1818 229.498 12.1935C229.498 12.3664 229.45 13.1475 229.45 13.1475C229.421 13.3129 229.433 13.483 229.486 13.6424C229.582 13.7914 229.927 13.8392 230.166 13.8093C230.404 13.7795 237.714 13.8093 237.977 13.8093C238.239 13.8093 243.659 13.9703 243.862 13.9584C244.065 13.9465 244.106 14.0001 244.238 13.8869C244.287 13.8378 244.326 13.7792 244.351 13.7145C244.377 13.6499 244.389 13.5807 244.387 13.5112C244.387 13.4039 244.387 12.5155 244.387 12.432C244.381 12.4024 244.381 12.3721 244.387 12.3425C246.33 12.9388 248.137 13.392 248.417 13.3264C248.481 13.3406 248.547 13.3377 248.609 13.3177C248.671 13.2978 248.726 13.2617 248.769 13.2131C248.769 13.2131 249.431 12.4439 249.586 12.3127C249.697 12.1753 249.828 12.0548 249.974 11.955C249.974 11.955 250.164 11.788 249.896 11.6568M240.058 11.9848C239.897 11.9848 236.099 11.9132 235.884 11.9311C235.669 11.949 231.71 11.8775 230.559 11.8476C232.116 11.3647 233.332 10.8757 234.763 10.3153C235.511 10.0111 236.242 9.66473 236.951 9.27776C237.845 9.8499 238.78 10.3561 239.748 10.7923C240.481 11.1023 241.847 11.5674 243.278 11.9848C242.246 11.9848 240.177 11.9848 240.058 11.9848Z" fill="#040000"/>
<path d="M225.728 18.9074C225.728 18.9968 225.686 20.2251 225.692 20.2907C225.711 20.3454 225.741 20.3958 225.78 20.4388C225.819 20.4818 225.866 20.5166 225.919 20.5411C225.919 20.5411 227.856 20.5411 227.904 20.5411C227.904 20.5411 228.101 20.5411 228.107 20.1834V19.9926H229.186C229.508 19.9926 235.334 19.9926 235.56 19.9926H241.314C241.475 19.9926 243.586 20.0283 245.41 20.0462C245.4 20.121 245.412 20.1971 245.445 20.2651C245.478 20.333 245.53 20.3896 245.595 20.4278C245.786 20.6186 247.694 20.5232 247.694 20.5232C248.189 20.5232 248.141 20.2788 248.141 20.2788C248.141 20.2788 248.141 17.5181 248.141 16.0513C248.162 15.7953 248.162 15.5381 248.141 15.2821C248.141 15.1867 248.141 15.1211 248.141 15.1211C248.132 15.058 248.103 14.9994 248.058 14.9542C248.048 14.9282 248.033 14.9046 248.014 14.885C247.994 14.8655 247.97 14.8504 247.944 14.8409H247.879C247.718 14.8071 247.551 14.8071 247.39 14.8409H247.348C246.615 14.8409 245.446 14.7991 245.333 14.8409C245.219 14.8826 242.554 14.8826 242.351 14.8766C242.149 14.8707 236.985 14.823 236.884 14.8289C236.782 14.8349 231.315 14.7753 231.088 14.7872C230.862 14.7991 226.557 14.7395 226.557 14.7395C226.557 14.7395 225.758 14.7395 225.74 15.0138C225.74 15.1748 225.74 15.3358 225.74 15.4729C225.74 15.4729 225.74 15.6041 225.74 15.777V15.8128C225.74 16.409 225.787 17.4644 225.787 17.5061C225.787 17.5479 225.787 18.2455 225.787 18.639C225.787 18.7285 225.787 18.812 225.787 18.8895M243.83 16.5044H245.619C245.619 17.1007 245.577 17.7864 245.553 18.4005H245.41C245.285 18.4005 243.622 18.4005 242.834 18.4363C243.114 17.775 243.435 17.1317 243.794 16.5104M238.1 16.6714C238.113 16.5999 238.133 16.53 238.16 16.4627H241.26C240.936 17.1514 240.551 17.8099 240.11 18.4304H238.202C238.122 18.2418 238.081 18.0389 238.082 17.8341C238.082 17.375 238.082 16.8622 238.082 16.6416M235.5 16.4269C235.556 16.5413 235.593 16.6643 235.608 16.7906C235.608 17.3392 235.608 18.0905 235.608 18.0905C235.608 18.0905 235.608 18.2157 235.578 18.3767H233.658C233.443 17.9533 232.972 17.0291 232.662 16.4329C234.022 16.4329 235.298 16.4329 235.524 16.4329M228.119 16.4329H229.973L230.462 17.0709C230.462 17.0709 230.933 17.8341 231.273 18.3707H231.106C230.969 18.3707 229.383 18.3707 228.125 18.3707C228.125 17.7745 228.125 17.2319 228.125 17.214C228.125 17.1961 228.125 16.8324 228.125 16.4687" fill="#040000"/>
</g>
</g>
<defs>
<clipPath id="clip0_1363_4281">
<rect width="250" height="46.4666" fill="white"/>
</clipPath>
</defs>
</svg>
