<?xml version="1.0" encoding="UTF-8" standalone="no"?>
<svg width="350px" height="335px" viewBox="0 0 350 335" version="1.1" xmlns="http://www.w3.org/2000/svg" xmlns:xlink="http://www.w3.org/1999/xlink" xmlns:sketch="http://www.bohemiancoding.com/sketch/ns">
    <!-- Generator: Sketch 3.3.2 (12043) - http://www.bohemiancoding.com/sketch -->
    <title>intro@2x</title>
    <desc>Created with Sketch.</desc>
    <defs>
        <filter x="-50%" y="-50%" width="200%" height="200%" filterUnits="objectBoundingBox" id="filter-1">
            <feOffset dx="0" dy="2" in="SourceAlpha" result="shadowOffsetOuter1"></feOffset>
            <feGaussianBlur stdDeviation="2" in="shadowOffsetOuter1" result="shadowBlurOuter1"></feGaussianBlur>
            <feColorMatrix values="0 0 0 0 0   0 0 0 0 0   0 0 0 0 0  0 0 0 0.35 0" in="shadowBlurOuter1" type="matrix" result="shadowMatrixOuter1"></feColorMatrix>
            <feMerge>
                <feMergeNode in="shadowMatrixOuter1"></feMergeNode>
                <feMergeNode in="SourceGraphic"></feMergeNode>
            </feMerge>
        </filter>
    </defs>
    <g id="Page-1" stroke="none" stroke-width="1" fill="none" fill-rule="evenodd" sketch:type="MSPage">
        <g id="intro" sketch:type="MSArtboardGroup">
            <g id="2015-+-MOPCON-Copy" sketch:type="MSLayerGroup" transform="translate(8.850440, 172.997150)" fill="#FFFFFF">
                <text id="2015" sketch:type="MSTextLayer" font-family="Helvetica Neue" font-size="42.4493886" font-style="italic" font-weight="260">
                    <tspan x="237.451267" y="40">2015</tspan>
                </text>
                <g id="Imported-Layers-2-Copy-2" transform="translate(0.000000, 10.612347)" sketch:type="MSShapeGroup">
                    <path d="M0.0986892143,0.719912128 L12.1792082,0.719912128 L21.4677925,20.2678723 L30.0562995,0.719912128 L41.7867799,0.719912128 L41.7867799,1.24170892 L41.0029614,1.24170892 L37.3334179,4.03475714 L37.3334179,26.3403036 L40.9744894,29.1282858 L41.7867799,29.1282858 L41.7867799,29.6517713 L25.3852102,29.6517713 L25.3852102,29.1282858 L26.2058749,29.1282858 L29.8419218,26.3403036 L29.8419218,2.77501471 L29.7715791,2.77501471 L17.9757805,29.6517713 L17.3996404,29.6517713 L5.51842572,4.36911236 L5.44975786,4.36911236 L5.44975786,22.2756923 L9.12265099,29.1282858 L10.1057738,29.1282858 L10.1057738,29.6517713 L0.135535383,29.6517713 L0.135535383,29.1282858 L1.16387847,29.1282858 L4.8367716,22.2756923 L4.8367716,3.62272342 L1.16387847,1.24170892 L0.0986892143,1.24170892 L0.0986892143,0.719912128" id="Fill-58"></path>
                    <path d="M61.8562183,0.105238882 C64.5660865,0.105238882 67.0749757,0.625347013 69.3627878,1.66387461 C71.6606489,2.71084553 73.5917231,4.21713271 75.1576853,6.18949082 C76.1960774,7.46105388 76.9916197,8.85420067 77.5376129,10.3571105 C78.1020292,11.8735297 78.3716762,13.4085241 78.3716762,14.9671599 C78.3716762,17.6875956 77.6397773,20.1986371 76.1759795,22.4952185 C74.7155313,24.7951772 72.7342123,26.6155556 70.226998,27.9597312 C67.7281578,29.3055954 65.0166147,29.9827492 62.1074422,29.9827492 C59.2501892,29.9827492 56.5721427,29.3055954 54.0766521,27.9597312 C51.5912105,26.6155556 49.6082167,24.8069978 48.1393944,22.5239257 C46.6755966,20.244231 45.9353236,17.8074906 45.9353236,15.1934407 C45.9353236,13.2379692 46.364079,11.3382236 47.2148905,9.51615647 C48.0556531,7.68226871 49.2313809,6.05608646 50.7253256,4.63760974 C52.2175954,3.21237837 53.924243,2.1046156 55.8502927,1.29912346 C57.771318,0.508829282 59.7744097,0.105238882 61.8562183,0.105238882 L61.8562183,0.105238882 Z M62.4022115,1.03906939 C60.7307353,1.03906939 59.3858501,1.31938741 58.3625315,1.87664612 C57.3308388,2.45079146 56.5285972,3.33902808 55.9390585,4.55655393 C55.5320758,5.46336583 55.2255827,6.47487483 55.0313029,7.59276958 C54.8755441,8.54010939 54.751607,9.80154048 54.6527922,11.3753742 C54.5640265,12.9627172 54.5121069,14.6243613 54.5121069,16.3755046 C54.5121069,17.3279104 54.548953,18.4069659 54.625995,19.6143598 C54.6946629,20.825131 54.7934776,21.83664 54.9274637,22.6505755 C55.2959254,24.6381315 55.9842788,26.147796 57.0042477,27.1829463 C58.1665769,28.456198 59.9469168,29.0860693 62.3385681,29.0860693 C63.8341876,29.0860693 65.0869574,28.7939306 66.1019019,28.1978326 C67.1168463,27.6084893 67.9190879,26.7016774 68.505277,25.4824629 C68.8787632,24.74114 69.1819066,23.7532722 69.4180571,22.5239257 C69.5587425,21.6981697 69.6726306,20.5177944 69.7680957,18.9878659 C69.8535118,17.4511828 69.9004069,15.8300665 69.9004069,14.1160738 C69.9004069,10.8789073 69.6542075,8.30200794 69.1802318,6.39213035 C68.6928575,4.48731876 67.9140635,3.12625657 66.8304511,2.28530251 C65.7535381,1.45279177 64.2746668,1.03906939 62.4022115,1.03906939 L62.4022115,1.03906939 Z" id="Fill-59"></path>
                    <path d="M81.778272,0.719912128 L99.6402899,0.719912128 C100.64686,0.719912128 101.698651,0.811099917 102.795662,0.995164159 C103.906071,1.17078509 104.900918,1.43083915 105.795275,1.7685717 C106.682933,2.10799292 107.424881,2.49638536 108.009395,2.94050366 C109.029364,3.64805336 109.821556,4.52784666 110.396022,5.59508153 C110.967137,6.66738239 111.250183,7.83255969 111.250183,9.09230212 C111.250183,10.7809649 110.762808,12.2298375 109.786385,13.4169675 C108.816661,14.5956541 107.38301,15.502466 105.50553,16.1070072 C103.614652,16.7183032 101.343588,17.0171965 98.6655412,17.0171965 L93.7850986,17.0171965 L93.7850986,26.293021 L97.4261701,29.1282858 L98.3071285,29.1282858 L98.3071285,29.6517713 L81.8134433,29.6517713 L81.8134433,29.1282858 L82.5905625,29.1282858 L86.2282843,26.3403036 L86.2282843,4.03475714 L82.4917478,1.24170892 L81.778272,1.24170892 L81.778272,0.719912128 L81.778272,0.719912128 Z M93.7850986,1.49331967 L93.7850986,16.2488549 L97.1615476,16.2488549 C98.369097,16.2488549 99.3806919,16.1070072 100.191308,15.8148686 C101.005273,15.5277959 101.651756,15.0819889 102.130756,14.470693 C103.102155,13.2041959 103.594554,11.2217059 103.594554,8.53166608 C103.594554,6.96796436 103.385201,5.66769403 102.971519,4.63085509 C102.557837,3.58388418 101.931452,2.79696733 101.109112,2.28023652 C100.278399,1.75337374 99.2668037,1.49331967 98.0408312,1.49331967 L93.7850986,1.49331967 L93.7850986,1.49331967 Z" id="Fill-60"></path>
                    <path d="M144.178934,18.8848575 L144.768473,19.1263363 C144.363165,20.4012767 143.981305,21.416163 143.621217,22.1828159 C143.262804,22.9494688 142.780455,23.7380743 142.170818,24.5553871 C139.464299,28.1725027 135.796431,29.9827492 131.158838,29.9827492 C128.619802,29.9827492 126.156133,29.4086038 123.754433,28.2603132 C121.356082,27.1137111 119.341267,25.5314341 117.713336,23.4982842 C115.832506,21.1476656 114.891254,18.4069659 114.891254,15.2778738 C114.891254,11.2791204 116.512486,7.68226871 119.759973,4.51096003 C122.659097,1.66218595 126.109238,0.225133938 130.127145,0.225133938 C131.420111,0.225133938 132.600863,0.390622889 133.654328,0.719912128 C134.714493,1.05089003 135.8517,1.62503537 137.070973,2.42208419 C137.879914,2.98609756 138.497925,3.26810424 138.908257,3.26810424 C139.31189,3.26810424 139.805964,3.07559668 140.408901,2.69227024 C141.010164,2.32076443 141.773884,1.70609118 142.723511,0.844873173 C142.899367,0.68445021 142.998182,0.588196432 143.024979,0.557800503 L143.366644,0.265661844 L143.735105,0.265661844 L144.145438,10.9920477 L143.761903,10.9920477 C142.852472,9.50264717 141.986587,8.21588614 141.155874,7.1385193 C139.795915,5.40257397 138.15626,3.98747458 136.235235,2.88646646 C134.307511,1.79221298 132.503723,1.24170892 130.803775,1.24170892 C129.942914,1.24170892 129.103827,1.44097113 128.30326,1.83949554 C127.489294,2.23970862 126.794242,2.81385396 126.224801,3.56193156 C124.36072,5.96152135 123.431191,9.66644746 123.431191,14.6767099 C123.431191,15.767586 123.503209,16.92432 123.648919,18.1536665 C123.804678,19.3711924 124.012356,20.4890871 124.266929,21.4853981 C124.526527,22.4985958 124.824646,23.3564365 125.159612,24.0606089 C125.687182,25.1497963 126.311892,26.0582969 127.035417,26.7827332 C127.755592,27.5054809 128.574582,28.055985 129.489037,28.4359341 C130.405166,28.8175719 131.393314,29.0067021 132.468552,29.0067021 C133.572262,29.0067021 134.689371,28.8091286 135.804805,28.4224248 C136.925263,28.0374097 137.988778,27.459887 138.998698,26.6881681 C140.003593,25.9147606 140.879527,25.0383446 141.624825,24.0606089 C142.219388,23.273692 142.698388,22.5239257 143.050102,21.8096214 C143.40349,21.1020717 143.782,20.1260246 144.178934,18.8848575" id="Fill-61"></path>
                    <path d="M164.312016,0.105238882 C167.030258,0.105238882 169.529099,0.625347013 171.830309,1.66387461 C174.121471,2.71084553 176.05087,4.21713271 177.625207,6.18949082 C178.65355,7.46105388 179.445743,8.85420067 180.00011,10.3571105 C180.559502,11.8735297 180.837523,13.4085241 180.837523,14.9671599 C180.837523,17.6875956 180.102274,20.1986371 178.633452,22.4952185 C177.174679,24.7951772 175.191685,26.6155556 172.68782,27.9597312 C170.18898,29.3055954 167.479112,29.9827492 164.568264,29.9827492 C161.705987,29.9827492 159.037989,29.3055954 156.544174,27.9597312 C154.053708,26.6155556 152.074063,24.8069978 150.596867,22.5239257 C149.133069,20.244231 148.40452,17.8074906 148.40452,15.1934407 C148.40452,13.2379692 148.821552,11.3382236 149.672363,9.51615647 C150.51815,7.68226871 151.687179,6.05608646 153.186148,4.63760974 C154.681767,3.21237837 156.393439,2.1046156 158.311115,1.29912346 C160.228791,0.508829282 162.236907,0.105238882 164.312016,0.105238882 L164.312016,0.105238882 Z M164.864709,1.03906939 C163.193232,1.03906939 161.846672,1.31938741 160.81498,1.87664612 C159.803385,2.45079146 158.992769,3.33902808 158.396531,4.55655393 C157.992898,5.46336583 157.689754,6.47487483 157.487101,7.59276958 C157.333017,8.54010939 157.212429,9.80154048 157.120314,11.3753742 C157.021499,12.9627172 156.971254,14.6243613 156.971254,16.3755046 C156.971254,17.3279104 157.016474,18.4069659 157.078443,19.6143598 C157.148786,20.825131 157.260999,21.83664 157.384936,22.6505755 C157.751723,24.6381315 158.443426,26.147796 159.46172,27.1829463 C160.634098,28.456198 162.409414,29.0860693 164.796041,29.0860693 C166.296685,29.0860693 167.549454,28.7939306 168.564399,28.1978326 C169.575994,27.6084893 170.37656,26.7016774 170.967774,25.4824629 C171.339585,24.74114 171.644404,23.7532722 171.87553,22.5239257 C172.016215,21.6981697 172.135128,20.5177944 172.228918,18.9878659 C172.314334,17.4511828 172.357879,15.8300665 172.357879,14.1160738 C172.357879,10.8789073 172.120054,8.30200794 171.637704,6.39213035 C171.155354,4.48731876 170.369861,3.12625657 169.296298,2.28530251 C168.211011,1.45279177 166.732139,1.03906939 164.864709,1.03906939 L164.864709,1.03906939 Z" id="Fill-62"></path>
                    <path d="M184.404902,0.719912128 L196.850533,0.719912128 L198.975887,2.79021268 L205.757257,9.41990269 L212.545326,16.1070072 L214.692453,18.1941944 L214.692453,7.7869658 L210.97099,1.21806764 L209.971119,1.21806764 L209.971119,0.719912128 L219.909535,0.719912128 L219.894462,1.21806764 L218.882867,1.21806764 L215.338936,7.70590999 L215.338936,29.6517713 L214.504872,29.6517713 L211.600724,26.7861106 L202.513119,17.8699712 L193.410441,8.9842277 L190.497918,6.14896292 L190.497918,22.2132118 L194.22943,29.1536158 L195.271172,29.1536158 L195.271172,29.6517713 L185.250689,29.6517713 L185.265762,29.1282858 L186.24721,29.1282858 L189.854785,22.3803894 L189.854785,5.54273298 L185.419846,1.21806764 L184.404902,1.21806764 L184.404902,0.719912128" id="Fill-63"></path>
                </g>
            </g>
            <g id="堅持----在濁水溪以南-+-Type-something-Copy" sketch:type="MSLayerGroup" transform="translate(9.213098, 220.414204)" fill="#FFFFFF">
                <path d="M12.9948191,2.05348917 C12.533182,3.64534125 11.769093,5.03025255 10.8299003,6.144549 C9.97030015,4.99841551 9.3176408,3.6135042 8.87192222,2.05348917 L12.9948191,2.05348917 Z M13.4405377,1.28940018 L13.297271,1.32123722 L7.58252204,1.32123722 L7.58252204,2.05348917 L8.15558878,2.05348917 C8.66498145,3.83636349 9.3972334,5.39637852 10.3682632,6.6857787 C9.44498896,7.67272699 8.41028511,8.40497894 7.35966275,8.86661604 C7.51884795,9.00988273 7.72578872,9.31233462 7.83721837,9.48743835 C8.87192222,8.96212717 9.89070754,8.21395669 10.8139817,7.24292693 C11.7213374,8.2935493 12.7719598,9.13723089 13.9976859,9.69437912 C14.1091155,9.50335687 14.3160563,9.23274202 14.49116,9.08947533 C13.2654339,8.58008267 12.1829745,7.76823811 11.2915374,6.71761574 C12.4535894,5.34862296 13.3927821,3.6135042 13.8862562,1.49634095 L13.4405377,1.28940018 Z M1.62899529,6.70169722 L4.03269192,6.70169722 L4.03269192,8.48457154 L1.62899529,8.48457154 L1.62899529,6.70169722 Z M4.03269192,1.97389657 L4.03269192,3.64534125 L1.62899529,3.64534125 L1.62899529,1.97389657 L4.03269192,1.97389657 Z M6.30904038,6.0649564 L1.62899529,6.0649564 L1.62899529,4.28208207 L6.30904038,4.28208207 L6.30904038,6.0649564 Z M7.35966275,9.13723089 L7.35966275,8.48457154 L4.74902535,8.48457154 L4.74902535,6.70169722 L7.00945529,6.70169722 L7.00945529,3.64534125 L4.74902535,3.64534125 L4.74902535,1.97389657 L6.97761825,1.97389657 L6.97761825,1.32123722 L0.912661855,1.32123722 L0.912661855,9.13723089 L7.35966275,9.13723089 Z M7.64619612,11.5409275 L12.7878783,11.5409275 L12.7878783,10.8564311 L7.64619612,10.8564311 L7.64619612,9.56703095 L6.88210713,9.56703095 L6.88210713,10.8564311 L1.82001754,10.8564311 L1.82001754,11.5409275 L6.88210713,11.5409275 L6.88210713,13.849113 L0.132654339,13.849113 L0.132654339,14.5495279 L14.49116,14.5495279 L14.49116,13.849113 L7.64619612,13.849113 L7.64619612,11.5409275 Z M18.9165088,0.684496391 L18.2001754,0.684496391 L18.2001754,3.9955487 L15.987501,3.9955487 L15.987501,4.71188213 L18.2001754,4.71188213 L18.2001754,8.54824563 C17.2769012,8.86661604 16.4332196,9.13723089 15.7805602,9.34417166 L16.019338,10.0923421 C16.6560788,9.88540137 17.4042493,9.61478652 18.2001754,9.34417166 L18.2001754,14.0401353 C18.2001754,14.2789131 18.1046642,14.3425872 17.913642,14.3425872 C17.7385383,14.3585057 17.0699604,14.3585057 16.3058714,14.3425872 C16.417301,14.5654465 16.5287307,14.8678984 16.5605677,15.0589206 C17.5634345,15.0748391 18.1205828,15.0430021 18.4548717,14.9156539 C18.7732421,14.7723872 18.9165088,14.5654465 18.9165088,14.0560538 L18.9165088,9.10539385 C19.5214126,8.88253456 20.1581534,8.65967527 20.7789757,8.43681598 L20.6675461,7.72048255 L18.9165088,8.30946782 L18.9165088,4.71188213 L20.7948942,4.71188213 L20.7948942,3.9955487 L18.9165088,3.9955487 L18.9165088,0.684496391 Z M22.5936871,10.5221422 C23.2463464,11.4135794 24.0263539,12.6393055 24.4083984,13.3556389 L24.9973837,12.9576759 C24.5994207,12.2413424 23.8034947,11.0633719 23.1667538,10.1719347 L22.5936871,10.5221422 Z M28.2288434,7.1474158 L27.51251,7.1474158 L27.51251,8.78702344 L21.2246943,8.78702344 L21.2246943,9.50335687 L27.51251,9.50335687 L27.51251,14.0560538 C27.51251,14.2789131 27.4647544,14.3585057 27.2100581,14.3744242 C26.9394432,14.3903427 26.1275987,14.4062613 25.1247319,14.3744242 C25.2361615,14.5972835 25.3475912,14.8997354 25.3794282,15.1385132 C26.5733173,15.1385132 27.3214877,15.1385132 27.7194508,14.9952465 C28.1174138,14.8519798 28.2288434,14.613202 28.2288434,14.0560538 L28.2288434,9.50335687 L30.3300881,9.50335687 L30.3300881,8.78702344 L28.2288434,8.78702344 L28.2288434,7.1474158 Z M26.1275987,2.88125225 L26.1275987,0.748170474 L25.3794282,0.748170474 L25.3794282,2.88125225 L21.033672,2.88125225 L21.033672,3.59758568 L25.3794282,3.59758568 L25.3794282,5.95352675 L21.8295981,5.95352675 L21.8295981,6.66986018 L29.6774288,6.66986018 L29.6774288,5.95352675 L26.1275987,5.95352675 L26.1275987,3.59758568 L30.4574363,3.59758568 L30.4574363,2.88125225 L26.1275987,2.88125225 Z M60.1454775,4.02738574 L60.1454775,3.27921527 L51.6449874,3.27921527 C51.9951949,2.48328923 52.2658097,1.6873632 52.520506,0.87551864 L51.7404985,0.66857787 C51.5017207,1.54409651 51.1992688,2.41961515 50.8172243,3.27921527 L46.3918756,3.27921527 L46.3918756,4.02738574 L50.4829354,4.02738574 C49.4482315,6.17638604 47.9837276,8.18211965 46.0735051,9.58294947 C46.2167718,9.74213468 46.4237126,10.0605051 46.5192237,10.2196903 C47.2992312,9.64662356 47.9837276,8.99396421 48.6204685,8.26171225 L48.6204685,15.0270836 L49.3686389,15.0270836 L49.3686389,7.33843805 C50.1327279,6.30373421 50.7694688,5.18943776 51.326617,4.02738574 L60.1454775,4.02738574 Z M55.7042102,13.9923797 L55.7042102,8.97804569 L59.5564922,8.97804569 L59.5564922,8.24579373 L55.7042102,8.24579373 L55.7042102,4.93474142 L54.9401212,4.93474142 L54.9401212,8.24579373 L51.1674318,8.24579373 L51.1674318,8.97804569 L54.9401212,8.97804569 L54.9401212,13.9923797 L50.5306909,13.9923797 L50.5306909,14.7246317 L60.1773145,14.7246317 L60.1773145,13.9923797 L55.7042102,13.9923797 Z M65.7010412,2.53104479 C65.1598115,2.00573361 64.0773521,1.28940018 63.1699964,0.843681598 L62.7083593,1.3849113 C63.6316335,1.8465484 64.7140929,2.59471888 65.2394041,3.16778562 L65.7010412,2.53104479 Z M65.0802189,6.66986018 C64.5071521,6.16046752 63.3451001,5.52372669 62.3740704,5.12576367 L61.9442703,5.6829119 C62.9153001,6.09679344 64.0773521,6.78128983 64.6504188,7.29068249 L65.0802189,6.66986018 Z M62.9948927,14.8678984 C63.7271446,13.45115 64.6185818,11.4294979 65.2394041,9.80580876 L64.6345003,9.37600871 C63.9659224,11.0952089 62.9948927,13.1964537 62.3103963,14.4221798 L62.9948927,14.8678984 Z M67.7226933,10.7131644 L67.7226933,8.86661604 L69.7443455,8.86661604 L69.7443455,10.7131644 L67.7226933,10.7131644 Z M72.5619236,8.86661604 L72.5619236,10.7131644 L70.4447604,10.7131644 L70.4447604,8.86661604 L72.5619236,8.86661604 Z M73.9149979,13.6103352 C73.5329534,13.053187 72.7688644,12.257261 72.052531,11.6682757 L71.5431383,11.9866461 C71.7978346,12.2254239 72.0684495,12.4960388 72.3390643,12.7666536 L70.4447604,12.8940018 L70.4447604,11.3180682 L73.24642,11.3180682 L73.24642,8.26171225 L70.4447604,8.26171225 L70.4447604,7.03598616 L69.7443455,7.03598616 L69.7443455,8.26171225 L67.0541155,8.26171225 L67.0541155,11.3180682 L69.7443455,11.3180682 L69.7443455,12.9417573 C68.3912712,13.02135 67.1496266,13.1009426 66.1945153,13.1486981 L66.305945,13.8331945 C68.0092267,13.7217649 70.4606789,13.5466611 72.8643755,13.3715574 C73.0394792,13.5944167 73.1986645,13.817276 73.3260126,14.0082982 L73.9149979,13.6103352 Z M67.2292192,1.89430397 L69.2827084,1.89430397 L69.2827084,4.01146722 L67.2292192,4.01146722 L67.2292192,1.89430397 Z M69.9353677,1.89430397 L72.052531,1.89430397 L72.052531,4.01146722 L69.9353677,4.01146722 L69.9353677,1.89430397 Z M72.7051903,1.89430397 L74.9019462,1.89430397 L74.9019462,4.01146722 L72.7051903,4.01146722 L72.7051903,1.89430397 Z M75.8570574,6.00128231 L68.2957601,6.00128231 C68.5345379,5.57148225 68.7573972,5.12576367 68.9643379,4.66412657 L75.6182796,4.66412657 L75.6182796,1.2257261 L66.5128858,1.2257261 L66.5128858,4.66412657 L68.1524934,4.66412657 C67.467997,6.2241416 66.4014561,7.68864551 65.2394041,8.67559379 C65.4145078,8.78702344 65.7169597,9.04171977 65.8443079,9.18498646 C66.5606413,8.51640859 67.2610562,7.65680847 67.8818785,6.70169722 L75.1248055,6.70169722 C74.9815388,11.9707276 74.806435,13.8013575 74.4562276,14.215239 C74.3129609,14.4062613 74.1856127,14.4380983 73.9149979,14.4380983 C73.6284645,14.4380983 72.880294,14.4221798 72.052531,14.3425872 C72.1639606,14.5495279 72.2435532,14.8360613 72.2594717,15.011165 C73.0235607,15.0748391 73.7558127,15.0748391 74.1696942,15.0589206 C74.5994943,15.0430021 74.8701091,14.947491 75.0929684,14.6450391 C75.5546055,14.0878908 75.7137907,12.1935869 75.8570574,6.43108237 L75.8570574,6.00128231 Z M83.0840658,4.82331178 L82.9248806,4.85514882 L78.4199393,4.85514882 L78.4199393,5.61923781 L82.6542658,5.61923781 C81.8583397,9.00988273 80.0595469,11.5090905 77.9423836,12.8621647 C78.1334059,12.9735944 78.4199393,13.2601278 78.5472874,13.45115 C80.8077174,11.9070535 82.7656954,9.08947533 83.57754,5.03025255 L83.0840658,4.82331178 Z M90.2792372,3.78860793 C89.4833112,4.9188229 88.1461554,6.43108237 87.0796145,7.4498677 C86.4587922,6.51067498 85.9175625,5.52372669 85.503681,4.53677841 L85.503681,0.716333432 L84.7077549,0.716333432 L84.7077549,13.9605427 C84.7077549,14.2311575 84.6122438,14.2948316 84.3575475,14.3107501 C84.1346882,14.3266686 83.3228436,14.3266686 82.3836509,14.2948316 C82.5109991,14.5336094 82.6383472,14.8838169 82.7020213,15.1225947 C83.8640733,15.1225947 84.5485697,15.1066762 84.9465327,14.9634095 C85.3285772,14.8201428 85.503681,14.5654465 85.503681,13.9446242 L85.503681,6.01720083 C87.0477775,9.12131237 89.4196371,11.9707276 91.9984374,13.3238018 C92.1257856,13.1168611 92.3645634,12.8303277 92.5715042,12.6711425 C90.6931187,11.7637868 88.8943259,10.0127495 87.4457405,8.00701592 C88.560037,7.02006764 89.9449483,5.50780817 90.9637336,4.28208207 L90.2792372,3.78860793 Z M108.044306,9.66254208 C107.582669,8.9143716 106.627558,7.72048255 105.799795,6.87680095 L105.21081,7.16333432 C105.561017,7.54537882 105.927143,7.95926036 106.277351,8.3731419 L100.339742,8.9143716 C102.265883,8.03885296 104.207943,6.90863799 106.102247,5.57148225 L105.497343,5.14168219 C104.860602,5.61923781 104.144269,6.11271196 103.459772,6.54251202 L100.116883,6.6857787 C101.151587,6.19230456 102.186291,5.55556373 103.205076,4.82331178 L102.552417,4.44126728 C101.422202,5.36454148 99.9099422,6.19230456 99.4642236,6.41516385 C99.0662606,6.62210462 98.7001347,6.74945279 98.4295198,6.76537131 C98.5091124,6.95639356 98.620542,7.33843805 98.6523791,7.49762326 C98.8911569,7.41803066 99.2891199,7.35435657 102.40915,7.17925285 C101.294854,7.81599367 100.371579,8.30946782 99.9417793,8.50049007 C99.2095273,8.85069752 98.6046235,9.08947533 98.2066605,9.12131237 C98.3021716,9.32825314 98.3976828,9.71029764 98.4295198,9.85356433 C98.8274828,9.71029764 99.4642236,9.63070504 106.707151,8.94620865 C107.009602,9.34417166 107.264299,9.72621616 107.439403,10.0127495 L108.044306,9.66254208 Z M100.498927,4.66412657 C100.355661,4.18657095 99.9576978,3.39064491 99.5756533,2.80165965 L98.9707495,2.97676338 C99.3368755,3.58166716 99.71892,4.39351172 99.8462681,4.90290438 L100.498927,4.66412657 Z M103.69855,4.3775932 C103.571202,3.86820054 103.205076,3.02451894 102.823032,2.40369663 L102.202209,2.57880036 C102.552417,3.21554119 102.902624,4.05922278 103.029972,4.60045249 L103.69855,4.3775932 Z M106.563884,2.11716326 C106.245513,2.78574113 105.672447,3.80452645 105.21081,4.42534876 L105.783876,4.64820805 C106.229595,4.0751413 106.786743,3.16778562 107.232462,2.37185959 L106.563884,2.11716326 Z M107.184706,0.764088995 C105.147136,1.28940018 101.278935,1.63960763 98.1589049,1.83062988 C98.2544161,2.00573361 98.3499272,2.26042994 98.3817642,2.45145219 C101.501794,2.29226698 105.369995,1.94205953 107.630425,1.3849113 L107.184706,0.764088995 Z M97.0127715,6.6857787 C96.3919491,6.19230456 95.1821416,5.52372669 94.2111118,5.14168219 L93.7813117,5.69883042 C94.76826,6.12863048 95.9621491,6.81312687 96.5670529,7.32251953 L97.0127715,6.6857787 Z M94.8956082,14.6927946 C95.6437787,13.2760463 96.5670529,11.2384756 97.2356307,9.58294947 L96.6148084,9.12131237 C95.9143935,10.8723497 94.9115267,12.9735944 94.2111118,14.2311575 L94.8956082,14.6927946 Z M94.6090748,1.43266686 C95.5641861,1.92614101 96.694401,2.67431148 97.2674678,3.21554119 L97.7291049,2.59471888 C97.1719567,2.06940769 96.0099046,1.35307426 95.0707119,0.89143716 L94.6090748,1.43266686 Z M108.012469,11.6205201 L108.012469,10.9678608 L102.886706,10.9678608 C103.014054,10.5380607 103.109565,10.0605051 103.173239,9.56703095 L102.440987,9.56703095 C102.361394,10.0605051 102.265883,10.5380607 102.138535,10.9678608 L97.6972678,10.9678608 L97.6972678,11.6205201 L101.899757,11.6205201 C101.263016,13.02135 100.03729,13.9605427 97.5062456,14.4858539 C97.6495123,14.6291205 97.8405345,14.9156539 97.9201271,15.0907576 C100.68995,14.4380983 102.027105,13.3397204 102.695683,11.6205201 L108.012469,11.6205201 Z M103.061809,12.3527721 C104.701417,13.1168611 106.675314,14.3107501 107.67818,15.1385132 L108.076143,14.581365 C107.057358,13.7695204 105.083461,12.6233869 103.443854,11.8752165 L103.061809,12.3527721 Z M118.12073,6.49475645 C117.69093,5.42821557 116.640308,3.86820054 115.589685,2.70614852 L114.937026,3.02451894 C115.955811,4.18657095 117.006433,5.79434154 117.404396,6.87680095 L118.12073,6.49475645 Z M116.242344,9.7580532 C115.032537,10.2992829 113.790892,10.8564311 112.644759,11.3499053 L112.437818,1.43266686 L111.673729,1.46450391 L111.896588,11.6841942 C111.052907,12.0503202 110.288818,12.3846091 109.667995,12.6393055 L109.954529,13.4033944 C111.689648,12.6393055 114.157018,11.525009 116.417448,10.4903052 L116.242344,9.7580532 Z M124.328953,14.4699353 C123.437516,13.2919648 121.654642,11.3817423 120.158301,9.91723841 C121.320353,7.76823811 121.941175,5.04617107 122.355056,1.51225947 L121.543212,1.43266686 C120.763204,8.56416415 119.059923,12.4482832 113.313337,14.5017724 C113.504359,14.6609576 113.806811,14.979328 113.934159,15.1385132 C116.656226,14.0560538 118.486856,12.6074684 119.760338,10.5858163 C121.208923,12.0662387 122.864449,13.8809501 123.676294,15.0270836 L124.328953,14.4699353 Z M137.047851,11.7956239 L137.047851,11.127046 L133.179651,11.127046 L133.179651,9.16906794 L136.809073,9.16906794 L136.809073,8.50049007 L134.628236,8.50049007 C134.994362,7.86374924 135.392325,7.08374172 135.710695,6.36740829 L135.01028,6.17638604 C134.787421,6.84496391 134.309866,7.80007515 133.927821,8.50049007 L129.072672,8.50049007 L129.072672,9.16906794 L132.447399,9.16906794 L132.447399,11.127046 L128.738383,11.127046 L128.738383,11.7956239 L132.447399,11.7956239 L132.447399,14.8678984 L133.179651,14.8678984 L133.179651,11.7956239 L137.047851,11.7956239 Z M129.980028,6.43108237 C130.425746,7.03598616 130.839628,7.86374924 130.998813,8.42089746 L131.635554,8.19803817 C131.46045,7.64088995 131.046569,6.84496391 130.584932,6.2241416 L129.980028,6.43108237 Z M139.833592,3.16778562 L139.833592,2.43553367 L133.227406,2.43553367 C133.275162,1.86246692 133.338836,1.27348166 133.386591,0.748170474 L132.574747,0.65265935 C132.558828,1.17797053 132.511073,1.79879284 132.463317,2.43553367 L125.920805,2.43553367 L125.920805,3.16778562 L132.399643,3.16778562 C132.335969,3.86820054 132.256376,4.58453397 132.176784,5.14168219 L126.955509,5.14168219 L126.955509,15.0907576 L127.703679,15.0907576 L127.703679,5.85801563 L138.066636,5.85801563 L138.066636,14.0401353 C138.066636,14.3107501 138.002962,14.3903427 137.70051,14.4062613 C137.429896,14.4221798 136.458866,14.4221798 135.328651,14.3744242 C135.455999,14.613202 135.55151,14.8997354 135.615184,15.1225947 C136.920503,15.1225947 137.796022,15.1225947 138.257659,14.9952465 C138.687459,14.8678984 138.846644,14.613202 138.846644,14.0242168 L138.846644,5.14168219 L132.893117,5.14168219 C132.97271,4.56861545 133.068221,3.86820054 133.147813,3.16778562 L139.833592,3.16778562 Z" id="堅持----在濁水溪以南" fill-opacity="0.504189312" sketch:type="MSShapeGroup"></path>
                <path d="M33.8799183,15.9715825 C35.3762592,15.3985157 36.3950445,14.1887081 36.3950445,12.5172635 C36.3950445,11.5303152 35.9970815,10.8935743 35.2489111,10.8935743 C34.7235999,10.8935743 34.2619628,11.2119448 34.2619628,11.8646041 C34.2619628,12.5172635 34.6758443,12.8356339 35.2489111,12.8356339 C35.3603407,12.8356339 35.4717703,12.8197154 35.5832,12.7878783 C35.5195259,14.0454415 34.8350295,14.825449 33.6093034,15.3985157 L33.8799183,15.9715825 Z" id="Type-something" fill-opacity="0.5" sketch:type="MSShapeGroup"></path>
            </g>
            <g id="Fill-1-+-Fill-2-+-Fill-3-2-Copy" sketch:type="MSLayerGroup" transform="translate(95.437320, 12.202938)" fill="#FFFFFF">
                <path d="M120.241241,98.4068572 C122.979586,85.3417873 118.78414,73.1365931 118.07443,71.2341576 C118.759017,73.1302936 122.659275,85.4016322 114.422256,100.177004 C113.401657,101.26996 112.19578,102.662139 110.732398,104.38819 C103.399787,114.571258 91.9816407,120.417153 79.414142,120.417153 C71.1268777,120.417153 63.0876979,117.862725 56.1853085,113.024743 C38.8382668,100.885693 39.758376,83.4865978 39.767797,83.3196622 L39.8463046,82.2141079 L2.85351735,89.2537489 L3.12672385,90.1419721 C3.21465229,90.4506454 12.6826704,120.886462 46.924551,133.98303 C54.0718836,136.698094 61.4421785,138.02098 68.8721395,138.02098 L68.8815596,138.02098 C90.8636918,138.02098 111.916293,125.245686 117.826347,108.218259 C119.955473,102.079439 120.373134,99.6069033 120.241241,98.4068572 L120.241241,98.4068572 L120.241241,98.4068572 Z M68.8815596,135.523246 L68.8721395,135.523246 C61.6525792,135.523246 54.4769833,134.631873 47.5400507,131.989252 C17.3837064,120.464399 6.89822955,95.6728937 5.0548708,90.582934 L12.6387061,89.1435084 L17.2737957,89.7167589 C17.2737957,89.7167589 24.0348713,117.125688 53.6291012,129.916732 C67.9708717,136.115395 81.4333577,135.239772 92.487229,130.51833 C85.2927917,133.686956 77.1719637,135.523246 68.8815596,135.523246 L68.8815596,135.523246 L68.8815596,135.523246 Z" id="Fill-1" sketch:type="MSShapeGroup"></path>
                <path d="M148.726943,68.8876106 C139.579236,49.4348933 123.780364,39.5762461 109.523382,35.9950059 L123.84317,2.61419334 L122.935622,2.33071786 C122.671836,2.24252549 116.055214,0.214100952 105.886908,0.214100952 C95.0057536,0.214100952 78.6039427,2.63939116 62.1989922,14.1988913 C48.5794914,23.8118597 39.6578863,37.9163396 37.1173799,53.9201053 C35.0918836,66.6355554 37.6009869,79.1966689 43.8030882,87.5402972 C47.6907853,92.7530962 49.5090216,94.4948955 50.5830057,95.0555471 C59.8437642,104.649617 72.288791,107.997778 74.2609015,108.473386 C72.288791,107.991478 59.9819368,104.353543 52.4012423,89.2537489 C52.0652289,87.808024 51.606745,86.0315777 50.988105,83.8362176 C43.5958281,63.611817 53.8709042,41.5668738 74.3739532,33.6358599 C79.1723379,31.7806704 84.027249,30.8389018 88.7910905,30.8389018 C96.7706041,30.8389018 102.784288,33.4846731 105.855506,35.2012745 C102.752884,34.640623 99.7601749,34.3697464 96.9684439,34.3697464 C90.6313089,34.3697464 84.7149753,35.6831829 79.8412228,38.1494196 C74.3299888,40.9589764 72.1160742,42.5338403 71.280753,43.5826995 C60.2457231,51.0947997 54.8381186,62.8653315 54.0467618,64.6953232 C54.8475387,62.8779305 60.5095084,51.3026817 76.6726558,46.3702084 C78.3150345,46.282016 80.2369012,46.0930324 82.2498364,45.8914498 C84.573662,45.472536 86.9383111,45.2520551 89.2652764,45.2520551 C107.749109,45.2520551 123.84317,58.8557284 127.536168,77.6029067 C131.659388,98.397408 118.969417,110.300229 118.840665,110.419918 L118.027326,111.166404 L149.549702,131.806568 L149.992486,130.968741 C150.121238,130.682115 164.378221,102.148734 148.726943,68.8876106 L148.726943,68.8876106 L148.726943,68.8876106 Z M61.8472782,22.0669107 C38.5839022,37.021817 35.1232866,62.096798 41.5546303,80.1982822 C38.3452389,72.7995722 37.3026579,63.5456727 38.7911622,54.1878322 C41.2688625,38.6470765 49.9235417,24.9426119 63.172487,15.5973703 C79.2163023,4.28984839 95.2444169,1.91810356 105.886908,1.91810356 C113.656022,1.91810356 119.383937,3.15909621 121.522485,3.70084935 L118.466969,10.8475811 L115.417733,14.3563777 C115.417733,14.3563777 88.9700877,4.6331687 61.8472782,22.0669107 L61.8472782,22.0669107 L61.8472782,22.0669107 Z M148.871397,129.324583 L142.399229,125.088199 L139.459904,121.456564 C139.459904,121.456564 153.53789,97.0020787 141.061459,67.1962069 C130.3436,41.6330182 106.260604,33.9319344 87.3685327,37.2139504 C90.3675236,36.4769142 93.6020372,36.0768988 96.9684439,36.0768988 C114.117647,36.0768988 136.294477,46.4458018 147.194474,69.6183474 C160.958429,98.9045142 151.050769,124.376361 148.871397,129.324583 L148.871397,129.324583 L148.871397,129.324583 Z" id="Fill-2" sketch:type="MSShapeGroup"></path>
                <path d="M109.074318,79.9494537 C109.074318,73.5492074 106.235482,67.7663076 101.98351,63.633865 C98.6202438,66.5032669 92.7353136,68.4057023 86.1500951,68.4057023 C79.5680163,68.4057023 73.7364707,66.5032669 70.3732048,63.633865 C66.1118119,67.7663076 63.524201,73.5492074 63.524201,79.9494537 C63.524201,87.4080086 65.2450872,94.0350354 72.7284327,98.1674779 L72.7284327,84.396869 C72.7284327,81.8739373 76.4465534,79.8234646 78.9619372,79.8234646 C81.4741813,79.8234646 85.1985825,81.8739373 85.1985825,84.396869 L85.1985825,102.221177 C85.1985825,102.498353 86.272567,102.64954 87.7736323,102.64954 C89.2087511,102.64954 90.1728247,102.507802 90.1728247,102.243225 L90.1728247,84.396869 C90.1728247,81.8739373 92.6505245,79.8234646 95.1721899,79.8234646 C97.6781524,79.8234646 100.155853,81.8739373 100.155853,84.396869 L100.155853,98.2871675 C105.139516,94.1673239 109.074318,87.4836021 109.074318,79.9494537" id="Fill-3" sketch:type="MSShapeGroup"></path>
            </g>
            <path d="M95.9776015,266.128799 L254.036787,266.128799" id="Line" stroke-opacity="0.3" stroke="#FFFFFF" stroke-linecap="square" filter="url(#filter-1)" sketch:type="MSShapeGroup"></path>
            <path d="M32.2265791,301.575021 L19.7756428,301.575021 L19.7756428,302.331151 L32.2265791,302.331151 L32.2265791,301.575021 Z M16.1210157,299.93674 C14.7851865,301.827065 12.3151627,304.070249 10.1979995,305.557305 C10.3492254,305.683326 10.6012687,305.960574 10.7272903,306.1118 C12.8444536,304.549132 15.3144774,302.255538 16.8519411,300.239192 L16.1210157,299.93674 Z M17.2048017,305.280057 C15.3900903,308.178554 12.5924103,311.102256 9.94595624,313.017785 C10.1223865,313.143806 10.4248384,313.446258 10.55086,313.57228 C11.7606676,312.614515 13.0208838,311.455116 14.2306914,310.169696 L14.2306914,322.797062 L14.9616168,322.797062 L14.9616168,309.388362 C16.0454028,308.15335 17.0535757,306.842725 17.9105228,305.506896 L17.2048017,305.280057 Z M33.0079131,308.50621 L18.6414482,308.50621 L18.6414482,309.237136 L28.1182742,309.237136 L28.1182742,321.360416 C28.1182742,321.814094 27.9418439,321.940115 27.4377574,321.96532 C26.9840796,322.015728 25.2449812,322.015728 23.1026136,321.96532 C23.2538396,322.192159 23.3798612,322.444202 23.4302698,322.620632 C26.1019282,322.620632 27.3873488,322.620632 28.0174569,322.519815 C28.5971564,322.368589 28.8491996,322.066137 28.8491996,321.335212 L28.8491996,309.237136 L33.0079131,309.237136 L33.0079131,308.50621 Z M62.9586099,313.773914 L62.9586099,311.228278 L67.318958,311.228278 L67.318958,313.773914 L62.9586099,313.773914 Z M62.9586099,307.97692 L67.318958,307.97692 L67.318958,310.472148 L62.9586099,310.472148 L62.9586099,307.97692 Z M72.6622748,307.97692 L72.6622748,310.472148 L68.0750877,310.472148 L68.0750877,307.97692 L72.6622748,307.97692 Z M72.6622748,313.773914 L68.0750877,313.773914 L68.0750877,311.228278 L72.6622748,311.228278 L72.6622748,313.773914 Z M83.550543,306.061391 L77.9551829,306.061391 C78.0055916,304.145862 78.0307959,302.179925 78.0307959,300.188783 L77.2746662,300.188783 C77.2746662,302.154721 77.2746662,304.145862 77.1990532,306.061391 L73.5948348,306.061391 L73.5948348,306.792316 L77.1738489,306.792316 C76.9218056,311.88359 76.1656759,316.571594 73.6200391,319.873361 L73.5948348,319.470092 C71.7297148,319.722135 69.8645948,319.948974 68.0750877,320.150608 L68.0750877,317.352928 L73.3932002,317.352928 L73.3932002,316.596799 L68.0750877,316.596799 L68.0750877,314.50484 L73.3932002,314.50484 L73.3932002,307.245994 L68.0750877,307.245994 L68.0750877,305.053218 L73.9728997,305.053218 L73.9728997,304.297088 L68.0750877,304.297088 L68.0750877,301.80186 C70.0914337,301.600226 71.981758,301.322978 73.3679959,300.995322 L72.8135007,300.340009 C70.3686813,300.944913 65.5798596,301.398591 61.8496196,301.600226 C61.9504369,301.80186 62.0512542,302.079108 62.1016628,302.280742 C63.7399439,302.205129 65.5546553,302.079108 67.318958,301.902677 L67.318958,304.297088 L61.3959418,304.297088 L61.3959418,305.053218 L67.318958,305.053218 L67.318958,307.245994 L62.2276845,307.245994 L62.2276845,314.50484 L67.318958,314.50484 L67.318958,316.596799 L62.1772758,316.596799 L62.1772758,317.352928 L67.318958,317.352928 L67.318958,320.251426 C65.1009775,320.503469 63.0846315,320.730308 61.4967591,320.906738 L61.6731893,321.688072 C64.7229126,321.310007 69.1588737,320.755512 73.3427916,320.175813 C72.6874791,320.982351 71.9313494,321.688072 71.0239937,322.292976 C71.2508326,322.393793 71.5784888,322.595428 71.7297148,322.746654 C76.4681278,319.394479 77.6023224,313.496667 77.9047743,306.792316 L82.7944132,306.792316 C82.4919613,317.100885 82.1138965,320.705104 81.4333797,321.486438 C81.2065408,321.788889 80.9544975,321.839298 80.526024,321.839298 C80.0471419,321.839298 78.7617213,321.814094 77.3754835,321.713277 C77.5015051,321.914911 77.5771181,322.242567 77.6023224,322.469406 C78.7617213,322.545019 79.9715289,322.570224 80.6268413,322.545019 C81.3073581,322.545019 81.7358316,322.393793 82.0634878,321.914911 C82.9204349,320.906738 83.2228868,317.529359 83.550543,306.615886 L83.550543,306.061391 Z M121.642237,301.902677 L121.642237,304.725562 L114.484208,304.725562 L114.484208,301.902677 L121.642237,301.902677 Z M114.484208,308.455802 L114.484208,305.456487 L121.642237,305.456487 L121.642237,308.455802 L114.484208,308.455802 Z M122.373162,309.186727 L122.373162,301.171752 L113.728079,301.171752 L113.728079,322.72145 L114.484208,322.72145 L114.484208,309.186727 L122.373162,309.186727 Z M121.364989,315.386991 L121.364989,311.807977 L126.078198,311.807977 L126.078198,315.386991 L121.364989,315.386991 Z M130.867019,316.143121 L130.867019,315.386991 L126.834327,315.386991 L126.834327,311.807977 L130.211707,311.807977 L130.211707,311.077052 L117.40791,311.077052 L117.40791,311.807977 L120.634064,311.807977 L120.634064,315.386991 L116.853415,315.386991 L116.853415,316.143121 L120.608859,316.143121 C120.533246,317.730993 119.877934,320.27663 117.206275,321.914911 C117.40791,322.040933 117.659953,322.292976 117.785975,322.469406 C120.533246,320.629491 121.238967,317.756198 121.339785,316.143121 L126.078198,316.143121 L126.078198,322.192159 L126.834327,322.192159 L126.834327,316.143121 L130.867019,316.143121 Z M125.926972,308.455802 L125.926972,305.456487 L133.311839,305.456487 L133.311839,308.455802 L125.926972,308.455802 Z M133.311839,301.902677 L133.311839,304.725562 L125.926972,304.725562 L125.926972,301.902677 L133.311839,301.902677 Z M134.067968,301.171752 L125.196046,301.171752 L125.196046,309.186727 L133.311839,309.186727 L133.311839,321.310007 C133.311839,321.713277 133.185817,321.839298 132.782548,321.864502 C132.354074,321.889707 130.917428,321.889707 129.253943,321.864502 C129.379964,322.116546 129.505986,322.469406 129.556394,322.671041 C131.471923,322.671041 132.681731,322.671041 133.26143,322.545019 C133.84113,322.393793 134.067968,322.040933 134.067968,321.284803 L134.067968,301.171752 Z M166.211441,316.117916 C166.413076,315.109744 166.564302,313.799119 166.715528,312.614515 L172.411705,312.614515 L172.411705,307.598855 L167.824518,307.598855 C170.294542,306.1118 172.512523,304.045045 173.72233,301.449 L173.243448,301.171752 L173.117426,301.222161 L165.984603,301.222161 L165.984603,301.953086 L172.663749,301.953086 C171.882414,303.364528 170.723016,304.59954 169.361982,305.658122 C168.631057,304.77597 167.219614,303.591367 165.984603,302.759625 L165.480516,303.238507 C166.665119,304.045045 168.000948,305.229648 168.782283,306.137004 C167.01798,307.39722 165.001634,308.354985 163.136514,308.934684 C163.312944,309.08591 163.514579,309.337953 163.615396,309.539588 C164.699182,309.186727 165.833377,308.707845 166.942367,308.077737 L166.942367,308.32978 L171.68078,308.32978 L171.68078,311.88359 L166.110624,311.88359 C165.90899,313.446258 165.581333,315.513013 165.32929,316.848842 L171.68078,316.848842 C171.353124,319.948974 171.050672,321.20919 170.596994,321.612459 C170.420564,321.788889 170.16852,321.814094 169.689638,321.814094 C169.23596,321.814094 167.748905,321.788889 166.236646,321.662868 C166.362667,321.864502 166.463485,322.14175 166.488689,322.368589 C167.874927,322.469406 169.23596,322.494611 169.840864,322.469406 C170.496177,322.469406 170.849037,322.368589 171.151489,322.091341 C171.756393,321.562051 172.084049,320.175813 172.43691,316.571594 C172.462114,316.445573 172.487318,316.117916 172.487318,316.117916 L166.211441,316.117916 Z M183.098339,314.782087 L182.947113,314.832496 L173.89876,314.832496 L173.89876,315.563421 L182.493435,315.563421 C181.712101,317.000068 180.552702,318.23508 179.166464,319.243253 C177.704613,318.285488 176.116741,317.327724 174.705299,316.495981 L174.30203,316.874046 C175.688267,317.705789 177.200527,318.638349 178.662378,319.596113 C176.898075,320.805921 174.856525,321.637664 172.915792,322.14175 C173.092222,322.292976 173.268652,322.545019 173.344265,322.746654 C175.385816,322.14175 177.477774,321.259599 179.267282,319.999382 C180.855154,321.03276 182.2918,322.066137 183.299973,322.797062 L183.703243,322.292976 C182.720274,321.587255 181.308832,320.629491 179.796572,319.621318 C181.384445,318.41151 182.720274,316.899251 183.552017,315.059335 L183.098339,314.782087 Z M181.93894,312.488494 C181.535671,312.488494 181.460058,312.362472 181.460058,311.782773 L181.460058,307.598855 L181.00638,307.598855 L181.00638,307.57365 L175.436224,307.57365 L175.436224,309.716018 C175.436224,310.976234 175.007751,312.387676 172.865383,313.471462 C173.067018,313.57228 173.293857,313.799119 173.419878,313.975549 C175.663063,312.790946 176.16715,311.152665 176.16715,309.741222 L176.16715,308.304576 L180.729132,308.304576 L180.729132,311.782773 C180.729132,312.790946 180.930767,313.093398 181.863327,313.093398 L184.484577,313.093398 C184.938255,313.093398 185.417137,313.093398 185.643976,313.042989 C185.618771,312.866559 185.593567,312.614515 185.593567,312.438085 C185.291115,312.488494 184.73662,312.488494 184.459372,312.488494 L181.93894,312.488494 Z M184.812233,302.684012 C183.829264,303.66698 182.090166,305.053218 180.729132,305.960574 C179.922594,305.406079 179.14126,304.750766 178.435539,304.045045 C179.796572,303.112485 181.460058,301.776656 182.644661,300.592053 L182.039757,300.163579 C181.056789,301.196956 179.31769,302.633603 177.981861,303.591367 C176.973688,302.482377 176.116741,301.272569 175.511837,299.961944 L174.881729,300.213988 C176.898075,304.448314 181.107197,307.775285 185.820406,309.161523 C185.946428,308.985093 186.148062,308.733049 186.324492,308.556619 C184.56019,308.077737 182.846296,307.321607 181.308832,306.363843 C182.669865,305.456487 184.282942,304.24668 185.442341,303.137689 L184.812233,302.684012 Z M233.061269,316.672412 L221.240441,316.672412 L221.240441,313.295032 L233.061269,313.295032 L233.061269,316.672412 Z M221.240441,321.03276 L221.240441,317.403337 L233.061269,317.403337 L233.061269,321.03276 L221.240441,321.03276 Z M237.093961,309.26234 L237.093961,308.531415 L228.222039,308.531415 C231.044923,306.414252 233.565356,304.019841 235.707723,301.373387 L235.077615,300.970117 C232.859635,303.767797 230.137568,306.313434 227.012231,308.531415 L224.844659,308.531415 L224.844659,304.322293 L231.90187,304.322293 L231.90187,303.591367 L224.844659,303.591367 L224.844659,299.961944 L224.113734,299.961944 L224.113734,303.591367 L217.132136,303.591367 L217.132136,304.322293 L224.113734,304.322293 L224.113734,308.531415 L214.888951,308.531415 L214.888951,309.26234 L225.95365,309.26234 C222.450249,311.681955 218.568783,313.647893 214.536091,315.160152 C214.737725,315.336582 214.989769,315.639034 215.11579,315.815465 C216.955706,315.059335 218.745213,314.227592 220.509516,313.345441 L220.509516,322.671041 L221.240441,322.671041 L221.240441,321.763685 L233.061269,321.763685 L233.061269,322.570224 L233.792195,322.570224 L233.792195,312.564107 L221.946162,312.564107 C223.786078,311.555934 225.525176,310.446943 227.213866,309.26234 L237.093961,309.26234 Z M270.90092,315.739852 L270.90092,309.489179 L277.882517,309.489179 L277.882517,315.739852 L270.90092,315.739852 Z M288.317108,315.739852 L278.613443,315.739852 L278.613443,309.489179 L286.779644,309.489179 L286.779644,308.758254 L278.613443,308.758254 L278.613443,304.045045 L287.334139,304.045045 L287.334139,303.31412 L271.405006,303.31412 C271.934297,302.280742 272.463588,301.222161 272.917265,300.11317 L272.161136,299.911536 C270.800102,303.465346 268.582122,306.792316 266.036485,308.985093 C266.263324,309.08591 266.59098,309.312749 266.742206,309.413566 C268.27967,308.027328 269.716316,306.137004 270.976532,304.045045 L277.882517,304.045045 L277.882517,308.758254 L270.169994,308.758254 L270.169994,315.739852 L265.83485,315.739852 L265.83485,316.470777 L277.882517,316.470777 L277.882517,322.72145 L278.613443,322.72145 L278.613443,316.470777 L288.317108,316.470777 L288.317108,315.739852 Z M334.373368,315.386991 L334.373368,317.756198 L322.275292,317.756198 L322.275292,315.386991 L334.373368,315.386991 Z M322.275292,320.906738 L322.275292,318.487123 L334.373368,318.487123 L334.373368,320.906738 L322.275292,320.906738 Z M321.544367,322.645837 L322.275292,322.645837 L322.275292,321.637664 L334.373368,321.637664 L334.373368,322.570224 L335.104293,322.570224 L335.104293,314.656066 L321.544367,314.656066 L321.544367,322.645837 Z M331.424462,311.959203 C332.029366,311.152665 332.785495,309.917653 333.390399,308.833867 L332.659474,308.430598 C332.256205,309.337953 331.424462,310.749395 330.844762,311.631547 L331.424462,311.959203 Z M322.854992,308.859071 C323.66153,309.791631 324.493273,311.077052 324.795725,311.933999 L325.501446,311.555934 C325.173789,310.673782 324.316842,309.438771 323.4851,308.50621 L322.854992,308.859071 Z M320.662215,307.926511 L327.74463,307.926511 L327.74463,312.312063 L320.662215,312.312063 L320.662215,307.926511 Z M335.583175,312.312063 L328.475556,312.312063 L328.475556,307.926511 L335.583175,307.926511 L335.583175,312.312063 Z M319.93129,313.042989 L336.314101,313.042989 L336.314101,307.195586 L319.93129,307.195586 L319.93129,313.042989 Z M323.888369,304.750766 L323.888369,305.481692 L332.583861,305.481692 L332.583861,304.750766 L323.888369,304.750766 Z M328.273921,300.012353 C325.854306,303.213302 321.317528,305.557305 316.805954,306.918338 C316.95718,307.069564 317.259631,307.39722 317.360449,307.548446 C321.342732,306.187413 325.501446,304.145862 328.122695,301.297774 C330.718741,303.919023 335.331132,306.28823 339.086576,307.39722 C339.212598,307.170381 339.414233,306.893134 339.590663,306.741908 C335.709197,305.70853 331.071601,303.339324 328.601578,300.743279 C328.727599,300.592053 328.853621,300.415622 328.979642,300.289601 L328.273921,300.012353 Z" id="行動開發者年會" fill="#FFFFFF" sketch:type="MSShapeGroup"></path>
        </g>
    </g>
</svg>