<?xml version="1.0" encoding="UTF-8" standalone="no"?>
<svg width="500px" height="81px" viewBox="0 0 500 81" version="1.1" xmlns="http://www.w3.org/2000/svg" xmlns:xlink="http://www.w3.org/1999/xlink" xmlns:sketch="http://www.bohemiancoding.com/sketch/ns">
    <!-- Generator: Sketch 3.3.2 (12043) - http://www.bohemiancoding.com/sketch -->
    <title>logo_header</title>
    <desc>Created with Sketch.</desc>
    <defs></defs>
    <g id="Page-1" stroke="none" stroke-width="1" fill="none" fill-rule="evenodd" sketch:type="MSPage">
        <g id="logo_header" sketch:type="MSLayerGroup" fill="#FFFFFF">
            <g id="2015-+-MOPCON" transform="translate(0.500000, 0.000000)" sketch:type="MSShapeGroup">
                <g id="Imported-Layers-2-Copy-2" transform="translate(0.000000, 1.000000)">
                    <path d="M0.148791536,1.08539552 L18.3623216,1.08539552 L32.3665137,30.5574207 L45.315215,1.08539552 L63.0009996,1.08539552 L63.0009996,1.87209695 L61.8192539,1.87209695 L56.2867647,6.08311368 L56.2867647,39.7126905 L61.7763272,43.9160693 L63.0009996,43.9160693 L63.0009996,44.7053167 L38.2727174,44.7053167 L38.2727174,43.9160693 L39.5100152,43.9160693 L44.9920025,39.7126905 L44.9920025,4.18382802 L44.8859484,4.18382802 L27.1016849,44.7053167 L26.2330513,44.7053167 L8.32000785,6.58721363 L8.21647884,6.58721363 L8.21647884,33.5845664 L13.7540182,43.9160693 L15.2362506,43.9160693 L15.2362506,44.7053167 L0.204343686,44.7053167 L0.204343686,43.9160693 L1.7547537,43.9160693 L7.29229307,33.5845664 L7.29229307,5.46189961 L1.7547537,1.87209695 L0.148791536,1.87209695 L0.148791536,1.08539552" id="Fill-58"></path>
                    <path d="M93.2592459,0.158666324 C97.3448541,0.158666324 101.127451,0.942821797 104.576734,2.50858679 C108.041168,4.08708157 110.952606,6.35807729 113.313572,9.33175779 C114.879133,11.2488652 116.078554,13.3492816 116.901736,15.6151854 C117.752694,17.9014569 118.159235,20.2157339 118.159235,22.5656544 C118.159235,26.6671949 117.055767,30.4530364 114.848832,33.9155411 C112.646946,37.3831377 109.659756,40.1276818 105.879684,42.1542655 C102.112239,44.1833951 98.0241054,45.2043248 93.6380106,45.2043248 C89.3301938,45.2043248 85.2925625,44.1833951 81.5301669,42.1542655 C77.7829218,40.1276818 74.7932061,37.4009594 72.5786954,33.9588224 C70.3717599,30.5217773 69.2556667,26.847958 69.2556667,22.9068129 C69.2556667,19.958592 69.9020918,17.0943878 71.1848414,14.3472977 C72.4524405,11.5823858 74.2250591,9.130627 76.4774463,6.99202117 C78.7273084,4.84323149 81.300383,3.17308217 84.2042454,1.95865957 C87.1005325,0.767150603 90.1205494,0.158666324 93.2592459,0.158666324 L93.2592459,0.158666324 Z M94.0824278,1.56658183 C91.5623802,1.56658183 89.5347268,1.98921108 87.991892,2.82937766 C86.4364318,3.69500383 85.22691,5.03417844 84.3380756,6.86981512 C83.7244768,8.23699528 83.2623839,9.76202492 82.9694726,11.44745 C82.7346385,12.8757332 82.5477813,14.7775648 82.3988005,17.1503989 C82.2649703,19.5436007 82.1866923,22.0488246 82.1866923,24.6889845 C82.1866923,26.1249055 82.2422445,27.7517735 82.358399,29.5721345 C82.461928,31.3975873 82.6109087,32.9226169 82.8129165,34.1497693 C83.3684381,37.1463635 84.4062532,39.4224511 85.9440378,40.9831242 C87.6964556,42.9027775 90.3806345,43.8524203 93.9864741,43.8524203 C96.2413864,43.8524203 98.1301595,43.4119694 99.6603687,42.5132457 C101.190578,41.6247059 102.4001,40.2575258 103.283884,38.4193431 C103.846981,37.301667 104.304023,35.8122808 104.660062,33.9588224 C104.87217,32.7138483 105.043877,30.9342227 105.187808,28.6275836 C105.316588,26.3107606 105.38729,23.8666396 105.38729,21.2824909 C105.38729,16.4018868 105.016101,12.5167529 104.301498,9.63727291 C103.566695,6.76543079 102.392524,4.71338757 100.758786,3.44549982 C99.1351484,2.19034187 96.9054871,1.56658183 94.0824278,1.56658183 L94.0824278,1.56658183 Z" id="Fill-59"></path>
                    <path d="M123.295284,1.08539552 L150.225451,1.08539552 C151.743035,1.08539552 153.328796,1.22287732 154.982735,1.50038689 C156.656875,1.76516666 158.156783,2.1572444 159.505185,2.66643626 C160.843487,3.17817409 161.962105,3.76374473 162.843365,4.43333204 C164.381149,5.500089 165.57552,6.82653381 166.441629,8.43558011 C167.302687,10.0522643 167.729429,11.8089762 167.729429,13.7082619 C167.729429,16.2542212 166.994625,18.4386543 165.522493,20.2284637 C164.060462,22.0055433 161.898978,23.3727235 159.068343,24.2841769 C156.217508,25.2058142 152.793476,25.656449 148.755844,25.656449 L141.397709,25.656449 L141.397709,39.6414036 L146.887272,43.9160693 L148.215473,43.9160693 L148.215473,44.7053167 L123.348311,44.7053167 L123.348311,43.9160693 L124.519956,43.9160693 L130.004468,39.7126905 L130.004468,6.08311368 L124.370975,1.87209695 L123.295284,1.87209695 L123.295284,1.08539552 L123.295284,1.08539552 Z M141.397709,2.25144489 L141.397709,24.4980375 L146.488306,24.4980375 C148.308902,24.4980375 149.834061,24.2841769 151.056208,23.843726 C152.283406,23.4109129 153.258094,22.7387796 153.980272,21.8171423 C155.444828,19.9076728 156.187207,16.9187166 156.187207,12.8630034 C156.187207,10.505445 155.87157,8.54505636 155.247871,6.98183733 C154.624171,5.40334254 153.679785,4.2169255 152.439962,3.43786194 C151.187513,2.64352263 149.662354,2.25144489 147.813983,2.25144489 L141.397709,2.25144489 L141.397709,2.25144489 Z" id="Fill-60"></path>
                    <path d="M217.375376,28.47228 L218.26421,28.8363522 C217.653136,30.7585515 217.077414,32.2886731 216.534518,33.4445386 C215.994147,34.6004041 215.266919,35.7893671 214.347783,37.0216115 C210.267225,42.4750563 204.737261,45.2043248 197.745266,45.2043248 C193.917218,45.2043248 190.202799,44.3386986 186.581809,42.6074462 C182.965869,40.8787398 179.928176,38.493176 177.473781,35.4278409 C174.638096,31.8838655 173.218991,27.7517735 173.218991,23.0341109 C173.218991,17.0052792 175.663286,11.5823858 180.55945,6.80107422 C184.930395,2.50604083 190.132096,0.339429436 196.189805,0.339429436 C198.139181,0.339429436 199.919375,0.58893345 201.507661,1.08539552 C203.106048,1.58440355 204.82059,2.45002972 206.658861,3.65172252 C207.878483,4.50207294 208.810244,4.92724815 209.428893,4.92724815 C210.037442,4.92724815 210.782345,4.63700879 211.691381,4.05907602 C212.597891,3.49896496 213.749335,2.57223577 215.181066,1.27379651 C215.446201,1.03193037 215.595182,0.886810692 215.635583,0.840983424 L216.150703,0.40053246 L216.706225,0.40053246 L217.324874,16.5724661 L216.746626,16.5724661 C215.375498,14.32693 214.070023,12.386909 212.817574,10.7625869 C210.767195,8.14534074 208.295124,6.01182682 205.398837,4.35186134 C202.492449,2.70207969 199.772919,1.87209695 197.209945,1.87209695 C195.912045,1.87209695 194.646971,2.17252015 193.439974,2.77336656 C192.212777,3.37675892 191.164861,4.24238509 190.306328,5.37024507 C187.495894,8.98805328 186.094465,14.5738881 186.094465,22.1277494 C186.094465,23.7724391 186.203044,25.5164213 186.422727,27.3698796 C186.657561,29.2055163 186.970674,30.8909414 187.354488,32.3930574 C187.745879,33.920633 188.195346,35.2139803 188.700366,36.2756454 C189.495771,37.9177891 190.437633,39.2875153 191.528475,40.3797318 C192.614267,41.4694024 193.84904,42.2993852 195.227743,42.872226 C196.608972,43.4476128 198.098779,43.7327603 199.719892,43.7327603 C201.383932,43.7327603 203.068172,43.434883 204.749887,42.8518583 C206.439177,42.2713796 208.042614,41.4006615 209.565248,40.2371581 C211.080307,39.0711087 212.400933,37.7497558 213.524602,36.2756454 C214.421011,35.0892283 215.143189,33.9588224 215.67346,32.8818816 C216.206255,31.8151246 216.776927,30.3435601 217.375376,28.47228" id="Fill-61"></path>
                    <path d="M247.729576,0.158666324 C251.827809,0.158666324 255.595255,0.942821797 259.064739,2.50858679 C262.519073,4.08708157 265.427986,6.35807729 267.801578,9.33175779 C269.351988,11.2488652 270.546359,13.3492816 271.382166,15.6151854 C272.225549,17.9014569 272.644715,20.2157339 272.644715,22.5656544 C272.644715,26.6671949 271.536197,30.4530364 269.321686,33.9155411 C267.122326,37.3831377 264.132611,40.1276818 260.357589,42.1542655 C256.590144,44.1833951 252.504535,45.2043248 248.115916,45.2043248 C243.800524,45.2043248 239.778043,44.1833951 236.018172,42.1542655 C232.263352,40.1276818 229.278686,37.4009594 227.05155,33.9588224 C224.844615,30.5217773 223.746197,26.847958 223.746197,22.9068129 C223.746197,19.958592 224.374947,17.0943878 225.657696,14.3472977 C226.932871,11.5823858 228.695389,9.130627 230.955351,6.99202117 C233.210264,4.84323149 235.790913,3.17308217 238.68215,1.95865957 C241.573387,0.767150603 244.60098,0.158666324 247.729576,0.158666324 L247.729576,0.158666324 Z M248.562858,1.56658183 C246.04281,1.56658183 244.012632,1.98921108 242.457172,2.82937766 C240.932012,3.69500383 239.709865,5.03417844 238.81093,6.86981512 C238.202382,8.23699528 237.745339,9.76202492 237.439802,11.44745 C237.207493,12.8757332 237.025686,14.7775648 236.886806,17.1503989 C236.737825,19.5436007 236.662072,22.0488246 236.662072,24.6889845 C236.662072,26.1249055 236.73025,27.7517735 236.823678,29.5721345 C236.929733,31.3975873 237.098914,32.9226169 237.285771,34.1497693 C237.838768,37.1463635 238.881633,39.4224511 240.416893,40.9831242 C242.184461,42.9027775 244.861065,43.8524203 248.459329,43.8524203 C250.721816,43.8524203 252.61059,43.4119694 254.140799,42.5132457 C255.665958,41.6247059 256.872955,40.2575258 257.764314,38.4193431 C258.324886,37.301667 258.784454,35.8122808 259.132917,33.9588224 C259.345025,32.7138483 259.524307,30.9342227 259.665713,28.6275836 C259.794493,26.3107606 259.860145,23.8666396 259.860145,21.2824909 C259.860145,16.4018868 259.501581,12.5167529 258.774353,9.63727291 C258.047125,6.76543079 256.862854,4.71338757 255.244267,3.44549982 C253.608003,2.19034187 251.378342,1.56658183 248.562858,1.56658183 L248.562858,1.56658183 Z" id="Fill-62"></path>
                    <path d="M278.023173,1.08539552 L296.787175,1.08539552 L299.991524,4.20674166 L310.215645,14.202178 L320.449866,24.2841769 L323.687041,27.4309827 L323.687041,11.7402353 L318.076274,1.83645352 L316.56879,1.83645352 L316.56879,1.08539552 L331.552721,1.08539552 L331.529995,1.83645352 L330.004836,1.83645352 L324.661729,11.6180293 L324.661729,44.7053167 L323.40423,44.7053167 L319.025711,40.3848237 L305.32453,26.9421585 L291.600624,13.5453205 L287.209479,9.27065477 L287.209479,33.4903659 L292.835397,43.9542587 L294.406008,43.9542587 L294.406008,44.7053167 L279.298348,44.7053167 L279.321074,43.9160693 L280.800781,43.9160693 L286.239841,33.7424158 L286.239841,8.35665537 L279.553383,1.83645352 L278.023173,1.83645352 L278.023173,1.08539552" id="Fill-63"></path>
                </g>
                <path d="M363.12,16.176 L367.152,16.176 C367.237334,14.5546586 367.535997,13.0186739 368.048,11.568 C368.560003,10.1173261 369.285329,8.84800544 370.224,7.76 C371.162671,6.67199456 372.303993,5.8080032 373.648,5.168 C374.992007,4.5279968 376.517325,4.208 378.224,4.208 C379.46134,4.208 380.634661,4.3679984 381.744,4.688 C382.853339,5.0080016 383.823996,5.49866336 384.656,6.16 C385.488004,6.82133664 386.159997,7.65332832 386.672,8.656 C387.184003,9.65867168 387.44,10.8426598 387.44,12.208 C387.44,14.1706765 387.024004,15.8879926 386.192,17.36 C385.359996,18.8320074 384.26134,20.1653274 382.896,21.36 C381.53066,22.5546726 379.962676,23.6639949 378.192,24.688 C376.421324,25.7120051 374.618676,26.7359949 372.784,27.76 C370.949324,28.7840051 369.136009,29.8613277 367.344,30.992 C365.551991,32.1226723 363.94134,33.4026595 362.512,34.832 C361.08266,36.2613405 359.898671,37.8826576 358.96,39.696 C358.021329,41.5093424 357.488001,43.6106547 357.36,46 L386.288,46 L386.992,42.288 L361.968,42.288 C362.565336,40.6239917 363.450661,39.1520064 364.624,37.872 C365.797339,36.5919936 367.141326,35.4080054 368.656,34.32 C370.170674,33.2319946 371.781325,32.2186714 373.488,31.28 C375.194675,30.3413286 376.879992,29.3813382 378.544,28.4 C380.250675,27.4613286 381.882659,26.4693386 383.44,25.424 C384.997341,24.3786614 386.373327,23.2160064 387.568,21.936 C388.762673,20.6559936 389.711996,19.2373411 390.416,17.68 C391.120004,16.1226589 391.472,14.3413434 391.472,12.336 C391.472,10.4586573 391.13067,8.80534048 390.448,7.376 C389.76533,5.94665952 388.837339,4.74133824 387.664,3.76 C386.490661,2.77866176 385.125341,2.04266912 383.568,1.552 C382.010659,1.06133088 380.357342,0.816 378.608,0.816 C376.389322,0.816 374.352009,1.19999616 372.496,1.968 C370.639991,2.73600384 369.02934,3.80265984 367.664,5.168 C366.29866,6.53334016 365.221337,8.15465728 364.432,10.032 C363.642663,11.9093427 363.205334,13.9573222 363.12,16.176 L363.12,16.176 Z M423.536,16.048 C423.536,17.456007 423.418668,19.1199904 423.184,21.04 C422.949332,22.9600096 422.576003,24.9439898 422.064,26.992 C421.551997,29.0400102 420.901337,31.0559901 420.112,33.04 C419.322663,35.0240099 418.362672,36.7946589 417.232,38.352 C416.101328,39.9093411 414.800007,41.1679952 413.328,42.128 C411.855993,43.0880048 410.202676,43.568 408.368,43.568 C406.575991,43.568 405.093339,43.2373366 403.92,42.576 C402.746661,41.9146634 401.808004,41.0293389 401.104,39.92 C400.399996,38.8106611 399.909335,37.5413405 399.632,36.112 C399.354665,34.6826595 399.216,33.2000077 399.216,31.664 C399.216,30.255993 399.343999,28.6026762 399.6,26.704 C399.856001,24.8053238 400.239997,22.8320102 400.752,20.784 C401.264003,18.7359898 401.925329,16.7306765 402.736,14.768 C403.546671,12.8053235 404.517328,11.0346746 405.648,9.456 C406.778672,7.87732544 408.069326,6.6080048 409.52,5.648 C410.970674,4.6879952 412.613324,4.208 414.448,4.208 C416.282676,4.208 417.786661,4.53866336 418.96,5.2 C420.133339,5.86133664 421.06133,6.74666112 421.744,7.856 C422.42667,8.96533888 422.895999,10.223993 423.152,11.632 C423.408001,13.040007 423.536,14.5119923 423.536,16.048 L423.536,16.048 Z M407.408,46.896 C409.882679,46.896 412.090657,46.4266714 414.032,45.488 C415.973343,44.5493286 417.690659,43.2906746 419.184,41.712 C420.677341,40.1333254 421.957328,38.3093437 423.024,36.24 C424.090672,34.1706563 424.954663,32.0053446 425.616,29.744 C426.277337,27.4826554 426.767998,25.2106781 427.088,22.928 C427.408002,20.6453219 427.568,18.5013434 427.568,16.496 C427.568,14.362656 427.354669,12.3573427 426.928,10.48 C426.501331,8.60265728 425.797338,6.93867392 424.816,5.488 C423.834662,4.03732608 422.533341,2.89600416 420.912,2.064 C419.290659,1.23199584 417.285345,0.816 414.896,0.816 C412.591988,0.816 410.501343,1.28532864 408.624,2.224 C406.746657,3.16267136 405.072007,4.41065888 403.6,5.968 C402.127993,7.52534112 400.869339,9.32798976 399.824,11.376 C398.778661,13.4240102 397.904004,15.5359891 397.2,17.712 C396.495996,19.8880109 395.984002,22.0746557 395.664,24.272 C395.343998,26.4693443 395.184,28.5066573 395.184,30.384 C395.184,32.4320102 395.375998,34.4479901 395.76,36.432 C396.144002,38.4160099 396.794662,40.1866589 397.712,41.744 C398.629338,43.3013411 399.877325,44.5493286 401.456,45.488 C403.034675,46.4266714 405.018655,46.896 407.408,46.896 L407.408,46.896 Z M438.576,9.2 L437.744,12.4 C439.920011,12.058665 442.042656,11.6320026 444.112,11.12 C446.181344,10.6079974 448.197324,9.84000512 450.16,8.816 L442.224,46 L446.256,46 L455.856,1.2 L452.784,1.2 C452.015996,2.39467264 451.109339,3.45066208 450.064,4.368 C449.018661,5.28533792 447.866673,6.0639968 446.608,6.704 C445.349327,7.3440032 444.03734,7.86666464 442.672,8.272 C441.30666,8.67733536 439.94134,8.9866656 438.576,9.2 L438.576,9.2 Z M475.952,1.776 L468.592,24.56 L472.176,24.88 C473.242672,22.9599904 474.650658,21.6160038 476.4,20.848 C478.149342,20.0799962 480.04799,19.696 482.096,19.696 C485.424017,19.696 487.887992,20.666657 489.488,22.608 C491.088008,24.549343 491.888,27.0773178 491.888,30.192 C491.888,31.984009 491.589336,33.679992 490.992,35.28 C490.394664,36.880008 489.541339,38.2986605 488.432,39.536 C487.322661,40.7733395 486.000008,41.754663 484.464,42.48 C482.927992,43.205337 481.20001,43.568 479.28,43.568 C476.079984,43.568 473.616009,42.672009 471.888,40.88 C470.159991,39.087991 469.445332,36.5706829 469.744,33.328 L465.712,33.328 C465.583999,35.4186771 465.807997,37.3066582 466.384,38.992 C466.960003,40.6773418 467.823994,42.1066608 468.976,43.28 C470.128006,44.4533392 471.535992,45.3493302 473.2,45.968 C474.864008,46.5866698 476.741323,46.896 478.832,46.896 C481.392013,46.896 483.717323,46.4693376 485.808,45.616 C487.898677,44.7626624 489.701326,43.5680077 491.216,42.032 C492.730674,40.4959923 493.893329,38.661344 494.704,36.528 C495.514671,34.394656 495.92,32.0480128 495.92,29.488 C495.92,27.6106573 495.632003,25.872008 495.056,24.272 C494.479997,22.671992 493.658672,21.2853392 492.592,20.112 C491.525328,18.9386608 490.224008,18.0106701 488.688,17.328 C487.151992,16.6453299 485.42401,16.304 483.504,16.304 C481.669324,16.304 479.877342,16.5813306 478.128,17.136 C476.378658,17.6906694 474.88534,18.5866605 473.648,19.824 L473.52,19.824 L478.32,5.488 L497.904,5.488 L498.8,1.776 L475.952,1.776 Z" id="2015" fill-opacity="0.498216712"></path>
            </g>
            <g id="堅持----在濁水溪以南-+-Type-something" transform="translate(2.000000, 57.000000)" sketch:type="MSShapeGroup">
                <path d="M19.592,3.096 C18.896,5.496 17.744,7.584 16.328,9.264 C15.032,7.536 14.048,5.448 13.376,3.096 L19.592,3.096 Z M20.264,1.944 L20.048,1.992 L11.432,1.992 L11.432,3.096 L12.296,3.096 C13.064,5.784 14.168,8.136 15.632,10.08 C14.24,11.568 12.68,12.672 11.096,13.368 C11.336,13.584 11.648,14.04 11.816,14.304 C13.376,13.512 14.912,12.384 16.304,10.92 C17.672,12.504 19.256,13.776 21.104,14.616 C21.272,14.328 21.584,13.92 21.848,13.704 C20,12.936 18.368,11.712 17.024,10.128 C18.776,8.064 20.192,5.448 20.936,2.256 L20.264,1.944 Z M2.456,10.104 L6.08,10.104 L6.08,12.792 L2.456,12.792 L2.456,10.104 Z M6.08,2.976 L6.08,5.496 L2.456,5.496 L2.456,2.976 L6.08,2.976 Z M9.512,9.144 L2.456,9.144 L2.456,6.456 L9.512,6.456 L9.512,9.144 Z M11.096,13.776 L11.096,12.792 L7.16,12.792 L7.16,10.104 L10.568,10.104 L10.568,5.496 L7.16,5.496 L7.16,2.976 L10.52,2.976 L10.52,1.992 L1.376,1.992 L1.376,13.776 L11.096,13.776 Z M11.528,17.4 L19.28,17.4 L19.28,16.368 L11.528,16.368 L11.528,14.424 L10.376,14.424 L10.376,16.368 L2.744,16.368 L2.744,17.4 L10.376,17.4 L10.376,20.88 L0.2,20.88 L0.2,21.936 L21.848,21.936 L21.848,20.88 L11.528,20.88 L11.528,17.4 Z M28.52,1.032 L27.44,1.032 L27.44,6.024 L24.104,6.024 L24.104,7.104 L27.44,7.104 L27.44,12.888 C26.048,13.368 24.776,13.776 23.792,14.088 L24.152,15.216 C25.112,14.904 26.24,14.496 27.44,14.088 L27.44,21.168 C27.44,21.528 27.296,21.624 27.008,21.624 C26.744,21.648 25.736,21.648 24.584,21.624 C24.752,21.96 24.92,22.416 24.968,22.704 C26.48,22.728 27.32,22.68 27.824,22.488 C28.304,22.272 28.52,21.96 28.52,21.192 L28.52,13.728 C29.432,13.392 30.392,13.056 31.328,12.72 L31.16,11.64 L28.52,12.528 L28.52,7.104 L31.352,7.104 L31.352,6.024 L28.52,6.024 L28.52,1.032 Z M34.064,15.864 C35.048,17.208 36.224,19.056 36.8,20.136 L37.688,19.536 C37.088,18.456 35.888,16.68 34.928,15.336 L34.064,15.864 Z M42.56,10.776 L41.48,10.776 L41.48,13.248 L32,13.248 L32,14.328 L41.48,14.328 L41.48,21.192 C41.48,21.528 41.408,21.648 41.024,21.672 C40.616,21.696 39.392,21.72 37.88,21.672 C38.048,22.008 38.216,22.464 38.264,22.824 C40.064,22.824 41.192,22.824 41.792,22.608 C42.392,22.392 42.56,22.032 42.56,21.192 L42.56,14.328 L45.728,14.328 L45.728,13.248 L42.56,13.248 L42.56,10.776 Z M39.392,4.344 L39.392,1.128 L38.264,1.128 L38.264,4.344 L31.712,4.344 L31.712,5.424 L38.264,5.424 L38.264,8.976 L32.912,8.976 L32.912,10.056 L44.744,10.056 L44.744,8.976 L39.392,8.976 L39.392,5.424 L45.92,5.424 L45.92,4.344 L39.392,4.344 Z M90.68,6.072 L90.68,4.944 L77.864,4.944 C78.392,3.744 78.8,2.544 79.184,1.32 L78.008,1.008 C77.648,2.328 77.192,3.648 76.616,4.944 L69.944,4.944 L69.944,6.072 L76.112,6.072 C74.552,9.312 72.344,12.336 69.464,14.448 C69.68,14.688 69.992,15.168 70.136,15.408 C71.312,14.544 72.344,13.56 73.304,12.456 L73.304,22.656 L74.432,22.656 L74.432,11.064 C75.584,9.504 76.544,7.824 77.384,6.072 L90.68,6.072 Z M83.984,21.096 L83.984,13.536 L89.792,13.536 L89.792,12.432 L83.984,12.432 L83.984,7.44 L82.832,7.44 L82.832,12.432 L77.144,12.432 L77.144,13.536 L82.832,13.536 L82.832,21.096 L76.184,21.096 L76.184,22.2 L90.728,22.2 L90.728,21.096 L83.984,21.096 Z M99.056,3.816 C98.24,3.024 96.608,1.944 95.24,1.272 L94.544,2.088 C95.936,2.784 97.568,3.912 98.36,4.776 L99.056,3.816 Z M98.12,10.056 C97.256,9.288 95.504,8.328 94.04,7.728 L93.392,8.568 C94.856,9.192 96.608,10.224 97.472,10.992 L98.12,10.056 Z M94.976,22.416 C96.08,20.28 97.424,17.232 98.36,14.784 L97.448,14.136 C96.44,16.728 94.976,19.896 93.944,21.744 L94.976,22.416 Z M102.104,16.152 L102.104,13.368 L105.152,13.368 L105.152,16.152 L102.104,16.152 Z M109.4,13.368 L109.4,16.152 L106.208,16.152 L106.208,13.368 L109.4,13.368 Z M111.44,20.52 C110.864,19.68 109.712,18.48 108.632,17.592 L107.864,18.072 C108.248,18.432 108.656,18.84 109.064,19.248 L106.208,19.44 L106.208,17.064 L110.432,17.064 L110.432,12.456 L106.208,12.456 L106.208,10.608 L105.152,10.608 L105.152,12.456 L101.096,12.456 L101.096,17.064 L105.152,17.064 L105.152,19.512 C103.112,19.632 101.24,19.752 99.8,19.824 L99.968,20.856 C102.536,20.688 106.232,20.424 109.856,20.16 C110.12,20.496 110.36,20.832 110.552,21.12 L111.44,20.52 Z M101.36,2.856 L104.456,2.856 L104.456,6.048 L101.36,6.048 L101.36,2.856 Z M105.44,2.856 L108.632,2.856 L108.632,6.048 L105.44,6.048 L105.44,2.856 Z M109.616,2.856 L112.928,2.856 L112.928,6.048 L109.616,6.048 L109.616,2.856 Z M114.368,9.048 L102.968,9.048 C103.328,8.4 103.664,7.728 103.976,7.032 L114.008,7.032 L114.008,1.848 L100.28,1.848 L100.28,7.032 L102.752,7.032 C101.72,9.384 100.112,11.592 98.36,13.08 C98.624,13.248 99.08,13.632 99.272,13.848 C100.352,12.84 101.408,11.544 102.344,10.104 L113.264,10.104 C113.048,18.048 112.784,20.808 112.256,21.432 C112.04,21.72 111.848,21.768 111.44,21.768 C111.008,21.768 109.88,21.744 108.632,21.624 C108.8,21.936 108.92,22.368 108.944,22.632 C110.096,22.728 111.2,22.728 111.824,22.704 C112.472,22.68 112.88,22.536 113.216,22.08 C113.912,21.24 114.152,18.384 114.368,9.696 L114.368,9.048 Z M125.264,7.272 L125.024,7.32 L118.232,7.32 L118.232,8.472 L124.616,8.472 C123.416,13.584 120.704,17.352 117.512,19.392 C117.8,19.56 118.232,19.992 118.424,20.28 C121.832,17.952 124.784,13.704 126.008,7.584 L125.264,7.272 Z M136.112,5.712 C134.912,7.416 132.896,9.696 131.288,11.232 C130.352,9.816 129.536,8.328 128.912,6.84 L128.912,1.08 L127.712,1.08 L127.712,21.048 C127.712,21.456 127.568,21.552 127.184,21.576 C126.848,21.6 125.624,21.6 124.208,21.552 C124.4,21.912 124.592,22.44 124.688,22.8 C126.44,22.8 127.472,22.776 128.072,22.56 C128.648,22.344 128.912,21.96 128.912,21.024 L128.912,9.072 C131.24,13.752 134.816,18.048 138.704,20.088 C138.896,19.776 139.256,19.344 139.568,19.104 C136.736,17.736 134.024,15.096 131.84,12.072 C133.52,10.584 135.608,8.304 137.144,6.456 L136.112,5.712 Z M162.896,14.568 C162.2,13.44 160.76,11.64 159.512,10.368 L158.624,10.8 C159.152,11.376 159.704,12 160.232,12.624 L151.28,13.44 C154.184,12.12 157.112,10.416 159.968,8.4 L159.056,7.752 C158.096,8.472 157.016,9.216 155.984,9.864 L150.944,10.08 C152.504,9.336 154.064,8.376 155.6,7.272 L154.616,6.696 C152.912,8.088 150.632,9.336 149.96,9.672 C149.36,9.984 148.808,10.176 148.4,10.2 C148.52,10.488 148.688,11.064 148.736,11.304 C149.096,11.184 149.696,11.088 154.4,10.824 C152.72,11.784 151.328,12.528 150.68,12.816 C149.576,13.344 148.664,13.704 148.064,13.752 C148.208,14.064 148.352,14.64 148.4,14.856 C149,14.64 149.96,14.52 160.88,13.488 C161.336,14.088 161.72,14.664 161.984,15.096 L162.896,14.568 Z M151.52,7.032 C151.304,6.312 150.704,5.112 150.128,4.224 L149.216,4.488 C149.768,5.4 150.344,6.624 150.536,7.392 L151.52,7.032 Z M156.344,6.6 C156.152,5.832 155.6,4.56 155.024,3.624 L154.088,3.888 C154.616,4.848 155.144,6.12 155.336,6.936 L156.344,6.6 Z M160.664,3.192 C160.184,4.2 159.32,5.736 158.624,6.672 L159.488,7.008 C160.16,6.144 161,4.776 161.672,3.576 L160.664,3.192 Z M161.6,1.152 C158.528,1.944 152.696,2.472 147.992,2.76 C148.136,3.024 148.28,3.408 148.328,3.696 C153.032,3.456 158.864,2.928 162.272,2.088 L161.6,1.152 Z M146.264,10.08 C145.328,9.336 143.504,8.328 142.04,7.752 L141.392,8.592 C142.88,9.24 144.68,10.272 145.592,11.04 L146.264,10.08 Z M143.072,22.152 C144.2,20.016 145.592,16.944 146.6,14.448 L145.664,13.752 C144.608,16.392 143.096,19.56 142.04,21.456 L143.072,22.152 Z M142.64,2.16 C144.08,2.904 145.784,4.032 146.648,4.848 L147.344,3.912 C146.504,3.12 144.752,2.04 143.336,1.344 L142.64,2.16 Z M162.848,17.52 L162.848,16.536 L155.12,16.536 C155.312,15.888 155.456,15.168 155.552,14.424 L154.448,14.424 C154.328,15.168 154.184,15.888 153.992,16.536 L147.296,16.536 L147.296,17.52 L153.632,17.52 C152.672,19.632 150.824,21.048 147.008,21.84 C147.224,22.056 147.512,22.488 147.632,22.752 C151.808,21.768 153.824,20.112 154.832,17.52 L162.848,17.52 Z M155.384,18.624 C157.856,19.776 160.832,21.576 162.344,22.824 L162.944,21.984 C161.408,20.76 158.432,19.032 155.96,17.904 L155.384,18.624 Z M178.088,9.792 C177.44,8.184 175.856,5.832 174.272,4.08 L173.288,4.56 C174.824,6.312 176.408,8.736 177.008,10.368 L178.088,9.792 Z M175.256,14.712 C173.432,15.528 171.56,16.368 169.832,17.112 L169.52,2.16 L168.368,2.208 L168.704,17.616 C167.432,18.168 166.28,18.672 165.344,19.056 L165.776,20.208 C168.392,19.056 172.112,17.376 175.52,15.816 L175.256,14.712 Z M187.448,21.816 C186.104,20.04 183.416,17.16 181.16,14.952 C182.912,11.712 183.848,7.608 184.472,2.28 L183.248,2.16 C182.072,12.912 179.504,18.768 170.84,21.864 C171.128,22.104 171.584,22.584 171.776,22.824 C175.88,21.192 178.64,19.008 180.56,15.96 C182.744,18.192 185.24,20.928 186.464,22.656 L187.448,21.816 Z M206.624,17.784 L206.624,16.776 L200.792,16.776 L200.792,13.824 L206.264,13.824 L206.264,12.816 L202.976,12.816 C203.528,11.856 204.128,10.68 204.608,9.6 L203.552,9.312 C203.216,10.32 202.496,11.76 201.92,12.816 L194.6,12.816 L194.6,13.824 L199.688,13.824 L199.688,16.776 L194.096,16.776 L194.096,17.784 L199.688,17.784 L199.688,22.416 L200.792,22.416 L200.792,17.784 L206.624,17.784 Z M195.968,9.696 C196.64,10.608 197.264,11.856 197.504,12.696 L198.464,12.36 C198.2,11.52 197.576,10.32 196.88,9.384 L195.968,9.696 Z M210.824,4.776 L210.824,3.672 L200.864,3.672 C200.936,2.808 201.032,1.92 201.104,1.128 L199.88,0.984 C199.856,1.776 199.784,2.712 199.712,3.672 L189.848,3.672 L189.848,4.776 L199.616,4.776 C199.52,5.832 199.4,6.912 199.28,7.752 L191.408,7.752 L191.408,22.752 L192.536,22.752 L192.536,8.832 L208.16,8.832 L208.16,21.168 C208.16,21.576 208.064,21.696 207.608,21.72 C207.2,21.744 205.736,21.744 204.032,21.672 C204.224,22.032 204.368,22.464 204.464,22.8 C206.432,22.8 207.752,22.8 208.448,22.608 C209.096,22.416 209.336,22.032 209.336,21.144 L209.336,7.752 L200.36,7.752 C200.48,6.888 200.624,5.832 200.744,4.776 L210.824,4.776 Z" id="堅持----在濁水溪以南" fill-opacity="0.504189312"></path>
                <path d="M51.08,24.08 C53.336,23.216 54.872,21.392 54.872,18.872 C54.872,17.384 54.272,16.424 53.144,16.424 C52.352,16.424 51.656,16.904 51.656,17.888 C51.656,18.872 52.28,19.352 53.144,19.352 C53.312,19.352 53.48,19.328 53.648,19.28 C53.552,21.176 52.52,22.352 50.672,23.216 L51.08,24.08 Z" id="Type-something" fill-opacity="0.5"></path>
            </g>
        </g>
    </g>
</svg>