<?xml version="1.0" encoding="utf-8"?>
<!-- Generator: Adobe Illustrator 22.0.0, SVG Export Plug-In . SVG Version: 6.00 Build 0)  -->
<svg version="1.1" id="圖層_1" xmlns="http://www.w3.org/2000/svg" xmlns:xlink="http://www.w3.org/1999/xlink" x="0px" y="0px"
	 viewBox="0 0 32 32" style="enable-background:new 0 0 32 32;" xml:space="preserve">
<style type="text/css">
	.st0{opacity:0.2;}
	.st1{fill:#231F20;}
	.st2{fill:#333333;}
	.st3{fill:#C75C5C;}
</style>
<g class="st0">
	<path class="st1" d="M25,17.1v4.2c0,0.4-0.4,0.6-0.7,0.4l-2.2-1.6v-1.9l2.2-1.6C24.7,16.5,25,16.7,25,17.1z"/>
	<path class="st1" d="M19.3,15.3H9.7c-1.1,0-1.9,0.9-1.9,1.9V22c0,1.1,0.9,1.9,1.9,1.9h9.6c1.1,0,1.9-0.9,1.9-1.9v-4.8
		C21.2,16.2,20.4,15.3,19.3,15.3z M11.6,17.8c0,0.2-0.2,0.4-0.4,0.4h-1.1c-0.2,0-0.4-0.2-0.4-0.4v-0.2c0-0.2,0.2-0.4,0.4-0.4h1.1
		c0.2,0,0.4,0.2,0.4,0.4V17.8z"/>
	<path class="st1" d="M17.7,6.7c-1.2,0-2.4,0.6-3.1,1.5c-0.7-0.9-1.8-1.5-3.1-1.5c-2.1,0-3.8,1.7-3.8,3.8c0,2.1,1.7,3.8,3.8,3.8
		c1.2,0,4.9,0,6.1,0c2.1,0,3.8-1.7,3.8-3.8C21.6,8.4,19.9,6.7,17.7,6.7z M11.6,12.5c-1.1,0-1.9-0.9-1.9-1.9c0-1.1,0.9-1.9,1.9-1.9
		c1.1,0,1.9,0.9,1.9,1.9C13.5,11.6,12.7,12.5,11.6,12.5z M17.7,12.5c-1.1,0-1.9-0.9-1.9-1.9c0-1.1,0.9-1.9,1.9-1.9
		c1.1,0,1.9,0.9,1.9,1.9C19.7,11.6,18.8,12.5,17.7,12.5z"/>
</g>
<g>
	<path class="st2" d="M24.4,16.2v4.2c0,0.4-0.4,0.6-0.7,0.4l-2.2-1.6v-1.9l2.2-1.6C24.1,15.6,24.4,15.9,24.4,16.2z"/>
	<path class="st2" d="M18.7,14.5H9.1c-1.1,0-1.9,0.9-1.9,1.9v4.8c0,1.1,0.9,1.9,1.9,1.9h9.6c1.1,0,1.9-0.9,1.9-1.9v-4.8
		C20.6,15.3,19.7,14.5,18.7,14.5z M11,17c0,0.2-0.2,0.4-0.4,0.4H9.5c-0.2,0-0.4-0.2-0.4-0.4v-0.2c0-0.2,0.2-0.4,0.4-0.4h1.1
		c0.2,0,0.4,0.2,0.4,0.4V17z"/>
	<path class="st2" d="M17.1,5.9c-1.2,0-2.4,0.6-3.1,1.5c-0.7-0.9-1.8-1.5-3.1-1.5c-2.1,0-3.8,1.7-3.8,3.8c0,2.1,1.7,3.8,3.8,3.8
		c1.2,0,4.9,0,6.1,0c2.1,0,3.8-1.7,3.8-3.8C21,7.6,19.3,5.9,17.1,5.9z M11,11.6c-1.1,0-1.9-0.9-1.9-1.9c0-1.1,0.9-1.9,1.9-1.9
		c1.1,0,1.9,0.9,1.9,1.9C12.9,10.8,12.1,11.6,11,11.6z M17.1,11.6c-1.1,0-1.9-0.9-1.9-1.9c0-1.1,0.9-1.9,1.9-1.9
		c1.1,0,1.9,0.9,1.9,1.9C19.1,10.8,18.2,11.6,17.1,11.6z"/>
</g>
<g>
	<g class="st0">
		<path class="st1" d="M16,1.7c-8.3,0-15,6.7-15,15s6.7,15,15,15s15-6.7,15-15S24.3,1.7,16,1.7z M26.9,16.7c0,2.3-0.7,4.4-1.9,6.1
			L9.9,7.7c1.7-1.2,3.8-1.9,6.1-1.9C22,5.8,26.9,10.7,26.9,16.7z M5.1,16.7c0-2.3,0.7-4.4,1.9-6.1l15.1,15.1
			c-1.7,1.2-3.8,1.9-6.1,1.9C10,27.5,5.1,22.7,5.1,16.7z"/>
	</g>
	<g>
		<path class="st3" d="M16,4.6c6,0,10.9,4.9,10.9,10.9S22,26.4,16,26.4S5.1,21.5,5.1,15.5S10,4.6,16,4.6 M16,0.5
			c-8.3,0-15,6.7-15,15s6.7,15,15,15s15-6.7,15-15S24.3,0.5,16,0.5L16,0.5z"/>
	</g>
</g>
<g>
	<rect x="14.1" y="4.6" transform="matrix(0.7071 -0.7071 0.7071 0.7071 -6.5674 15.8543)" class="st3" width="3.4" height="22.6"/>
</g>
</svg>
