<?xml version="1.0" encoding="UTF-8" standalone="no"?>
<svg width="517px" height="492px" viewBox="0 0 517 492" version="1.1" xmlns="http://www.w3.org/2000/svg" xmlns:xlink="http://www.w3.org/1999/xlink" xmlns:sketch="http://www.bohemiancoding.com/sketch/ns">
    <!-- Generator: Sketch 3.3.2 (12043) - http://www.bohemiancoding.com/sketch -->
    <title>intro</title>
    <desc>Created with Sketch.</desc>
    <defs>
        <filter x="-50%" y="-50%" width="200%" height="200%" filterUnits="objectBoundingBox" id="filter-1">
            <feOffset dx="0" dy="2" in="SourceAlpha" result="shadowOffsetOuter1"></feOffset>
            <feGaussianBlur stdDeviation="2" in="shadowOffsetOuter1" result="shadowBlurOuter1"></feGaussianBlur>
            <feColorMatrix values="0 0 0 0 0   0 0 0 0 0   0 0 0 0 0  0 0 0 0.35 0" in="shadowBlurOuter1" type="matrix" result="shadowMatrixOuter1"></feColorMatrix>
            <feMerge>
                <feMergeNode in="shadowMatrixOuter1"></feMergeNode>
                <feMergeNode in="SourceGraphic"></feMergeNode>
            </feMerge>
        </filter>
    </defs>
    <g id="Page-1" stroke="none" stroke-width="1" fill="none" fill-rule="evenodd" sketch:type="MSPage">
        <g id="intro" sketch:type="MSArtboardGroup">
            <g id="2015-+-MOPCON-Copy" sketch:type="MSLayerGroup" transform="translate(8.000000, 245.000000)" fill="#FFFFFF">
                <text id="2015" sketch:type="MSTextLayer" font-family="Helvetica Neue" font-size="64" font-style="italic" font-weight="260">
                    <tspan x="358" y="61">2015</tspan>
                </text>
                <g id="Imported-Layers-2-Copy-2" transform="translate(0.000000, 16.000000)" sketch:type="MSShapeGroup">
                    <path d="M0.148791536,1.08539552 L18.3623216,1.08539552 L32.3665137,30.5574207 L45.315215,1.08539552 L63.0009996,1.08539552 L63.0009996,1.87209695 L61.8192539,1.87209695 L56.2867647,6.08311368 L56.2867647,39.7126905 L61.7763272,43.9160693 L63.0009996,43.9160693 L63.0009996,44.7053167 L38.2727174,44.7053167 L38.2727174,43.9160693 L39.5100152,43.9160693 L44.9920025,39.7126905 L44.9920025,4.18382802 L44.8859484,4.18382802 L27.1016849,44.7053167 L26.2330513,44.7053167 L8.32000785,6.58721363 L8.21647884,6.58721363 L8.21647884,33.5845664 L13.7540182,43.9160693 L15.2362506,43.9160693 L15.2362506,44.7053167 L0.204343686,44.7053167 L0.204343686,43.9160693 L1.7547537,43.9160693 L7.29229307,33.5845664 L7.29229307,5.46189961 L1.7547537,1.87209695 L0.148791536,1.87209695 L0.148791536,1.08539552" id="Fill-58"></path>
                    <path d="M93.2592459,0.158666324 C97.3448541,0.158666324 101.127451,0.942821797 104.576734,2.50858679 C108.041168,4.08708157 110.952606,6.35807729 113.313572,9.33175779 C114.879133,11.2488652 116.078554,13.3492816 116.901736,15.6151854 C117.752694,17.9014569 118.159235,20.2157339 118.159235,22.5656544 C118.159235,26.6671949 117.055767,30.4530364 114.848832,33.9155411 C112.646946,37.3831377 109.659756,40.1276818 105.879684,42.1542655 C102.112239,44.1833951 98.0241054,45.2043248 93.6380106,45.2043248 C89.3301938,45.2043248 85.2925625,44.1833951 81.5301669,42.1542655 C77.7829218,40.1276818 74.7932061,37.4009594 72.5786954,33.9588224 C70.3717599,30.5217773 69.2556667,26.847958 69.2556667,22.9068129 C69.2556667,19.958592 69.9020918,17.0943878 71.1848414,14.3472977 C72.4524405,11.5823858 74.2250591,9.130627 76.4774463,6.99202117 C78.7273084,4.84323149 81.300383,3.17308217 84.2042454,1.95865957 C87.1005325,0.767150603 90.1205494,0.158666324 93.2592459,0.158666324 L93.2592459,0.158666324 Z M94.0824278,1.56658183 C91.5623802,1.56658183 89.5347268,1.98921108 87.991892,2.82937766 C86.4364318,3.69500383 85.22691,5.03417844 84.3380756,6.86981512 C83.7244768,8.23699528 83.2623839,9.76202492 82.9694726,11.44745 C82.7346385,12.8757332 82.5477813,14.7775648 82.3988005,17.1503989 C82.2649703,19.5436007 82.1866923,22.0488246 82.1866923,24.6889845 C82.1866923,26.1249055 82.2422445,27.7517735 82.358399,29.5721345 C82.461928,31.3975873 82.6109087,32.9226169 82.8129165,34.1497693 C83.3684381,37.1463635 84.4062532,39.4224511 85.9440378,40.9831242 C87.6964556,42.9027775 90.3806345,43.8524203 93.9864741,43.8524203 C96.2413864,43.8524203 98.1301595,43.4119694 99.6603687,42.5132457 C101.190578,41.6247059 102.4001,40.2575258 103.283884,38.4193431 C103.846981,37.301667 104.304023,35.8122808 104.660062,33.9588224 C104.87217,32.7138483 105.043877,30.9342227 105.187808,28.6275836 C105.316588,26.3107606 105.38729,23.8666396 105.38729,21.2824909 C105.38729,16.4018868 105.016101,12.5167529 104.301498,9.63727291 C103.566695,6.76543079 102.392524,4.71338757 100.758786,3.44549982 C99.1351484,2.19034187 96.9054871,1.56658183 94.0824278,1.56658183 L94.0824278,1.56658183 Z" id="Fill-59"></path>
                    <path d="M123.295284,1.08539552 L150.225451,1.08539552 C151.743035,1.08539552 153.328796,1.22287732 154.982735,1.50038689 C156.656875,1.76516666 158.156783,2.1572444 159.505185,2.66643626 C160.843487,3.17817409 161.962105,3.76374473 162.843365,4.43333204 C164.381149,5.500089 165.57552,6.82653381 166.441629,8.43558011 C167.302687,10.0522643 167.729429,11.8089762 167.729429,13.7082619 C167.729429,16.2542212 166.994625,18.4386543 165.522493,20.2284637 C164.060462,22.0055433 161.898978,23.3727235 159.068343,24.2841769 C156.217508,25.2058142 152.793476,25.656449 148.755844,25.656449 L141.397709,25.656449 L141.397709,39.6414036 L146.887272,43.9160693 L148.215473,43.9160693 L148.215473,44.7053167 L123.348311,44.7053167 L123.348311,43.9160693 L124.519956,43.9160693 L130.004468,39.7126905 L130.004468,6.08311368 L124.370975,1.87209695 L123.295284,1.87209695 L123.295284,1.08539552 L123.295284,1.08539552 Z M141.397709,2.25144489 L141.397709,24.4980375 L146.488306,24.4980375 C148.308902,24.4980375 149.834061,24.2841769 151.056208,23.843726 C152.283406,23.4109129 153.258094,22.7387796 153.980272,21.8171423 C155.444828,19.9076728 156.187207,16.9187166 156.187207,12.8630034 C156.187207,10.505445 155.87157,8.54505636 155.247871,6.98183733 C154.624171,5.40334254 153.679785,4.2169255 152.439962,3.43786194 C151.187513,2.64352263 149.662354,2.25144489 147.813983,2.25144489 L141.397709,2.25144489 L141.397709,2.25144489 Z" id="Fill-60"></path>
                    <path d="M217.375376,28.47228 L218.26421,28.8363522 C217.653136,30.7585515 217.077414,32.2886731 216.534518,33.4445386 C215.994147,34.6004041 215.266919,35.7893671 214.347783,37.0216115 C210.267225,42.4750563 204.737261,45.2043248 197.745266,45.2043248 C193.917218,45.2043248 190.202799,44.3386986 186.581809,42.6074462 C182.965869,40.8787398 179.928176,38.493176 177.473781,35.4278409 C174.638096,31.8838655 173.218991,27.7517735 173.218991,23.0341109 C173.218991,17.0052792 175.663286,11.5823858 180.55945,6.80107422 C184.930395,2.50604083 190.132096,0.339429436 196.189805,0.339429436 C198.139181,0.339429436 199.919375,0.58893345 201.507661,1.08539552 C203.106048,1.58440355 204.82059,2.45002972 206.658861,3.65172252 C207.878483,4.50207294 208.810244,4.92724815 209.428893,4.92724815 C210.037442,4.92724815 210.782345,4.63700879 211.691381,4.05907602 C212.597891,3.49896496 213.749335,2.57223577 215.181066,1.27379651 C215.446201,1.03193037 215.595182,0.886810692 215.635583,0.840983424 L216.150703,0.40053246 L216.706225,0.40053246 L217.324874,16.5724661 L216.746626,16.5724661 C215.375498,14.32693 214.070023,12.386909 212.817574,10.7625869 C210.767195,8.14534074 208.295124,6.01182682 205.398837,4.35186134 C202.492449,2.70207969 199.772919,1.87209695 197.209945,1.87209695 C195.912045,1.87209695 194.646971,2.17252015 193.439974,2.77336656 C192.212777,3.37675892 191.164861,4.24238509 190.306328,5.37024507 C187.495894,8.98805328 186.094465,14.5738881 186.094465,22.1277494 C186.094465,23.7724391 186.203044,25.5164213 186.422727,27.3698796 C186.657561,29.2055163 186.970674,30.8909414 187.354488,32.3930574 C187.745879,33.920633 188.195346,35.2139803 188.700366,36.2756454 C189.495771,37.9177891 190.437633,39.2875153 191.528475,40.3797318 C192.614267,41.4694024 193.84904,42.2993852 195.227743,42.872226 C196.608972,43.4476128 198.098779,43.7327603 199.719892,43.7327603 C201.383932,43.7327603 203.068172,43.434883 204.749887,42.8518583 C206.439177,42.2713796 208.042614,41.4006615 209.565248,40.2371581 C211.080307,39.0711087 212.400933,37.7497558 213.524602,36.2756454 C214.421011,35.0892283 215.143189,33.9588224 215.67346,32.8818816 C216.206255,31.8151246 216.776927,30.3435601 217.375376,28.47228" id="Fill-61"></path>
                    <path d="M247.729576,0.158666324 C251.827809,0.158666324 255.595255,0.942821797 259.064739,2.50858679 C262.519073,4.08708157 265.427986,6.35807729 267.801578,9.33175779 C269.351988,11.2488652 270.546359,13.3492816 271.382166,15.6151854 C272.225549,17.9014569 272.644715,20.2157339 272.644715,22.5656544 C272.644715,26.6671949 271.536197,30.4530364 269.321686,33.9155411 C267.122326,37.3831377 264.132611,40.1276818 260.357589,42.1542655 C256.590144,44.1833951 252.504535,45.2043248 248.115916,45.2043248 C243.800524,45.2043248 239.778043,44.1833951 236.018172,42.1542655 C232.263352,40.1276818 229.278686,37.4009594 227.05155,33.9588224 C224.844615,30.5217773 223.746197,26.847958 223.746197,22.9068129 C223.746197,19.958592 224.374947,17.0943878 225.657696,14.3472977 C226.932871,11.5823858 228.695389,9.130627 230.955351,6.99202117 C233.210264,4.84323149 235.790913,3.17308217 238.68215,1.95865957 C241.573387,0.767150603 244.60098,0.158666324 247.729576,0.158666324 L247.729576,0.158666324 Z M248.562858,1.56658183 C246.04281,1.56658183 244.012632,1.98921108 242.457172,2.82937766 C240.932012,3.69500383 239.709865,5.03417844 238.81093,6.86981512 C238.202382,8.23699528 237.745339,9.76202492 237.439802,11.44745 C237.207493,12.8757332 237.025686,14.7775648 236.886806,17.1503989 C236.737825,19.5436007 236.662072,22.0488246 236.662072,24.6889845 C236.662072,26.1249055 236.73025,27.7517735 236.823678,29.5721345 C236.929733,31.3975873 237.098914,32.9226169 237.285771,34.1497693 C237.838768,37.1463635 238.881633,39.4224511 240.416893,40.9831242 C242.184461,42.9027775 244.861065,43.8524203 248.459329,43.8524203 C250.721816,43.8524203 252.61059,43.4119694 254.140799,42.5132457 C255.665958,41.6247059 256.872955,40.2575258 257.764314,38.4193431 C258.324886,37.301667 258.784454,35.8122808 259.132917,33.9588224 C259.345025,32.7138483 259.524307,30.9342227 259.665713,28.6275836 C259.794493,26.3107606 259.860145,23.8666396 259.860145,21.2824909 C259.860145,16.4018868 259.501581,12.5167529 258.774353,9.63727291 C258.047125,6.76543079 256.862854,4.71338757 255.244267,3.44549982 C253.608003,2.19034187 251.378342,1.56658183 248.562858,1.56658183 L248.562858,1.56658183 Z" id="Fill-62"></path>
                    <path d="M278.023173,1.08539552 L296.787175,1.08539552 L299.991524,4.20674166 L310.215645,14.202178 L320.449866,24.2841769 L323.687041,27.4309827 L323.687041,11.7402353 L318.076274,1.83645352 L316.56879,1.83645352 L316.56879,1.08539552 L331.552721,1.08539552 L331.529995,1.83645352 L330.004836,1.83645352 L324.661729,11.6180293 L324.661729,44.7053167 L323.40423,44.7053167 L319.025711,40.3848237 L305.32453,26.9421585 L291.600624,13.5453205 L287.209479,9.27065477 L287.209479,33.4903659 L292.835397,43.9542587 L294.406008,43.9542587 L294.406008,44.7053167 L279.298348,44.7053167 L279.321074,43.9160693 L280.800781,43.9160693 L286.239841,33.7424158 L286.239841,8.35665537 L279.553383,1.83645352 L278.023173,1.83645352 L278.023173,1.08539552" id="Fill-63"></path>
                </g>
            </g>
            <g id="堅持----在濁水溪以南-+-Type-something-Copy" sketch:type="MSLayerGroup" transform="translate(7.546771, 292.489639)" font-size="24" font-family="Noto Sans CJK TC" fill="#FFFFFF" font-weight="260">
                <text id="堅持----在濁水溪以南" sketch:type="MSTextLayer">
                    <tspan x="0" y="21">堅持    在濁水溪以南</tspan>
                </text>
                <text id="Type-something" sketch:type="MSTextLayer">
                    <tspan x="42" y="29">，</tspan>
                </text>
            </g>
            <g id="Fill-1-+-Fill-2-+-Fill-3-2-Copy" sketch:type="MSLayerGroup" transform="translate(138.545115, 2.574139)" fill="#FFFFFF">
                <path d="M181.285047,148.365832 C185.413589,128.667916 179.088208,110.266416 178.018195,107.398157 C179.050331,110.256919 184.930664,128.758143 172.511893,151.034643 C170.973159,152.682468 169.155085,154.781426 166.948776,157.383754 C155.893561,172.736541 138.678676,181.550267 119.730937,181.550267 C107.236413,181.550267 95.1159204,177.699011 84.7093413,170.404894 C58.5555919,152.103117 59.9428201,125.870888 59.9570239,125.619203 L60.0753881,123.952384 L4.30218471,134.565894 L4.71409207,135.905048 C4.84665984,136.370428 19.1213804,182.257833 70.7471029,202.003237 C81.5229776,206.09668 92.6350073,208.091166 103.836994,208.091166 L103.851197,208.091166 C136.993169,208.091166 168.733709,188.830138 177.644165,163.158264 C180.854202,153.902903 181.483899,150.175115 181.285047,148.365832 L181.285047,148.365832 L181.285047,148.365832 Z M103.851197,204.325387 L103.836994,204.325387 C92.9522238,204.325387 82.1337373,202.981484 71.6750781,198.997262 C26.2090278,181.621497 10.4003074,144.243896 7.6211164,136.569877 L19.0550964,134.399687 L26.043318,135.263964 C26.043318,135.263964 36.2368415,176.587798 80.8554042,195.87257 C102.478173,205.218157 122.775264,203.897999 139.44094,196.779586 C128.594047,201.556853 116.350455,204.325387 103.851197,204.325387 L103.851197,204.325387 L103.851197,204.325387 Z" id="Fill-1" sketch:type="MSShapeGroup"></path>
                <path d="M224.232307,103.86032 C210.440512,74.5318903 186.620905,59.6682268 165.125969,54.2688706 L186.715596,3.94136121 L185.347305,3.51397153 C184.949602,3.38100586 174.973868,0.322795249 159.643339,0.322795249 C143.238064,0.322795249 118.509418,3.97935141 93.7760385,21.4073529 C73.2422199,35.9006118 59.791314,57.1656228 55.9610489,81.2941447 C52.9072531,100.464946 56.6901724,119.403058 66.0409429,131.982561 C71.9023373,139.841782 74.6436518,142.467854 76.2628738,143.313136 C90.2251137,157.777903 108.988204,162.82585 111.961511,163.542915 C108.988204,162.816352 90.4334333,157.331518 79.0041888,134.565894 C78.4975888,132.386207 77.8063427,129.707898 76.873633,126.398002 C65.7284614,95.9061231 81.2199653,62.6694521 112.131957,50.7120386 C119.366375,47.9150106 126.686016,46.4951271 133.868354,46.4951271 C145.89889,46.4951271 154.965587,50.4840976 159.595994,53.0721794 C154.918241,52.2268976 150.406199,51.818503 146.197168,51.818503 C136.642811,51.818503 127.722886,53.798742 120.374838,57.5170322 C112.065673,61.7529387 108.727803,64.127326 107.468408,65.7086677 C90.8311381,77.0344942 82.6782129,94.7806636 81.4851018,97.5397014 C82.6924155,94.7996587 91.2288413,77.3479133 115.59766,69.9113329 C118.073837,69.7783673 120.971393,69.4934407 124.006251,69.1895192 C127.509831,68.5579322 131.07496,68.2255181 134.583274,68.2255181 C162.450937,68.2255181 186.715596,88.735474 192.283446,117.000178 C198.499934,148.351586 179.367547,166.297204 179.17343,166.477657 L177.947177,167.603117 L225.472763,198.721835 L226.140338,197.45866 C226.334455,197.026521 247.829391,154.007376 224.232307,103.86032 L224.232307,103.86032 L224.232307,103.86032 Z M93.2457671,33.2697909 C58.172092,55.8169709 52.9545988,93.6219627 62.6509927,120.913168 C57.8122648,109.758298 56.2403885,95.8063988 58.4845734,81.6977906 C62.220147,58.2673385 75.2686146,37.6054218 95.243755,23.5158086 C119.432659,6.4677091 143.597891,2.89188211 159.643339,2.89188211 C171.356659,2.89188211 179.99251,4.76289917 183.216751,5.57968833 L178.610017,16.354657 L174.012752,21.6447916 C174.012752,21.6447916 134.138224,6.9853255 93.2457671,33.2697909 L93.2457671,33.2697909 L93.2457671,33.2697909 Z M224.450098,194.9798 L214.692154,188.592699 L210.260599,183.117362 C210.260599,183.117362 231.485665,146.247879 212.675228,101.310228 C196.51615,62.7691765 160.206752,51.1584235 131.723595,56.1066461 C136.245108,54.995433 141.121712,54.3923387 146.197168,54.3923387 C172.052641,54.3923387 205.488155,70.0253034 221.921838,104.962036 C242.673448,149.116138 227.735888,187.519476 224.450098,194.9798 L224.450098,194.9798 L224.450098,194.9798 Z" id="Fill-2" sketch:type="MSShapeGroup"></path>
                <path d="M164.448925,120.538015 C164.448925,110.888506 160.168876,102.169756 153.758272,95.9393644 C148.68755,100.265498 139.814972,103.133757 129.886584,103.133757 C119.96293,103.133757 111.170839,100.265498 106.100117,95.9393644 C99.6753098,102.169756 95.7740265,110.888506 95.7740265,120.538015 C95.7740265,131.783112 98.3685683,141.774533 109.651042,148.004925 L109.651042,127.243284 C109.651042,123.439516 115.25677,120.348064 119.049158,120.348064 C122.836813,120.348064 128.45201,123.439516 128.45201,127.243284 L128.45201,154.116598 C128.45201,154.53449 130.071232,154.762431 132.334355,154.762431 C134.498052,154.762431 135.951564,154.548736 135.951564,154.149839 L135.951564,127.243284 C135.951564,123.439516 139.687137,120.348064 143.488996,120.348064 C147.26718,120.348064 151.002755,123.439516 151.002755,127.243284 L151.002755,148.185379 C158.516512,141.973982 164.448925,131.897083 164.448925,120.538015" id="Fill-3" sketch:type="MSShapeGroup"></path>
            </g>
            <text id="行動開發者年會" sketch:type="MSTextLayer" font-family="Noto Sans CJK TC" font-size="38" font-style="condensed" font-weight="260" letter-spacing="39" fill="#FFFFFF">
                <tspan x="8.35968555" y="468">行動開發者年</tspan>
                <tspan x="470.359686" y="468">會</tspan>
            </text>
            <path d="M139.359686,387.255181 L377.662008,387.255181" id="Line" stroke-opacity="0.3" stroke="#FFFFFF" stroke-linecap="square" filter="url(#filter-1)" sketch:type="MSShapeGroup"></path>
        </g>
    </g>
</svg>