<?xml version="1.0" encoding="UTF-8" standalone="no"?>
<svg width="1783px" height="1557px" viewBox="0 0 1783 1557" version="1.1" xmlns="http://www.w3.org/2000/svg" xmlns:xlink="http://www.w3.org/1999/xlink" xmlns:sketch="http://www.bohemiancoding.com/sketch/ns">
    <!-- Generator: Sketch 3.3.2 (12043) - http://www.bohemiancoding.com/sketch -->
    <title>large-logo</title>
    <desc>Created with Sketch.</desc>
    <defs></defs>
    <g id="Page-1" stroke="none" stroke-width="1" fill="none" fill-rule="evenodd" sketch:type="MSPage">
        <g id="large-logo" sketch:type="MSArtboardGroup" fill="#056c61">
            <g sketch:type="MSLayerGroup" transform="translate(25.000000, 8.000000)">
                <path d="M1199.42064,1003.35402 C1227.3964,869.877341 1184.53446,745.185409 1177.28385,725.749558 C1184.2778,745.121052 1224.12401,870.488734 1139.97215,1021.43837 C1129.5454,1032.60433 1117.2258,1046.82726 1102.27545,1064.46111 C1027.36329,1168.4944 910.712079,1228.21782 782.318736,1228.21782 C697.653553,1228.21782 615.522877,1202.12101 545.005994,1152.69473 C367.783403,1028.67855 377.183515,850.924167 377.279762,849.218704 L378.08182,837.924028 L0.152390638,909.843116 L2.94355026,918.917471 C3.84185372,922.07097 100.569972,1233.01242 450.395312,1366.81089 C523.41461,1394.54881 598.711757,1408.06381 674.61847,1408.06381 L674.714709,1408.06381 C899.290776,1408.06381 1114.37048,1277.54756 1174.74936,1103.59024 C1196.50116,1040.87422 1200.7681,1015.61405 1199.42064,1003.35402 L1199.42064,1003.35402 L1199.42064,1003.35402 Z M674.714709,1382.5462 L674.61847,1382.5462 C600.861273,1382.5462 527.55323,1373.43967 456.683442,1346.44185 C148.597167,1228.70049 41.4743857,975.423028 22.6420789,923.42247 L100.120819,908.716866 L147.474287,914.573365 C147.474287,914.573365 216.547467,1194.59122 518.891011,1325.26837 C665.410848,1388.59577 802.94765,1379.65014 915.87732,1331.41447 C842.376787,1363.78611 759.411968,1382.5462 674.714709,1382.5462 L674.714709,1382.5462 L674.714709,1382.5462 Z" id="Fill-1" sketch:type="MSShapeGroup"></path>
                <path d="M1490.43914,701.776528 C1396.98341,503.041724 1235.57739,402.322821 1089.92377,365.735795 L1236.21903,24.7073846 L1226.94725,21.8113139 C1224.25234,20.9103142 1156.65494,0.18731966 1052.77247,0.18731966 C941.607324,0.18731966 774.041496,24.9648132 606.443592,143.060139 C467.302681,241.269113 376.156882,385.364718 350.202305,548.863997 C329.509226,678.768855 355.142979,807.096965 418.50551,892.337979 C458.223391,945.593499 476.79904,963.388245 487.771184,969.11603 C582.381876,1067.13193 709.524009,1101.33774 729.671682,1106.19671 C709.524009,1101.27339 583.793488,1064.10715 506.346836,909.843116 C502.914023,895.073156 498.230012,876.924447 491.909801,854.495988 C416.388079,647.877436 521.361344,422.659672 730.826653,341.634051 C779.848392,322.680878 829.447622,313.059487 878.116459,313.059487 C959.637568,313.059487 1021.07517,340.089481 1052.45165,357.626797 C1020.75434,351.899013 990.179921,349.131656 961.658758,349.131656 C896.916683,349.131656 836.473641,362.550118 786.681921,387.745933 C730.377499,416.44921 707.759483,432.538492 699.22559,443.253953 C586.488409,519.999825 531.242696,640.251116 523.157957,658.946861 C531.338935,640.37983 589.183318,522.123611 754.310889,471.731982 C771.089923,470.830982 790.724291,468.900268 811.289041,466.84084 C835.029942,462.561091 859.187908,460.308592 882.960885,460.308592 C1071.79727,460.308592 1236.21903,599.287805 1273.94781,790.814611 C1316.07187,1003.25748 1186.42731,1124.86028 1185.11194,1126.08306 L1176.80263,1133.70938 L1498.84469,1344.57551 L1503.3683,1336.01601 C1504.68367,1333.08775 1650.33729,1041.58215 1490.43914,701.776528 L1490.43914,701.776528 L1490.43914,701.776528 Z M602.850376,223.44219 C365.184738,376.226006 329.830049,632.399546 395.534588,817.329747 C362.746482,741.742303 352.095161,647.201685 367.302168,551.599175 C392.615099,392.830145 481.033902,252.821218 616.389108,157.347421 C780.297546,41.8263801 944.04558,17.5959222 1052.77247,17.5959222 C1132.14407,17.5959222 1190.66217,30.2742761 1212.51022,35.8089889 L1181.29415,108.822148 L1150.14224,144.669068 C1150.14224,144.669068 879.945148,45.3338435 602.850376,223.44219 L602.850376,223.44219 L602.850376,223.44219 Z M1491.91492,1319.2188 L1425.79331,1275.93863 L1395.76429,1238.83675 C1395.76429,1238.83675 1539.58921,989.002381 1412.12625,684.496639 C1302.62939,423.335423 1056.59026,344.658837 863.583181,378.188898 C894.221773,370.659115 927.266536,366.572438 961.658758,366.572438 C1136.86017,366.572438 1363.42533,472.504267 1474.78298,709.241955 C1615.39968,1008.43823 1514.18004,1268.66627 1491.91492,1319.2188 L1491.91492,1319.2188 L1491.91492,1319.2188 Z" id="Fill-2" sketch:type="MSShapeGroup"></path>
                <path d="M1085.336,814.787641 C1085.336,749.400802 1056.33361,690.32096 1012.89418,648.102685 C978.534042,677.417356 918.411827,696.853208 851.135256,696.853208 C783.890762,696.853208 724.31394,677.417356 689.953804,648.102685 C646.418134,690.32096 619.982324,749.400802 619.982324,814.787641 C619.982324,890.986478 637.563415,958.690175 714.015521,1000.90845 L714.015521,860.223772 C714.015521,834.448743 752.000959,813.500498 777.698875,813.500498 C803.364716,813.500498 841.414317,834.448743 841.414317,860.223772 L841.414317,1042.32226 C841.414317,1045.15397 852.386466,1046.69854 867.721801,1046.69854 C882.383405,1046.69854 892.23267,1045.25051 892.23267,1042.54751 L892.23267,860.223772 C892.23267,834.448743 917.545596,813.500498 943.307687,813.500498 C968.909353,813.500498 994.222291,834.448743 994.222291,860.223772 L994.222291,1002.13123 C1045.13688,960.041674 1085.336,891.758765 1085.336,814.787641" id="Fill-3" sketch:type="MSShapeGroup"></path>
            </g>
        </g>
    </g>
</svg>