<svg width="800" height="400" viewBox="0 0 800 400" version="1.1" xmlns="http://www.w3.org/2000/svg" xmlns:xlink="http://www.w3.org/1999/xlink">
<title>Group</title>
<desc>Created using Figma</desc>
<g id="Canvas" transform="translate(1725 2177)">
<g id="Group">
<g id="facebook-logo-button">
<g id="Vector">
<use xlink:href="#path0_fill" transform="translate(-1725 -2177)" fill="#171E3D"/>
</g>
</g>
<g id="blog">
<g id="Subtract">
<use xlink:href="#path1_fill" transform="translate(-1325 -2177)" fill="#171E3D"/>
</g>
</g>
<g id="blog">
<g id="Subtract">
<use xlink:href="#path2_fill" transform="translate(-1325 -1977)" fill="#7AB6AD"/>
</g>
</g>
<g id="facebook-logo-button">
<g id="Vector">
<use xlink:href="#path0_fill" transform="translate(-1725 -1977)" fill="#7AB6AD"/>
</g>
</g>
<g id="github">
<g id="Vector">
<use xlink:href="#path3_fill" transform="translate(-1525 -2177)" fill="#171E3D"/>
</g>
</g>
<g id="github">
<g id="Vector">
<use xlink:href="#path4_fill" transform="translate(-1525 -1977)" fill="#7AB6AD"/>
</g>
</g>
<g id="Subtract">
<use xlink:href="#path5_fill" transform="translate(-1125 -2177)" fill="#171E3D"/>
</g>
<g id="Subtract">
<use xlink:href="#path5_fill" transform="translate(-1125 -1977)" fill="#7AB6AD"/>
</g>
</g>
</g>
<defs>
<path id="path0_fill" d="M 100 0C 44.775 0 0 44.775 0 100C 0 155.225 44.775 200 100 200C 155.225 200 200 155.225 200 100C 200 44.7627 155.225 0 100 0ZM 125.85 99.9873L 109.462 99.9996L 109.45 159.999L 86.9624 159.999L 86.9624 100L 71.9625 100L 71.9625 79.3249L 86.9624 79.3126L 86.9373 67.1376C 86.9373 50.2628 91.5122 40.0002 111.375 40.0002L 127.925 40.0002L 127.925 60.6877L 117.575 60.6877C 109.837 60.6877 109.462 63.5751 109.462 68.9625L 109.437 79.3126L 128.037 79.3126L 125.85 99.9873Z"/>
<path id="path1_fill" fill-rule="evenodd" d="M 100 200C 155.229 200 200 155.229 200 100C 200 44.7715 155.229 0 100 0C 44.7715 0 0 44.7715 0 100C 0 155.229 44.7715 200 100 200ZM 147.441 119.08C 147.351 134.768 134.537 147.619 118.762 147.619L 85.8157 147.619C 70.0398 147.619 57.1418 134.768 57.1418 119.08L 57.1418 85.731C 57.1418 70.012 70.0398 57.1423 85.8158 57.1423L 105.869 57.1423C 113.272 58.0151 124.049 64.3291 128.018 72.7312C 128.167 73.0532 128.306 73.3379 128.438 73.6074C 129.274 75.3193 129.808 76.4116 130.591 82.4417C 130.624 82.6848 130.655 82.9236 130.687 83.158C 131.118 86.3989 131.438 88.804 132.941 90.1763C 134.207 91.3262 137.387 91.4019 140.244 91.4697C 142.512 91.5237 144.575 91.573 145.312 92.1511L 146.593 93.1421L 147.351 94.7229L 147.618 95.9797L 147.441 119.08ZM 102.08 80.498L 86.181 80.498C 83.145 80.498 80.6917 82.9624 80.6917 85.957C 80.6917 88.9385 83.145 91.4238 86.181 91.4238L 102.08 91.4238C 105.115 91.4238 107.573 88.9395 107.573 85.957C 107.573 82.9622 105.115 80.498 102.08 80.498ZM 86.181 113.218C 83.145 113.218 80.6917 115.663 80.6917 118.657C 80.6917 121.611 83.145 124.096 86.181 124.096L 118.486 124.096C 121.502 124.096 123.951 121.611 123.951 118.657C 123.951 115.663 121.502 113.218 118.486 113.218L 86.181 113.218Z"/>
<path id="path2_fill" fill-rule="evenodd" d="M 100 200C 155.229 200 200 155.229 200 100C 200 44.7715 155.229 0 100 0C 44.7715 0 0 44.7715 0 100C 0 155.229 44.7715 200 100 200ZM 147.441 119.08C 147.351 134.768 134.537 147.619 118.762 147.619L 85.8157 147.619C 70.0398 147.619 57.1418 134.768 57.1418 119.08L 57.1418 85.731C 57.1418 70.012 70.0398 57.1425 85.8158 57.1425L 105.869 57.1425C 113.272 58.0153 124.049 64.3293 128.018 72.7314C 128.167 73.0533 128.306 73.3383 128.438 73.6078C 129.274 75.3195 129.808 76.4119 130.591 82.4417C 130.624 82.6848 130.655 82.9237 130.687 83.1581C 131.118 86.399 131.438 88.804 132.941 90.1764C 134.207 91.3264 137.388 91.4021 140.244 91.47C 142.512 91.5239 144.575 91.573 145.312 92.1511L 146.593 93.1421L 147.351 94.7231L 147.618 95.9797L 147.441 119.08ZM 102.08 80.4983L 86.181 80.4983C 83.145 80.4983 80.6917 82.9625 80.6917 85.9572C 80.6917 88.9386 83.145 91.424 86.181 91.424L 102.08 91.424C 105.115 91.424 107.573 88.9397 107.573 85.9572C 107.573 82.9623 105.115 80.4983 102.08 80.4983ZM 86.181 113.218C 83.145 113.218 80.6917 115.663 80.6917 118.658C 80.6917 121.612 83.145 124.096 86.181 124.096L 118.486 124.096C 121.502 124.096 123.951 121.612 123.951 118.658C 123.951 115.663 121.502 113.218 118.486 113.218L 86.181 113.218Z"/>
<path id="path3_fill" d="M 186.613 50.9757C 177.622 35.2121 165.435 22.9288 150.25 13.7164C 134.865 4.50388 118.082 0 100.1 0C 81.9181 0 65.1349 4.50388 49.7502 13.7164C 34.3656 22.9288 22.3776 35.2121 13.3866 50.9757C 4.3956 66.7393 0 83.9359 0 102.566C 0 124.88 6.39361 144.943 18.981 162.754C 31.7682 180.565 48.1519 192.848 68.3317 199.808C 70.7293 200.218 72.3277 200.013 73.5265 198.785C 74.7253 197.761 75.1249 196.328 75.1249 194.69C 75.1249 194.486 75.1249 192.029 75.1249 187.525C 75.1249 183.021 75.1249 179.131 75.1249 175.651L 72.1279 176.265C 70.1299 176.675 67.7323 176.675 64.9351 176.675C 61.9381 176.675 58.9411 176.265 55.9441 175.651C 52.7473 175.037 49.9501 173.809 47.1528 171.557C 44.5554 169.51 42.5574 166.643 41.3586 163.368L 39.96 160.297C 39.1608 158.25 37.7622 155.998 35.7642 153.541C 33.966 151.085 31.968 149.447 30.1698 148.423L 29.1708 147.809C 28.5714 147.4 27.972 146.785 27.5724 146.171C 26.973 145.557 26.5734 144.943 26.3736 144.329C 26.1738 143.715 26.3736 143.1 26.973 142.691C 27.5724 142.282 28.971 142.077 30.7692 142.077L 33.3666 142.486C 35.1648 142.896 37.1628 143.919 39.7602 145.762C 42.3576 147.604 44.3556 149.856 46.1538 152.722C 48.1518 156.407 50.5495 159.069 53.3467 161.116C 56.1439 162.958 58.9411 163.982 61.9381 163.982C 64.7353 163.982 67.3327 163.777 69.3307 163.368C 71.3287 162.958 73.3267 162.344 75.1249 161.321C 75.9241 155.384 78.1219 150.675 81.5185 147.604C 76.5235 146.99 72.1279 146.171 68.1319 145.148C 64.1359 144.124 60.1399 142.282 55.9441 140.03C 51.7483 137.573 48.1518 134.707 45.5544 131.022C 42.7572 127.542 40.5594 122.833 38.7612 117.101C 36.963 111.369 36.1638 104.613 36.1638 97.0381C 36.1638 86.1878 39.5604 77.1801 46.3536 69.6054C 43.1568 61.4165 43.3566 52.4088 47.3526 42.3774C 49.9501 41.5585 53.5465 42.1727 58.5415 44.2199C 63.5365 46.2671 67.1329 47.9049 69.3307 49.3379C 71.7283 50.771 73.5265 51.9993 74.9251 53.0229C 82.9171 50.771 91.3087 49.5426 99.9001 49.5426C 108.492 49.5426 116.883 50.771 124.875 53.0229L 129.87 49.7474C 133.267 47.7002 137.263 45.6529 141.858 43.8104C 146.454 41.9679 150.05 41.5585 152.448 42.3774C 156.444 52.4088 156.643 61.4165 153.447 69.6054C 160.24 77.1801 163.636 86.3926 163.636 97.0381C 163.636 104.613 162.837 111.369 161.039 117.101C 159.241 122.833 157.043 127.542 154.046 131.022C 151.249 134.502 147.652 137.573 143.457 139.825C 139.261 142.282 135.265 143.919 131.269 144.943C 127.273 145.967 122.877 146.785 117.882 147.4C 122.478 151.494 124.675 157.636 124.675 166.439L 124.675 194.69C 124.675 196.328 125.275 197.556 126.274 198.785C 127.273 199.808 129.071 200.218 131.469 199.808C 151.648 193.053 168.032 180.565 180.819 162.754C 193.606 144.943 200 124.88 200 102.566C 200 83.9359 195.604 66.7393 186.613 50.9757Z"/>
<path id="path4_fill" d="M 186.613 50.9757C 177.622 35.2121 165.435 22.9288 150.25 13.7164C 134.865 4.50388 118.082 0 100.1 0C 81.9181 0 65.1349 4.50388 49.7502 13.7164C 34.3656 22.9288 22.3776 35.2121 13.3866 50.9757C 4.3956 66.7393 0 83.9359 0 102.566C 0 124.88 6.39361 144.943 18.981 162.754C 31.7682 180.565 48.1519 192.848 68.3317 199.808C 70.7293 200.218 72.3277 200.013 73.5265 198.785C 74.7253 197.761 75.1249 196.328 75.1249 194.69C 75.1249 194.486 75.1249 192.029 75.1249 187.525C 75.1249 183.021 75.1249 179.131 75.1249 175.651L 72.1279 176.265C 70.1299 176.675 67.7323 176.675 64.9351 176.675C 61.9381 176.675 58.9411 176.265 55.9441 175.651C 52.7473 175.037 49.9501 173.809 47.1528 171.557C 44.5554 169.51 42.5574 166.643 41.3586 163.368L 39.96 160.297C 39.1608 158.25 37.7622 155.998 35.7642 153.541C 33.966 151.085 31.968 149.447 30.1698 148.423L 29.1708 147.809C 28.5714 147.4 27.972 146.785 27.5724 146.171C 26.973 145.557 26.5734 144.943 26.3736 144.329C 26.1738 143.715 26.3736 143.1 26.973 142.691C 27.5724 142.282 28.971 142.077 30.7692 142.077L 33.3666 142.486C 35.1648 142.896 37.1628 143.919 39.7602 145.762C 42.3576 147.604 44.3556 149.856 46.1538 152.722C 48.1518 156.407 50.5495 159.069 53.3467 161.116C 56.1439 162.958 58.9411 163.982 61.9381 163.982C 64.7353 163.982 67.3327 163.777 69.3307 163.368C 71.3287 162.958 73.3267 162.344 75.1249 161.321C 75.9241 155.384 78.1219 150.675 81.5185 147.604C 76.5235 146.99 72.1279 146.171 68.1319 145.148C 64.1359 144.124 60.1399 142.282 55.9441 140.03C 51.7483 137.573 48.1518 134.707 45.5544 131.022C 42.7572 127.542 40.5594 122.833 38.7612 117.101C 36.963 111.369 36.1638 104.613 36.1638 97.0381C 36.1638 86.1878 39.5604 77.1801 46.3536 69.6054C 43.1568 61.4165 43.3566 52.4088 47.3526 42.3774C 49.9501 41.5585 53.5465 42.1727 58.5415 44.2199C 63.5365 46.2671 67.1329 47.9049 69.3307 49.3379C 71.7283 50.771 73.5265 51.9993 74.9251 53.0229C 82.9171 50.771 91.3087 49.5426 99.9001 49.5426C 108.492 49.5426 116.883 50.771 124.875 53.0229L 129.87 49.7474C 133.267 47.7002 137.263 45.6529 141.858 43.8104C 146.454 41.9679 150.05 41.5585 152.448 42.3774C 156.444 52.4088 156.643 61.4165 153.447 69.6054C 160.24 77.1801 163.636 86.3926 163.636 97.0381C 163.636 104.613 162.837 111.369 161.039 117.101C 159.241 122.833 157.043 127.542 154.046 131.022C 151.249 134.502 147.652 137.573 143.457 139.825C 139.261 142.282 135.265 143.919 131.269 144.943C 127.273 145.967 122.877 146.785 117.882 147.4C 122.478 151.494 124.675 157.636 124.675 166.439L 124.675 194.69C 124.675 196.328 125.275 197.556 126.274 198.785C 127.273 199.808 129.071 200.218 131.469 199.808C 151.648 193.053 168.032 180.565 180.819 162.754C 193.606 144.943 200 124.88 200 102.566C 200 83.9359 195.604 66.7393 186.613 50.9757Z"/>
<path id="path5_fill" fill-rule="evenodd" d="M 100 200C 155.229 200 200 155.229 200 100C 200 44.7715 155.229 0 100 0C 44.7715 0 0 44.7715 0 100C 0 155.229 44.7715 200 100 200ZM 144.896 55.1035C 134.915 45.1248 118.734 45.1248 108.754 55.1035L 89.6061 74.2302C 89.0803 74.7583 88.9286 75.553 89.2228 76.2378C 89.5135 76.9246 90.1929 77.3652 90.9385 77.3511L 91.6138 77.3511C 95.6135 77.3438 99.5757 78.1187 103.278 79.6323C 103.961 79.9136 104.747 79.7549 105.267 79.231L 119.012 65.5063C 123.292 61.2275 130.23 61.2275 134.509 65.5063C 138.789 69.7852 138.789 76.7224 134.509 81.0012L 117.387 98.1021L 117.241 98.2664L 111.254 104.216C 106.978 108.486 100.051 108.486 95.7754 104.216C 92.8937 101.504 88.3986 101.504 85.5171 104.216C 84.2693 105.466 83.517 107.126 83.3996 108.888C 83.2661 110.979 84.0373 113.026 85.5171 114.509C 87.6298 116.631 90.1017 118.361 92.8184 119.619C 93.0703 119.74 93.3223 119.844 93.5743 119.948L 93.5865 119.953C 93.7138 120.005 93.8411 120.058 93.9683 120.112C 94.2117 120.217 94.4625 120.306 94.7112 120.395C 94.8542 120.446 94.9965 120.497 95.1365 120.55C 95.5198 120.696 95.9213 120.824 96.3046 120.934L 97.3817 121.226C 98.1117 121.408 98.842 121.554 99.5902 121.682C 100.492 121.816 101.399 121.901 102.31 121.937L 103.588 121.937L 103.697 121.937L 104.792 121.81C 104.961 121.802 105.133 121.781 105.311 121.76C 105.556 121.731 105.813 121.7 106.089 121.7L 106.709 121.7L 107.969 121.518L 108.553 121.408L 109.611 121.189L 109.812 121.189C 114.296 120.063 118.39 117.742 121.659 114.473L 144.895 91.2397C 154.876 81.261 154.876 65.0823 144.896 55.1035ZM 109.685 90.3086C 108.387 89.0034 106.949 87.8467 105.396 86.8591C 101.282 84.2253 96.4991 82.8257 91.6141 82.8257C 84.8339 82.813 78.3293 85.5066 73.5433 90.3086L 50.3251 113.542C 45.5472 118.328 42.8618 124.813 42.8575 131.575C 42.8485 145.687 54.2823 157.133 68.3959 157.142C 75.1656 157.166 81.6642 154.485 86.4485 149.696L 105.615 130.533C 105.963 130.188 106.157 129.717 106.154 129.227C 106.149 128.219 105.327 127.406 104.318 127.412L 103.588 127.412C 99.5841 127.426 95.6155 126.657 91.9063 125.149C 91.2229 124.868 90.4374 125.026 89.9168 125.551L 76.1354 139.348C 71.856 143.627 64.9177 143.627 60.6383 139.348C 56.3589 135.069 56.3589 128.132 60.6383 123.853L 83.9479 100.565C 88.2239 96.2954 95.1509 96.2954 99.4269 100.565C 102.309 103.277 106.804 103.277 109.685 100.565C 110.925 99.3247 111.677 97.6792 111.803 95.9297C 111.936 93.8391 111.165 91.7915 109.685 90.3086Z"/>
</defs>
</svg>
