<svg width="122" height="153" viewBox="0 0 122 153" version="1.1" xmlns="http://www.w3.org/2000/svg" xmlns:xlink="http://www.w3.org/1999/xlink">
<title>XMLID 122</title>
<desc>Created using Figma</desc>
<g id="Canvas" transform="translate(-923 2307)">
<g id="XMLID 122">
<g id="Group">
<g id="Vector">
<use xlink:href="#path0_fill" transform="translate(923 -2307)" fill="#FFFFFF"/>
</g>
</g>
</g>
</g>
<defs>
<path id="path0_fill" d="M 120.992 64.1568C 121.558 60.5643 121.911 56.6253 122 52.2084C 121.966 33.269 112.925 26.5673 111.186 23.4256C 113.748 9.07541 110.761 2.54799 109.372 0.313469C 104.25 -1.50995 91.5497 5.01971 84.6106 9.6163C 73.2969 6.29521 49.3878 6.61936 40.4217 10.4759C 23.8785 -1.40318 15.1288 0.408092 15.1288 0.408092C 15.1288 0.408092 9.47212 10.5801 13.6334 25.4613C 8.19032 32.417 4.13327 37.3349 4.13327 50.3795C 4.13327 53.5037 4.32677 56.4559 4.65511 59.2962C 9.34269 84.0127 28.8724 94.6758 48.0563 96.5145C 45.1695 98.7142 41.7038 102.877 41.2243 107.701C 37.597 110.052 30.3006 110.83 24.6267 109.041C 16.6768 106.522 13.6334 90.7345 1.72812 92.9866C -0.847904 93.47 -0.33595 95.1738 1.89484 96.6264C 5.52186 98.9856 8.93785 101.918 11.5709 108.194C 13.5932 113.012 17.8467 121.614 31.2945 121.614C 36.633 121.614 40.3722 120.982 40.3722 120.982C 40.3722 120.982 40.4739 133.259 40.4739 138.048C 40.4739 143.558 33.058 145.105 33.058 147.749C 33.058 148.8 35.5125 148.9 37.4851 148.9C 41.3834 148.9 49.4943 145.644 49.4943 139.916C 49.4943 135.365 49.5667 120.071 49.5667 117.392C 49.5667 111.54 52.6942 109.676 52.6942 109.676C 52.6942 109.676 53.077 140.917 51.9416 145.106C 50.61 150.031 48.1979 149.331 48.1979 151.523C 48.1979 154.795 57.9489 152.323 61.1832 145.163C 63.6852 139.57 62.5647 108.934 62.5647 108.934L 65.1733 108.877C 65.1733 108.877 65.2032 122.908 65.1133 129.318C 65.0193 135.958 64.3362 144.351 68.2686 148.312C 70.8497 150.918 78.7572 155.489 78.7572 151.311C 78.7572 148.89 73.2198 146.889 73.2198 140.33L 73.2198 110.112C 76.5838 110.112 77.2791 120.044 77.2791 120.044L 78.4917 138.498C 78.4917 138.498 77.6864 145.232 85.7457 148.042C 88.5908 149.042 94.6772 149.313 94.9625 147.636C 95.2484 145.955 87.6338 143.468 87.5615 138.256C 87.5223 135.082 87.7033 133.224 87.7033 119.417C 87.7033 105.617 85.8547 100.512 79.4129 96.4439C 98.0935 94.5214 117.496 86.1552 120.992 64.1568Z"/>
</defs>
</svg>
