<svg width="210" height="267" viewBox="0 0 210 267" version="1.1" xmlns="http://www.w3.org/2000/svg" xmlns:xlink="http://www.w3.org/1999/xlink">
<title>Group</title>
<desc>Created using Figma</desc>
<g id="Canvas" transform="translate(485 -1459)">
<g id="Group">
<g id="Vector">
<use xlink:href="#path0_fill" transform="translate(-485 1459)" fill="#7BB6AD"/>
</g>
</g>
</g>
<defs>
<path id="path0_fill" d="M 210 267L 210 96.7368C 201.567 96.8991 194.574 101.931 193.34 108.585C 192.723 109.884 192.517 111.345 192.517 112.805L 192.517 167.342C 192.311 174.808 184.496 180.813 175.034 180.813C 165.367 180.813 157.551 174.646 157.551 167.017L 157.551 13.7964C 157.551 6.16778 149.736 2.41864e-09 140.069 2.41864e-09C 130.402 2.41864e-09 122.586 6.16778 122.586 13.7964L 122.586 132.445L 122.586 132.283C 122.586 139.911 114.77 146.079 105.103 146.079C 95.4358 146.079 87.62 139.911 87.62 132.283L 87.4143 132.932L 87.4143 63.1386C 87.4143 55.51 79.5984 49.3422 69.9314 49.3422C 60.2644 49.3422 52.4486 55.51 52.4486 63.1386L 52.4486 157.928C 52.2429 165.394 44.427 171.399 34.9657 171.399C 25.2987 171.399 17.4829 165.232 17.4829 157.603L 17.4829 158.09L 17.4829 110.533C 17.4829 102.905 9.66699 96.7368 0 96.7368L 0 267L 210 267L 210 267Z"/>
</defs>
</svg>
