<svg width="16" height="16" xmlns="http://www.w3.org/2000/svg" fill="none">

 <g>
  <title>Layer 1</title>
  <path fill="none" id="svg_1" stroke-linejoin="round" stroke-linecap="round" stroke-width="0.76191" stroke="#ffffff" d="m13.84654,6.87566l0,-3.80952m0,0l-3.8095,0m3.8095,0l-5.33331,5.33333m-0.76191,-5.33333l-3.80952,0c-0.40414,0 -0.79173,0.16054 -1.0775,0.44631c-0.28577,0.28577 -0.44631,0.67336 -0.44631,1.0775l0,7.61904c0,0.4041 0.16054,0.7917 0.44631,1.0775c0.28577,0.2858 0.67336,0.4463 1.0775,0.4463l8.38094,0c0.4041,0 0.7917,-0.1605 1.0775,-0.4463c0.2858,-0.2858 0.4463,-0.6734 0.4463,-1.0775l0,-3.04761"/>
 </g>
</svg>