<svg width="250" height="26" viewBox="0 0 250 26" fill="none" xmlns="http://www.w3.org/2000/svg">
<g clip-path="url(#clip0_1363_4362)">
<path d="M8.92447 25.6524C7.28503 25.7668 5.64013 25.5284 4.10063 24.9533C2.56114 24.3782 1.16284 23.4797 0 22.3183L2.55806 19.8178C3.39899 20.6524 4.4082 21.2982 5.51839 21.712C6.62858 22.1259 7.81424 22.2983 8.99632 22.2178C12.2873 22.2178 14.1987 20.7806 14.1987 18.3663C14.2234 17.8941 14.1478 17.4219 13.9769 16.981C13.806 16.5401 13.5436 16.1404 13.2071 15.8082C12.4414 15.1395 11.4642 14.7629 10.4478 14.7448L7.47298 14.2418C5.70736 14.0746 4.03624 13.367 2.6874 12.2155C2.05954 11.588 1.57214 10.8344 1.2575 10.0044C0.94285 9.17444 0.808132 8.28709 0.862267 7.40113C0.862267 3.01793 4.03828 -1.01328e-06 9.28374 -1.01328e-06C10.7161 -0.0786536 12.1494 0.135671 13.4961 0.629868C14.8428 1.12406 16.0745 1.88775 17.116 2.87422L14.6729 5.28857C13.9373 4.60896 13.0716 4.0854 12.1281 3.74949C11.1845 3.41358 10.1828 3.27227 9.18315 3.3341C6.19395 3.3341 4.57002 5.02989 4.57002 7.27179C4.5494 7.70678 4.625 8.14096 4.79143 8.54338C4.95787 8.9458 5.21103 9.30655 5.53288 9.59991C6.35835 10.2598 7.35596 10.6688 8.4071 10.7783L11.2813 11.1951C12.9888 11.3344 14.6131 11.9912 15.9376 13.0777C16.6381 13.737 17.1853 14.542 17.5404 15.436C17.8955 16.33 18.0499 17.2911 17.9926 18.2513C17.9926 22.8932 14.1987 25.6524 8.92447 25.6524Z" fill="#231815"/>
<path d="M37.7686 15.0609V25.4369H33.9316V15.0609L26.3867 0.215576H30.5687L35.8573 11.3101L41.1315 0.215576H45.3135L37.7686 15.0609Z" fill="#231815"/>
<path d="M62.5573 25.6525C60.9178 25.7669 59.2729 25.5285 57.7334 24.9534C56.194 24.3782 54.7957 23.4797 53.6328 22.3184L56.1909 19.8178C57.0334 20.6502 58.0429 21.2945 59.1527 21.7082C60.2624 22.1219 61.4473 22.2956 62.6291 22.2178C65.9345 22.2178 67.8458 20.7807 67.8458 18.3664C67.8678 17.8944 67.791 17.4231 67.6202 16.9826C67.4495 16.5421 67.1886 16.1421 66.8542 15.8083C66.0886 15.1396 65.1113 14.763 64.095 14.7448L61.1058 14.3137C59.335 14.1307 57.6663 13.3969 56.3346 12.2155C55.7019 11.591 55.2103 10.8382 54.893 10.0078C54.5757 9.1773 54.44 8.2885 54.4951 7.4012C54.4951 3.01801 57.6711 7.43605e-05 62.9166 7.43605e-05C64.349 -0.0794269 65.7825 0.134502 67.1294 0.628744C68.4762 1.12299 69.7078 1.88712 70.7488 2.8743L68.3057 5.28865C67.571 4.60764 66.7055 4.08318 65.7617 3.74719C64.818 3.41119 63.8157 3.27067 62.816 3.33417C59.8411 3.33417 58.2028 5.02997 58.2028 7.27186C58.1822 7.70685 58.2578 8.14104 58.4242 8.54346C58.5907 8.94588 58.8438 9.30663 59.1657 9.59998C59.9912 10.2599 60.9888 10.6689 62.0399 10.7784L64.9141 11.1952C66.6251 11.3379 68.2531 11.9941 69.5848 13.0778C70.2821 13.7394 70.8272 14.5449 71.1821 15.4383C71.5369 16.3317 71.6931 17.2916 71.6398 18.2514C71.6398 22.8933 67.8458 25.6525 62.5573 25.6525Z" fill="#231815"/>
<path d="M92.3929 3.65027V25.4369H88.5702V3.65027H81.6289V0.215576H99.3485V3.65027H92.3929Z" fill="#231815"/>
<path d="M110.785 25.4369V0.215576H126.895V3.65027H114.608V11.0227H125.099V14.4286H114.608V22.0022H126.895V25.4369H110.785Z" fill="#231815"/>
<path d="M151.645 25.4369L146.141 15.7795L140.68 25.4369H136.297L144.086 12.5173L136.785 0.215576H141.183L146.141 9.25501L151.142 0.215576H155.54L148.225 12.5173L156.057 25.4369H151.645Z" fill="#231815"/>
<path d="M146.139 8.36401L143.48 12.5173L146.139 16.6849L148.783 12.5173L146.139 8.36401Z" fill="#E72410"/>
<path d="M170.17 25.0202H168.532V17.9065C168.064 18.8813 167.521 19.8182 166.908 20.7089L165.27 20.1197C166.573 18.4772 167.588 16.6259 168.273 14.6443H165.399V12.9341H168.517V5.01562H170.156V12.9341H172.915V14.5724H170.156V14.7018C171.234 15.9952 172.225 17.3173 173.159 18.6969L171.823 19.6742C171.349 18.8838 170.802 18.0359 170.156 17.1161L170.17 25.0202ZM166.879 6.62519C167.338 8.23129 167.703 9.86279 167.971 11.5114L166.434 11.6982C166.21 10.0814 165.854 8.48569 165.37 6.92698L166.879 6.62519ZM173.174 7.09944C172.771 8.89583 172.369 10.3904 171.981 11.5976L170.544 11.0515C171.067 9.65544 171.452 8.21141 171.693 6.74016L173.174 7.09944ZM185.159 11.497V12.9341H173.231V11.497H178.204V10.3617H174.122V8.92457H178.204V7.70302H173.705V6.26591H178.204V5.01562H179.928V6.2228H184.8V7.65991H179.928V8.85271H184.239V10.2898H179.928V11.497H185.159ZM175.631 24.7759H173.892V14.6155C173.886 14.5623 173.891 14.5084 173.908 14.4575C173.925 14.4066 173.953 14.3602 173.99 14.3216C174.027 14.2831 174.073 14.2533 174.123 14.2345C174.173 14.2157 174.227 14.2084 174.28 14.2131H184.024C184.079 14.2065 184.135 14.2123 184.187 14.23C184.24 14.2476 184.288 14.2768 184.328 14.3153C184.368 14.3539 184.399 14.4008 184.418 14.4527C184.438 14.5046 184.445 14.5603 184.441 14.6155V22.9939C184.454 23.3084 184.387 23.6213 184.247 23.9029C184.106 24.1845 183.896 24.4256 183.636 24.6035C182.368 25.1135 180.958 25.1442 179.669 24.6897V22.7927C181.107 23.2238 181.926 23.3388 182.256 23.1089C182.398 23.0359 182.517 22.9244 182.598 22.7871C182.679 22.6498 182.72 22.4923 182.716 22.3328V21.1975H175.617L175.631 24.7759ZM182.73 16.9149V15.8083C182.73 15.7221 182.73 15.679 182.587 15.679H175.76C175.743 15.6766 175.725 15.6783 175.708 15.684C175.691 15.6897 175.676 15.6991 175.664 15.7116C175.651 15.7242 175.642 15.7394 175.636 15.7562C175.63 15.7729 175.629 15.7908 175.631 15.8083V16.958L182.73 16.9149ZM182.73 19.6598V18.3951H175.631V19.6598H182.73Z" fill="#231815"/>
<path d="M194.081 8.43595V10.1605H187.484V8.43595H194.081ZM194.713 20.4933C194.894 19.2705 194.985 18.0361 194.986 16.7999V8.62278C194.979 8.55883 194.987 8.49418 195.008 8.43355C195.03 8.37293 195.064 8.31786 195.11 8.27239C195.155 8.22693 195.21 8.1922 195.271 8.17077C195.332 8.14934 195.396 8.14174 195.46 8.14853H200.576C200.576 7.22878 200.576 6.28028 200.576 5.27431L202.301 5.43239C202.301 6.3234 202.301 7.21441 202.301 8.10542H206.612V9.82995H202.301C202.372 12.4261 202.714 15.0077 203.321 17.5329C203.523 17.0538 203.709 16.5748 203.882 16.0958C204.347 14.5192 204.626 12.8939 204.715 11.2527L206.426 11.5401C206.143 14.4093 205.293 17.1936 203.925 19.7317C204.198 20.4646 204.471 21.1688 204.787 21.8442C205.103 22.5196 205.175 22.5628 205.348 22.5628C205.52 22.5628 205.42 22.5628 205.434 22.3616C205.448 22.1604 205.434 21.1975 205.434 19.8035L207.101 20.2203C207.055 21.4594 206.921 22.6937 206.699 23.9136C206.63 24.2098 206.469 24.4765 206.239 24.6753C206.053 24.8411 205.812 24.9331 205.563 24.934C204.643 24.934 203.695 23.7412 202.689 21.3843C201.439 22.9075 199.876 24.1428 198.105 25.0059L196.941 23.6837C198.981 22.8141 200.749 21.4089 202.057 19.6167C201.15 16.4416 200.666 13.1605 200.62 9.85869H196.883C196.725 9.85869 196.653 9.94492 196.653 10.0886V12.2156H199.757C200.145 12.2156 200.332 12.2874 200.347 12.4742V18.2227C200.381 18.7679 200.284 19.3134 200.064 19.8135C199.844 20.3136 199.507 20.7536 199.082 21.0969C198.329 21.337 197.515 21.3065 196.782 21.0107V19.2861C197.53 19.6167 197.961 19.746 198.105 19.6598C198.304 19.5171 198.455 19.3163 198.536 19.085C198.636 18.8833 198.695 18.6633 198.708 18.4383V13.9113C198.708 13.8818 198.702 13.8525 198.691 13.8254C198.679 13.7983 198.662 13.7738 198.64 13.7536C198.619 13.7334 198.593 13.7178 198.565 13.7079C198.537 13.6979 198.508 13.6938 198.478 13.6958H196.725V17.3173C196.766 19.7878 196.276 22.2383 195.288 24.5029L193.851 23.9711C193.83 24.0064 193.801 24.0356 193.766 24.0558C193.73 24.076 193.69 24.0865 193.65 24.0861H188.059C187.915 24.0861 187.829 23.9999 187.829 23.8274V16.7856C187.829 16.6275 187.93 16.5556 188.059 16.5556H193.65C193.808 16.5556 193.894 16.6419 193.894 16.7856V23.152C194.248 22.2928 194.522 21.4029 194.713 20.4933ZM193.42 5.74855V7.47309H188.074V5.74855H193.42ZM193.42 11.1952V12.7904H188.16V11.1377L193.42 11.1952ZM193.42 13.8682V15.5065H188.16V13.8108L193.42 13.8682ZM189.611 18.2514C189.611 18.2514 189.539 18.2514 189.611 18.3233V22.4334C189.611 22.4334 189.611 22.4334 189.611 22.5196H192.069C192.069 22.5196 192.155 22.5196 192.155 22.4334V18.2658C192.155 18.2658 192.155 18.1939 192.069 18.1939L189.611 18.2514ZM204.069 5.01562C204.846 5.47343 205.57 6.01825 206.224 6.63956L205.161 7.93296C204.519 7.34596 203.827 6.81695 203.091 6.35214L204.069 5.01562Z" fill="#231815"/>
<path d="M209.574 19.5303V17.8776H218.613V16.6561H212.419C212.336 16.6688 212.25 16.6614 212.17 16.6346C212.09 16.6078 212.018 16.5623 211.959 16.5019C211.9 16.4416 211.856 16.368 211.831 16.2873C211.806 16.2067 211.801 16.1213 211.816 16.0381V9.9304C211.372 10.4434 210.892 10.9237 210.379 11.3675L208.941 10.1747C210.722 8.82909 212.151 7.07414 213.109 5.05859L214.661 5.82026C214.417 6.29451 214.173 6.74001 213.914 7.15678H218.915C219.231 6.45259 219.519 5.71967 219.792 5.07296L221.416 5.86338C221.128 6.56756 220.956 6.98432 220.869 7.15678H227.638L227.48 8.62263H220.424V9.80106H227.063V11.4106H220.41V12.5172H227.15V14.0693H220.41V15.0896H227.595V16.6561H220.41V17.8776H228.314V19.5303H220.884C223.314 21.097 226.073 22.0807 228.946 22.4045L228.112 24.0716C225.411 23.4676 222.815 22.465 220.41 21.0968V24.7327H218.599V20.8381C215.926 22.5017 212.935 23.5884 209.818 24.0285L209.2 22.2608C212.158 21.9256 215.017 20.9969 217.607 19.5303H209.574ZM218.613 8.62263H213.77C213.74 8.62014 213.71 8.62451 213.681 8.6354C213.653 8.64629 213.628 8.66343 213.607 8.68554C213.586 8.70765 213.571 8.73415 213.562 8.76308C213.552 8.792 213.55 8.82259 213.555 8.85257V9.80106H218.613V8.62263ZM218.613 11.3675H213.555V12.4741H218.613V11.3675ZM218.613 14.0262H213.555V14.8022C213.555 14.9747 213.641 15.0465 213.77 15.0465H218.613V14.0262Z" fill="#231815"/>
<path d="M249.584 24.431H231.922C231.868 24.4334 231.814 24.4241 231.764 24.4036C231.714 24.3831 231.669 24.352 231.632 24.3123C231.595 24.2727 231.567 24.2255 231.55 24.174C231.534 24.1225 231.528 24.068 231.534 24.0142V5.94973C231.527 5.89709 231.532 5.84353 231.549 5.79321C231.566 5.74289 231.595 5.69717 231.632 5.65961C231.67 5.62206 231.716 5.59369 231.766 5.5767C231.816 5.55972 231.87 5.55459 231.922 5.56171H249.584C249.858 5.56171 250.001 5.69105 250.001 5.94973V24.0286C250.003 24.0833 249.994 24.1378 249.974 24.1885C249.953 24.2393 249.922 24.2852 249.883 24.3232C249.844 24.3612 249.797 24.3904 249.745 24.409C249.694 24.4276 249.639 24.4351 249.584 24.431ZM237.685 19.6023H233.992V18.2801H243.894V17.2454L234.567 17.5041L234.409 16.067L240.028 15.9233V14.946H234.797C234.667 14.946 234.61 14.8742 234.61 14.7449V10.0599C234.608 10.0348 234.611 10.0095 234.62 9.98585C234.628 9.96219 234.642 9.9407 234.66 9.9229C234.677 9.90509 234.699 9.8914 234.723 9.88279C234.746 9.87417 234.772 9.87085 234.797 9.87304H239.999V9.12574H233.963V7.8036H239.999V7.04193H233.316C233.201 7.04193 233.144 7.04193 233.144 7.20001V22.7783C233.144 22.9076 233.216 22.9651 233.316 22.9651H243.29C242.696 22.8082 242.115 22.6064 241.551 22.3615V20.7089C242.182 21.0268 242.872 21.208 243.577 21.2406C243.653 21.1961 243.717 21.1358 243.767 21.0638C243.816 20.9918 243.85 20.91 243.865 20.8238V19.6167H237.858C238.492 20.1795 239.083 20.7896 239.625 21.4418L238.519 22.4478C237.989 21.7615 237.382 21.1394 236.708 20.5939L237.685 19.6023ZM240.028 10.9796H236.133V11.6838H239.999L240.028 10.9796ZM239.999 12.9341H236.061V13.7101V13.7964H239.999V12.9341ZM245.431 21.1544C245.43 21.5544 245.321 21.9468 245.115 22.2897C244.869 22.5907 244.547 22.8192 244.181 22.9508H248.133C248.262 22.9508 248.32 22.9508 248.32 22.7639V7.18564C248.32 7.08504 248.32 7.02756 248.133 7.02756H241.479V7.78923H247.228V9.11137H241.479V9.87304H246.682C246.825 9.87304 246.883 9.87304 246.883 10.0599V14.7305C246.888 14.758 246.886 14.7864 246.878 14.8132C246.87 14.8399 246.855 14.8643 246.835 14.8841C246.815 14.9039 246.791 14.9186 246.764 14.9269C246.737 14.9352 246.709 14.9368 246.682 14.9317H246.452C247.026 15.5892 247.554 16.2855 248.032 17.0155L246.84 17.9065C246.692 17.6633 246.519 17.4369 246.322 17.2311H245.431V18.2801H247.889V19.6023H245.46L245.431 21.1544ZM241.479 11.7844H245.402V11.0946H241.537L241.479 11.7844ZM241.479 13.7964H245.345C245.354 13.7839 245.359 13.7688 245.359 13.7532C245.359 13.7377 245.354 13.7226 245.345 13.7101V12.9341H241.422L241.479 13.7964ZM245.402 14.9317H241.479V15.8083H245.173C245.083 15.6972 244.982 15.5961 244.871 15.5065L245.402 14.9317Z" fill="#231815"/>
</g>
<defs>
<clipPath id="clip0_1363_4362">
<rect width="250" height="25.6524" fill="white"/>
</clipPath>
</defs>
</svg>
